
<svg xmlns="http://www.w3.org/2000/svg" version="1.1" xmlns:xlink="http://www.w3.org/1999/xlink" preserveAspectRatio="none" x="0px" y="0px" width="150px" height="200px" viewBox="0 0 150 200">
<defs>
<g id="Layer0_0_MEMBER_0_MEMBER_0_FILL">
<path fill="#B90000" stroke="none" d="
M 107 55.25
Q 100.5 52.85 96.7 52.2 90.5 51.05 85 52.5 82.6 53.15 76.75 55.95 72.5 58.05 68.5 58 64.8 57.95 61.15 56.3 56.6 54.2 54.75 53.85 45.9 52.15 35.15 60.2 29.95 64.15 24.5 70.35 14.55 82.1 12.2 99.05 10.85 108.8 12.15 118.45 15.15 140.7 30.35 158.65 37.25 166.7 44.65 171 52.35 175.5 58.9 174.85 59.55 174.8 65.95 173.35 71.2 172.15 76.75 172.1 82.65 172.05 88.2 173.4 94.1 174.8 96 174.85 107.95 175.15 120.2 159.55 130.05 147 135.85 130.85 140.4 118.25 141.45 110.55 143.3 97.3 138.6 85.5 134.25 74.5 125.15 66.25 117 58.85 107 55.25 Z"/>
</g>

<g id="Layer0_0_MEMBER_1_MEMBER_0_FILL">
<path fill="#6D3C0B" stroke="none" d="
M 80.75 34.8
Q 79.95 25.9 76.75 25 74.5 24.4 71.25 27.75 73.75 34.65 74 41.5 74.25 48.35 71.8 58.2 70 65.5 71.25 66.25 72.45 66.95 75.35 64.85 80.3 54.7 80.85 44.25 81.25 40.45 80.75 34.8 Z"/>
</g>

<g id="Layer0_0_MEMBER_2_MEMBER_0_FILL">
<path fill="#209223" stroke="none" d="
M 74 42.85
Q 67.45 38.05 64.4 36 58.4 32 56.2 30.6 52.85 28.55 50.65 27.75 46.75 26.3 41.8 26.9 33.2 27.85 23.15 34.6 33.5 40.55 39.65 44.25 47 48.65 48.3 49.35 51.05 50.75 53.4 51.1 62.95 52.55 74 42.85 Z"/>
</g>

<g id="Layer0_0_MEMBER_3_FILL">
<path fill="#821515" stroke="none" d="
M 86.35 64.85
Q 87.6 63.75 88.45 62.6 89.45 61.2 89.1 60.75 88.9 60.45 83.5 63.1 76.9 66.35 71.25 66.25 66.55 66.15 61.55 63.85 57.55 62 57.5 62.1 57.1 62.8 59.95 65.1 63.15 67.75 67.1 69 72.1 70.55 77.4 69.4 82.75 68.3 86.35 64.85 Z"/>
</g>

<g id="Layer0_0_MEMBER_4_FILL">
<path fill="#C64A4A" stroke="none" d="
M 30.65 96.7
Q 31.65 88.9 34.2 84.15 36.45 79.95 42.1 74.35 46.2 70.3 45.45 68.7 44.8 67.4 42.85 67.05 38.35 66.2 32.45 74.45 29.25 78.95 25.75 86.05 20.9 95.8 22.95 99.6 23.8 101.1 25.25 102.1 26.85 103.2 28.15 102.9 29.9 102.45 30.65 96.7 Z"/>
</g>

<path id="Layer0_0_MEMBER_0_MEMBER_1_1_STROKES" stroke="#000000" stroke-width="1" stroke-linejoin="miter" stroke-linecap="butt" stroke-miterlimit="10" fill="none" d="
M 76.75 172.1
Q 71.2 172.15 65.95 173.35 59.55 174.8 58.9 174.85 52.35 175.5 44.65 171 37.25 166.7 30.35 158.65 15.15 140.7 12.15 118.45 10.85 108.8 12.2 99.05 14.55 82.1 24.5 70.35 29.95 64.15 35.15 60.2 45.9 52.15 54.75 53.85 56.6 54.2 61.15 56.3 64.8 57.95 68.5 58 72.5 58.05 76.75 55.95 82.6 53.15 85 52.5 90.5 51.05 96.7 52.2 100.5 52.85 107 55.25 117 58.85 125.15 66.25 134.25 74.5 138.6 85.5 143.3 97.3 141.45 110.55 140.4 118.25 135.85 130.85 130.05 147 120.2 159.55 107.95 175.15 96 174.85 94.1 174.8 88.2 173.4 82.65 172.05 76.75 172.1 Z"/>

<path id="Layer0_0_MEMBER_1_MEMBER_1_1_STROKES" stroke="#000000" stroke-width="1" stroke-linejoin="miter" stroke-linecap="butt" stroke-miterlimit="10" fill="none" d="
M 71.25 66.25
Q 70 65.5 71.8 58.2 74.25 48.35 74 41.5 73.75 34.65 71.25 27.75 74.5 24.4 76.75 25 79.95 25.9 80.75 34.8 81.25 40.45 80.85 44.25 80.3 54.7 75.35 64.85 72.45 66.95 71.25 66.25 Z"/>

<path id="Layer0_0_MEMBER_2_MEMBER_1_1_STROKES" stroke="#000000" stroke-width="1" stroke-linejoin="miter" stroke-linecap="butt" stroke-miterlimit="10" fill="none" d="
M 23.15 34.6
Q 33.2 27.85 41.8 26.9 46.75 26.3 50.65 27.75 52.85 28.55 56.2 30.6 58.4 32 64.4 36 67.45 38.05 74 42.85 62.95 52.55 53.4 51.1 51.05 50.75 48.3 49.35 47 48.65 39.65 44.25 33.5 40.55 23.15 34.6 Z"/>
</defs>

<g transform="matrix( 1, 0, 0, 1, 0,0) ">
<use xlink:href="#Layer0_0_MEMBER_0_MEMBER_0_FILL"/>
</g>

<g transform="matrix( 1, 0, 0, 1, 0,0) ">
<use xlink:href="#Layer0_0_MEMBER_0_MEMBER_1_1_STROKES"/>
</g>

<g transform="matrix( 1, 0, 0, 1, 0,0) ">
<use xlink:href="#Layer0_0_MEMBER_1_MEMBER_0_FILL"/>
</g>

<g transform="matrix( 1, 0, 0, 1, 0,0) ">
<use xlink:href="#Layer0_0_MEMBER_1_MEMBER_1_1_STROKES"/>
</g>

<g transform="matrix( 1, 0, 0, 1, 0,0) ">
<use xlink:href="#Layer0_0_MEMBER_2_MEMBER_0_FILL"/>
</g>

<g transform="matrix( 1, 0, 0, 1, 0,0) ">
<use xlink:href="#Layer0_0_MEMBER_2_MEMBER_1_1_STROKES"/>
</g>

<g transform="matrix( 1, 0, 0, 1, 0,0) ">
<use xlink:href="#Layer0_0_MEMBER_3_FILL"/>
</g>

<g transform="matrix( 1, 0, 0, 1, 0,0) ">
<use xlink:href="#Layer0_0_MEMBER_4_FILL"/>
</g>
</svg>
