
<svg xmlns="http://www.w3.org/2000/svg" version="1.1" xmlns:xlink="http://www.w3.org/1999/xlink" preserveAspectRatio="none" x="0px" y="0px" width="150px" height="200px" viewBox="0 0 150 200">
<defs>
<g id="Layer0_0_FILL">
<path fill="#41722F" stroke="none" d="
M 72.5 115.5
Q 64.4 115.75 56.5 114.35 53.1 113.7 44.75 111.55 38.75 110 35.65 110 31.25 110 27.5 112.5 20.6 117.1 18 126.85 15.4 136.35 18.5 144.5 24.2 159.5 50.1 163.55 63.45 165.6 78.5 164.5 92.2 163.35 105.5 159 130.85 150.75 133.5 135.5 134.75 128.05 131.05 120.2 127.25 112.15 120.5 108.5 116.15 106.15 111.3 106.55 107.9 106.85 101.55 109.1 92.95 112.1 89.25 113.1 81.05 115.2 72.5 115.5 Z"/>
</g>

<g id="Layer0_1_FILL">
<path fill="#41722F" stroke="none" d="
M 116.9 96.6
Q 115.65 93.45 113.05 91.45 110.35 89.4 106.6 89.3 103.9 89.25 98.7 90.45 84.2 93.8 75.9 93.45 66.25 93.1 53.6 88.15 48.65 86.25 46.3 85.9 42.8 85.4 39.8 87 34.75 89.8 32.8 96.5 30.9 103 33.2 108.55 37.4 118.6 56.45 121.35 66.45 122.8 77.3 122 91.15 120.9 102.7 116.25 116.6 110.55 117.7 102.5 118.15 99.6 116.9 96.6 Z"/>
</g>

<g id="Layer0_2_FILL">
<path fill="#41722F" stroke="none" d="
M 94.5 92.65
Q 101.4 89.6 103.6 84.8 105.3 81.15 104.35 76.25 103.45 71.5 100.6 68.1 97.6 64.5 90.4 62.65 82.3 60.6 78.5 57.5 71.75 51.95 69.5 41.5 64.9 44.1 60.85 48.3 53.95 55.4 51.5 64.5 50.05 69.8 49.85 73.7 49.45 80.8 52.6 85.65 56.1 91.1 63.85 93.8 70.9 96.25 79.55 95.9 87.9 95.55 94.5 92.65 Z"/>
</g>

<path id="Layer0_0_1_STROKES" stroke="#2A491F" stroke-width="5" stroke-linejoin="miter" stroke-linecap="butt" stroke-miterlimit="10" fill="none" d="
M 78.92610321044921 156.75406341552736
Q 65.77871017456054 157.71500244140626 54.1164047241211 155.92416152954104 31.490658569335935 152.38615875244142 26.51124725341797 139.2824447631836 23.803146362304688 132.16276016235352 26.074456787109376 123.86374130249023 28.345767211914065 115.34632720947265 34.37347564697266 111.32785491943359 37.64940414428711 109.14390258789062 41.493160247802734 109.14390258789062 44.20126113891602 109.14390258789062 49.44274673461914 110.49795303344726 56.73714752197266 112.37615203857422 59.707322692871095 112.94397964477538 66.60861206054688 114.16699295043945 73.68461761474609 113.94859771728515 81.15373458862304 113.6865234375 88.31709823608398 111.8520034790039 91.54934768676758 110.97842254638671 99.06214370727538 108.35767974853515 104.60938262939453 106.39212265014648 107.57955780029296 106.13004837036132 111.81642532348633 105.78061599731446 115.61650238037109 107.83353118896484 121.5131736755371 111.02210159301758 124.83278121948243 118.05442810058594 128.065030670166 124.91203842163087 126.97305450439453 131.42021636962892 124.65806503295897 144.74232559204103 102.51278839111328 151.94936828613282 90.89416198730468 155.74944534301758 78.92610321044921 156.75406341552736 Z"/>

<path id="Layer0_1_1_STROKES" stroke="#2A491F" stroke-width="5" stroke-linejoin="miter" stroke-linecap="butt" stroke-miterlimit="10" fill="none" d="
M 77.87780609130859 119.62687377929687
Q 68.3994529724121 120.32573852539062 59.66364364624024 119.0590461730957 43.02192687988281 116.65669860839843 39.35288696289063 107.8772102355957 37.343650817871094 103.02883605957031 39.00345458984375 97.35055999755859 40.70693740844727 91.49756774902343 45.11852111816406 89.05154113769531 47.739263916015624 87.65381164550782 50.79679718017578 88.09060211181641 52.84971237182617 88.39635543823242 57.17393798828125 90.05615921020508 68.22473678588867 94.38038482666015 76.65479278564453 94.68613815307617 83.90551452636718 94.99189147949218 96.5724380493164 92.06539535522461 101.11505889892578 91.01709823608398 103.47372741699218 91.06077728271484 106.74965591430663 91.14813537597657 109.10832443237304 92.9389762878418 111.37963485717773 94.68613815307617 112.47161102294922 97.4379180908203 113.5635871887207 100.05866088867187 113.17047576904297 102.59204559326172 112.20953674316405 109.62437210083007 100.06676177978515 114.60378341674804 89.97690200805664 118.66593475341797 77.87780609130859 119.62687377929687 Z"/>

<path id="Layer0_2_1_STROKES" stroke="#2A491F" stroke-width="5" stroke-linejoin="miter" stroke-linecap="butt" stroke-miterlimit="10" fill="none" d="
M 100.85298461914061 87.1296630859375
Q 102.33807220458984 83.94109268188477 101.5081703186035 79.66054611206054 100.72194747924804 75.5110366821289 98.23224182128905 72.54086151123046 95.61149902343749 69.39597015380859 89.32171630859375 67.7798454284668 82.24571075439452 65.98900451660157 78.92610321044921 63.28090362548828 73.0294319152832 58.43252944946289 71.06387481689453 49.30360870361328 67.04540252685547 51.574919128417974 63.50739974975586 55.24395904541015 57.47969131469727 61.44638366699219 55.33941802978516 69.39597015380859 54.07272567749023 74.02594909667968 53.8980094909668 77.43291473388672 53.548577117919926 83.63533935546874 56.300357055664065 87.87220687866211 59.35789031982422 92.63322296142577 66.12814254760742 94.99189147949218 72.2868881225586 97.1321647644043 79.84336318969726 96.82641143798828 87.13776397705078 96.52065811157226 92.90339813232421 93.98727340698242 98.93110656738281 91.32285156249999 100.85298461914061 87.1296630859375 Z"/>
</defs>

<g transform="matrix( 0.8735809326171875, 0, 0, 0.8735809326171875, 10.35,13.05) ">
<use xlink:href="#Layer0_0_FILL"/>

<use xlink:href="#Layer0_0_1_STROKES" transform="matrix( 1.1446990966796875, 0, 0, 1.1446990966796875, -11.8,-14.9) "/>
</g>

<g transform="matrix( 0.8735809326171875, 0, 0, 0.8735809326171875, 10.35,13.05) ">
<use xlink:href="#Layer0_1_FILL"/>

<use xlink:href="#Layer0_1_1_STROKES" transform="matrix( 1.1446990966796875, 0, 0, 1.1446990966796875, -11.8,-14.9) "/>
</g>

<g transform="matrix( 0.8735809326171875, 0, 0, 0.8735809326171875, 10.35,13.05) ">
<use xlink:href="#Layer0_2_FILL"/>

<use xlink:href="#Layer0_2_1_STROKES" transform="matrix( 1.1446990966796875, 0, 0, 1.1446990966796875, -11.8,-14.9) "/>
</g>
</svg>
