
<svg xmlns="http://www.w3.org/2000/svg" version="1.1" xmlns:xlink="http://www.w3.org/1999/xlink" preserveAspectRatio="none" x="0px" y="0px" width="150px" height="200px" viewBox="0 0 150 200">
<defs>
<g id="Layer0_0_MEMBER_0_FILL">
<path fill="#FF032D" stroke="none" d="
M 76 56
Q 51.55 56 34.3 73 17 89.95 17 114 17 138 34.3 155 51.55 172 76 172 100.4 172 117.7 155 135 138 135 114 135 89.95 117.7 73 100.4 56 76 56 Z"/>
</g>

<g id="Layer0_0_MEMBER_1_MEMBER_0_FILL">
<path fill="#F0E089" stroke="none" d="
M 39 49
L 37 45
Q 36.1 43.85 35 44 34.1 44.1 33.5 44.9 32.85 45.8 33 47
L 35 51 39 49 Z"/>
</g>

<g id="Layer0_0_MEMBER_2_FILL">
<path fill="#FF032D" stroke="none" d="
M 58 48
Q 55.5 46.5 52.4 46.3 50.5 46.15 47.5 46.5 41.55 47.15 36.15 50.3 33.05 52.1 30.5 54.5 27.55 57.15 26.15 59.05 23.7 62.3 23 66 22.5 68.05 22.6 70.4 22.8 74.45 25 76 26.85 77.25 30.5 76.5 33.7 75.75 36.45 72.55 40.4 67.9 43 66 48.4 61.95 57.5 58.5 60.6 57.25 61.1 57 62.65 56.15 63 55 63.4 53.3 61.65 51.1 60.2 49.25 58 48 Z"/>
</g>

<g id="Layer0_0_MEMBER_3_FILL">
<path fill="#FF032D" stroke="none" d="
M 105.6 47.7
Q 102.55 47.5 100.65 47.7 97.55 48.1 95.15 49.65 93.05 51.05 91.65 52.95 90 55.2 90.5 56.9 90.85 58.05 92.45 58.8 93.2 59.15 96.15 60.1 96.4 60.2 101.65 62.2 107.45 64.6 110.95 66.95 113.55 68.7 117.8 73.2 120.65 76.25 123.95 76.85 127.5 77.6 129.4 76.1 131.5 74.5 131.5 70.45 131.5 68.4 130.95 66.05 130.05 62.35 127.45 59.2 125.95 57.4 122.95 54.9 115.05 48.3 105.6 47.7 Z"/>
</g>

<g id="Layer0_0_MEMBER_4_FILL">
<path fill="#FFFFFF" stroke="none" d="
M 76 64.5
Q 55.1 64.5 40.3 79.3 25.5 94.1 25.5 115 25.5 135.9 40.3 150.7 55.1 165.5 76 165.5 96.9 165.5 111.7 150.7 126.5 135.9 126.5 115 126.5 94.1 111.7 79.3 96.9 64.5 76 64.5 Z"/>
</g>

<g id="Layer0_0_MEMBER_5_FILL">
<path fill="#FFFFFF" stroke="none" d="
M 76.5 69.25
Q 57.4 69.25 43.95 82.75 30.5 96.2 30.5 115.25 30.5 134.3 43.95 147.8 57.4 161.25 76.5 161.25 95.55 161.25 109.05 147.8 122.5 134.3 122.5 115.25 122.5 96.2 109.05 82.75 95.55 69.25 76.5 69.25 Z"/>
</g>

<g id="Layer0_0_MEMBER_6_FILL">
<path fill="#000000" stroke="none" d="
M 76.5 112.1
L 77.95 100.2 74.45 86.9 72.45 99.75 74.5 111.95 76.5 112.1 Z"/>
</g>

<g id="Layer0_0_MEMBER_7_FILL">
<path fill="#000000" stroke="none" d="
M 66.5 97.5
L 54.5 82.5 62 100 72.5 113.5 73.5 112.5 66.5 97.5 Z"/>
</g>

<g id="Layer0_0_MEMBER_8_FILL">
<path fill="#000000" stroke="none" d="
M 72 115
Q 72 116.65 73.15 117.85 74.3 119 76 119 77.65 119 78.85 117.85 80 116.65 80 115 80 113.3 78.85 112.15 77.65 111 76 111 74.3 111 73.15 112.15 72 113.3 72 115 Z"/>
</g>

<g id="Layer0_0_MEMBER_9_MEMBER_0_FILL">
<path fill="#F0E089" stroke="none" d="
M 122.05 47.85
Q 122.15 46.65 121.55 45.75 120.95 44.95 120.05 44.85 119.35 44.75 118.65 45.25 118.15 45.6 118.05 45.85
L 116.05 49.85 120.05 51.85 122.05 47.85 Z"/>
</g>

<path id="Layer0_0_MEMBER_0_1_STROKES" stroke="#000000" stroke-width="1" stroke-linejoin="miter" stroke-linecap="butt" stroke-miterlimit="10" fill="none" d="
M 139.54762268066406 114.49577026367187
Q 139.54762268066406 88.6112678527832 120.9280014038086 70.36834411621093 102.30838012695312 52.0716064453125 76.04718017578125 52.0716064453125 49.7321662902832 52.0716064453125 31.166358947753906 70.36834411621093 12.546737670898438 88.6112678527832 12.546737670898438 114.49577026367187 12.546737670898438 140.3264587402344 31.166358947753906 158.62319641113282 49.7321662902832 176.91993408203126 76.04718017578125 176.91993408203126 102.30838012695312 176.91993408203126 120.9280014038086 158.62319641113282 139.54762268066406 140.3264587402344 139.54762268066406 114.49577026367187 Z"/>

<path id="Layer0_0_MEMBER_1_MEMBER_1_1_STROKES" stroke="#000000" stroke-width="1" stroke-linejoin="miter" stroke-linecap="butt" stroke-miterlimit="10" fill="none" d="
M 31.919754028320312 46.69021301269531
L 29.767196655273438 42.38509826660156
Q 29.605754852294922 41.093563842773435 30.305335998535156 40.12491302490234 30.95110321044922 39.26389007568359 31.919754028320312 39.15626220703125 33.103660583496094 38.99482040405273 34.07231140136719 40.232540893554685
L 36.22486877441406 44.537655639648435 31.919754028320312 46.69021301269531 Z"/>

<path id="Layer0_0_MEMBER_2_1_STROKES" stroke="#000000" stroke-width="1" stroke-linejoin="miter" stroke-linecap="butt" stroke-miterlimit="10" fill="none" d="
M 27.076499938964844 74.13531951904297
Q 23.148082733154297 74.94252853393554 21.156967163085938 73.59718017578125 18.789154052734375 71.92894821166992 18.573898315429688 67.57001953125 18.466270446777344 65.04076461791992 19.004409790039062 62.83439331054687 19.75780487060547 58.85216217041015 22.39468765258789 55.35425643920898 23.901477813720703 53.30932693481445 27.076499938964844 50.45718841552734 29.82101058959961 47.87411956787109 33.157474517822266 45.9368179321289 38.96937942504883 42.546540069580075 45.37323760986328 41.84695892333984 48.602073669433594 41.47026138305664 50.647003173828125 41.63170318603515 53.98346710205078 41.84695892333984 56.674163818359375 43.461376953125 59.04197692871094 44.806725311279294 60.60258102416992 46.79784088134765 62.48606872558594 49.165653991699216 62.05555725097656 50.99532775878906 61.67885971069336 52.23304824829101 60.01062774658203 53.147885131835935 59.47248840332031 53.416954803466794 56.136024475097656 54.76230316162109 46.341888427734375 58.47546463012695 40.52998352050781 62.83439331054687 37.731658935546875 64.8793228149414 33.4803581237793 69.88401870727539 30.520591735839844 73.32811050415039 27.076499938964844 74.13531951904297 Z"/>

<path id="Layer0_0_MEMBER_3_1_STROKES" stroke="#000000" stroke-width="1" stroke-linejoin="miter" stroke-linecap="butt" stroke-miterlimit="10" fill="none" d="
M 127.65474319458008 74.51201705932617
Q 131.47553253173828 75.31922607421875 133.5204620361328 73.70480804443359 135.78064727783203 71.98276214599609 135.78064727783203 67.62383346557617 135.78064727783203 65.41746215820312 135.18869400024414 62.888207244873044 134.22004318237305 58.905976104736325 131.4217185974121 55.5156982421875 129.80730056762695 53.57839660644531 126.57846450805664 50.887699890136716 118.07586288452148 43.78426055908203 107.905029296875 43.138493347167966 104.62237930297852 42.92323760986328 102.57744979858398 43.138493347167966 99.24098587036133 43.56900482177734 96.65791702270508 45.23723678588867 94.39773178100586 46.74402694702148 92.89094161987305 48.78895645141601 91.11508178710938 51.21058349609375 91.6532211303711 53.04025726318359 92.0299186706543 54.277977752685544 93.7519645690918 55.08518676757812 94.55917358398438 55.461884307861325 97.73419570922852 56.48434906005859 98.00326538085938 56.591976928710935 103.65372848510742 58.74453430175781 109.89614486694336 61.32760314941406 113.66312026977539 63.85685806274414 116.46144485473633 65.74034576416015 121.03562927246094 70.58359985351562 124.10302352905273 73.8662498474121 127.65474319458008 74.51201705932617 Z"/>

<path id="Layer0_0_MEMBER_4_1_STROKES" stroke="#000000" stroke-width="1" stroke-linejoin="miter" stroke-linecap="butt" stroke-miterlimit="10" fill="none" d="
M 21.695106506347656 115.57204895019531
Q 21.695106506347656 138.06627349853517 37.62403106689453 153.99519805908204 53.552955627441406 169.92412261962892 76.04718017578125 169.92412261962892 98.5414047241211 169.92412261962892 114.47032928466797 153.99519805908204 130.39925384521484 138.06627349853517 130.39925384521484 115.57204895019531 130.39925384521484 93.07782440185547 114.47032928466797 77.14889984130859 98.5414047241211 61.219975280761716 76.04718017578125 61.219975280761716 53.552955627441406 61.219975280761716 37.62403106689453 77.14889984130859 21.695106506347656 93.07782440185547 21.695106506347656 115.57204895019531 Z"/>

<path id="Layer0_0_MEMBER_5_1_STROKES" stroke="#000000" stroke-width="1" stroke-linejoin="miter" stroke-linecap="butt" stroke-miterlimit="10" fill="none" d="
M 27.076499938964844 115.84111862182617
Q 27.076499938964844 136.34422760009767 41.55244827270508 150.87398986816407 56.02839660644531 165.3499382019043 76.58531951904297 165.3499382019043 97.08842849731445 165.3499382019043 111.61819076538086 150.87398986816407 126.0941390991211 136.34422760009767 126.0941390991211 115.84111862182617 126.0941390991211 95.33800964355468 111.61819076538086 80.86206130981445 97.08842849731445 66.33229904174804 76.58531951904297 66.33229904174804 56.02839660644531 66.33229904174804 41.55244827270508 80.86206130981445 27.076499938964844 95.33800964355468 27.076499938964844 115.84111862182617 Z"/>

<path id="Layer0_0_MEMBER_9_MEMBER_1_1_STROKES" stroke="#000000" stroke-width="1" stroke-linejoin="miter" stroke-linecap="butt" stroke-miterlimit="10" fill="none" d="
M 123.45725631713867 47.60504989624023
L 125.60981369018555 43.29993515014648
Q 125.71744155883789 42.00840072631836 125.07167434692383 41.03974990844726 124.42590713500977 40.17872695922851 123.45725631713867 40.07109909057617 122.70386123657227 39.963471221923825 121.95046615600586 40.501610565185544 121.41232681274414 40.87830810546875 121.3046989440918 41.14737777709961
L 119.15214157104492 45.45249252319336 123.45725631713867 47.60504989624023 Z"/>
</defs>

<g transform="matrix( 1.0762786865234375, 0, 0, 1.0762786865234375, -5.75,-8.2) ">
<use xlink:href="#Layer0_0_MEMBER_0_FILL"/>

<use xlink:href="#Layer0_0_MEMBER_0_1_STROKES" transform="matrix( 0.9291229248046875, 0, 0, 0.9291229248046875, 5.3,7.6) "/>
</g>

<g transform="matrix( 1.0762786865234375, 0, 0, 1.0762786865234375, -5.75,-8.2) ">
<use xlink:href="#Layer0_0_MEMBER_1_MEMBER_0_FILL"/>
</g>

<g transform="matrix( 1.0762786865234375, 0, 0, 1.0762786865234375, -5.75,-8.2) ">
<use xlink:href="#Layer0_0_MEMBER_1_MEMBER_1_1_STROKES" transform="matrix( 0.9291229248046875, 0, 0, 0.9291229248046875, 5.3,7.6) "/>
</g>

<g transform="matrix( 1.0762786865234375, 0, 0, 1.0762786865234375, -5.75,-8.2) ">
<use xlink:href="#Layer0_0_MEMBER_2_FILL"/>

<use xlink:href="#Layer0_0_MEMBER_2_1_STROKES" transform="matrix( 0.9291229248046875, 0, 0, 0.9291229248046875, 5.3,7.6) "/>
</g>

<g transform="matrix( 1.0762786865234375, 0, 0, 1.0762786865234375, -5.75,-8.2) ">
<use xlink:href="#Layer0_0_MEMBER_3_FILL"/>

<use xlink:href="#Layer0_0_MEMBER_3_1_STROKES" transform="matrix( 0.9291229248046875, 0, 0, 0.9291229248046875, 5.3,7.6) "/>
</g>

<g transform="matrix( 1.0762786865234375, 0, 0, 1.0762786865234375, -5.75,-8.2) ">
<use xlink:href="#Layer0_0_MEMBER_4_FILL"/>

<use xlink:href="#Layer0_0_MEMBER_4_1_STROKES" transform="matrix( 0.9291229248046875, 0, 0, 0.9291229248046875, 5.3,7.6) "/>
</g>

<g transform="matrix( 1.0762786865234375, 0, 0, 1.0762786865234375, -5.75,-8.2) ">
<use xlink:href="#Layer0_0_MEMBER_5_FILL"/>

<use xlink:href="#Layer0_0_MEMBER_5_1_STROKES" transform="matrix( 0.9291229248046875, 0, 0, 0.9291229248046875, 5.3,7.6) "/>
</g>

<g transform="matrix( 1.0762786865234375, 0, 0, 1.0762786865234375, -5.75,-8.2) ">
<use xlink:href="#Layer0_0_MEMBER_6_FILL"/>
</g>

<g transform="matrix( 1.0762786865234375, 0, 0, 1.0762786865234375, -5.75,-8.2) ">
<use xlink:href="#Layer0_0_MEMBER_7_FILL"/>
</g>

<g transform="matrix( 1.0762786865234375, 0, 0, 1.0762786865234375, -5.75,-8.2) ">
<use xlink:href="#Layer0_0_MEMBER_8_FILL"/>
</g>

<g transform="matrix( 1.0762786865234375, 0, 0, 1.0762786865234375, -5.75,-8.2) ">
<use xlink:href="#Layer0_0_MEMBER_9_MEMBER_0_FILL"/>
</g>

<g transform="matrix( 1.0762786865234375, 0, 0, 1.0762786865234375, -5.75,-8.2) ">
<use xlink:href="#Layer0_0_MEMBER_9_MEMBER_1_1_STROKES" transform="matrix( 0.9291229248046875, 0, 0, 0.9291229248046875, 5.3,7.6) "/>
</g>
</svg>
