
<svg xmlns="http://www.w3.org/2000/svg" version="1.1" xmlns:xlink="http://www.w3.org/1999/xlink" preserveAspectRatio="none" x="0px" y="0px" width="150px" height="200px" viewBox="0 0 150 200">
<defs>
<g id="Layer0_0_FILL">
<path fill="#EDB894" stroke="none" d="
M 110.15 36.3
Q 101.05 25.7 94.75 20.9 84.35 13 73.7 13 54.95 13 35.35 42.35 22.25 62 16.6 85.15 13 99.85 13.05 111.55 13.15 127.2 14.7 135.35 17.25 149.15 25.15 159.9 30.8 167.7 39.4 174.05 55.3 185.75 73.9 185.95 95.05 186.25 112.65 171.75 121.65 164.3 127.05 155.75 133.6 145.1 135.7 132.35 137.35 122.5 136.75 107.3 136.1 91.45 131.8 76.7 125 53.6 110.15 36.3 Z"/>
</g>

<g id="Layer0_1_FILL">
<path fill="#F2D0B3" stroke="none" d="
M 64.55 43.4
Q 70.1 42.1 71.95 37.85 73.65 34 71.4 31.5 69.4 29.35 65 30.5 60.55 31.7 56.3 35.55 51.95 39.45 48.7 47.3 45.45 55.15 47.4 57.35 48.25 58.3 49.9 56.7 50.5 56.05 53.5 52.25 59.5 44.55 64.55 43.4 Z"/>
</g>

<g id="Layer0_2_FILL">
<path fill="#D6AA8B" stroke="none" d="
M 129.2 82.65
Q 126.05 70.2 120.85 58.25 129.15 83.4 127.8 108.85 127.1 122.4 125.7 129.3 123.35 140.65 117.35 150.05 111.4 159.3 102.55 166.15 97.45 170.1 92.1 172.75 76.95 180.25 59.95 179.05 80.6 184.3 93.95 178.65 97.7 177 99.75 175.75 110.85 169.05 117.15 162.8 126.1 153.95 130.5 140.7 133 133 133.8 124.3 134.2 120.25 134 115.85 133.9 113 133.35 106.7 132.15 94.2 129.2 82.65 Z"/>
</g>

<path id="Layer0_0_1_STROKES" stroke="#D8986C" stroke-width="5" stroke-linejoin="miter" stroke-linecap="butt" stroke-miterlimit="10" fill="none" d="
M 73.7 13
Q 54.95 13 35.35 42.35 22.25 62 16.6 85.15 13 99.85 13.05 111.55 13.15 127.2 14.7 135.35 17.25 149.15 25.15 159.9 30.8 167.7 39.4 174.05 55.3 185.75 73.9 185.95 95.05 186.25 112.65 171.75 121.65 164.3 127.05 155.75 133.6 145.1 135.7 132.35 137.35 122.5 136.75 107.3 136.1 91.45 131.8 76.7 125 53.6 110.15 36.3 101.05 25.7 94.75 20.9 84.35 13 73.7 13 Z"/>
</defs>

<g transform="matrix( 1, 0, 0, 1, 0,0) ">
<use xlink:href="#Layer0_0_FILL"/>

<use xlink:href="#Layer0_0_1_STROKES"/>
</g>

<g transform="matrix( 1, 0, 0, 1, 0,0) ">
<use xlink:href="#Layer0_1_FILL"/>
</g>

<g transform="matrix( 1, 0, 0, 1, 0,0) ">
<use xlink:href="#Layer0_2_FILL"/>
</g>
</svg>
