
<svg xmlns="http://www.w3.org/2000/svg" version="1.1" xmlns:xlink="http://www.w3.org/1999/xlink" preserveAspectRatio="none" x="0px" y="0px" width="150px" height="200px" viewBox="0 0 150 200">
<defs>
<g id="Layer0_0_FILL">
<path fill="#0000FF" stroke="none" d="
M 63.35 39.85
Q 66.8 38.2 71.9 36.45 75.3 35.25 75.2 34.95 74.95 34.3 70.05 34.8 64.3 35.4 57.7 37.45 38.35 43.45 25.5 57.5 16 67.85 11.25 81.6 8.3 90.15 7.5 99.2 9.1 97.35 11.65 95.8 16.3 93 21.5 93.3 26.8 93.55 31.2 96.95 33.35 98.65 35 100.85 30.7 73.55 42.15 56.85 49.4 46.25 63.35 39.85 Z"/>
</g>

<g id="Layer0_1_FILL">
<path fill="#FF0600" stroke="none" d="
M 75.2 34.95
Q 67.9 36.5 60.9 40.2 47.55 47.25 40.15 59.85 33.05 71.85 33.05 86.2 33.05 94.1 35 100.85 35.9 95.6 39.85 92 43.75 88.35 49.05 87.9 54.25 87.45 58.7 90.25 63.15 93.05 65 97.95 63.55 81.85 66.1 65.95 68.7 50 75.2 34.95 Z"/>
</g>

<g id="Layer0_2_FILL">
<path fill="#0000FF" stroke="none" d="
M 92.5 98.5
Q 93.55 88.4 91.35 74 87.55 49.65 75.2 34.95 69.35 42 65.9 67.55 62.65 91.65 65 96.95 66.35 94.6 69.85 92.85 73.4 91.1 77.5 90.85 87.7 90.15 92.5 98.5 Z"/>
</g>

<g id="Layer0_3_FILL">
<path fill="#FF0600" stroke="none" d="
M 93 97.05
Q 94.9 92.9 98.7 90.5 102.55 88.05 107.05 88.1 111.3 88.15 114.95 90.45 118.6 92.8 120.5 96.65 121.1 78.4 112.1 63.1 104.4 50.05 90.95 41.9 83.45 37.35 75.2 34.95 85.55 49 90.1 66.05 94.2 81.3 93 97.05 Z"/>
</g>

<g id="Layer0_4_FILL">
<path fill="#0000FF" stroke="none" d="
M 117.05 75.15
Q 119.05 80.95 120 89.85 120.45 94.35 120.5 97.65
L 123.85 95.2
Q 128.15 92.85 133 93.2 138.9 93.6 143 98.25 142.8 89.35 139.8 80 134.3 62.8 121.15 51.15 109 40.4 92.8 36.65 83.8 34.6 75.2 34.95 85.35 38.7 94.35 45.3 111.05 57.5 117.05 75.15 Z"/>
</g>

<g id="Layer0_8_FILL">
<path fill="#000000" stroke="none" d="
M 65.95 158.5
Q 65.95 162.25 68.6 164.9 71.25 167.55 75 167.55 78.7 167.55 81.35 164.9 84 162.25 84 158.5 84 154.7 81.35 152.05 78.7 149.4 75 149.4 71.25 149.4 68.6 152.05 65.95 154.7 65.95 158.5 Z"/>
</g>

<path id="Layer0_0_1_STROKES" stroke="#000000" stroke-width="3.5" stroke-linejoin="miter" stroke-linecap="butt" stroke-miterlimit="10" fill="none" d="
M 35 100.85
Q 33.35 98.65 31.2 96.95 26.8 93.55 21.5 93.3 16.3 93 11.65 95.8 9.1 97.35 7.5 99.2 8.3 90.15 11.25 81.6 16 67.85 25.5 57.5 38.35 43.45 57.7 37.45 64.3 35.4 70.05 34.8 74.95 34.3 75.2 34.95 75.3 35.25 71.9 36.45 66.8 38.2 63.35 39.85 49.4 46.25 42.15 56.85 30.7 73.55 35 100.85 Z"/>

<path id="Layer0_1_1_STROKES" stroke="#000000" stroke-width="3.5" stroke-linejoin="miter" stroke-linecap="butt" stroke-miterlimit="10" fill="none" d="
M 35 100.85
Q 33.05 94.1 33.05 86.2 33.05 71.85 40.15 59.85 47.55 47.25 60.9 40.2 67.9 36.5 75.2 34.95 68.7 50 66.1 65.95 63.55 81.85 65 97.95 63.15 93.05 58.7 90.25 54.25 87.45 49.05 87.9 43.75 88.35 39.85 92 35.9 95.6 35 100.85 Z"/>

<path id="Layer0_2_1_STROKES" stroke="#000000" stroke-width="3.5" stroke-linejoin="miter" stroke-linecap="butt" stroke-miterlimit="10" fill="none" d="
M 65 96.95
Q 62.65 91.65 65.9 67.55 69.35 42 75.2 34.95 87.55 49.65 91.35 74 93.55 88.4 92.5 98.5 87.7 90.15 77.5 90.85 73.4 91.1 69.85 92.85 66.35 94.6 65 96.95 Z"/>

<path id="Layer0_3_1_STROKES" stroke="#000000" stroke-width="3.5" stroke-linejoin="miter" stroke-linecap="butt" stroke-miterlimit="10" fill="none" d="
M 93 97.05
Q 94.2 81.3 90.1 66.05 85.55 49 75.2 34.95 83.45 37.35 90.95 41.9 104.4 50.05 112.1 63.1 121.1 78.4 120.5 96.65 118.6 92.8 114.95 90.45 111.3 88.15 107.05 88.1 102.55 88.05 98.7 90.5 94.9 92.9 93 97.05 Z"/>

<path id="Layer0_4_1_STROKES" stroke="#000000" stroke-width="3.5" stroke-linejoin="miter" stroke-linecap="butt" stroke-miterlimit="10" fill="none" d="
M 120.5 97.65
Q 120.45 94.35 120 89.85 119.05 80.95 117.05 75.15 111.05 57.5 94.35 45.3 85.35 38.7 75.2 34.95 83.8 34.6 92.8 36.65 109 40.4 121.15 51.15 134.3 62.8 139.8 80 142.8 89.35 143 98.25 138.9 93.6 133 93.2 128.15 92.85 123.85 95.2
L 120.5 97.65 Z"/>

<path id="Layer0_5_1_STROKES" stroke="#000000" stroke-width="3.5" stroke-linejoin="miter" stroke-linecap="butt" stroke-miterlimit="10" fill="none" d="
M 7.5 100.5
Q 21.05 116.3 47.35 138.25 60.55 149.2 71 157 65.2 149.55 57.85 139 43.2 117.9 35.5 102.5 33 98 28.65 95.55 24.25 93.1 19.5 93.5 14.85 93.85 11 96.85 8.75 98.6 7.5 100.5 Z"/>

<path id="Layer0_6_1_STROKES" stroke="#000000" stroke-width="3.5" stroke-linejoin="miter" stroke-linecap="butt" stroke-miterlimit="10" fill="none" d="
M 65.5 97.5
Q 67.15 114.4 71 138.65 72.9 150.75 74.5 159.5 77.4 151.1 81.1 139.35 88.55 115.95 92.5 99.5 90.5 95.4 86.7 92.95 82.95 90.5 78.5 90.5 73.4 90.45 69.1 93.8 66.7 95.6 65.5 97.5 Z"/>

<path id="Layer0_7_1_STROKES" stroke="#000000" stroke-width="3.5" stroke-linejoin="miter" stroke-linecap="butt" stroke-miterlimit="244" fill="none" d="
M 78.5 156.5
Q 85.6 148 94.6 136.15 112.7 112.4 122.5 95.5 123 94.9 126.05 94.45 129.4 94 134 94 138.55 93.95 141.55 97.25 143.05 98.9 144 101 129.4 117.65 102.5 138.75 89.05 149.3 78.5 156.5 Z"/>
</defs>

<g transform="matrix( 1, 0, 0, 1, 0,0) ">
<use xlink:href="#Layer0_0_FILL"/>

<use xlink:href="#Layer0_0_1_STROKES"/>
</g>

<g transform="matrix( 1, 0, 0, 1, 0,0) ">
<use xlink:href="#Layer0_1_FILL"/>

<use xlink:href="#Layer0_1_1_STROKES"/>
</g>

<g transform="matrix( 1, 0, 0, 1, 0,0) ">
<use xlink:href="#Layer0_2_FILL"/>

<use xlink:href="#Layer0_2_1_STROKES"/>
</g>

<g transform="matrix( 1, 0, 0, 1, 0,0) ">
<use xlink:href="#Layer0_3_FILL"/>

<use xlink:href="#Layer0_3_1_STROKES"/>
</g>

<g transform="matrix( 1, 0, 0, 1, 0,0) ">
<use xlink:href="#Layer0_4_FILL"/>

<use xlink:href="#Layer0_4_1_STROKES"/>
</g>

<g transform="matrix( 1, 0, 0, 1, 0,0) ">
<use xlink:href="#Layer0_5_1_STROKES"/>
</g>

<g transform="matrix( 1, 0, 0, 1, 0,0) ">
<use xlink:href="#Layer0_6_1_STROKES"/>
</g>

<g transform="matrix( 1, 0, 0, 1, 0,0) ">
<use xlink:href="#Layer0_7_1_STROKES"/>
</g>

<g transform="matrix( 1, 0, 0, 1, 0,0) ">
<use xlink:href="#Layer0_8_FILL"/>
</g>
</svg>
