
<svg xmlns="http://www.w3.org/2000/svg" version="1.1" xmlns:xlink="http://www.w3.org/1999/xlink" preserveAspectRatio="none" x="0px" y="0px" width="150px" height="200px" viewBox="0 0 150 200">
<defs>
<g id="Layer0_0_MEMBER_0_FILL">
<path fill="#CAA35E" stroke="none" d="
M 129.25 84.35
Q 131.25 91.35 131.05 98.7 132.25 99.9 133.45 101.7 135.45 104.65 136.45 108.3 138 100.3 137.05 92.7 136.1 84.9 132.6 77.65 130.55 73.45 126.85 68.15 112.4 47.2 89.75 41.8 82.4 40.05 74.5 40.25 60.75 40.5 49 46.6 40.2 51.15 33.3 58.65 29.4 62.9 25.65 68.75 23.2 72.7 21.8 75.6 19.25 81 17.9 86.75 15 99.15 17.9 111.9
L 22.65 102.9
Q 22.1 99.7 22.1 96.9 22 91.75 23.5 86.6 24.35 83.75 26.25 79.55 30.95 69.5 40.15 60.95 44.75 56.65 48.4 54.4 65.25 44 83.15 46 99.65 47.85 113.1 59.8 125.35 70.5 129.25 84.35 Z"/>
</g>

<g id="Layer0_0_MEMBER_1_FILL">
<path fill="#F3F3F3" stroke="none" d="
M 117.9 93.3
Q 112.6 91.5 105.6 90.9 94.85 90 74.75 90.9 68.85 91.2 44.85 93.9 37.1 94.8 33.05 96 27.1 97.85 23.25 101.7 21.5 103.5 20.6 104.85 18.9 107.4 18.5 110.1 18.2 112 18.75 114.3 19.05 115.8 20.9 121.45 22.7 127.15 23.6 130.3 24.1 131.9 24.45 132.85 28.7 143.35 30.85 147.6 34.55 154.7 38.85 158.6 43.55 162.85 52.85 164.3 59.15 165.25 77.75 165.75 94.9 166.25 101.2 165.45 110.3 164.25 115.5 159.2 117.8 156.9 120.15 153.45 122.7 149.6 124.45 145.4 125.7 142.45 129.25 130.45 130.4 126.6 130.8 125.3 131.45 123.25 132.25 121.45 133.4 118.95 135.05 116.3 136.15 114.55 136.45 113.1 137.25 109 134.8 104.35 133.45 101.85 131.65 99.9 128.95 97 124.55 95.35 119.75 93.95 117.9 93.3 Z"/>
</g>

<g id="Layer0_0_MEMBER_2_FILL">
<path fill="#DDDDDD" stroke="none" d="
M 52.3 119.95
Q 46.55 119 43.3 117.65 38.55 115.75 36.15 112.2 33.75 108.6 34.35 105.6 34.95 102.55 38.25 100.4 41.55 98.2 46.35 97.8 39.35 97.75 33.75 100.2 30.55 101.6 29.55 103.2 28.25 105.4 29.1 108.75 29.6 110.75 30.65 112.6
L 30.75 112.8
Q 33.8 118.05 42.75 121.95 47.25 123.85 51.1 124.75 59.85 126.8 77.45 125.95 90.2 125.3 98.95 123.75 109.55 121.8 116.4 118.15 122.35 115 125.95 109.2 128.45 105.3 127.75 103.2 127.2 101.4 125.1 100.3 123 99.15 120 99 123.7 100.8 124.15 103.2 125.2 108.3 112.8 115.15 108.6 117.5 103.9 118.9 100.85 119.85 96.65 120.55 89.75 121.75 81.45 122.05 67.15 122.5 52.3 119.95 Z"/>
</g>

<g id="Layer0_1_MEMBER_0_FILL">
<path fill="#F3F3F3" stroke="none" d="
M 70.6 129.85
Q 56.55 128.65 44.8 125.8
L 35.85 123.25
Q 32.35 121.95 31.45 121.7 29.3 121.25 28.05 122.05 26.1 123.4 25.75 127.65 25.35 131.9 26.7 137.35 29.9 150.55 38.85 158.6 45.15 164.3 54.85 166.05 61.1 167.2 78.35 167.55 92.9 167.85 99.7 166.7 111.25 164.75 117.3 158 121.3 153.5 124.45 145.4 126.85 139.4 127.45 136.7 128.4 132.3 126.85 129.85 125.25 127.3 120.5 126.75 117.05 126.35 108.3 126.85 92.45 127.75 81.55 129.3 75.05 130.25 70.6 129.85 Z"/>
</g>

<g id="Layer0_1_MEMBER_1_FILL">
<path fill="#CAA35E" stroke="none" d="
M 126.45 134.2
Q 127.05 134.7 127.45 134.65 128.25 134.55 129.25 131.65 130.2 129.15 130.4 128.2 130.75 126.95 130.45 126.25 129.7 124.4 127.1 123.7 124.4 122.95 122.7 124.45 121.7 125.3 121.35 126.7 121.05 128.05 121.5 129.25 121.7 129.75 122.25 130.25 124.2 132 124.45 132.25 125.45 133.2 126.45 134.2 Z"/>
</g>

<g id="Layer0_1_MEMBER_2_FILL">
<path fill="#CAA35E" stroke="none" d="
M 121.15 125.95
L 120.8 125.8
Q 119.05 125.25 116.1 128.65 113.4 131.65 110.7 136.45 109.15 139.25 105.9 145.4 102.2 152.15 102.15 152.25 100.95 154.9 101.7 156.8 102.9 159.2 104.3 159.4 105.65 159.65 107.65 157.35 110.35 154.1 115.5 144.8 124.1 129.4 121.8 126.55 121.5 126.2 121.15 125.95 Z"/>
</g>

<g id="Layer0_1_MEMBER_3_FILL">
<path fill="#CAA35E" stroke="none" d="
M 31.45 139.2
Q 29.9 140.25 29.25 141.8 28.65 143.35 29.3 145.3 29.65 146.5 31.05 149 34.45 155.05 40.65 159.2 45.45 162.35 51.35 164.05 56.85 165.65 57.4 164.55 57.55 164.2 53.6 161.65 48.35 158.25 44.85 153.8 42.1 150.3 39 143.2 36.9 138.45 34.65 138.25 33.05 138.05 31.45 139.2 Z"/>
</g>

<g id="Layer0_1_MEMBER_4_FILL">
<path fill="#BC8550" stroke="none" d="
M 53.5 160.1
Q 49.7 154.7 43.95 150.45 38.75 146.6 37.95 147.5 37.35 148.25 41.85 153.05 45.9 157.35 50.5 161.3 53.15 163.45 53.6 163.75 55.55 165.2 55.9 164.85 56.3 164.55 55.05 162.45 54.2 161.05 53.5 160.1 Z"/>
</g>

<g id="Layer0_1_MEMBER_5_FILL">
<path fill="#CAA35E" stroke="none" d="
M 100.5 145.4
Q 103.55 139.8 104.3 137.75 105.05 135.7 104.7 134.05 104.3 132.05 103.15 130.4 101.85 128.6 100.5 128.65 99.15 128.65 97.65 133.35 95.55 139.8 92.15 144.2
L 84.95 155
Q 83.65 156.9 83.75 158.6 83.9 160.75 85.7 162.5 87.45 164.2 89.15 163.95 90.2 163.8 91.1 162.4 91.25 162.1 93.35 158 94.35 155.95 95.5 154.2 97.05 151.9 100.5 145.4 Z"/>
</g>

<g id="Layer0_1_MEMBER_6_FILL">
<path fill="#BC8550" stroke="none" d="
M 105 134.95
Q 101.4 130.4 100.8 130.75 100.65 130.85 100.9 131.75 101.3 133.15 101.4 133.75 101.85 135.95 101.15 138.3 100.8 139.65 99.6 142.1 97.5 146.8 95.7 151.55 94.05 155.8 94.25 155.9 94.4 156 96.35 152.55 98.55 148.6 100.8 143.9 102.4 140.75 105 134.95 Z"/>
</g>

<g id="Layer0_1_MEMBER_7_FILL">
<path fill="#CAA35E" stroke="none" d="
M 80.15 135.85
Q 79.95 137.15 80.85 138.7 81.45 139.7 84.35 143.6
L 95.15 158
Q 96.3 159.8 97.65 161.9 98.6 163.25 99.9 163.95 102.65 165.5 106.1 165.25 109.4 165.05 110.1 163.4 110.55 162.25 108.9 159.8 106.75 156.55 104.2 153.6 103.95 153.3 100.5 149.6 97.35 146.15 94.3 141.55 92.95 139.5 91.55 137.05 89.7 133.45 89.05 132.35 88 130.7 86.75 130.45 84.8 130.05 82.65 131.8 80.5 133.55 80.15 135.85 Z"/>
</g>

<g id="Layer0_1_MEMBER_8_FILL">
<path fill="#BC8550" stroke="none" d="
M 30.55 142.95
Q 30.3 143.1 30.15 143.3 29.35 144.4 30.75 147.5 32 150.2 34.95 153.5 35.75 154.35 37.05 155.6 38.85 157.3 39.15 157.1 39.3 157 38.05 154.95 36.15 152.05 34.95 149.3 33.6 145.9 33.1 144.75 32.25 142.85 31.35 142.7 30.95 142.65 30.55 142.95 Z"/>
</g>

<g id="Layer0_1_MEMBER_9_FILL">
<path fill="#CAA35E" stroke="none" d="
M 62.8 142.4
Q 62.3 143.65 63.15 145.8 64.5 149.3 69.4 156.2 72.5 160.55 73.75 162.1 75.55 164.25 77.15 165.15 80.85 167.25 85.15 167.4 89.45 167.55 90.35 165.75 90.95 164.55 87.8 161.2 81.95 155 78.35 150.2 73.9 143.8 72.3 141.8 69.85 138.7 67.6 138.8 66.05 138.9 64.7 139.95 63.4 141 62.8 142.4 Z"/>
</g>

<g id="Layer0_1_MEMBER_10_FILL">
<path fill="#BC8550" stroke="none" d="
M 121.65 129.05
Q 121.85 128.6 121.75 127.95 121.6 127.35 121.2 126.95 120.3 126.1 118.45 126.9 116.65 127.7 116.75 128.5 116.8 129.4 119.85 129.55 121.35 129.55 121.65 129.05 Z"/>
</g>

<g id="Layer0_1_MEMBER_11_FILL">
<path fill="#BC8550" stroke="none" d="
M 79.5 164.5
Q 78.6 165.1 78.65 165.45 78.9 166.5 84.45 166.1 90 165.7 90.05 164.85 90.05 164.4 86.45 163.7 84.55 163.3 83.7 163.25 82.25 163.2 81.05 163.7 80.2 164.05 79.5 164.5 Z"/>
</g>

<g id="Layer0_1_MEMBER_12_FILL">
<path fill="#BC8550" stroke="none" d="
M 101.4 164.25
Q 101.45 164.4 103.2 164.25 106.2 164 107.35 163.75 108.2 163.5 108.6 163.1 109.65 161.95 109.2 161.3 108.8 160.7 106.8 161.3 104.75 161.8 102.95 162.85 101.25 163.85 101.4 164.25 Z"/>
</g>

<g id="Layer0_1_MEMBER_13_FILL">
<path fill="#BC8550" stroke="none" d="
M 113.35 148.15
Q 115.2 144.8 116.6 141.25 117.9 137.8 117.55 137.6 116.8 137.3 106.9 155.6
L 107.45 156.8
Q 110.9 152.65 113.35 148.15 Z"/>
</g>

<g id="Layer0_1_MEMBER_14_FILL">
<path fill="#CAA35E" stroke="none" d="
M 124.45 146.6
Q 124.35 145.2 123.3 143.5 122.6 142.35 120.3 139.4 117.2 135.6 115.5 134.05 112.05 131 110.15 129.85 106.75 127.8 103.5 128.05 99.8 128.35 99.3 129.85 99 130.85 101 132.7 102.35 133.95 107.1 138.25 110.55 141.6 112.4 143.7 114.85 146.5 116.7 149.6 117.6 151.1 118.7 153.1 119.5 154.35 120.3 154.4 121.85 154.45 123.3 151.9 124.75 149.3 124.45 146.6 Z"/>
</g>

<g id="Layer0_1_MEMBER_15_FILL">
<path fill="#CAA35E" stroke="none" d="
M 71.8 138.25
Q 69.4 142.4 66.35 147.1 63.55 151.6 59.8 159.2 58.8 161.25 58.5 162.2 58.1 163.6 58.6 164.55 59.45 166.25 62.3 166.85 65.1 167.4 67.6 166.35 69.4 165.6 70.65 162.95 72.8 158.05 75.35 153.2 81.75 141.1 82.55 140 84.3 137.65 84.5 137.35 85.25 136.15 84.95 135.25 84.4 133.55 81.45 132.95 78.45 132.3 75.95 133.45 74.6 134.1 73.55 135.4 72.95 136.15 71.8 138.25 Z"/>
</g>

<g id="Layer0_1_MEMBER_16_FILL">
<path fill="#BC8550" stroke="none" d="
M 66.7 165.45
Q 70.05 159.45 74.45 152.3 81.4 141.35 84.05 137.95 87.25 133.9 87.05 133.75 86.85 133.55 84.95 135.1 83.3 136.4 81.65 137.95 75.65 143.35 67.9 154.7 64.4 159.85 63.35 162.15 62.5 164.1 63.1 164.85 63.9 165.95 66.7 165.45 Z"/>
</g>

<g id="Layer0_1_MEMBER_17_FILL">
<path fill="#CAA35E" stroke="none" d="
M 37.05 159.2
Q 36.4 159.85 36.65 161.35 36.85 162.75 37.65 163.95 38.75 165.7 40.65 166.35 46.2 168.75 51.75 169.9 54.55 170.45 56.2 170.55 66.45 171.15 72.75 171.6 74.9 171.75 75.95 171.75 98.35 172.15 111.9 167.55 118.1 165.45 118.5 162.8 118.6 162 118.3 161.15 117.95 160.3 117.3 159.8 115.8 158.7 112.6 160.05 108.8 162 107.1 162.8 104.25 164.2 99.25 164.8 95.95 165.25 86.15 165.75 70.65 166.65 63.8 166.2 53 165.5 45.45 161.6 42.3 159.95 41 159.45 38 158.25 37.05 159.2 Z"/>
</g>

<g id="Layer0_1_MEMBER_18_FILL">
<path fill="#CAA35E" stroke="none" d="
M 129.85 120.85
Q 127.7 120.55 125.3 120.85 123.9 121.05 119.1 122.05
L 110.1 123.85
Q 101.8 125.75 92.15 126.85
L 87.35 131.05
Q 96.95 130.4 105.9 129.25 114.25 128.15 120.6 126.6 125.45 125.4 130.45 125.05 133.3 124.9 134.35 124.75 136.35 124.45 136.45 123.85 136.55 123.15 134.45 122.2 132.3 121.2 129.85 120.85 Z"/>
</g>

<g id="Layer0_1_MEMBER_19_FILL">
<path fill="#BC8550" stroke="none" d="
M 86.4 134.7
Q 83.95 136.7 83.15 139.4
L 82.85 140.9 89.45 149.9
Q 96.05 158.8 96.35 158.6 96.65 158.3 89.75 146 88.2 143.2 87.7 141.8 86.95 139.6 87.35 137.65 87.65 136.2 88.55 134.7 89.25 133.55 89.15 133.45 88.6 132.95 86.4 134.7 Z"/>
</g>

<g id="Layer0_1_MEMBER_20_FILL">
<path fill="#F3F3F3" stroke="none" d="
M 80.15 126.85
Q 72.15 127.25 66.5 127.1 59.4 126.85 52 125.65 42.3 124.05 34.65 118.45 32.05 116.6 30.85 115.25 29.1 113.4 28.65 111.3 28.6 110.95 28.5 109.6 28.45 108.85 28.05 108.3 27.4 107.35 26.05 106.85 24.65 106.3 23.25 106.5 21.4 106.7 19.7 108.3 17.85 110 17.1 113 16.9 113.7 16.1 119.05 15.2 125.25 13.1 131.65 23.7 137.15 32.85 143.6 48.25 154.4 61 168.15 69.35 153.8 80.15 141.8 85.95 135.4 89.95 132.15 93.65 129.1 97.55 127.45 99.9 126.4 103 125.5 104.7 125.05 109.5 123.85 115.3 122.45 117.5 122.1 120.65 121.6 122.7 122.05 129.8 123.65 134.65 132.85 136.95 128.6 137.95 124.35 139.55 117.4 137.65 111.3 136.9 109 135.85 107.1 133.9 105.15 131.65 105.3 129.75 105.4 128.05 107.1 125.05 112.9 120.3 116.65 117.55 118.9 114.2 120.35 111.55 121.45 107.1 122.65 93.85 126.15 80.15 126.85 Z"/>
</g>

<g id="Layer0_1_MEMBER_21_FILL">
<path fill="#DDDDDD" stroke="none" d="
M 72.7 145.1
Q 62.1 145.8 52.3 142.7 40.45 139 31.35 130.15 24.45 123.25 20.6 113.95
L 17 129.55
Q 30.3 135.8 39.75 143.9 42.55 146.35 51.7 154.7
L 58.9 161.3 72.7 145.1 Z"/>
</g>

<g id="Layer0_1_MEMBER_22_FILL">
<path fill="#BC8550" stroke="none" d="
M 108.8 129.4
Q 105.9 128.85 105.6 129.55 105.35 130.3 110.4 133.75 115.2 136.95 120 139.7 117.6 136.65 115.2 134.35 112.4 131.7 109.2 129.55
L 108.8 129.4 Z"/>
</g>

<g id="Layer0_1_MEMBER_23_FILL">
<path fill="#BC8550" stroke="none" d="
M 126.45 123.55
Q 124.8 122.6 123 122.35 121.25 122.1 119.55 122.45 118.15 122.7 118.2 122.95 118.2 123.1 120.5 123.1 122.95 123.25 123.6 124.15 123.7 124.5 124.15 124.75 124.5 124.9 125.95 124.75 126.65 124.7 127.3 124.75 127.75 124.8 127.75 124.75 127.9 124.4 126.45 123.55 Z"/>
</g>

<g id="Layer0_1_MEMBER_24_FILL">
<path fill="#BC8550" stroke="none" d="
M 129.55 129.55
Q 130 128.35 130.1 128 130.25 127.5 130.15 127.15 129.95 126.55 128.95 125.95 128.25 125.6 124.75 125.95 123.3 126.1 123 126.55 122.8 126.85 122.85 127.3 122.9 127.65 123 127.75 123.25 128.3 124.3 128.65 125.8 129.1 126.55 129.55 127.25 130 128.1 130.85 128.7 131.45 128.95 131.35 129.15 131.25 129.25 130.9 129.4 130.2 129.55 129.55 Z"/>
</g>

<g id="Layer0_1_MEMBER_25_FILL">
<path fill="#BC8550" stroke="none" d="
M 37.65 159.8
Q 37.05 160.25 37.05 161.6 37.15 164.3 41.25 166.35 42.55 167.05 43.75 167.3 44.95 167.6 45.15 167.25 45.2 167.15 44.45 166.3 43.5 165.3 43.35 164.25 43.25 163.75 43.4 163 43.55 162.35 43.35 161.9 43.1 161.25 42.35 160.8 42 160.55 40.95 160.1 38.55 159.1 37.65 159.8 Z"/>
</g>

<g id="Layer0_1_MEMBER_26_FILL">
<path fill="#BC8550" stroke="none" d="
M 117.05 160.15
Q 116.2 159.45 113.75 160.45 112.75 160.9 112.35 161.15 111.6 161.6 111.35 162.25 111.15 162.7 111.3 163.35 111.45 164.1 111.35 164.6 111.1 165.6 110.05 166.45 109.15 167.2 109.2 167.25 109.3 167.5 110.6 167.2 111.9 166.8 113.4 166.05 115.2 165.1 116.05 164.45 117.55 163.25 117.65 161.95 117.65 160.65 117.05 160.15 Z"/>
</g>

<g id="Layer0_2_FILL">
<path fill="#000000" stroke="none" d="
M 99.25 76.3
L 110.75 76.3 111.8 113.95 129.55 113.95 128.5 76.3 139 76.3 119.1 43.9 99.25 76.3 Z"/>
</g>

<path id="Layer0_0_MEMBER_0_1_STROKES" stroke="#75542E" stroke-width="1" stroke-linejoin="miter" stroke-linecap="butt" stroke-miterlimit="10" fill="none" d="
M 17.9 111.9
Q 15 99.15 17.9 86.75 19.25 81 21.8 75.6 23.2 72.7 25.65 68.75 29.4 62.9 33.3 58.65 40.2 51.15 49 46.6 60.75 40.5 74.5 40.25 82.4 40.05 89.75 41.8 112.4 47.2 126.85 68.15 130.55 73.45 132.6 77.65 136.1 84.9 137.05 92.7 138 100.3 136.45 108.3 135.45 104.65 133.45 101.7 132.25 99.9 131.05 98.7 131.25 91.35 129.25 84.35 125.35 70.5 113.1 59.8 99.65 47.85 83.15 46 65.25 44 48.4 54.4 44.75 56.65 40.15 60.95 30.95 69.5 26.25 79.55 24.35 83.75 23.5 86.6 22 91.75 22.1 96.9 22.1 99.7 22.65 102.9
L 17.9 111.9 Z"/>

<path id="Layer0_0_MEMBER_1_1_STROKES" stroke="#000000" stroke-width="1" stroke-linejoin="miter" stroke-linecap="butt" stroke-miterlimit="10" fill="none" d="
M 18.5 110.1
Q 18.9 107.4 20.6 104.85 21.5 103.5 23.25 101.7 27.1 97.85 33.05 96 37.1 94.8 44.85 93.9 68.85 91.2 74.75 90.9 94.85 90 105.6 90.9 112.6 91.5 117.9 93.3 119.75 93.95 124.55 95.35 128.95 97 131.65 99.9 133.45 101.85 134.8 104.35 137.25 109 136.45 113.1 136.15 114.55 135.05 116.3 133.4 118.95 132.25 121.45 131.45 123.25 130.8 125.3 130.4 126.6 129.25 130.45 125.7 142.45 124.45 145.4 122.7 149.6 120.15 153.45 117.8 156.9 115.5 159.2 110.3 164.25 101.2 165.45 94.9 166.25 77.75 165.75 59.15 165.25 52.85 164.3 43.55 162.85 38.85 158.6 34.55 154.7 30.85 147.6 28.7 143.35 24.45 132.85 24.1 131.9 23.6 130.3 22.7 127.15 20.9 121.45 19.05 115.8 18.75 114.3 18.2 112 18.5 110.1 Z"/>

<path id="Layer0_1_MEMBER_0_1_STROKES" stroke="#000000" stroke-width="1" stroke-linejoin="miter" stroke-linecap="butt" stroke-miterlimit="10" fill="none" d="
M 117.3 158
Q 121.3 153.5 124.45 145.4 126.85 139.4 127.45 136.7 128.4 132.3 126.85 129.85 125.25 127.3 120.5 126.75 117.05 126.35 108.3 126.85 92.45 127.75 81.55 129.3 75.05 130.25 70.6 129.85 56.55 128.65 44.8 125.8
L 35.85 123.25
Q 32.35 121.95 31.45 121.7 29.3 121.25 28.05 122.05 26.1 123.4 25.75 127.65 25.35 131.9 26.7 137.35 29.9 150.55 38.85 158.6 45.15 164.3 54.85 166.05 61.1 167.2 78.35 167.55 92.9 167.85 99.7 166.7 111.25 164.75 117.3 158 Z"/>

<path id="Layer0_1_MEMBER_1_1_STROKES" stroke="#75542E" stroke-width="1" stroke-linejoin="miter" stroke-linecap="butt" stroke-miterlimit="10" fill="none" d="
M 127.45 134.65
Q 127.05 134.7 126.45 134.2 125.45 133.2 124.45 132.25 124.2 132 122.25 130.25 121.7 129.75 121.5 129.25 121.05 128.05 121.35 126.7 121.7 125.3 122.7 124.45 124.4 122.95 127.1 123.7 129.7 124.4 130.45 126.25 130.75 126.95 130.4 128.2 130.2 129.15 129.25 131.65 128.25 134.55 127.45 134.65 Z"/>

<path id="Layer0_1_MEMBER_2_1_STROKES" stroke="#75542E" stroke-width="1" stroke-linejoin="miter" stroke-linecap="butt" stroke-miterlimit="10" fill="none" d="
M 101.7 156.8
Q 100.95 154.9 102.15 152.25 102.2 152.15 105.9 145.4 109.15 139.25 110.7 136.45 113.4 131.65 116.1 128.65 119.05 125.25 120.8 125.8
L 121.15 125.95
Q 121.5 126.2 121.8 126.55 124.1 129.4 115.5 144.8 110.35 154.1 107.65 157.35 105.65 159.65 104.3 159.4 102.9 159.2 101.7 156.8 Z"/>

<path id="Layer0_1_MEMBER_3_1_STROKES" stroke="#75542E" stroke-width="1" stroke-linejoin="miter" stroke-linecap="butt" stroke-miterlimit="10" fill="none" d="
M 29.25 141.8
Q 28.65 143.35 29.3 145.3 29.65 146.5 31.05 149 34.45 155.05 40.65 159.2 45.45 162.35 51.35 164.05 56.85 165.65 57.4 164.55 57.55 164.2 53.6 161.65 48.35 158.25 44.85 153.8 42.1 150.3 39 143.2 36.9 138.45 34.65 138.25 33.05 138.05 31.45 139.2 29.9 140.25 29.25 141.8 Z"/>

<path id="Layer0_1_MEMBER_5_1_STROKES" stroke="#75542E" stroke-width="1" stroke-linejoin="miter" stroke-linecap="butt" stroke-miterlimit="10" fill="none" d="
M 83.75 158.6
Q 83.65 156.9 84.95 155
L 92.15 144.2
Q 95.55 139.8 97.65 133.35 99.15 128.65 100.5 128.65 101.85 128.6 103.15 130.4 104.3 132.05 104.7 134.05 105.05 135.7 104.3 137.75 103.55 139.8 100.5 145.4 97.05 151.9 95.5 154.2 94.35 155.95 93.35 158 91.25 162.1 91.1 162.4 90.2 163.8 89.15 163.95 87.45 164.2 85.7 162.5 83.9 160.75 83.75 158.6 Z"/>

<path id="Layer0_1_MEMBER_7_1_STROKES" stroke="#75542E" stroke-width="1" stroke-linejoin="miter" stroke-linecap="butt" stroke-miterlimit="10" fill="none" d="
M 86.75 130.45
Q 84.8 130.05 82.65 131.8 80.5 133.55 80.15 135.85 79.95 137.15 80.85 138.7 81.45 139.7 84.35 143.6
L 95.15 158
Q 96.3 159.8 97.65 161.9 98.6 163.25 99.9 163.95 102.65 165.5 106.1 165.25 109.4 165.05 110.1 163.4 110.55 162.25 108.9 159.8 106.75 156.55 104.2 153.6 103.95 153.3 100.5 149.6 97.35 146.15 94.3 141.55 92.95 139.5 91.55 137.05 89.7 133.45 89.05 132.35 88 130.7 86.75 130.45 Z"/>

<path id="Layer0_1_MEMBER_9_1_STROKES" stroke="#75542E" stroke-width="1" stroke-linejoin="miter" stroke-linecap="butt" stroke-miterlimit="10" fill="none" d="
M 90.35 165.75
Q 90.95 164.55 87.8 161.2 81.95 155 78.35 150.2 73.9 143.8 72.3 141.8 69.85 138.7 67.6 138.8 66.05 138.9 64.7 139.95 63.4 141 62.8 142.4 62.3 143.65 63.15 145.8 64.5 149.3 69.4 156.2 72.5 160.55 73.75 162.1 75.55 164.25 77.15 165.15 80.85 167.25 85.15 167.4 89.45 167.55 90.35 165.75 Z"/>

<path id="Layer0_1_MEMBER_14_1_STROKES" stroke="#75542E" stroke-width="1" stroke-linejoin="miter" stroke-linecap="butt" stroke-miterlimit="10" fill="none" d="
M 120.3 154.4
Q 119.5 154.35 118.7 153.1 117.6 151.1 116.7 149.6 114.85 146.5 112.4 143.7 110.55 141.6 107.1 138.25 102.35 133.95 101 132.7 99 130.85 99.3 129.85 99.8 128.35 103.5 128.05 106.75 127.8 110.15 129.85 112.05 131 115.5 134.05 117.2 135.6 120.3 139.4 122.6 142.35 123.3 143.5 124.35 145.2 124.45 146.6 124.75 149.3 123.3 151.9 121.85 154.45 120.3 154.4 Z"/>

<path id="Layer0_1_MEMBER_15_1_STROKES" stroke="#75542E" stroke-width="1" stroke-linejoin="miter" stroke-linecap="butt" stroke-miterlimit="10" fill="none" d="
M 67.6 166.35
Q 69.4 165.6 70.65 162.95 72.8 158.05 75.35 153.2 81.75 141.1 82.55 140 84.3 137.65 84.5 137.35 85.25 136.15 84.95 135.25 84.4 133.55 81.45 132.95 78.45 132.3 75.95 133.45 74.6 134.1 73.55 135.4 72.95 136.15 71.8 138.25 69.4 142.4 66.35 147.1 63.55 151.6 59.8 159.2 58.8 161.25 58.5 162.2 58.1 163.6 58.6 164.55 59.45 166.25 62.3 166.85 65.1 167.4 67.6 166.35 Z"/>

<path id="Layer0_1_MEMBER_17_1_STROKES" stroke="#75542E" stroke-width="1" stroke-linejoin="miter" stroke-linecap="butt" stroke-miterlimit="10" fill="none" d="
M 37.65 163.95
Q 36.85 162.75 36.65 161.35 36.4 159.85 37.05 159.2 38 158.25 41 159.45 42.3 159.95 45.45 161.6 53 165.5 63.8 166.2 70.65 166.65 86.15 165.75 95.95 165.25 99.25 164.8 104.25 164.2 107.1 162.8 108.8 162 112.6 160.05 115.8 158.7 117.3 159.8 117.95 160.3 118.3 161.15 118.6 162 118.5 162.8 118.1 165.45 111.9 167.55 98.35 172.15 75.95 171.75 74.9 171.75 72.75 171.6 66.45 171.15 56.2 170.55 54.55 170.45 51.75 169.9 46.2 168.75 40.65 166.35 38.75 165.7 37.65 163.95 Z"/>

<path id="Layer0_1_MEMBER_18_1_STROKES" stroke="#75542E" stroke-width="1" stroke-linejoin="miter" stroke-linecap="butt" stroke-miterlimit="10" fill="none" d="
M 87.35 131.05
Q 96.95 130.4 105.9 129.25 114.25 128.15 120.6 126.6 125.45 125.4 130.45 125.05 133.3 124.9 134.35 124.75 136.35 124.45 136.45 123.85 136.55 123.15 134.45 122.2 132.3 121.2 129.85 120.85 127.7 120.55 125.3 120.85 123.9 121.05 119.1 122.05
L 110.1 123.85
Q 101.8 125.75 92.15 126.85
L 87.35 131.05 Z"/>

<path id="Layer0_1_MEMBER_20_1_STROKES" stroke="#000000" stroke-width="1" stroke-linejoin="miter" stroke-linecap="butt" stroke-miterlimit="10" fill="none" d="
M 135.85 107.1
Q 136.9 109 137.65 111.3 139.55 117.4 137.95 124.35 136.95 128.6 134.65 132.85 129.8 123.65 122.7 122.05 120.65 121.6 117.5 122.1 115.3 122.45 109.5 123.85 104.7 125.05 103 125.5 99.9 126.4 97.55 127.45 93.65 129.1 89.95 132.15 85.95 135.4 80.15 141.8 69.35 153.8 61 168.15 48.25 154.4 32.85 143.6 23.7 137.15 13.1 131.65 15.2 125.25 16.1 119.05 16.9 113.7 17.1 113 17.85 110 19.7 108.3 21.4 106.7 23.25 106.5 24.65 106.3 26.05 106.85 27.4 107.35 28.05 108.3 28.45 108.85 28.5 109.6 28.6 110.95 28.65 111.3 29.1 113.4 30.85 115.25 32.05 116.6 34.65 118.45 42.3 124.05 52 125.65 59.4 126.85 66.5 127.1 72.15 127.25 80.15 126.85 93.85 126.15 107.1 122.65 111.55 121.45 114.2 120.35 117.55 118.9 120.3 116.65 125.05 112.9 128.05 107.1 129.75 105.4 131.65 105.3 133.9 105.15 135.85 107.1 Z"/>

<path id="Layer0_2_1_STROKES" stroke="#000000" stroke-width="1" stroke-linejoin="miter" stroke-linecap="butt" stroke-miterlimit="10" fill="none" d="
M 111.8 113.95
L 110.75 76.3 99.25 76.3 119.1 43.9 139 76.3 128.5 76.3 129.55 113.95 111.8 113.95 Z"/>
</defs>

<g transform="matrix( 1, 0, 0, 1, 0,0) ">
<use xlink:href="#Layer0_0_MEMBER_0_FILL"/>

<use xlink:href="#Layer0_0_MEMBER_0_1_STROKES"/>
</g>

<g transform="matrix( 1, 0, 0, 1, 0,0) ">
<use xlink:href="#Layer0_0_MEMBER_1_FILL"/>

<use xlink:href="#Layer0_0_MEMBER_1_1_STROKES"/>
</g>

<g transform="matrix( 1, 0, 0, 1, 0,0) ">
<use xlink:href="#Layer0_0_MEMBER_2_FILL"/>
</g>

<g transform="matrix( 1, 0, 0, 1, 0,0) ">
<use xlink:href="#Layer0_1_MEMBER_0_FILL"/>

<use xlink:href="#Layer0_1_MEMBER_0_1_STROKES"/>
</g>

<g transform="matrix( 1, 0, 0, 1, 0,0) ">
<use xlink:href="#Layer0_1_MEMBER_1_FILL"/>

<use xlink:href="#Layer0_1_MEMBER_1_1_STROKES"/>
</g>

<g transform="matrix( 1, 0, 0, 1, 0,0) ">
<use xlink:href="#Layer0_1_MEMBER_2_FILL"/>

<use xlink:href="#Layer0_1_MEMBER_2_1_STROKES"/>
</g>

<g transform="matrix( 1, 0, 0, 1, 0,0) ">
<use xlink:href="#Layer0_1_MEMBER_3_FILL"/>

<use xlink:href="#Layer0_1_MEMBER_3_1_STROKES"/>
</g>

<g transform="matrix( 1, 0, 0, 1, 0,0) ">
<use xlink:href="#Layer0_1_MEMBER_4_FILL"/>
</g>

<g transform="matrix( 1, 0, 0, 1, 0,0) ">
<use xlink:href="#Layer0_1_MEMBER_5_FILL"/>

<use xlink:href="#Layer0_1_MEMBER_5_1_STROKES"/>
</g>

<g transform="matrix( 1, 0, 0, 1, 0,0) ">
<use xlink:href="#Layer0_1_MEMBER_6_FILL"/>
</g>

<g transform="matrix( 1, 0, 0, 1, 0,0) ">
<use xlink:href="#Layer0_1_MEMBER_7_FILL"/>

<use xlink:href="#Layer0_1_MEMBER_7_1_STROKES"/>
</g>

<g transform="matrix( 1, 0, 0, 1, 0,0) ">
<use xlink:href="#Layer0_1_MEMBER_8_FILL"/>
</g>

<g transform="matrix( 1, 0, 0, 1, 0,0) ">
<use xlink:href="#Layer0_1_MEMBER_9_FILL"/>

<use xlink:href="#Layer0_1_MEMBER_9_1_STROKES"/>
</g>

<g transform="matrix( 1, 0, 0, 1, 0,0) ">
<use xlink:href="#Layer0_1_MEMBER_10_FILL"/>
</g>

<g transform="matrix( 1, 0, 0, 1, 0,0) ">
<use xlink:href="#Layer0_1_MEMBER_11_FILL"/>
</g>

<g transform="matrix( 1, 0, 0, 1, 0,0) ">
<use xlink:href="#Layer0_1_MEMBER_12_FILL"/>
</g>

<g transform="matrix( 1, 0, 0, 1, 0,0) ">
<use xlink:href="#Layer0_1_MEMBER_13_FILL"/>
</g>

<g transform="matrix( 1, 0, 0, 1, 0,0) ">
<use xlink:href="#Layer0_1_MEMBER_14_FILL"/>

<use xlink:href="#Layer0_1_MEMBER_14_1_STROKES"/>
</g>

<g transform="matrix( 1, 0, 0, 1, 0,0) ">
<use xlink:href="#Layer0_1_MEMBER_15_FILL"/>

<use xlink:href="#Layer0_1_MEMBER_15_1_STROKES"/>
</g>

<g transform="matrix( 1, 0, 0, 1, 0,0) ">
<use xlink:href="#Layer0_1_MEMBER_16_FILL"/>
</g>

<g transform="matrix( 1, 0, 0, 1, 0,0) ">
<use xlink:href="#Layer0_1_MEMBER_17_FILL"/>

<use xlink:href="#Layer0_1_MEMBER_17_1_STROKES"/>
</g>

<g transform="matrix( 1, 0, 0, 1, 0,0) ">
<use xlink:href="#Layer0_1_MEMBER_18_FILL"/>

<use xlink:href="#Layer0_1_MEMBER_18_1_STROKES"/>
</g>

<g transform="matrix( 1, 0, 0, 1, 0,0) ">
<use xlink:href="#Layer0_1_MEMBER_19_FILL"/>
</g>

<g transform="matrix( 1, 0, 0, 1, 0,0) ">
<use xlink:href="#Layer0_1_MEMBER_20_FILL"/>

<use xlink:href="#Layer0_1_MEMBER_20_1_STROKES"/>
</g>

<g transform="matrix( 1, 0, 0, 1, 0,0) ">
<use xlink:href="#Layer0_1_MEMBER_21_FILL"/>
</g>

<g transform="matrix( 1, 0, 0, 1, 0,0) ">
<use xlink:href="#Layer0_1_MEMBER_22_FILL"/>
</g>

<g transform="matrix( 1, 0, 0, 1, 0,0) ">
<use xlink:href="#Layer0_1_MEMBER_23_FILL"/>
</g>

<g transform="matrix( 1, 0, 0, 1, 0,0) ">
<use xlink:href="#Layer0_1_MEMBER_24_FILL"/>
</g>

<g transform="matrix( 1, 0, 0, 1, 0,0) ">
<use xlink:href="#Layer0_1_MEMBER_25_FILL"/>
</g>

<g transform="matrix( 1, 0, 0, 1, 0,0) ">
<use xlink:href="#Layer0_1_MEMBER_26_FILL"/>
</g>

<g transform="matrix( 1, 0, 0, 1, 0,0) ">
<use xlink:href="#Layer0_2_FILL"/>

<use xlink:href="#Layer0_2_1_STROKES"/>
</g>
</svg>
