
<svg xmlns="http://www.w3.org/2000/svg" version="1.1" xmlns:xlink="http://www.w3.org/1999/xlink" preserveAspectRatio="none" x="0px" y="0px" width="1280px" height="720px" viewBox="0 0 1280 720">
<defs>
<g id="Layer0_0_FILL">
<path fill="#89C8E9" stroke="none" d="
M 797.95 575.3
Q 756.65 575.95 755 576 704.85 577.25 645.2 582.1 605 585.4 498 596 470.65 598.7 372.1 609.15 311.15 615.6 279.85 617.7 237.9 620.55 204.65 619.2 168.75 617.7 130 611 64.15 599.5 1 576
L 0 659
Q 286.6 731.3 557 719 596.65 717.2 648 712.8 666.5 711.2 751.4 703.25 911.85 688.2 1063 679 1172.45 672.3 1280 668
L 1280 591
Q 1154.1 574 1037 573 1004.65 572.65 940.85 573.35 903.3 573.8 797.95 575.3 Z"/>
</g>

<g id="Layer0_1_FILL">
<path fill="#99D0EE" stroke="none" d="
M 861.85 686.1
Q 820.05 689.15 729 697 458.05 720.3 0 653
L 0 720 1280 718 1280 668
Q 1199.05 669.15 1122 672 991.35 676.7 861.85 686.1 Z"/>
</g>

<g id="Layer0_2_FILL">
<path fill="#0C9E09" stroke="none" d="
M 766 697
Q 749.65 699 709.45 697.75 689.4 697.1 601 693 550.95 690.65 519.2 687.95 498.15 686.2 480 686 441.85 685.6 410.25 688.35 392.2 689.9 362.35 694.25 335.1 698.2 319.05 699.25 293.55 700.95 263 699 242.2 697.65 224.1 694.95 216.35 693.8 195.55 689.95 161.7 683.7 126 683 62.65 681.7 0 693
L 0 720 1280 721 1280 689
Q 1247.6 692.85 1217 695 1190.1 696.85 1159.75 696.8 1102.5 696.65 1077 697 1027.2 698.1 1016.8 698.3 1004.05 698.5 994 697 972.45 692.9 960.6 690.8 939.25 687 918 686 902.25 685.2 884 686 849.75 687.3 811.7 691.4 804.15 692.2 766 697 Z"/>
</g>

<g id="Layer0_3_FILL">
<path fill="#0DBB04" stroke="none" d="
M 89.2 684.65
Q 89.1 688.45 86.65 691.05
L 82.1 682.55
Q 81.4 688.6 77 692.85
L 77.05 691.75 77 691 75.05 682.65
Q 73 688.1 69.65 693.3
L 66.15 684.75
Q 66.4 689.2 65.05 693.2 63.6 689.4 60.15 687.45 60.85 691.9 60.25 696.3
L 55.2 686.45
Q 56.2 692.65 54.25 698.65 51.35 695.55 50.35 691.35
L 49.75 695
Q 47.35 691.95 46.2 688 44.85 691.55 45.15 695.4 42.2 690.75 42.9 685.15 40.45 690.2 40.45 695.85 38.8 691.5 38.4 688.85 37.7703125 685.0234375 39.05 682.15 35.9814453125 688.448046875 34.7 695.25 33 692.2 32.9 688.85 31.2 692.45 30.2 696.35 27.95 690.9 28.85 685.25 26.9 687.6 26.05 690.65 25.2 693.7 25.6 696.75 22.7 694.15 21.15 690.35
L 23.55 705.7
Q 19.95 697 13.9 689.5 14.4 694.2 12.85 698.85 9.7 696.45 9.2 692.35 7.752734375 695.69375 7.9 699.6 7.868359375 699.2642578125 6.35 697.55 4.9330078125 696.0001953125 4.65 695.05 5.10546875 697.186328125 4.3 698.75 4 698.5 3.3 698.25 2.5 697.95 2.3 697.85 2.9 699.7 4.95 700.85 6.65 701.85 8.8 702 9.9 702.1 12.05 702.1 13.9 702.2 15.15 702.8 16.75 703.55 17.65 705.1 18.2 706 19.3 708.1 20.45 709.7 23.2 709.9 25.7 710.15 30.5 709.35
L 41.55 707.55
Q 43.6 707.25 44.7 706.7
L 46.8 705.35
Q 48.85 704.05 51.85 703.95 53.95 703.85 57.3 704.3 59.6 704.65 60.85 704.65 62.8 704.65 64.2 703.9 65.85 703 67.85 700.1
L 71.95 694.25
Q 77.05 698.5 83.15 701.95 83.85 695.4 88.55 690.8 91.55 693.5 92.45 695.4 93.15 696.85 93.15 698.4 93.1 700.1 92.15 701.2 91.5 702 90.15 702.55 89.05 703 89.05 703.2 89.1 703.45 90 703.65 90.1 703.7 92 704 95.1 704.5 98 705.7 97.15 705.05 97.1 703.95 97 703.1 97.5 702.25 98.05 701.45 99 701 106.75 696.55 109.1 696.3 109.8 696.2 110.4 696.3 110.9 696.4 112.55 697.45 117.7 701.15 124.1 702 122.75 699.8 122.65 697.15 127.35 698.95 132.5 699.25 131.3 698.85 130.4 697.85 129.5 696.9 129.2 695.65 129.55 696.15 130.25 696.65 130.8 697.05 131.55 697.25 133.8 695.4 135 693 136.55 689.6 135.9 685.9
L 134 691 133.95 683.3
Q 132.8 688 130.05 692
L 128.9 684.05
Q 129.1021484375 685.7326171875 128.5 687.4 127.9 689.2 126.5 690.4
L 125.2 684.25
Q 125.05 686.35 124 688.25 123 690.2 121.3 691.45
L 120.1 682.75
Q 120.2537109375 684.9265625 118.7 686.9 116.9 689.25 114.25 689.4
L 112.95 684.5
Q 110.75 689.5 110 694.9 107.3 688.55 108.6 681.85 106.75 686.9 105.05 689.6 102.55 693.6 99.05 694.95 101.55 692.6 101.7 688.25 101.85 685.15 100.75 680.4 100.75 682.3 100.55 683.35 100.2 684.95 99.25 685.85 98.2 686.9 96.5 686.35 94.85 685.85 95.05 684.4
L 92.95 692.6
Q 92.9 690.35 91.9 688.25 90.9 686.15 89.2 684.65 Z"/>
</g>

<g id="Layer0_4_FILL">
<path fill="#0DBB04" stroke="none" d="
M 137.65 682.6
Q 137.1 686.75 138.55 692.2 139.15 694.6 137.8 694.8 136.568359375 694.93671875 135.55 693.2 135.98359375 693.967578125 137.15 696.15 138.55 698.95 138.3 699.3 139.9 696.9 142.35 695.55 143.1 695.05 143.65 695.25 144.2 695.45 144.6 696.25
L 146.75 700
Q 147.15 700.7 147.5 700.85 148.05 701.05 149.1 700.35 153.95 697.15 159.1 698.05 161.75 698.45 163.9 700.05 166.15 701.6 167.25 703.95 170.5 701.1 174 700 177.9 698.65 182.3 699.25 185.1 699.7 188 701.35 189.55 702.2 191.9 703.6 193.45 704.35 194.2 704.95 195.35 705.85 195.6 707 198.15 704.9 201.65 704.45 205.1 704.05 208.1 705.5 209.4 706.15 210 706.25 210.5 706.35 211.85 706.1 215.2 705.55 218.55 706.45 221.9 707.3 224.55 709.45 225.05 708.9 224.7 707.2 224.3 705.5 224.85 704.9 225.35 704.45 226.55 704.45
L 237.05 704.4
Q 240 704.4 241.15 705.35 239.35 700.2 240.75 694.95 238.4 697.05 237.5 699.95 237.05 697.5 237.25 695.25 236.9 697.95 235.7 700.75
L 235.7 695.25 233.15 700.8 231.65 695.3
Q 230.5 699 231.2 702.85 228.25 698.6 228.25 693.35 226.9 696.7 226.9 699.95 223.7 698.55 222.2 695.3 222.5 697.9 221.25 700.25 220 698.45 219.85 696.35 219.4 698.75 219.55 701.25 217.25 698.65 216.5 695.15 215.75 691.65 216.8 688.35 212.65 694.7 212.9 702.4 209 695.95 209.4 688.55 206.05 692.25 204.3 697.15
L 203.2 690.1
Q 200.15 693.65 197.85 697.55 197.85 692.05 196.4 687.2 193.9 693.2 189.8 698.4
L 188.7 687.2
Q 188.65 686.6 188.35 686.15 187.95 685.7 187.55 685.95 186.45 690.35 183.55 693.8 183.95 689.75 183.25 685.7 181.3 689.6 177.65 691.8 177.2 688.35 176.25 685.35 175.2 689.25 173.05 692.9
L 170.5 684.1 168.2 697.6
Q 165.35 693.15 164 687.95 162.65 682.75 162.95 677.45 158.55 683.8 157 691.65 154.75 688.65 153.1 685.2 151.9 686.65 151.75 688.35
L 150.45 683 148.35 691.5
Q 144.9 685.3 144.3 678 142.15 683.8 142.6 690.3 139.7 686.65 137.65 682.6 Z"/>
</g>

<g id="Layer0_5_FILL">
<path fill="#0DBB04" stroke="none" d="
M 241.65 705.55
Q 241.7 704.9 241.5 704.3 241.2 703.55 240.05 702.75 238.6 701.75 238 701 237.4 700.3 237.1 699.55 238.4 704.05 240.85 708.1 241.35 708.95 241.8 709.25 242.35 709.6 243.6 709.8 245.95 710.15 247.35 710.15 249.4 710.1 250.95 709.45 252.25 708.85 252.65 708.8 253.6 708.6 254.45 709.2 255.3 709.85 255.45 710.8 256.15 710.9 257 709.9 258 708.8 258.55 708.7 259.25 708.55 260.5 709.3 265.95 712.8 270.4 712.25 273.05 711.95 275.65 710.1 277.6 708.7 279.95 706.15 280.5 707.05 281.75 707.15 282.85 707.3 283.95 706.8 284.45 706.6 285.9 705.8 287.1 705.1 287.9 704.9 290.1 704.45 292.2 706.1 294.15 707.65 294.9 710.05 294.25 707.8 294.7 705.75 296.85 707.1 297.55 709.5 297.35 708.15 298.05 706.85
L 300.9 710.6
Q 302.15 708.45 302.5 706.05 305.35 705.55 308.25 706.25 311.1 706.95 313.35 708.7 314.15 707.35 313.85 705.85 314.9 706.45 316.5 706.05 317.4 705.8 319.2 705.1 322.85 703.85 326.7 705.5 330.55 707.1 332.2 710.65
L 332.7 705.8
Q 332.8 704.95 333.1 704.65 333.4 704.35 334.25 704.25 339.5 703.7 344.35 705.8
L 344.5 702.8
Q 345.85 702.75 347 703.7 348.15 704.6 348.35 705.95 348.9 703 348.7 700.4 352.25 702.9 353.55 706.95 355.55 702.6 354.45 696.75 353.7 692.75 351.05 686.45 351.15 688.25 351 690 350.65 694.25 348.85 698.2 347.7138671875 694.4458984375 347.15 692.1 347.5421875 693.9296875 347.05 695.8 346.6 697.7 345.45 699.15 344.45 696.6 344.35 693.6
L 340.75 701.5
Q 337.7095703125 695.188671875 333.35 689 334.6416015625 691.085546875 334.8 693.7 335 697.05 333.3 699.65 331.459375 697.809375 331.3 695.2 331.394921875 698.4087890625 331.2 700.65 328.75 698.75 328 695.85 328 699.3 327.2 702.5 324.95 699.55 324.7 695.8 322.8 698.4 321.95 701.5 319.5 698.6 319.35 694.7 318.1 697.25 318.9 700.1 317.35 699.5 316.4 698.1 315.4 696.65 315.35 695 314.1 698.8 315.25 702.65 310.65 698.5 309 692.45 308.35 696.8 306.65 701.1 306.05 696.75 304.05 692.75 304.6 697.6 302.7 701.9 302.95 696.75 300.95 692.05 301.25 697.8 297.7 702.55 296.35 697.65 296.8 692.6 295.2 698 294.5 703.95 293.35 697.25 289 692.05 288.5 694.45 288.15 695.5 287.55 697.45 286.7 698.8 285.65 700.4 284.15 701.3 282.5 702.3 280.75 702.15
L 279.9 696.9
Q 278.95 699.5 278.1 700.5 277.45 701.3 276.5 701.65 275.45 702.05 274.55 701.8 273.55 701.5 273.1 700.45 272.933984375 700.1015625 272.85 699.75
L 272.35 702.15
Q 270.1 700.45 269.55 697.55 269.1 702 266.7 706.05 266.55 698.3 262.05 691.85 261.25 697.8 258.05 702.6
L 257.25 701.35 256.9 703.15
Q 255.8 701.55 255.65 699.45 254.4 701.3 254.25 703.65 252.05 699.05 251.6 693.95 248.35 698.05 248.05 703.15 246.75 701.4 246.3 699.15 245.85 696.85 246.35 694.7 243.1 699.9 242.2 705.75
L 241.65 705.55 Z"/>
</g>

<g id="Layer0_6_MEMBER_1_FILL">
<path fill="#0DBB04" stroke="none" d="
M 410.95 687.3
L 409.15 680.4
Q 409.25 688 405.25 694.35
L 403.15 676.7
Q 399.3 684 395.15 690.3
L 394.45 687.7 393.1 691.3 392.3 684.5 389.45 691.35 388.55 687.55
Q 387.05 690.1 387.3 693.05 385.15 687.2 386.05 681.1 380.35 690.55 380.8 701.85 377.85 697.8 377.15 692.65 376.45 687.45 378.2 682.8 373.05 690.55 369.35 699.45 369.75 691.2 368.65 683.55 367.05 691.5 362.55 698.3
L 362.65 688.75
Q 362.35 699.1353515625 357.4 701.95 356.25 702.65 354.3 703.05 352.8 703.4 352.8 703.6 352.8 704.5 365.65 705.35 367.2 703.35 369.95 702.6 372.55 701.9 375.3 702.5 377.6 703 380.2 704.4 381.7 705.2 384.7 707.2 387.45 700.6 392.3 698.55 395.1 697.35 398.1 698.25 401.25 699.15 402.45 701.8 408.15 698.5 415 697
L 415.35 696.9
Q 419.05 697.95 420.95 701.05 420.65 699.4 421.7 697.9 422.7 696.5 424.35 695.9 426.15 695.85 428 696
L 428.1 695.95
Q 431.1 697 432.7 700.2 434.15 703.05 434.35 708.5 434.85 705.1 435.5 703.15 436.55 700.25 438.45 698.75 439 698.25 440 697.8 443.15 700.45 444 705 444.95 704.05 446.3 703.35 448.5 702.15 451 702 454.7 701.75 458 704 457.1 702.05 457.1 700.25 457.05 698.55 457.9 697.85 459 697 461.15 697.85 463.5 698.75 465.3 701.25 466.85 698.05 469 696 469.85 695.1 471.1 694.25 474.75 695.3 477.4 697.7 480.25 700.25 481.05 703.6 482.2 699.35 484.8 695.75 487.5 691.95 490.7 691.5 492.65 691.25 494.3 692.45 496 693.7 495.9 695.5 496.45 693 498.85 691.95 499.75 693.95 499 695.75 500.5 693.55 503.65 693.6 506.65 693.65 508.75 695.6 510.6 697.25 511.85 700.05 512.65 701.9 513.55 705.4 515.15 702.35 516.4 700.9 520.35 700.1 524.6 699.45 527.05 700.9 529.9 704.95 530 702.45 532.3 700.8 534.5 699.25 537.2 699.35 538.6 700.25 539.8 699.9 543.75 701.45 547.05 706.5 549.25 703 552.55 700.85
L 553.15 700.45 553.95 700.6 554.2 699.95
Q 555.8 699.35 557.05 699.65 557.9 699.85 559.6 701.15
L 568.5 708.25
Q 568.4 707.8 568.25 703.25 568.15 700.25 566.75 698.95
L 566.7 698.9
Q 565.6 689.1 566.1 680
L 562.05 692.5 561.95 683.05
Q 561.55 688.55 559.6 693.25 557.7 687.75 557.1 682.1
L 554 692.6
Q 555 686.65 554.75 680.65 554.75 683.75 553.5 686.65 552.25 689.55 549.95 691.7 550.1 685.65 550.8 680.65 549.75 687.15 546.05 692.8
L 545.6 682.8
Q 545.05 688.1 541.95 692.25 539.95 685.7 540.2 678.45 537.3 684.05 536.65 690 534.45 684.3 533.5 678.85 531.45 684.45 528.55 689.85
L 528.05 678.8
Q 525.75 684.6 522.85 690.75 525.05 684.6 522.9 678.4 522.6 684.65 519.35 690.05 518.1 681.95 516.15 674.5 516.25 677.9 515 681.2 513.7 684.45 511.35 686.95 512.2841796875 679.7216796875 510.3 672.95 511.228125 676.5109375 509 679.95 506.75 683.5 502.95 684.05
L 501.4 680.35
Q 500.1 681.25 500.1 682.85 499.95 681.1 498.65 679.55 498.4 681.5 497.1 682.9
L 496.1 679.15
Q 495.45 681.8 494 684.1 493.25 679.5 491.35 675.25 490.95 681.65 488 687.35 489.15 684.05 488.65 680.45 488.1 676.85 486.05 674.05 487.05 676.35 486.45 678.95 485.85 681.55 483.95 683.15
L 483 679.9
Q 482.85 682.15 481.1 683.55 478.5 681.1 477.65 677.6 477.65 682.85 475.2 687.5
L 473.75 682.45 471.15 688 469.35 681.65 467.9 688.4
Q 468.2 683 464.8 678.65 463.4 682.9 463.85 687.1 461.5 682.95 462.6 678.25 459.05 684.8 457.45 692 456.95 683.15 458.6 674.3 452.6 680.65 449 688.95 448.15 685.05 448.3 680.65 446.1 684.9 446.8 689.75 445.1 684.9 445 679.65 443.8 687.45 443.7 695.1 441.05 690 440.4 684.15 439.75 678.3 441.25 672.75 438.3 676.65 436.95 681.45 435.6 686.25 436.1 691.15 433.2 685.45 433.2 679.05 431.75 682.25 431 685.5
L 429.6 679.2
Q 430.75 685.1 427.8 689.2 426.7 690.75 425 692
L 424.85 686.5
Q 424.45 680.25 422.9 674.15 421.85 683 418.2 691.3 418.85 685.35 417.5 679.4 417.2 684.35 415.1 688.5
L 413 682.4 410.95 687.3 Z"/>
</g>

<g id="Layer0_7_FILL">
<path fill="#0DBB04" stroke="none" d="
M 689.25 703.15
Q 692.2 702.4 694.45 703.95
L 693.2 696.9 691.6 702.6
Q 691.9 698.05 690.65 693.85 689.3 698.2 687.35 702.2
L 687.2 694.1 682.15 701.05 682.05 695.25
Q 678.2 699 674.95 701.8 676 698.05 676 694.15
L 665.7 701.95
Q 668.05 696.95 668.05 691.35 664.05 698.4 656.65 701.85 657.5 695.8 657.2 689.15 651.15 693.65 649.05 700.9
L 649.15 691.6
Q 646.8 692.9 645.2 695.25 643.65 697.55 643.3 700.25 642 694.7 643.8 689.2 639.8 693.85 638.7 699.85
L 636.4 690
Q 635.8 695.2 633.85 699.9 633.7 693.85 632.2 687.9 632.05 693.85 629.9 699.6 630.2 693.8 627.7 688.7 628.15 693.25 627.5 698.25 625.7 695.25 625.05 691.55
L 623.4 697.8
Q 623.65 694.65 622.6 691.75
L 621.05 697.85 620.45 691.2
Q 618.5 695.7 619 700.35 617.75 693.7 618.6 686.65 615.35 689.65 613.55 693.8 611.75 698 611.85 702.4 609.5 698.15 609.35 693.25 607.25 695.15 606 697.7 604.75 700.3 604.55 703.1 602.25 698.45 602.1 693.2 599.6 696.6 597.7 700.2
L 595.55 689.95
Q 593.45 693.7 592.35 697.55
L 589.9 687.75
Q 587.4 694.1 587.3 700.8 584.55 694.65 580.85 688.95
L 580.35 698.65
Q 578.6 694.25 578.2 689.25 576.4 693.05 576.1 697.4 573.7 693.1 573.75 688.35 570.85 691.95 570.55 696.45 569.6 692.9 570.75 688.55 569.2 689.8 568.1 691.65 567.55 692.6 566.4 695.25 565.3 698 565.35 700.1 565.35 700.8 565.7 702.55 566.1 704.65 566.5 704.6 569.5 704.1 571.05 704 573.65 703.85 575.6 704.4 577.9 705 579.55 706.7 581.3 708.5 581.35 710.7 582.6 708.55 583.4 707.5 584.7 705.85 586.2 705.05 587.95 704.15 589.95 704.6 592 705.1 592.65 706.8 594.65 704.8 597.8 704.95 600.9 705.15 602.65 707.35 603.2 706.05 604.5 705.3 605.8 704.6 607.2 704.85 607.75 704.95 609.8 705.9 611.4 706.65 612.45 706.45 612.95 706.35 613.55 706.05 613.95 705.85 614.65 705.45 616.1 704.75 617.8 704.95 619.5 705.15 620.8 706.15 622.1 707.15 622.6 708.8 623.15 710.45 622.7 712
L 626.9 706.55
Q 627.8 705.3 628.6 705.1 629.45 704.9 631.35 705.95 633.1 706.9 634 706.45 634.3 706.3 634.7 705.9 635.25 705.3 635.4 705.2 636.25 704.5 637.6 704.65 638.8 704.8 639.75 705.6 640.9 706.6 642.15 709.65 643.15 707.4 645 705.3
L 648.55 706.85 649.2 705.3
Q 650.75 706.15 651.75 707.6 652.8 709.1 653 710.8 657.8 707.6 660.45 706.3 664.8 704.15 668.65 703.9 670.8 703.8 672.45 704.35 674.45 705.05 675.3 706.6 677.3 704.9 680.15 704.8 682.95 704.75 685.05 706.35 686.25 703.9 689.25 703.15 Z"/>
</g>

<g id="Layer0_8_FILL">
<path fill="#0DBB04" stroke="none" d="
M 724.35 698.4
Q 721.45 696.5 719.75 693.3 718.99921875 691.9087890625 718.6 690.45
L 719.75 699.45
Q 714 694.4 712.15 686.85 709.75 692.3 710.3 698.15 707.95 694.15 707.65 689.35 706.4 694.6 707.3 699.8
L 702.45 690.9
Q 701.05 697.5 702.2 703.95 699.25 697.5 697.75 690.65 695.85 693.65 695.85 697 695.85 699.7 697 702
L 694.55 699.75
Q 693.15 698.65 691.9 697.85 692.3 702.55 694.7 706.65 698.65 704.5 703.25 704.05 707.8 703.65 712.05 705.05 712.8 702.6 715.85 702.55 718.9 702.45 719.75 704.8 721.95 702.55 725.3 702.25 728.65 701.9 731.25 703.7
L 743.35 702.6
Q 751.8 701.85 754 705.8 753.95 703.85 755.8 702.55 757.65 701.3 759.7 701.55 761.5 701.8 763.4 703 764.65 703.8 766.65 705.55 766.75 704.3 767.45 703.3 768.15 702.2 769.3 701.85 770.5 701.5 771.65 702.15 772.85 702.75 773.1 703.9 772.9 702.85 774.15 702.3 775.35 701.8 776.5 702.2 777.25 702.5 778.65 703.2 779.9 703.8 780.8 703.6 781.55 703.45 782.85 702.7 785.1 701.6 788.15 702.5 790.25 703.1 793.3 704.9 794.65 702.9 796.95 701.85 799.25 700.8 801.65 701.1 804.05 701.45 806.05 703 808.05 704.6 808.85 706.85 810.65 703.45 812.75 701.6 815.45 699.15 818.2 699.95 819.15 700.25 821.55 701.9 823.6 703.3 825 703.25 826.5 703.2 828.9 701.2 831.3 699.2 832.8 699.1 835.6 698.9 838.5 703.4 839.75 702.3 840.1 700.9 842.3 701.3 844.1 702.8 845.9 704.3 846.65 706.4 846.55 704.05 848.55 702 850.3 700.25 853 699.35 856.85 697.95 861.1 698.25 865.3 698.5 869 700.35
L 868.7 696.15
Q 871.9 696.6 874.35 699.05 876.15 691.35 874.15 683.9
L 871.2 692.8
Q 872.05 687.45 871.4 682.35 866.6 688.2 863.2 695.35 863.5828125 684.9677734375 861.7 674.8 862.16640625 678.61171875 858.7 684.7 854.55 692.05 854.8 695.65
L 852.6 681.85
Q 849.75 685.7 848.45 690.45 847.15 695.15 847.6 699.9 844.6 692.85 845.3 685.2 843.25 687.9 842.2 691.2 841.15 694.55 841.25 697.95
L 838.2 688.5 837.95 697.5 834.6 686.9
Q 833.05 692.8 833.8 699 829.75 692.4 830.15 684.65 826.6 692.15 828 700.3 824.85 693.9 824.25 686.95 822.8 692.45 822.65 697.95 820.15 691.4 820.4 684.25
L 816.55 694.9 815.3 687.35 812.85 696.65
Q 812.55 692.45 810.95 688.5 810.3 692.95 808.3 697.15 807.4 692.1 805.4 687.05 804.8 691.85 802.65 695.9
L 801.75 686.4
Q 799.26171875 692.69765625 794.6 697.85
L 794.8 692.15 791 698.1 790.75 690.6
Q 787.8 693.6 786.6 697.55 785.3 694.15 784.8 690.6 783.1 694.05 783.55 697.8 781.7 696.2 780.6 693.85 779.55 691.55 779.55 689.05 779.25 694.65 780 699.5 777.35 697.8 775.5 695.1 773.7 692.4 773 689.3 771.5 693.1 772.35 696.95 768.65 694.25 767.25 689.95
L 766.95 701.85
Q 764.6 695.5 761.2 688.65 760.75 693.6 758.9 697.95 758.7 693.75 757.45 689.6
L 753.15 701.5 752.3 692.1
Q 752.3 696.5 749.65 699.95 749.6 696.45 748.6 693.15 747.7 696.2 745.5 698.65
L 744.6 688.05
Q 743.6 694.8 739.85 700.25 740.95 694.15 738.25 688.5 738.65 691.1 737.85 693.7 737.05 696.3 735.3 698.25
L 732.6 693.9
Q 732.55 695.8 731.9 697.75 731.15 695.1 729.55 692.9
L 729.15 696.95
Q 726.5 693.45 724.9 689.35 723.9 693.85 724.35 698.4
M 801.4 682.6
L 801.75 686.4
Q 801.803515625 686.269921875 801.85 686.15 802.85 683.45 801.4 682.6 Z"/>
</g>

<g id="Layer0_9_FILL">
<path fill="#0DBB04" stroke="none" d="
M 897.4 689.6
L 895.9 686.55 894.95 689.4 893.15 684.55 892.5 690.45
Q 890.65 685.8 890.55 680.65 889.55 686.2 888 694 885.25 689.7 884.2 683.55 881.55 689.95 881.6 696.85 879.15 692.7 878.15 687.85 875.9 693.75 876.15 696.8 876.4 700.3 879.9 702.95 885.35 698.35 890.45 698.25 896.15 698.15 897.4 704.25 902.85 700.7 905.1 700.2 908.25 699.5 910.25 702.55
L 911.55 698.8
Q 913.6 699.25 915.25 700.75 916.85 702.25 917.45 704.25 917.95 701.25 920.35 699.5 922.5 697.95 925.45 697.85 928.35 697.75 930.45 699.1 932.7 700.55 932.95 703.05
L 935.35 697.35
Q 937.45 699.4 938.45 703 939.05 705.35 939.45 709.7 939.65 706.8 941.75 704.6 943.05 703.2 944.85 702.5 946 702.05 947 702 948.25 699.7 950.5 698.55 952.7 697.35 955.1 697.65 958.05 698 960.15 700.35 962.25 702.8 962.3 706.05 963.6 702.75 963.15 699.25 964.65 699.9 965.8 701.65 966.6 702.8 967.5 705 968 700.15 971.05 698 973.7 696.15 977.7 696.8 981.4 697.4 984.6 699.85 987.9 702.35 988.9 705.65 989.65 702.2 992.35 699.75 993.4 699.9 994.2 700.55 995.1 701.25 995.45 702.25 997.05 697.05 996.95 691.65 996.75 693.95 995.65 696.3 995 697.6 994 699
L 994 697
Q 993.85 695.6 993.5 694.3 991.45 698.45 987.1 700.1 986.55 695.5 986.95 691.45 984.7 695.25 984 695 982.9837890625 694.612890625 984.5 687.4 984.070703125 689.0490234375 982.55 690.7 980.9 692.5 978.95 693.25 973.9 695.1 974.45 688.35 973.6 691.15 971.85 693.95 970.45 691.7 970.3 689.1 970.4 692.65 968.55 695.45 968 692.1 968.45 688.85 966.85 693.05 963.2 695.65
L 962.3 688.2
Q 962.3 692.35 960.7 696.15 959.4 692.4 959.15 688.15 957.85 690.6 957.85 693.25 956.619140625 689.0837890625 956.5 685.15 956.4744140625 687.7607421875 954.4 690.25 952.8 692.1 949.55 694.4
L 949.6 690.55 947.1 695.4 947.7 688.95
Q 944.9 691.6 942.85 695.15
L 943.45 686.6 936.25 693.4
Q 936.55 690.95 935.95 688.6 935.05 691 934.65 694.05 933.6 689.45 933.55 685.25 932.3 688.75 931.65 692.9 930.05 690.35 929.65 687.25 929.3 684.1 930.3 681.25 928.05 683.7 926.85 686.9 925.65 690.1 925.7 693.45 923.85 690 923.3 686.05 922 689.35 921.2 692.6 919.7 686.8 919.15 680.3 917.55 685.55 914.7 690.25 914.6 687 912.55 684.7 911.65 686.65 911.3 688.5 911.4 685.75 910.2 683 909.35 686.3 907.7 689.35 907.6 687 906.6 685.1 906.9 687.65 905.4 691.55 904.15 694.9 903 696 904.1 691.8 903.35 685.15 902.65 679.15 901.2 676.1 900.8 683.4 897.4 689.6 Z"/>
</g>

<g id="Layer0_10_FILL">
<path fill="#0DBB04" stroke="none" d="
M 1032.85 705.5
Q 1038.05 704.25 1043.35 703.7 1046.35 703.35 1048.1 703.85 1050.9 704.75 1051.4 707.1 1051.8 705.15 1054.1 704.25 1055.9 703.55 1058.55 703.6 1063 703.7 1064.75 705.6 1065.3 706.2 1066.4 707.65 1067.45 708.7 1068.4 708.4 1068.2 706.75 1069.45 705.3 1070.55 703.95 1072.3 703.45 1074.6 702.75 1079.05 703.65 1082.75 704.35 1084.95 705.3 1088.1 706.65 1089.6 708.9 1090.15 706.95 1091.4 705.45 1092.75 703.85 1094.55 703.2 1096.4 702.5 1098.4 703 1100.4 703.5 1101.6 705 1101.3 704 1102 703.05 1102.65 702.15 1103.75 701.85 1105.25 701.5 1107.9 702.5 1112.3693359375 704.337890625 1113.5 707.05 1113.4888671875 706.80546875 1113.55 706.5 1113.75 705.6 1114.35 704.95 1115.3 703.9 1117.35 703.15 1123.65 700.7 1127.85 702.05 1124.7 700.7 1123.45 700.1 1121 698.9 1119.3 697.6 1115.1734375 694.4822265625 1114.15 690.45 1114.4689453125 692.6982421875 1113.15 696.4 1111.5 701.05 1111.85 703.2 1107.75 699.1 1106.75 693.35 1106.3 697.25 1104 700.45 1101.9 697.95 1100.3 694.8
L 1097.85 702.2
Q 1096.65 700.3 1096.25 698 1095.9 695.7 1096.4 693.55 1092.85 697.55 1090.65 702.2 1090.45 699.45 1089.75 696.8 1088.2 700.95 1083.9 702.65 1082.45 700 1082 696.8 1081.5 699.7 1080.65 702.15 1078.3 700.6 1076.7 698.1 1075.1 695.65 1074.55 692.8 1074.4 697.05 1071.4 699.95 1070.25 698.45 1070.5 696.45 1069 699.25 1068.5 702.2 1064 700.85 1061.55 697.1
L 1061.95 701.9
Q 1057.5 699.65 1055.85 695.1 1055.6 698.55 1054.7 701.5 1052.25 700 1050.6 697.55 1049 695.05 1048.6 692.2
L 1045 701.85
Q 1044.25 698.45 1041.5 696.1
L 1039.25 702.05
Q 1036.7 699.45 1036.25 695.85 1035.75 698.6 1035.9 701.55 1032.4 697.8 1032.4 692.65 1030.65 698.9 1026.6 704.05
L 1024.1 698.5
Q 1023.35 698.9 1022.9 699.95 1022.85 700 1022.25 701.9 1021.9 703 1021.25 703.75 1020.45 704.55 1019.55 704.4 1018.5 704.2 1018.1 702.9 1017.88046875 702.131640625 1017.9 701.2 1017.6951171875 703.1943359375 1017.1 705.15 1014.5 701.15 1013.35 696.4 1013.25 700.7 1011.8 704.45 1010.45 702.1 1009.9 699.5
L 1008.95 704.2
Q 1006.15 701 1004.85 696.4 1004.8 697.25 1005.1 699.3 1005.4 701.15 1005.2 702.15 1005.1 702.85 1004.55 703.85 1003.85 705.1 1003.7 705.55 1003.45 706.25 1003.5 707.35 1003.5 708.5984375 1003.45 709.05 1003.652734375 707.5728515625 1005.25 706.75 1006.85 705.95 1008.5 706.4 1010.95 707.05 1013.4 710.5 1014.25 708.6 1016 707.35 1017.75 706.05 1019.8 705.8 1021.85 705.6 1023.85 706.4 1025.85 707.25 1027.1 708.9 1028.25 706.6 1032.85 705.5 Z"/>
</g>

<g id="Layer0_11_FILL">
<path fill="#78BDE6" stroke="none" d="
M 1280.5 -0.5
L 0.5 -0.5 0.5 578.5
Q 83.35 605.2 169.5 617.5 238.3 627.3 302.3 626 351.4 625 423.7 616.1 428.35 615.5 490.15 607.55 533.4 601.95 565.75 598.4 662 587.7 760.5 583.5 832.6 580.4 909.65 580.35 955.75 580.3 1010.5 581.5 1146 584.3 1280.5 595.5
L 1280.5 -0.5 Z"/>
</g>

<g id="Layer0_12_FILL">
<path fill="#0DBB04" stroke="none" d="
M 1132.95 697.5
Q 1131.5 700.9 1133.05 702.65 1133.6 703.3 1134.45 703.95 1135.4 704.75 1135.95 704.9 1136.5 705 1137.85 704.8 1139.35 704.6 1139.9 704.65 1141.25 704.8 1143.9 705.35 1146.3 705.75 1147.95 705.55 1149.45 705.35 1152.1 704.3 1154.85 703.2 1156.2 702.95 1158.45 702.55 1160.5 703.7 1162.65 704.95 1162.5 707 1163.7 705.4 1165.95 704.75 1167.95 704.2 1170.25 704.5 1171.65 704.7 1174.45 705.45 1177.15 706.15 1178.6 706.35 1180.6 706.6 1183.75 706.35 1188.1 706 1188.85 706 1195.35 705.8 1198.3 709.25 1200 706.35 1201.15 704.85 1202.9 702.55 1204.85 701.3 1207.15 699.8 1209.9 699.85 1212.75 699.85 1214.45 701.65 1215.1 699.8 1215.6 698.9 1216.4 697.5 1217.55 696.85 1218.85 696.1 1220.4 696.85 1221.95 697.65 1221.7 699.05 1222.2 697.25 1223.9 696 1225.45 694.85 1227.45 694.6 1230.35 694.2 1235 695.85 1239.35 697.45 1241.05 699.3 1242.3 700.7 1242.65 702.45 1243 704.3 1242.15 705.75 1244.55 704.25 1245.95 704.1 1247.05 703.95 1248 704.45 1249 704.95 1249.35 705.9 1249.55 704.25 1251.25 703.2 1252.8 702.25 1254.6 702.35 1256.15 702.5 1257.95 703.35 1259 703.85 1260.95 705.1 1263.85 702.4 1267.85 701.45 1271.85 700.5 1275.65 701.6
L 1274.6 694.95
Q 1273.5 696.85 1271.15 697.5 1268.8 698.15 1266.85 697.1 1264.9 696.05 1264.2 693.75 1263.45 691.45 1264.45 689.45
L 1262.2 692.6
Q 1261.2443359375 689.9244140625 1261.6 687.25 1261.4046875 687.5599609375 1261.1 687.85 1260.1 688.85 1258.85 688.65 1257.6 688.45 1257 687.15 1256.3927734375 685.9357421875 1256.85 684.9
L 1253.9 690.8
Q 1252.3 689.9 1251.25 688.45
L 1250.65 691.45
Q 1248.15 691.35 1245.85 690.25 1243.55 689.15 1241.95 687.3 1242.3 688.65 1241.4 689.9 1240.5 691.15 1239.1 691.35 1237.75 691.5 1236.55 690.55 1235.35 689.6 1235.1 688.25 1234.75 689.9 1233.8 691.55 1232.4 690.2 1231.5 688.1 1230.85 689.8 1229.5 691.2 1228.2 692.5 1226.45 693.2 1224.3 691.85 1223.75 689.45 1223.3 692.15 1221.35 694.1 1218.85 694.25 1216.6 692.8 1214.35 691.4 1213.4 689.05 1213.5 692.15 1211.45 694.8
L 1209.85 689.85
Q 1207.4 696.05 1202.45 700.55 1198.75 696.85 1196.85 691.9 1196.4 697.3 1193.1 701.6 1191.7 703.45 1190.3 703.55 1189.5 703.6 1188.3 703.15 1184.85 701.75 1182.5 698.75 1180.2306640625 695.81875 1179.85 692.45 1180.0455078125 694.4029296875 1180 695.45 1179.9 697.3 1179.2 698.65 1178.4 700.15 1176.75 700.8 1174.95 701.45 1173.65 700.5 1172.5 699.65 1171.9 696.85
L 1168.75 701.7
Q 1165.65 698.85 1164.05 694.85
L 1162.95 697.85 1161.8 694.25
Q 1161.1 696.6 1159.5 698.45 1157.9845703125 696.758203125 1157.65 694.6 1157.6244140625 696.2765625 1157.2 697.55 1156.4 700.1 1154.35 700.55 1153.05 700.85 1151.75 700.1 1150.5 699.35 1149.8 698.1 1148.85 696.35 1148.55 692.7 1147.25 696.75 1145.15 700.35 1142.85 697.9 1142.4 694.45
L 1142.25 702.55
Q 1139.35 698 1138.9 692.5
L 1136.35 698.8
Q 1135.25 695.7 1134.9 691.9 1134.9 692.95 1132.95 697.5 Z"/>
</g>
</defs>

<g transform="matrix( 1, 0, 0, 1, 0,0) ">
<use xlink:href="#Layer0_0_FILL"/>
</g>

<g transform="matrix( 1, 0, 0, 1, 0,0) ">
<use xlink:href="#Layer0_1_FILL"/>
</g>

<g transform="matrix( 1, 0, 0, 1, 0,0) ">
<use xlink:href="#Layer0_2_FILL"/>
</g>

<g transform="matrix( 1, 0, 0, 1, 0,0) ">
<use xlink:href="#Layer0_3_FILL"/>
</g>

<g transform="matrix( 1, 0, 0, 1, 0,0) ">
<use xlink:href="#Layer0_4_FILL"/>
</g>

<g transform="matrix( 1, 0, 0, 1, 0,0) ">
<use xlink:href="#Layer0_5_FILL"/>
</g>

<g transform="matrix( 1, 0, 0, 1, 0,0) ">
<use xlink:href="#Layer0_6_MEMBER_1_FILL"/>
</g>

<g transform="matrix( 1, 0, 0, 1, 0,0) ">
<use xlink:href="#Layer0_7_FILL"/>
</g>

<g transform="matrix( 1, 0, 0, 1, 0,0) ">
<use xlink:href="#Layer0_8_FILL"/>
</g>

<g transform="matrix( 1, 0, 0, 1, 0,0) ">
<use xlink:href="#Layer0_9_FILL"/>
</g>

<g transform="matrix( 1, 0, 0, 1, 0,0) ">
<use xlink:href="#Layer0_10_FILL"/>
</g>

<g transform="matrix( 1, 0, 0, 1, 0,0) ">
<use xlink:href="#Layer0_11_FILL"/>
</g>

<g transform="matrix( 1, 0, 0, 1, 0,0) ">
<use xlink:href="#Layer0_12_FILL"/>
</g>
</svg>
