
<svg xmlns="http://www.w3.org/2000/svg" version="1.1" xmlns:xlink="http://www.w3.org/1999/xlink" preserveAspectRatio="none" x="0px" y="0px" width="1280px" height="720px" viewBox="0 0 1280 720">
<defs>
<g id="Layer0_0_FILL">
<path fill="#89C8E9" stroke="none" d="
M 797.95 548.3
Q 756.65 548.95 755 549 704.85 550.25 645.2 555.1 605 558.4 498 569 470.65 571.7 372.1 582.15 311.15 588.6 279.85 590.7 237.9 593.55 204.65 592.2 168.75 590.7 130 584 64.15 572.5 1 549
L 0 632
Q 286.6 704.3 557 692 596.65 690.2 648 685.8 666.5 684.2 751.4 676.25 911.85 661.2 1063 652 1172.45 645.3 1280 641
L 1280 564
Q 1154.1 547 1037 546 1004.65 545.65 940.85 546.35 903.3 546.8 797.95 548.3 Z"/>
</g>

<g id="Layer0_1_FILL">
<path fill="#99D0EE" stroke="none" d="
M 861.85 659.1
Q 820.05 662.15 729 670 458.05 693.3 0 626
L 0 693 1280 691 1280 641
Q 1199.05 642.15 1122 645 991.35 649.7 861.85 659.1 Z"/>
</g>

<g id="Layer0_2_FILL">
<path fill="#0C9E09" stroke="none" d="
M 766 679
Q 749.65 681 709.45 679.75 689.4 679.1 601 675 550.95 672.65 519.2 669.95 498.15 668.2 480 668 441.85 667.6 410.25 670.35 392.2 671.9 362.35 676.25 335.1 680.2 319.05 681.25 293.55 682.95 263 681 242.2 679.65 224.1 676.95 216.35 675.8 195.55 671.95 161.7 665.7 126 665 62.65 663.7 0 675
L 0 720 1280 720 1280 671
Q 1247.6 674.85 1217 677 1190.1 678.85 1159.75 678.8 1102.5 678.65 1077 679 1027.2 680.1 1016.8 680.3 1004.05 680.5 994 679 972.45 674.9 960.6 672.8 939.25 669 918 668 902.25 667.2 884 668 849.75 669.3 811.7 673.4 804.15 674.2 766 679 Z"/>
</g>

<g id="Layer0_3_FILL">
<path fill="#0DBB04" stroke="none" d="
M 100.55 665.35
Q 100.2 666.95 99.25 667.85 98.2 668.9 96.5 668.35 94.85 667.85 95.05 666.4
L 92.95 674.6
Q 92.9 672.35 91.9 670.25 90.9 668.15 89.2 666.65 89.1 670.45 86.65 673.05
L 82.1 664.55
Q 81.4 670.6 77 674.85
L 77.05 673.75 77 673 75.05 664.65
Q 73 670.1 69.65 675.3
L 66.15 666.75
Q 66.4 671.2 65.05 675.2 63.6 671.4 60.15 669.45 60.85 673.9 60.25 678.3
L 55.2 668.45
Q 56.2 674.65 54.25 680.65 51.35 677.55 50.35 673.35
L 49.75 677
Q 47.35 673.95 46.2 670 44.85 673.55 45.15 677.4 42.2 672.75 42.9 667.15 40.45 672.2 40.45 677.85 38.8 673.5 38.4 670.85 37.7703125 667.0234375 39.05 664.15 35.9814453125 670.448046875 34.7 677.25 33 674.2 32.9 670.85 31.2 674.45 30.2 678.35 27.95 672.9 28.85 667.25 26.9 669.6 26.05 672.65 25.2 675.7 25.6 678.75 22.7 676.15 21.15 672.35
L 23.55 687.7
Q 19.95 679 13.9 671.5 14.4 676.2 12.85 680.85 9.7 678.45 9.2 674.35 7.752734375 677.69375 7.9 681.6 7.868359375 681.2642578125 6.35 679.55 4.9330078125 678.0001953125 4.65 677.05 5.10546875 679.186328125 4.3 680.75 4 680.5 3.3 680.25 2.5 679.95 2.3 679.85 2.9 681.7 4.95 682.85 6.65 683.85 8.8 684 9.9 684.1 12.05 684.1 13.9 684.2 15.15 684.8 16.75 685.55 17.65 687.1 18.2 688 19.3 690.1 20.45 691.7 23.2 691.9 25.7 692.15 30.5 691.35
L 41.55 689.55
Q 43.6 689.25 44.7 688.7
L 46.8 687.35
Q 48.85 686.05 51.85 685.95 53.95 685.85 57.3 686.3 59.6 686.65 60.85 686.65 62.8 686.65 64.2 685.9 65.85 685 67.85 682.1
L 71.95 676.25
Q 77.05 680.5 83.15 683.95 83.85 677.4 88.55 672.8 91.55 675.5 92.45 677.4 93.15 678.85 93.15 680.4 93.1 682.1 92.15 683.2 91.5 684 90.15 684.55 89.05 685 89.05 685.2 89.1 685.45 90 685.65 90.1 685.7 92 686 95.1 686.5 98 687.7 97.15 687.05 97.1 685.95 97 685.1 97.5 684.25 98.05 683.45 99 683 106.75 678.55 109.1 678.3 109.8 678.2 110.4 678.3 110.9 678.4 112.55 679.45 117.7 683.15 124.1 684 122.75 681.8 122.65 679.15 127.35 680.95 132.5 681.25 131.3 680.85 130.4 679.85 129.5 678.9 129.2 677.65 129.55 678.15 130.25 678.65 130.8 679.05 131.55 679.25 133.8 677.4 135 675 136.55 671.6 135.9 667.9
L 134 673 133.95 665.3
Q 132.8 670 130.05 674
L 128.9 666.05
Q 129.1021484375 667.7326171875 128.5 669.4 127.9 671.2 126.5 672.4
L 125.2 666.25
Q 125.05 668.35 124 670.25 123 672.2 121.3 673.45
L 120.1 664.75
Q 120.2537109375 666.9265625 118.7 668.9 116.9 671.25 114.25 671.4
L 112.95 666.5
Q 110.75 671.5 110 676.9 107.3 670.55 108.6 663.85 106.75 668.9 105.05 671.6 102.55 675.6 99.05 676.95 101.55 674.6 101.7 670.25 101.85 667.15 100.75 662.4 100.75 664.3 100.55 665.35 Z"/>
</g>

<g id="Layer0_4_FILL">
<path fill="#0DBB04" stroke="none" d="
M 135.55 675.2
Q 135.98359375 675.967578125 137.15 678.15 138.55 680.95 138.3 681.3 139.9 678.9 142.35 677.55 143.1 677.05 143.65 677.25 144.2 677.45 144.6 678.25
L 146.75 682
Q 147.15 682.7 147.5 682.85 148.05 683.05 149.1 682.35 153.95 679.15 159.1 680.05 161.75 680.45 163.9 682.05 166.15 683.6 167.25 685.95 170.5 683.1 174 682 177.9 680.65 182.3 681.25 185.1 681.7 188 683.35 189.55 684.2 191.9 685.6 193.45 686.35 194.2 686.95 195.35 687.85 195.6 689 198.15 686.9 201.65 686.45 205.1 686.05 208.1 687.5 209.4 688.15 210 688.25 210.5 688.35 211.85 688.1 215.2 687.55 218.55 688.45 221.9 689.3 224.55 691.45 225.05 690.9 224.7 689.2 224.3 687.5 224.85 686.9 225.35 686.45 226.55 686.45
L 237.05 686.4
Q 240 686.4 241.15 687.35 239.35 682.2 240.75 676.95 238.4 679.05 237.5 681.95 237.05 679.5 237.25 677.25 236.9 679.95 235.7 682.75
L 235.7 677.25 233.15 682.8 231.65 677.3
Q 230.5 681 231.2 684.85 228.25 680.6 228.25 675.35 226.9 678.7 226.9 681.95 223.7 680.55 222.2 677.3 222.5 679.9 221.25 682.25 220 680.45 219.85 678.35 219.4 680.75 219.55 683.25 217.25 680.65 216.5 677.15 215.75 673.65 216.8 670.35 212.65 676.7 212.9 684.4 209 677.95 209.4 670.55 206.05 674.25 204.3 679.15
L 203.2 672.1
Q 200.15 675.65 197.85 679.55 197.85 674.05 196.4 669.2 193.9 675.2 189.8 680.4
L 188.7 669.2
Q 188.65 668.6 188.35 668.15 187.95 667.7 187.55 667.95 186.45 672.35 183.55 675.8 183.95 671.75 183.25 667.7 181.3 671.6 177.65 673.8 177.2 670.35 176.25 667.35 175.2 671.25 173.05 674.9
L 170.5 666.1 168.2 679.6
Q 165.35 675.15 164 669.95 162.65 664.75 162.95 659.45 158.55 665.8 157 673.65 154.75 670.65 153.1 667.2 151.9 668.65 151.75 670.35
L 150.45 665 148.35 673.5
Q 144.9 667.3 144.3 660 142.15 665.8 142.6 672.3 139.7 668.65 137.65 664.6 137.1 668.75 138.55 674.2 139.15 676.6 137.8 676.8 136.568359375 676.93671875 135.55 675.2 Z"/>
</g>

<g id="Layer0_5_FILL">
<path fill="#0DBB04" stroke="none" d="
M 243.6 691.8
Q 245.95 692.15 247.35 692.15 249.4 692.1 250.95 691.45 252.25 690.85 252.65 690.8 253.6 690.6 254.45 691.2 255.3 691.85 255.45 692.8 256.15 692.9 257 691.9 258 690.8 258.55 690.7 259.25 690.55 260.5 691.3 265.95 694.8 270.4 694.25 273.05 693.95 275.65 692.1 277.6 690.7 279.95 688.15 280.5 689.05 281.75 689.15 282.85 689.3 283.95 688.8 284.45 688.6 285.9 687.8 287.1 687.1 287.9 686.9 290.1 686.45 292.2 688.1 294.15 689.65 294.9 692.05 294.25 689.8 294.7 687.75 296.85 689.1 297.55 691.5 297.35 690.15 298.05 688.85
L 300.9 692.6
Q 302.15 690.45 302.5 688.05 305.35 687.55 308.25 688.25 311.1 688.95 313.35 690.7 314.15 689.35 313.85 687.85 314.9 688.45 316.5 688.05 317.4 687.8 319.2 687.1 322.85 685.85 326.7 687.5 330.55 689.1 332.2 692.65
L 332.7 687.8
Q 332.8 686.95 333.1 686.65 333.4 686.35 334.25 686.25 339.5 685.7 344.35 687.8
L 344.5 684.8
Q 345.85 684.75 347 685.7 348.15 686.6 348.35 687.95 348.9 685 348.7 682.4 352.25 684.9 353.55 688.95 355.55 684.6 354.45 678.75 353.7 674.75 351.05 668.45 351.15 670.25 351 672 350.65 676.25 348.85 680.2 347.7138671875 676.4458984375 347.15 674.1 347.5421875 675.9296875 347.05 677.8 346.6 679.7 345.45 681.15 344.45 678.6 344.35 675.6
L 340.75 683.5
Q 337.7095703125 677.188671875 333.35 671 334.6416015625 673.085546875 334.8 675.7 335 679.05 333.3 681.65 331.459375 679.809375 331.3 677.2 331.394921875 680.4087890625 331.2 682.65 328.75 680.75 328 677.85 328 681.3 327.2 684.5 324.95 681.55 324.7 677.8 322.8 680.4 321.95 683.5 319.5 680.6 319.35 676.7 318.1 679.25 318.9 682.1 317.35 681.5 316.4 680.1 315.4 678.65 315.35 677 314.1 680.8 315.25 684.65 310.65 680.5 309 674.45 308.35 678.8 306.65 683.1 306.05 678.75 304.05 674.75 304.6 679.6 302.7 683.9 302.95 678.75 300.95 674.05 301.25 679.8 297.7 684.55 296.35 679.65 296.8 674.6 295.2 680 294.5 685.95 293.35 679.25 289 674.05 288.5 676.45 288.15 677.5 287.55 679.45 286.7 680.8 285.65 682.4 284.15 683.3 282.5 684.3 280.75 684.15
L 279.9 678.9
Q 278.95 681.5 278.1 682.5 277.45 683.3 276.5 683.65 275.45 684.05 274.55 683.8 273.55 683.5 273.1 682.45 272.933984375 682.1015625 272.85 681.75
L 272.35 684.15
Q 270.1 682.45 269.55 679.55 269.1 684 266.7 688.05 266.55 680.3 262.05 673.85 261.25 679.8 258.05 684.6
L 257.25 683.35 256.9 685.15
Q 255.8 683.55 255.65 681.45 254.4 683.3 254.25 685.65 252.05 681.05 251.6 675.95 248.35 680.05 248.05 685.15 246.75 683.4 246.3 681.15 245.85 678.85 246.35 676.7 243.1 681.9 242.2 687.75
L 241.65 687.55
Q 241.7 686.9 241.5 686.3 241.2 685.55 240.05 684.75 238.6 683.75 238 683 237.4 682.3 237.1 681.55 238.4 686.05 240.85 690.1 241.35 690.95 241.8 691.25 242.35 691.6 243.6 691.8 Z"/>
</g>

<g id="Layer0_6_MEMBER_1_FILL">
<path fill="#0DBB04" stroke="none" d="
M 440.4 666.15
Q 439.75 660.3 441.25 654.75 438.3 658.65 436.95 663.45 435.6 668.25 436.1 673.15 433.2 667.45 433.2 661.05 431.75 664.25 431 667.5
L 429.6 661.2
Q 430.75 667.1 427.8 671.2 426.7 672.75 425 674
L 424.85 668.5
Q 424.45 662.25 422.9 656.15 421.85 665 418.2 673.3 418.85 667.35 417.5 661.4 417.2 666.35 415.1 670.5
L 413 664.4 410.95 669.3 409.15 662.4
Q 409.25 670 405.25 676.35
L 403.15 658.7
Q 399.3 666 395.15 672.3
L 394.45 669.7 393.1 673.3 392.3 666.5 389.45 673.35 388.55 669.55
Q 387.05 672.1 387.3 675.05 385.15 669.2 386.05 663.1 380.35 672.55 380.8 683.85 377.85 679.8 377.15 674.65 376.45 669.45 378.2 664.8 373.05 672.55 369.35 681.45 369.75 673.2 368.65 665.55 367.05 673.5 362.55 680.3
L 362.65 670.75
Q 362.35 681.1353515625 357.4 683.95 356.25 684.65 354.3 685.05 352.8 685.4 352.8 685.6 352.8 686.5 365.65 687.35 367.2 685.35 369.95 684.6 372.55 683.9 375.3 684.5 377.6 685 380.2 686.4 381.7 687.2 384.7 689.2 387.45 682.6 392.3 680.55 395.1 679.35 398.1 680.25 401.25 681.15 402.45 683.8 408.15 680.5 415 679
L 415.35 678.9
Q 419.05 679.95 420.95 683.05 420.65 681.4 421.7 679.9 422.7 678.5 424.35 677.9 426.15 677.85 428 678
L 428.1 677.95
Q 431.1 679 432.7 682.2 434.15 685.05 434.35 690.5 434.85 687.1 435.5 685.15 436.55 682.25 438.45 680.75 439 680.25 440 679.8 443.15 682.45 444 687 444.95 686.05 446.3 685.35 448.5 684.15 451 684 454.7 683.75 458 686 457.1 684.05 457.1 682.25 457.05 680.55 457.9 679.85 459 679 461.15 679.85 463.5 680.75 465.3 683.25 466.85 680.05 469 678 469.85 677.1 471.1 676.25 474.75 677.3 477.4 679.7 480.25 682.25 481.05 685.6 482.2 681.35 484.8 677.75 487.5 673.95 490.7 673.5 492.65 673.25 494.3 674.45 496 675.7 495.9 677.5 496.45 675 498.85 673.95 499.75 675.95 499 677.75 500.5 675.55 503.65 675.6 506.65 675.65 508.75 677.6 510.6 679.25 511.85 682.05 512.65 683.9 513.55 687.4 515.15 684.35 516.4 682.9 520.35 682.1 524.6 681.45 527.05 682.9 529.9 686.95 530 684.45 532.3 682.8 534.5 681.25 537.2 681.35 538.6 682.25 539.8 681.9 543.75 683.45 547.05 688.5 549.25 685 552.55 682.85
L 553.15 682.45 553.95 682.6 554.2 681.95
Q 555.8 681.35 557.05 681.65 557.9 681.85 559.6 683.15
L 568.5 690.25
Q 568.4 689.8 568.25 685.25 568.15 682.25 566.75 680.95
L 566.7 680.9
Q 565.6 671.1 566.1 662
L 562.05 674.5 561.95 665.05
Q 561.55 670.55 559.6 675.25 557.7 669.75 557.1 664.1
L 554 674.6
Q 555 668.65 554.75 662.65 554.75 665.75 553.5 668.65 552.25 671.55 549.95 673.7 550.1 667.65 550.8 662.65 549.75 669.15 546.05 674.8
L 545.6 664.8
Q 545.05 670.1 541.95 674.25 539.95 667.7 540.2 660.45 537.3 666.05 536.65 672 534.45 666.3 533.5 660.85 531.45 666.45 528.55 671.85
L 528.05 660.8
Q 525.75 666.6 522.85 672.75 525.05 666.6 522.9 660.4 522.6 666.65 519.35 672.05 518.1 663.95 516.15 656.5 516.25 659.9 515 663.2 513.7 666.45 511.35 668.95 512.2841796875 661.7216796875 510.3 654.95 511.228125 658.5109375 509 661.95 506.75 665.5 502.95 666.05
L 501.4 662.35
Q 500.1 663.25 500.1 664.85 499.95 663.1 498.65 661.55 498.4 663.5 497.1 664.9
L 496.1 661.15
Q 495.45 663.8 494 666.1 493.25 661.5 491.35 657.25 490.95 663.65 488 669.35 489.15 666.05 488.65 662.45 488.1 658.85 486.05 656.05 487.05 658.35 486.45 660.95 485.85 663.55 483.95 665.15
L 483 661.9
Q 482.85 664.15 481.1 665.55 478.5 663.1 477.65 659.6 477.65 664.85 475.2 669.5
L 473.75 664.45 471.15 670 469.35 663.65 467.9 670.4
Q 468.2 665 464.8 660.65 463.4 664.9 463.85 669.1 461.5 664.95 462.6 660.25 459.05 666.8 457.45 674 456.95 665.15 458.6 656.3 452.6 662.65 449 670.95 448.15 667.05 448.3 662.65 446.1 666.9 446.8 671.75 445.1 666.9 445 661.65 443.8 669.45 443.7 677.1 441.05 672 440.4 666.15 Z"/>
</g>

<g id="Layer0_7_FILL">
<path fill="#0DBB04" stroke="none" d="
M 651.75 689.6
Q 652.8 691.1 653 692.8 657.8 689.6 660.45 688.3 664.8 686.15 668.65 685.9 670.8 685.8 672.45 686.35 674.45 687.05 675.3 688.6 677.3 686.9 680.15 686.8 682.95 686.75 685.05 688.35 686.25 685.9 689.25 685.15 692.2 684.4 694.45 685.95
L 693.2 678.9 691.6 684.6
Q 691.9 680.05 690.65 675.85 689.3 680.2 687.35 684.2
L 687.2 676.1 682.15 683.05 682.05 677.25
Q 678.2 681 674.95 683.8 676 680.05 676 676.15
L 665.7 683.95
Q 668.05 678.95 668.05 673.35 664.05 680.4 656.65 683.85 657.5 677.8 657.2 671.15 651.15 675.65 649.05 682.9
L 649.15 673.6
Q 646.8 674.9 645.2 677.25 643.65 679.55 643.3 682.25 642 676.7 643.8 671.2 639.8 675.85 638.7 681.85
L 636.4 672
Q 635.8 677.2 633.85 681.9 633.7 675.85 632.2 669.9 632.05 675.85 629.9 681.6 630.2 675.8 627.7 670.7 628.15 675.25 627.5 680.25 625.7 677.25 625.05 673.55
L 623.4 679.8
Q 623.65 676.65 622.6 673.75
L 621.05 679.85 620.45 673.2
Q 618.5 677.7 619 682.35 617.75 675.7 618.6 668.65 615.35 671.65 613.55 675.8 611.75 680 611.85 684.4 609.5 680.15 609.35 675.25 607.25 677.15 606 679.7 604.75 682.3 604.55 685.1 602.25 680.45 602.1 675.2 599.6 678.6 597.7 682.2
L 595.55 671.95
Q 593.45 675.7 592.35 679.55
L 589.9 669.75
Q 587.4 676.1 587.3 682.8 584.55 676.65 580.85 670.95
L 580.35 680.65
Q 578.6 676.25 578.2 671.25 576.4 675.05 576.1 679.4 573.7 675.1 573.75 670.35 570.85 673.95 570.55 678.45 569.6 674.9 570.75 670.55 569.2 671.8 568.1 673.65 567.55 674.6 566.4 677.25 565.3 680 565.35 682.1 565.35 682.8 565.7 684.55 566.1 686.65 566.5 686.6 569.5 686.1 571.05 686 573.65 685.85 575.6 686.4 577.9 687 579.55 688.7 581.3 690.5 581.35 692.7 582.6 690.55 583.4 689.5 584.7 687.85 586.2 687.05 587.95 686.15 589.95 686.6 592 687.1 592.65 688.8 594.65 686.8 597.8 686.95 600.9 687.15 602.65 689.35 603.2 688.05 604.5 687.3 605.8 686.6 607.2 686.85 607.75 686.95 609.8 687.9 611.4 688.65 612.45 688.45 612.95 688.35 613.55 688.05 613.95 687.85 614.65 687.45 616.1 686.75 617.8 686.95 619.5 687.15 620.8 688.15 622.1 689.15 622.6 690.8 623.15 692.45 622.7 694
L 626.9 688.55
Q 627.8 687.3 628.6 687.1 629.45 686.9 631.35 687.95 633.1 688.9 634 688.45 634.3 688.3 634.7 687.9 635.25 687.3 635.4 687.2 636.25 686.5 637.6 686.65 638.8 686.8 639.75 687.6 640.9 688.6 642.15 691.65 643.15 689.4 645 687.3
L 648.55 688.85 649.2 687.3
Q 650.75 688.15 651.75 689.6 Z"/>
</g>

<g id="Layer0_8_FILL">
<path fill="#0DBB04" stroke="none" d="
M 738.25 670.5
Q 738.65 673.1 737.85 675.7 737.05 678.3 735.3 680.25
L 732.6 675.9
Q 732.55 677.8 731.9 679.75 731.15 677.1 729.55 674.9
L 729.15 678.95
Q 726.5 675.45 724.9 671.35 723.9 675.85 724.35 680.4 721.45 678.5 719.75 675.3 718.99921875 673.9087890625 718.6 672.45
L 719.75 681.45
Q 714 676.4 712.15 668.85 709.75 674.3 710.3 680.15 707.95 676.15 707.65 671.35 706.4 676.6 707.3 681.8
L 702.45 672.9
Q 701.05 679.5 702.2 685.95 699.25 679.5 697.75 672.65 695.85 675.65 695.85 679 695.85 681.7 697 684
L 694.55 681.75
Q 693.15 680.65 691.9 679.85 692.3 684.55 694.7 688.65 698.65 686.5 703.25 686.05 707.8 685.65 712.05 687.05 712.8 684.6 715.85 684.55 718.9 684.45 719.75 686.8 721.95 684.55 725.3 684.25 728.65 683.9 731.25 685.7
L 743.35 684.6
Q 751.8 683.85 754 687.8 753.95 685.85 755.8 684.55 757.65 683.3 759.7 683.55 761.5 683.8 763.4 685 764.65 685.8 766.65 687.55 766.75 686.3 767.45 685.3 768.15 684.2 769.3 683.85 770.5 683.5 771.65 684.15 772.85 684.75 773.1 685.9 772.9 684.85 774.15 684.3 775.35 683.8 776.5 684.2 777.25 684.5 778.65 685.2 779.9 685.8 780.8 685.6 781.55 685.45 782.85 684.7 785.1 683.6 788.15 684.5 790.25 685.1 793.3 686.9 794.65 684.9 796.95 683.85 799.25 682.8 801.65 683.1 804.05 683.45 806.05 685 808.05 686.6 808.85 688.85 810.65 685.45 812.75 683.6 815.45 681.15 818.2 681.95 819.15 682.25 821.55 683.9 823.6 685.3 825 685.25 826.5 685.2 828.9 683.2 831.3 681.2 832.8 681.1 835.6 680.9 838.5 685.4 839.75 684.3 840.1 682.9 842.3 683.3 844.1 684.8 845.9 686.3 846.65 688.4 846.55 686.05 848.55 684 850.3 682.25 853 681.35 856.85 679.95 861.1 680.25 865.3 680.5 869 682.35
L 868.7 678.15
Q 871.9 678.6 874.35 681.05 876.15 673.35 874.15 665.9
L 871.2 674.8
Q 872.05 669.45 871.4 664.35 866.6 670.2 863.2 677.35 863.5828125 666.9677734375 861.7 656.8 862.16640625 660.61171875 858.7 666.7 854.55 674.05 854.8 677.65
L 852.6 663.85
Q 849.75 667.7 848.45 672.45 847.15 677.15 847.6 681.9 844.6 674.85 845.3 667.2 843.25 669.9 842.2 673.2 841.15 676.55 841.25 679.95
L 838.2 670.5 837.95 679.5 834.6 668.9
Q 833.05 674.8 833.8 681 829.75 674.4 830.15 666.65 826.6 674.15 828 682.3 824.85 675.9 824.25 668.95 822.8 674.45 822.65 679.95 820.15 673.4 820.4 666.25
L 816.55 676.9 815.3 669.35 812.85 678.65
Q 812.55 674.45 810.95 670.5 810.3 674.95 808.3 679.15 807.4 674.1 805.4 669.05 804.8 673.85 802.65 677.9
L 801.75 668.4
Q 799.26171875 674.69765625 794.6 679.85
L 794.8 674.15 791 680.1 790.75 672.6
Q 787.8 675.6 786.6 679.55 785.3 676.15 784.8 672.6 783.1 676.05 783.55 679.8 781.7 678.2 780.6 675.85 779.55 673.55 779.55 671.05 779.25 676.65 780 681.5 777.35 679.8 775.5 677.1 773.7 674.4 773 671.3 771.5 675.1 772.35 678.95 768.65 676.25 767.25 671.95
L 766.95 683.85
Q 764.6 677.5 761.2 670.65 760.75 675.6 758.9 679.95 758.7 675.75 757.45 671.6
L 753.15 683.5 752.3 674.1
Q 752.3 678.5 749.65 681.95 749.6 678.45 748.6 675.15 747.7 678.2 745.5 680.65
L 744.6 670.05
Q 743.6 676.8 739.85 682.25 740.95 676.15 738.25 670.5
M 801.85 668.15
Q 802.85 665.45 801.4 664.6
L 801.75 668.4
Q 801.803515625 668.269921875 801.85 668.15 Z"/>
</g>

<g id="Layer0_9_FILL">
<path fill="#0DBB04" stroke="none" d="
M 903.35 667.15
Q 902.65 661.15 901.2 658.1 900.8 665.4 897.4 671.6
L 895.9 668.55 894.95 671.4 893.15 666.55 892.5 672.45
Q 890.65 667.8 890.55 662.65 889.55 668.2 888 676 885.25 671.7 884.2 665.55 881.55 671.95 881.6 678.85 879.15 674.7 878.15 669.85 875.9 675.75 876.15 678.8 876.4 682.3 879.9 684.95 885.35 680.35 890.45 680.25 896.15 680.15 897.4 686.25 902.85 682.7 905.1 682.2 908.25 681.5 910.25 684.55
L 911.55 680.8
Q 913.6 681.25 915.25 682.75 916.85 684.25 917.45 686.25 917.95 683.25 920.35 681.5 922.5 679.95 925.45 679.85 928.35 679.75 930.45 681.1 932.7 682.55 932.95 685.05
L 935.35 679.35
Q 937.45 681.4 938.45 685 939.05 687.35 939.45 691.7 939.65 688.8 941.75 686.6 943.05 685.2 944.85 684.5 946 684.05 947 684 948.25 681.7 950.5 680.55 952.7 679.35 955.1 679.65 958.05 680 960.15 682.35 962.25 684.8 962.3 688.05 963.6 684.75 963.15 681.25 964.65 681.9 965.8 683.65 966.6 684.8 967.5 687 968 682.15 971.05 680 973.7 678.15 977.7 678.8 981.4 679.4 984.6 681.85 987.9 684.35 988.9 687.65 989.65 684.2 992.35 681.75 993.4 681.9 994.2 682.55 995.1 683.25 995.45 684.25 997.05 679.05 996.95 673.65 996.75 675.95 995.65 678.3 995 679.6 994 681
L 994 679
Q 993.85 677.6 993.5 676.3 991.45 680.45 987.1 682.1 986.55 677.5 986.95 673.45 984.7 677.25 984 677 982.9837890625 676.612890625 984.5 669.4 984.070703125 671.0490234375 982.55 672.7 980.9 674.5 978.95 675.25 973.9 677.1 974.45 670.35 973.6 673.15 971.85 675.95 970.45 673.7 970.3 671.1 970.4 674.65 968.55 677.45 968 674.1 968.45 670.85 966.85 675.05 963.2 677.65
L 962.3 670.2
Q 962.3 674.35 960.7 678.15 959.4 674.4 959.15 670.15 957.85 672.6 957.85 675.25 956.619140625 671.0837890625 956.5 667.15 956.4744140625 669.7607421875 954.4 672.25 952.8 674.1 949.55 676.4
L 949.6 672.55 947.1 677.4 947.7 670.95
Q 944.9 673.6 942.85 677.15
L 943.45 668.6 936.25 675.4
Q 936.55 672.95 935.95 670.6 935.05 673 934.65 676.05 933.6 671.45 933.55 667.25 932.3 670.75 931.65 674.9 930.05 672.35 929.65 669.25 929.3 666.1 930.3 663.25 928.05 665.7 926.85 668.9 925.65 672.1 925.7 675.45 923.85 672 923.3 668.05 922 671.35 921.2 674.6 919.7 668.8 919.15 662.3 917.55 667.55 914.7 672.25 914.6 669 912.55 666.7 911.65 668.65 911.3 670.5 911.4 667.75 910.2 665 909.35 668.3 907.7 671.35 907.6 669 906.6 667.1 906.9 669.65 905.4 673.55 904.15 676.9 903 678 904.1 673.8 903.35 667.15 Z"/>
</g>

<g id="Layer0_10_FILL">
<path fill="#0DBB04" stroke="none" d="
M 1054.1 686.25
Q 1055.9 685.55 1058.55 685.6 1063 685.7 1064.75 687.6 1065.3 688.2 1066.4 689.65 1067.45 690.7 1068.4 690.4 1068.2 688.75 1069.45 687.3 1070.55 685.95 1072.3 685.45 1074.6 684.75 1079.05 685.65 1082.75 686.35 1084.95 687.3 1088.1 688.65 1089.6 690.9 1090.15 688.95 1091.4 687.45 1092.75 685.85 1094.55 685.2 1096.4 684.5 1098.4 685 1100.4 685.5 1101.6 687 1101.3 686 1102 685.05 1102.65 684.15 1103.75 683.85 1105.25 683.5 1107.9 684.5 1112.3693359375 686.337890625 1113.5 689.05 1113.4888671875 688.80546875 1113.55 688.5 1113.75 687.6 1114.35 686.95 1115.3 685.9 1117.35 685.15 1123.65 682.7 1127.85 684.05 1124.7 682.7 1123.45 682.1 1121 680.9 1119.3 679.6 1115.1734375 676.4822265625 1114.15 672.45 1114.4689453125 674.6982421875 1113.15 678.4 1111.5 683.05 1111.85 685.2 1107.75 681.1 1106.75 675.35 1106.3 679.25 1104 682.45 1101.9 679.95 1100.3 676.8
L 1097.85 684.2
Q 1096.65 682.3 1096.25 680 1095.9 677.7 1096.4 675.55 1092.85 679.55 1090.65 684.2 1090.45 681.45 1089.75 678.8 1088.2 682.95 1083.9 684.65 1082.45 682 1082 678.8 1081.5 681.7 1080.65 684.15 1078.3 682.6 1076.7 680.1 1075.1 677.65 1074.55 674.8 1074.4 679.05 1071.4 681.95 1070.25 680.45 1070.5 678.45 1069 681.25 1068.5 684.2 1064 682.85 1061.55 679.1
L 1061.95 683.9
Q 1057.5 681.65 1055.85 677.1 1055.6 680.55 1054.7 683.5 1052.25 682 1050.6 679.55 1049 677.05 1048.6 674.2
L 1045 683.85
Q 1044.25 680.45 1041.5 678.1
L 1039.25 684.05
Q 1036.7 681.45 1036.25 677.85 1035.75 680.6 1035.9 683.55 1032.4 679.8 1032.4 674.65 1030.65 680.9 1026.6 686.05
L 1024.1 680.5
Q 1023.35 680.9 1022.9 681.95 1022.85 682 1022.25 683.9 1021.9 685 1021.25 685.75 1020.45 686.55 1019.55 686.4 1018.5 686.2 1018.1 684.9 1017.88046875 684.131640625 1017.9 683.2 1017.6951171875 685.1943359375 1017.1 687.15 1014.5 683.15 1013.35 678.4 1013.25 682.7 1011.8 686.45 1010.45 684.1 1009.9 681.5
L 1008.95 686.2
Q 1006.15 683 1004.85 678.4 1004.8 679.25 1005.1 681.3 1005.4 683.15 1005.2 684.15 1005.1 684.85 1004.55 685.85 1003.85 687.1 1003.7 687.55 1003.45 688.25 1003.5 689.35 1003.5 690.5984375 1003.45 691.05 1003.652734375 689.5728515625 1005.25 688.75 1006.85 687.95 1008.5 688.4 1010.95 689.05 1013.4 692.5 1014.25 690.6 1016 689.35 1017.75 688.05 1019.8 687.8 1021.85 687.6 1023.85 688.4 1025.85 689.25 1027.1 690.9 1028.25 688.6 1032.85 687.5 1038.05 686.25 1043.35 685.7 1046.35 685.35 1048.1 685.85 1050.9 686.75 1051.4 689.1 1051.8 687.15 1054.1 686.25 Z"/>
</g>

<g id="Layer0_11_FILL">
<path fill="#78BDE6" stroke="none" d="
M 1280.5 -0.5
L 0.5 -0.5 0.5 578.5
Q 83.35 605.2 169.5 617.5 238.3 627.3 302.3 626 351.4 625 423.7 616.1 428.35 615.5 490.15 607.55 533.4 601.95 565.75 598.4 662 587.7 760.5 583.5 832.6 580.4 909.65 580.35 955.75 580.3 1010.5 581.5 1146 584.3 1280.5 595.5
L 1280.5 -0.5 Z"/>
</g>

<g id="Layer0_12_FILL">
<path fill="#0DBB04" stroke="none" d="
M 1132.95 679.5
Q 1131.5 682.9 1133.05 684.65 1133.6 685.3 1134.45 685.95 1135.4 686.75 1135.95 686.9 1136.5 687 1137.85 686.8 1139.35 686.6 1139.9 686.65 1141.25 686.8 1143.9 687.35 1146.3 687.75 1147.95 687.55 1149.45 687.35 1152.1 686.3 1154.85 685.2 1156.2 684.95 1158.45 684.55 1160.5 685.7 1162.65 686.95 1162.5 689 1163.7 687.4 1165.95 686.75 1167.95 686.2 1170.25 686.5 1171.65 686.7 1174.45 687.45 1177.15 688.15 1178.6 688.35 1180.6 688.6 1183.75 688.35 1188.1 688 1188.85 688 1195.35 687.8 1198.3 691.25 1200 688.35 1201.15 686.85 1202.9 684.55 1204.85 683.3 1207.15 681.8 1209.9 681.85 1212.75 681.85 1214.45 683.65 1215.1 681.8 1215.6 680.9 1216.4 679.5 1217.55 678.85 1218.85 678.1 1220.4 678.85 1221.95 679.65 1221.7 681.05 1222.2 679.25 1223.9 678 1225.45 676.85 1227.45 676.6 1230.35 676.2 1235 677.85 1239.35 679.45 1241.05 681.3 1242.3 682.7 1242.65 684.45 1243 686.3 1242.15 687.75 1244.55 686.25 1245.95 686.1 1247.05 685.95 1248 686.45 1249 686.95 1249.35 687.9 1249.55 686.25 1251.25 685.2 1252.8 684.25 1254.6 684.35 1256.15 684.5 1257.95 685.35 1259 685.85 1260.95 687.1 1263.85 684.4 1267.85 683.45 1271.85 682.5 1275.65 683.6
L 1274.6 676.95
Q 1273.5 678.85 1271.15 679.5 1268.8 680.15 1266.85 679.1 1264.9 678.05 1264.2 675.75 1263.45 673.45 1264.45 671.45
L 1262.2 674.6
Q 1261.2443359375 671.9244140625 1261.6 669.25 1261.4046875 669.5599609375 1261.1 669.85 1260.1 670.85 1258.85 670.65 1257.6 670.45 1257 669.15 1256.3927734375 667.9357421875 1256.85 666.9
L 1253.9 672.8
Q 1252.3 671.9 1251.25 670.45
L 1250.65 673.45
Q 1248.15 673.35 1245.85 672.25 1243.55 671.15 1241.95 669.3 1242.3 670.65 1241.4 671.9 1240.5 673.15 1239.1 673.35 1237.75 673.5 1236.55 672.55 1235.35 671.6 1235.1 670.25 1234.75 671.9 1233.8 673.55 1232.4 672.2 1231.5 670.1 1230.85 671.8 1229.5 673.2 1228.2 674.5 1226.45 675.2 1224.3 673.85 1223.75 671.45 1223.3 674.15 1221.35 676.1 1218.85 676.25 1216.6 674.8 1214.35 673.4 1213.4 671.05 1213.5 674.15 1211.45 676.8
L 1209.85 671.85
Q 1207.4 678.05 1202.45 682.55 1198.75 678.85 1196.85 673.9 1196.4 679.3 1193.1 683.6 1191.7 685.45 1190.3 685.55 1189.5 685.6 1188.3 685.15 1184.85 683.75 1182.5 680.75 1180.2306640625 677.81875 1179.85 674.45 1180.0455078125 676.4029296875 1180 677.45 1179.9 679.3 1179.2 680.65 1178.4 682.15 1176.75 682.8 1174.95 683.45 1173.65 682.5 1172.5 681.65 1171.9 678.85
L 1168.75 683.7
Q 1165.65 680.85 1164.05 676.85
L 1162.95 679.85 1161.8 676.25
Q 1161.1 678.6 1159.5 680.45 1157.9845703125 678.758203125 1157.65 676.6 1157.6244140625 678.2765625 1157.2 679.55 1156.4 682.1 1154.35 682.55 1153.05 682.85 1151.75 682.1 1150.5 681.35 1149.8 680.1 1148.85 678.35 1148.55 674.7 1147.25 678.75 1145.15 682.35 1142.85 679.9 1142.4 676.45
L 1142.25 684.55
Q 1139.35 680 1138.9 674.5
L 1136.35 680.8
Q 1135.25 677.7 1134.9 673.9 1134.9 674.95 1132.95 679.5 Z"/>
</g>
</defs>

<g transform="matrix( 1, 0, 0, 1, 0,0) ">
<use xlink:href="#Layer0_0_FILL"/>
</g>

<g transform="matrix( 1, 0, 0, 1, 0,0) ">
<use xlink:href="#Layer0_1_FILL"/>
</g>

<g transform="matrix( 1, 0, 0, 1, 0,0) ">
<use xlink:href="#Layer0_2_FILL"/>
</g>

<g transform="matrix( 1, 0, 0, 1, 0,0) ">
<use xlink:href="#Layer0_3_FILL"/>
</g>

<g transform="matrix( 1, 0, 0, 1, 0,0) ">
<use xlink:href="#Layer0_4_FILL"/>
</g>

<g transform="matrix( 1, 0, 0, 1, 0,0) ">
<use xlink:href="#Layer0_5_FILL"/>
</g>

<g transform="matrix( 1, 0, 0, 1, 0,0) ">
<use xlink:href="#Layer0_6_MEMBER_1_FILL"/>
</g>

<g transform="matrix( 1, 0, 0, 1, 0,0) ">
<use xlink:href="#Layer0_7_FILL"/>
</g>

<g transform="matrix( 1, 0, 0, 1, 0,0) ">
<use xlink:href="#Layer0_8_FILL"/>
</g>

<g transform="matrix( 1, 0, 0, 1, 0,0) ">
<use xlink:href="#Layer0_9_FILL"/>
</g>

<g transform="matrix( 1, 0, 0, 1, 0,0) ">
<use xlink:href="#Layer0_10_FILL"/>
</g>

<g transform="matrix( 1, 0, 0, 1, 0,0) ">
<use xlink:href="#Layer0_11_FILL"/>
</g>

<g transform="matrix( 1, 0, 0, 1, 0,0) ">
<use xlink:href="#Layer0_12_FILL"/>
</g>
</svg>
