
<svg xmlns="http://www.w3.org/2000/svg" version="1.1" xmlns:xlink="http://www.w3.org/1999/xlink" preserveAspectRatio="none" x="0px" y="0px" width="250px" height="200px" viewBox="0 0 250 200">
<defs>
<g id="Layer1_0_FILL">
<path fill="#FFFFFF" stroke="none" d="
M 174.35 65.1
Q 170.7 62.9 165.85 62.1 162.15 61 155.75 60.95 150 60.9 145.3 60.4 139.65 59.9 134.25 58.45 129.95 57.25 125.65 56.4 118.8 55.1 112.45 55.05 104.65 54.95 98.25 56.85 97.35 57.1 96.5 57.45 90.25 59.7 86.75 64 84.95 66.05 83.8 68.55 81.35 72.4 80.65 76.4 79 78.3 74.2 80.3 65.35 84.4 61.05 89.35 59.1 91.05 57.4 92.85 45.55 103.05 45.15 118.6
L 45.15 118.7
Q 44.8 130.45 49.4 137.4 51.9 141.7 56 144.6 58.35 146.75 60.85 148.35 63.9 150.95 67.5 152.45 69.65 153.55 71.35 154.35 72.6 154.8 73.55 155.3 78.25 156.2 79.55 158.95 80.55 163.45 85.1 166.3 90.95 170 98.9 171.3 102.6 172.2 106.55 172.55 117.35 173.9 132.8 172.2 133.55 172.15 134.3 172.15 138.75 172.05 143.65 172.65 149.05 172.9 155.95 173.5 159.45 173.55 162.65 173.05 165.95 172.65 169 171.65 176.6 169.2 184.6 162.5 188.3 159.2 190.1 155.2 190.9 153 191.65 151.4 192.7 149.05 194.05 146.9 194.85 145.65 195.85 144.55 197.05 143.2 198.45 141.95 200.25 139.95 203.2 137.55 205.55 135.65 206.75 132.95 207.15 132.05 207.45 131.05 208.25 128.3 208.2 124.5 207.85 116.35 205.45 109.6 204.6 107.6 203.4 105.75 202.05 103.2 200.25 101.2 198.8 99.35 197.3 97.7 195.55 95.9 194.3 94.3 192.65 92.25 191.2 90.4 189.7 88.3 188.55 86 187.5 83.9 187.75 81.8 187.9 80.6 187.8 79.6 187.95 78.75 187.8 77.9 187.65 75.85 185.4 73.5 183.05 71 178.75 67.95 176.75 66.5 174.35 65.1 Z"/>
</g>

<g id="Layer0_0_FILL">
<path fill="#FFF8DB" stroke="none" d="
M 113.45 94.6
Q 112.85 95.1 112.2 95.75 109.5 98.3 106.9 103.05 104.7 107.6 104.7 112.15
L 104.7 112.2
Q 104.7 112.3 104.7 112.35 104.8 120.45 110.85 126.45 111.5 127.1 112.25 127.7 112.45 127.85 112.65 128 119.8 134 129.65 134.2 129.75 134.2 129.8 134.2 130.1 134.2 130.4 134.2 140.15 134.1 147.2 128.5 147.7 128.1 148.1 127.7 148.55 127.3 149 126.9 154.95 121.45 155.6 114 155.65 113.5 155.65 112.95 155.7 112.2 155.6 111.5 155.45 107.8 153.7 103.55 151.7 99.35 148.2 96.1 147.85 95.75 147.4 95.35 143.9 92.45 140.7 90.9 140.4 90.75 140.05 90.6 136.4 89 131.25 88.7 130.5 88.65 129.75 88.65 125.9 88.7 122.6 89.65 122 89.8 121.4 90 118.1 91.2 115 93.4 114.2 93.95 113.45 94.6 Z"/>
</g>

<path id="Layer1_0_1_STROKES" stroke="#000000" stroke-width="4" stroke-linejoin="miter" stroke-linecap="butt" stroke-miterlimit="10" fill="none" d="
M 45.15 118.6
Q 45.55 103.05 57.4 92.85 59.1 91.05 61.05 89.35 65.35 84.4 74.2 80.3 79 78.3 80.65 76.4 81.35 72.4 83.8 68.55 84.95 66.05 86.75 64 90.25 59.7 96.5 57.45 97.35 57.1 98.25 56.85 104.65 54.95 112.45 55.05 118.8 55.1 125.65 56.4 129.95 57.25 134.25 58.45 139.65 59.9 145.3 60.4 150 60.9 155.75 60.95 162.15 61 165.85 62.1 170.7 62.9 174.35 65.1 176.75 66.5 178.75 67.95 183.05 71 185.4 73.5 187.65 75.85 187.8 77.9 187.95 78.75 187.8 79.6 187.9 80.6 187.75 81.8 187.5 83.9 188.55 86 189.7 88.3 191.2 90.4 192.65 92.25 194.3 94.3 195.55 95.9 197.3 97.7 198.8 99.35 200.25 101.2 202.05 103.2 203.4 105.75 204.6 107.6 205.45 109.6 207.85 116.35 208.2 124.5 208.25 128.3 207.45 131.05 207.15 132.05 206.75 132.95 205.55 135.65 203.2 137.55 200.25 139.95 198.45 141.95 197.05 143.2 195.85 144.55 194.85 145.65 194.05 146.9 192.7 149.05 191.65 151.4 190.9 153 190.1 155.2 188.3 159.2 184.6 162.5 176.6 169.2 169 171.65 165.95 172.65 162.65 173.05 159.45 173.55 155.95 173.5 149.05 172.9 143.65 172.65 138.75 172.05 134.3 172.15 133.55 172.15 132.8 172.2 117.35 173.9 106.55 172.55 102.6 172.2 98.9 171.3 90.95 170 85.1 166.3 80.55 163.45 79.55 158.95 78.25 156.2 73.55 155.3 72.6 154.8 71.35 154.35 69.65 153.55 67.5 152.45 63.9 150.95 60.85 148.35 58.35 146.75 56 144.6 51.9 141.7 49.4 137.4 44.8 130.45 45.15 118.7
L 45.15 118.6 Z"/>

<path id="Layer0_0_1_STROKES" stroke="#000000" stroke-opacity="0.1411764705882353" stroke-width="0.45" stroke-linejoin="round" stroke-linecap="round" fill="none" d="
M 104.7 112.15
Q 104.7 107.6 106.9 103.05 109.5 98.3 112.2 95.75 112.85 95.1 113.45 94.6 114.2 93.95 115 93.4 118.1 91.2 121.4 90 122 89.8 122.6 89.65 125.9 88.7 129.75 88.65 130.5 88.65 131.25 88.7 136.4 89 140.05 90.6 140.4 90.75 140.7 90.9 143.9 92.45 147.4 95.35 147.85 95.75 148.2 96.1 151.7 99.35 153.7 103.55 155.45 107.8 155.6 111.5 155.7 112.2 155.65 112.95 155.65 113.5 155.6 114 154.95 121.45 149 126.9 148.55 127.3 148.1 127.7 147.7 128.1 147.2 128.5 140.15 134.1 130.4 134.2 130.1 134.2 129.8 134.2 129.75 134.2 129.65 134.2 119.8 134 112.65 128 112.45 127.85 112.25 127.7 111.5 127.1 110.85 126.45 104.8 120.45 104.7 112.35 104.7 112.3 104.7 112.2
L 104.7 112.15 Z"/>
</defs>

<g transform="matrix( 1, 0, 0, 1, 0,0) ">
<use xlink:href="#Layer1_0_FILL"/>

<use xlink:href="#Layer1_0_1_STROKES"/>
</g>

<g transform="matrix( 1, 0, 0, 1, 0,0) ">
<use xlink:href="#Layer0_0_FILL"/>

<use xlink:href="#Layer0_0_1_STROKES"/>
</g>
</svg>
