
<svg xmlns="http://www.w3.org/2000/svg" version="1.1" xmlns:xlink="http://www.w3.org/1999/xlink" preserveAspectRatio="none" x="0px" y="0px" width="250px" height="200px" viewBox="0 0 250 200">
<defs>
<g id="Layer1_0_FILL">
<path fill="#FFFFFF" stroke="none" d="
M 36.9 91.8
Q 28.1 92.85 20.95 89.6 4.65 82.25 -9.8 80.5 -23.95 78.75 -33.05 82.75 -42.45 86.85 -44.15 96.15 -46.05 106.15 -38.55 120.45 -37.7 122.05 -48.6 123.65 -66.4 126.25 -73.8 128.05 -111.6 137.05 -112.75 160.9 -113.75 180.75 -102.25 187.75 -93.4 193.15 -76.55 191.1 -70.8 190.45 -62.85 188.7 -54.5 186.8 -51.15 186.1 -40.1 183.85 -41.4 187.95 -47.25 206.4 -16.9 203.7 -0.35 202.25 31.6 194.6 37.55 193.55 46.65 197.45 51.9 199.75 63.45 205.3 74.05 209.65 83 209.25 94.6 208.75 106.2 200.5 113.25 195.5 114.2 187.85 114.5 183.65 114.95 181.45 115.7 177.7 117.85 174.6 120.3 171.1 126.35 169.85 129.85 169.15 137.25 168.35 143.35 167.25 145.8 164.2 149 160.2 147.45 151.6 144.8 136.75 137.05 130.5 131.4 125.95 120.9 125.05 120.9 125 112.3 124.5 107.25 124.2 104.2 123.5 95.55 121.6 92.1 114.35 90.75 111.55 93.75 108.15 97.65 104.4 98.85 102.35 100.95 98.75 97.7 95.05 93.6 90.4 80.45 84.45 75 82 67.2 83.5 63.35 84.2 52.5 87.85 42.75 91.15 36.9 91.8 Z"/>
</g>

<g id="Layer0_0_FILL">
<path fill="#FFCC00" stroke="none" d="
M 169.6 137.05
Q 177.85 128.9 177.85 117.25 177.85 111.45 175 104.5 172.1 97.55 168 93.45 162.85 88.3 159.95 86.45 155.35 83.5 150.15 83.5 144.5 83.5 140.3 85.4 136.4 87.2 132.15 91.4 128.1 95.5 124.9 103.5 121.75 111.4 121.75 117.25 121.75 128.85 129.95 137.05 138.2 145.3 149.8 145.3 161.45 145.3 169.6 137.05 Z"/>
</g>

<path id="Layer1_0_1_STROKES" stroke="#000000" stroke-width="4" stroke-linejoin="miter" stroke-linecap="butt" stroke-miterlimit="10" fill="none" d="
M 219.40424270629882 165.7629150390625
Q 217.39737701416016 168.51514892578123 216.69730758666992 171.8444641113281 216.2772659301758 173.79766235351562 215.9972381591797 177.52649536132813 215.1104835510254 184.31829833984375 208.5298309326172 188.75738525390625 197.70209045410155 196.08187866210938 186.87434997558594 196.52578735351562 178.52018814086915 196.88091430664062 168.62587356567383 193.01890869140627 157.8448043823242 188.09152221679688 152.94431838989257 186.0495422363281 144.45014266967775 182.5870544433594 138.8962585449219 183.5192626953125 109.0733009338379 190.31106567382812 93.62510223388672 191.59840087890623 65.29562606811524 193.9955078125 70.75616760253908 177.61527709960936 71.96962127685546 173.97522583007813 61.655265045166026 175.97281494140626 58.528288269042974 176.59428710937502 50.73418197631836 178.28114013671873 43.31344604492189 179.8348205566406 37.94624710083009 180.41190185546876 22.218020629882815 182.23192749023437 13.957201385498053 177.43771362304688 3.222803497314459 171.22299194335938 4.156229400634771 153.59981689453124 5.2296691894531335 132.42537231445314 40.51316833496095 124.43501586914064 47.42052001953125 122.83694458007812 64.0355010986328 120.52861938476563 74.20984344482423 119.10811157226563 73.41643142700195 117.68760375976562 66.41573715209961 104.99181518554688 68.18924636840822 96.11364135742188 69.77607040405275 87.85693969726562 78.55027389526367 84.21688842773438 87.04444961547853 80.66561889648438 100.25242614746094 82.21929931640625 113.74043045043946 83.77297973632812 128.95527267456055 90.29843749999999 135.6292678833008 93.18384399414062 143.84341583251953 92.2516357421875 149.30395736694337 91.67455444335938 158.4048599243164 88.74475708007812 168.5325309753418 85.5042236328125 172.126220703125 84.88275146484375 179.40694274902344 83.551025390625 184.49411392211914 85.72617797851562 196.76866455078124 91.00869140625001 200.59571075439453 95.13704223632813 203.62934494018555 98.42196655273438 201.66915054321288 101.61810913085937 200.54903945922854 103.43813476562501 196.9086784362793 106.76744995117188 194.10840072631837 109.78602905273438 195.36852569580077 112.27191772460937 198.58884506225587 118.70859374999999 206.66297912597656 120.39544677734375 209.50992813110352 121.0169189453125 214.2237289428711 121.28326416015625 222.2511917114258 121.7271728515625 222.2511917114258 121.77156372070313 232.05216369628909 122.57059936523437 237.32602005004884 126.61016845703125 244.56007080078126 132.15902709960938 247.03364944458008 145.343115234375 248.48045959472657 152.97834472656248 245.49349670410157 156.52961425781248 243.20660324096679 159.23745727539062 237.5127052307129 160.21405639648438 230.60535354614257 160.92431030273437 227.33836288452147 161.54578247070313 221.6911361694336 162.65555419921876 219.40424270629882 165.7629150390625 Z"/>

<path id="Layer0_0_1_STROKES" stroke="#000000" stroke-width="3" stroke-linejoin="miter" stroke-linecap="butt" stroke-miterlimit="10" fill="none" d="
M 173.87917938232422 135.756746673584
Q 173.87917938232422 145.97662811279298 162.74716796875 153.1261589050293 151.75009002685545 160.36341400146486 136.0303405761719 160.36341400146486 120.3780578613281 160.36341400146486 109.24604644775388 153.1261589050293 98.18150177001954 145.93276596069336 98.18150177001954 135.756746673584 98.18150177001954 130.6248748779297 102.4319061279297 123.69465484619141 106.7497772216797 116.67671051025391 112.21458282470704 113.08001403808595 117.94925537109376 109.39559326171874 123.2116607666016 107.81655578613282 128.87886657714844 106.14979400634766 136.5026077270508 106.14979400634766 143.51914825439454 106.14979400634766 149.72608795166013 108.7376609802246 153.6391586303711 110.36056060791014 160.588232421875 114.87836227416992 166.1205047607422 118.47505874633788 170.03357543945313 124.5718978881836 173.87917938232422 130.6687370300293 173.87917938232422 135.756746673584 Z"/>
</defs>

<g transform="matrix( 0.9334259033203125, 0, 0, 0.8878173828125, 109.4,10.75) ">
<use xlink:href="#Layer1_0_FILL"/>

<use xlink:href="#Layer1_0_1_STROKES" transform="matrix( 1.071319580078125, 0, 0, 1.1263427734375, -117.2,-12.1) "/>
</g>

<g transform="matrix( 1.349334716796875, 0, 0, 0.8772430419921875, -66.1,32.9) ">
<use xlink:href="#Layer0_0_FILL"/>

<use xlink:href="#Layer0_0_1_STROKES" transform="matrix( 0.7411041259765625, 0, 0, 1.139923095703125, 48.95,-37.5) "/>
</g>
</svg>
