
<svg xmlns="http://www.w3.org/2000/svg" version="1.1" xmlns:xlink="http://www.w3.org/1999/xlink" preserveAspectRatio="none" x="0px" y="0px" width="250px" height="200px" viewBox="0 0 250 200">
<defs>
<g id="Layer1_0_FILL">
<path fill="#FFFFFF" stroke="none" d="
M 179.4 75.4
Q 175.05 73.2 169 73.45 165.35 73.2 157.05 74.8 149.65 76.25 144.55 76.25 137.65 76.5 131.6 74.35 126.6 72.45 121.7 71.2 113.75 69.05 106.35 68.6 96.8 67.85 89.65 70.05 88.6 70.35 87.55 70.8 80.05 73.7 77.5 80 76.2 82.95 76.05 86.45 75.4 91.35 77.05 97 76.6 98.6 69.15 100.35 56.4 103.55 50.8 106.85 47.9 108.15 45.3 109.55 25.4 118.9 24.7 136.05
L 24.7 136.2
Q 24.1 150.8 31.75 157.35 35.75 161.1 42.25 162.7 45.6 163.8 49.45 164.35 53.65 165.35 59.15 165.35 62.3 165.45 64.5 165.55 66.4 165.5 67.6 165.6 75.1 165.05 75.15 168.25 74.25 174.75 79.7 177.9 85.55 181.35 96.3 181.4 100.45 181.65 105.4 181.4 117.7 181.05 135.85 177.85 136.7 177.75 137.6 177.7 142.35 177.6 148.3 179.35 153.45 180.45 162.25 183.2 166.35 184.15 170.2 184.35 174.2 184.65 177.9 184.05 187.1 182.6 197.1 175.15 201.7 171.4 203 166.35 203.55 163.35 204.15 161.6 205 158.75 206.7 156.3 207.65 154.9 209.1 153.85 210.7 152.6 212.85 151.7 215.4 150.4 220.3 148.85 224.3 147.4 226.05 144.7 226.7 143.75 227.1 142.6 228.1 139.5 227.55 134.9 226.15 124.2 221.35 118.1 219.7 116.15 217.35 114.6 214.7 112.65 211.2 111.45 208.5 110.4 205.75 109.45 202.5 108.4 200.45 107.3 197.65 105.85 195.55 103.95 193.35 101.85 191.95 99.1 190.8 96.8 192.3 94.25 193.2 92.9 193.7 91.8 194.5 90.65 194.7 89.7 195.6 87.05 193 84.3 190.4 81.55 184.8 78.3 182.4 76.85 179.4 75.4 Z"/>
</g>

<g id="Layer0_0_FILL">
<path fill="#FFE26D" stroke="none" d="
M 164.75 124.35
Q 164.8 123.5 164.7 122.65 164.35 118.65 161.6 113.7 158.7 108.85 154.4 105.5 153.9 105.1 153.4 104.75 148.6 101.35 145.25 99.85 144.85 99.65 144.45 99.5 139.7 97.6 133.85 97.45 133 97.4 132.1 97.45 127.5 97.5 123.7 98.5 123 98.7 122.3 98.9 118.5 100.15 114.65 102.6 113.75 103.15 112.8 103.85 112 104.45 111.25 105.1 108.1 107.85 104.7 113.35 101.45 119.1 101.45 123.95
L 101.45 124
Q 101.45 124.05 101.45 124.15 101.55 133.25 110.05 139.8 110.95 140.5 111.9 141.1 112.15 141.3 112.45 141.45 121.05 147.15 132.8 147.3 132.85 147.3 132.9 147.3 133.25 147.3 133.6 147.3 145.2 147.15 153.75 141.6 154.25 141.25 154.75 140.85 155.35 140.45 155.85 140 164 133.95 164.7 125.6 164.75 125 164.75 124.35 Z"/>
</g>

<path id="Layer1_0_1_STROKES" stroke="#000000" stroke-width="4" stroke-linejoin="miter" stroke-linecap="butt" stroke-miterlimit="10" fill="none" d="
M 24.7 136.05
Q 25.4 118.9 45.3 109.55 47.9 108.15 50.8 106.85 56.4 103.55 69.15 100.35 76.6 98.6 77.05 97 75.4 91.35 76.05 86.45 76.2 82.95 77.5 80 80.05 73.7 87.55 70.8 88.6 70.35 89.65 70.05 96.8 67.85 106.35 68.6 113.75 69.05 121.7 71.2 126.6 72.45 131.6 74.35 137.65 76.5 144.55 76.25 149.65 76.25 157.05 74.8 165.35 73.2 169 73.45 175.05 73.2 179.4 75.4 182.4 76.85 184.8 78.3 190.4 81.55 193 84.3 195.6 87.05 194.7 89.7 194.5 90.65 193.7 91.8 193.2 92.9 192.3 94.25 190.8 96.8 191.95 99.1 193.35 101.85 195.55 103.95 197.65 105.85 200.45 107.3 202.5 108.4 205.75 109.45 208.5 110.4 211.2 111.45 214.7 112.65 217.35 114.6 219.7 116.15 221.35 118.1 226.15 124.2 227.55 134.9 228.1 139.5 227.1 142.6 226.7 143.75 226.05 144.7 224.3 147.4 220.3 148.85 215.4 150.4 212.85 151.7 210.7 152.6 209.1 153.85 207.65 154.9 206.7 156.3 205 158.75 204.15 161.6 203.55 163.35 203 166.35 201.7 171.4 197.1 175.15 187.1 182.6 177.9 184.05 174.2 184.65 170.2 184.35 166.35 184.15 162.25 183.2 153.45 180.45 148.3 179.35 142.35 177.6 137.6 177.7 136.7 177.75 135.85 177.85 117.7 181.05 105.4 181.4 100.45 181.65 96.3 181.4 85.55 181.35 79.7 177.9 74.25 174.75 75.15 168.25 75.1 165.05 67.6 165.6 66.4 165.5 64.5 165.55 62.3 165.45 59.15 165.35 53.65 165.35 49.45 164.35 45.6 163.8 42.25 162.7 35.75 161.1 31.75 157.35 24.1 150.8 24.7 136.2
L 24.7 136.05 Z"/>

<path id="Layer0_0_1_STROKES" stroke="#000000" stroke-opacity="0.5725490196078431" stroke-width="1.7" stroke-linejoin="round" stroke-linecap="round" fill="none" d="
M 101.45 123.95
Q 101.45 119.1 104.7 113.35 108.1 107.85 111.25 105.1 112 104.45 112.8 103.85 113.75 103.15 114.65 102.6 118.5 100.15 122.3 98.9 123 98.7 123.7 98.5 127.5 97.5 132.1 97.45 133 97.4 133.85 97.45 139.7 97.6 144.45 99.5 144.85 99.65 145.25 99.85 148.6 101.35 153.4 104.75 153.9 105.1 154.4 105.5 158.7 108.85 161.6 113.7 164.35 118.65 164.7 122.65 164.8 123.5 164.75 124.35 164.75 125 164.7 125.6 164 133.95 155.85 140 155.35 140.45 154.75 140.85 154.25 141.25 153.75 141.6 145.2 147.15 133.6 147.3 133.25 147.3 132.9 147.3 132.85 147.3 132.8 147.3 121.05 147.15 112.45 141.45 112.15 141.3 111.9 141.1 110.95 140.5 110.05 139.8 101.55 133.25 101.45 124.15 101.45 124.05 101.45 124
L 101.45 123.95 Z"/>
</defs>

<g transform="matrix( 1, 0, 0, 1, 0,0) ">
<use xlink:href="#Layer1_0_FILL"/>

<use xlink:href="#Layer1_0_1_STROKES"/>
</g>

<g transform="matrix( 1, 0, 0, 1, 0,0) ">
<use xlink:href="#Layer0_0_FILL"/>

<use xlink:href="#Layer0_0_1_STROKES"/>
</g>
</svg>
