
<svg xmlns="http://www.w3.org/2000/svg" version="1.1" xmlns:xlink="http://www.w3.org/1999/xlink" preserveAspectRatio="none" x="0px" y="0px" width="250px" height="200px" viewBox="0 0 250 200">
<defs>
<g id="Layer1_0_FILL">
<path fill="#FFFFFF" stroke="none" d="
M 183.9 71.55
Q 183.65 70.85 183.25 70.1 182.35 68.35 180.4 66.35 178.15 64 174.7 61.05 173 59.6 171 58.25 167.85 56.1 163.75 54.55 160 52.9 154.9 51.8 150.25 50.75 145.75 49.85 140.95 48.95 136 47.95 132.2 47.15 128.25 46.65 122.2 45.8 116.5 46.05 109.85 46.35 103.9 48.1 103.15 48.35 102.4 48.6 97.05 50.4 92.85 53.4 90.75 54.9 88.95 56.65 85.35 59.8 83.05 62.75 80.6 64.85 77.6 67 71.3 71.75 67.8 77.8 66.55 79.7 65.45 81.75 58.9 92.6 58.7 107.05
L 58.7 107.1
Q 58.55 116.95 61.1 124.2 62.65 128.85 65.15 132.6 66.8 135.45 68.45 137.75 70.7 141.4 73.05 143.9 74.55 145.7 75.85 146.95 76.7 147.7 77.5 148.45 80.3 150.35 82.45 152.75 84.7 156 88.65 158.6 94.5 162.5 100.65 164.6 104.05 165.95 107.35 166.7 117.15 169.15 130.75 168.45 131.45 168.45 132.15 168.45 136.4 168.35 140.6 168.25 146.15 167.85 151.75 167.05 154.85 166.5 157.7 165.6 160.5 164.7 163.15 163.4 169.6 160.3 176.3 154.15 179.4 151.1 181.5 147.8 182.5 146.1 183.35 144.6 184.5 142.65 185.65 140.7 186.35 139.5 187.05 138.35 187.95 136.95 188.9 135.5 190.25 133 191.85 130.1 193.1 127.85 193.95 125.15 194.2 124.3 194.45 123.4 195.1 120.8 195.35 117.6 195.7 111.1 194.9 104 194.65 101.95 194.2 99.85 193.7 96.9 192.95 94.45 192.4 92 191.75 89.95 190.95 87.6 190.25 85.65 189.3 83.25 188.35 81.4 187.25 79.3 186.25 77.3 185.3 75.3 184.75 73.55 184.35 72.45 183.9 71.55 Z"/>
</g>

<path id="Layer1_0_1_STROKES" stroke="#000000" stroke-width="4" stroke-linejoin="miter" stroke-linecap="butt" stroke-miterlimit="10" fill="none" d="
M 58.7 107.05
Q 58.9 92.6 65.45 81.75 66.55 79.7 67.8 77.8 71.3 71.75 77.6 67 80.6 64.85 83.05 62.75 85.35 59.8 88.95 56.65 90.75 54.9 92.85 53.4 97.05 50.4 102.4 48.6 103.15 48.35 103.9 48.1 109.85 46.35 116.5 46.05 122.2 45.8 128.25 46.65 132.2 47.15 136 47.95 140.95 48.95 145.75 49.85 150.25 50.75 154.9 51.8 160 52.9 163.75 54.55 167.85 56.1 171 58.25 173 59.6 174.7 61.05 178.15 64 180.4 66.35 182.35 68.35 183.25 70.1 183.65 70.85 183.9 71.55 184.35 72.45 184.75 73.55 185.3 75.3 186.25 77.3 187.25 79.3 188.35 81.4 189.3 83.25 190.25 85.65 190.95 87.6 191.75 89.95 192.4 92 192.95 94.45 193.7 96.9 194.2 99.85 194.65 101.95 194.9 104 195.7 111.1 195.35 117.6 195.1 120.8 194.45 123.4 194.2 124.3 193.95 125.15 193.1 127.85 191.85 130.1 190.25 133 188.9 135.5 187.95 136.95 187.05 138.35 186.35 139.5 185.65 140.7 184.5 142.65 183.35 144.6 182.5 146.1 181.5 147.8 179.4 151.1 176.3 154.15 169.6 160.3 163.15 163.4 160.5 164.7 157.7 165.6 154.85 166.5 151.75 167.05 146.15 167.85 140.6 168.25 136.4 168.35 132.15 168.45 131.45 168.45 130.75 168.45 117.15 169.15 107.35 166.7 104.05 165.95 100.65 164.6 94.5 162.5 88.65 158.6 84.7 156 82.45 152.75 80.3 150.35 77.5 148.45 76.7 147.7 75.85 146.95 74.55 145.7 73.05 143.9 70.7 141.4 68.45 137.75 66.8 135.45 65.15 132.6 62.65 128.85 61.1 124.2 58.55 116.95 58.7 107.1
L 58.7 107.05 Z"/>
</defs>

<g transform="matrix( 1, 0, 0, 1, 0,0) ">
<use xlink:href="#Layer1_0_FILL"/>

<use xlink:href="#Layer1_0_1_STROKES"/>
</g>
</svg>
