
<svg xmlns="http://www.w3.org/2000/svg" version="1.1" xmlns:xlink="http://www.w3.org/1999/xlink" preserveAspectRatio="none" x="0px" y="0px" width="250px" height="200px" viewBox="0 0 250 200">
<defs>
<g id="Layer1_0_FILL">
<path fill="#FFFFFF" stroke="none" d="
M 186.9 76.95
Q 184.5 71 181.95 67.5 179.25 63.8 172.7 57.65 166.15 51.5 154.45 47.2 143.05 43.05 129.55 41.75 117.5 40.6 106.75 43.75 98.5 46.1 91.5 50.75 83.4 56.15 79.5 60.05 72.8 66.8 69.45 76.25 65.55 87.35 65.45 101.3 65.35 116.1 69.7 126.6 74.45 138.2 78.1 143.25 82.3 149.2 90.45 154.75 99.95 161.2 107.75 163.8 117.5 166.95 131.05 166.6 144.95 166.25 155.2 161.85 164.3 157.9 172.15 149.95 179 143 182.7 135.3 185.8 129.1 187.95 119.6 189.95 111 189.6 96.95 189.3 82.8 186.9 76.95 Z"/>
</g>

<path id="Layer1_0_1_STROKES" stroke="#000000" stroke-width="4" stroke-linejoin="miter" stroke-linecap="butt" stroke-miterlimit="10" fill="none" d="
M 187.95 119.6
Q 185.8 129.1 182.7 135.3 179 143 172.15 149.95 164.3 157.9 155.2 161.85 144.95 166.25 131.05 166.6 117.5 166.95 107.75 163.8 99.95 161.2 90.45 154.75 82.3 149.2 78.1 143.25 74.45 138.2 69.7 126.6 65.35 116.1 65.45 101.3 65.55 87.35 69.45 76.25 72.8 66.8 79.5 60.05 83.4 56.15 91.5 50.75 98.5 46.1 106.75 43.75 117.5 40.6 129.55 41.75 143.05 43.05 154.45 47.2 166.15 51.5 172.7 57.65 179.25 63.8 181.95 67.5 184.5 71 186.9 76.95 189.3 82.8 189.6 96.95 189.95 111 187.95 119.6 Z"/>
</defs>

<g transform="matrix( 1, 0, 0, 1, 0,0) ">
<use xlink:href="#Layer1_0_FILL"/>

<use xlink:href="#Layer1_0_1_STROKES"/>
</g>
</svg>
