
<svg xmlns="http://www.w3.org/2000/svg" version="1.1" xmlns:xlink="http://www.w3.org/1999/xlink" preserveAspectRatio="none" x="0px" y="0px" width="250px" height="200px" viewBox="0 0 250 200">
<defs>
<g id="Layer1_0_FILL">
<path fill="#FFFFFF" stroke="none" d="
M 176.05 68.5
Q 172.15 66.35 166.9 65.85 163.2 65.05 156.2 65.55 149.9 66 145.05 65.65 138.95 65.45 133.4 63.75 128.85 62.3 124.3 61.35 117.15 59.75 110.45 59.55 102.05 59.25 95.4 61.25 94.45 61.5 93.5 61.9 86.9 64.35 83.65 69.3 82.05 71.7 81.2 74.5 79.4 78.7 79.45 83.25 78.2 85.05 72.55 86.95 62.4 90.8 57.65 95.2 55.4 96.7 53.4 98.4 38.85 108.3 38.35 124.4
L 38.35 124.5
Q 37.95 137.2 43.55 144.05 46.55 148.15 51.4 150.6 54.1 152.45 57.05 153.65 60.5 155.75 64.75 156.75 67.2 157.5 69.05 158.1 70.55 158.35 71.6 158.7 77.2 159.15 78.1 162.05 78.45 167.25 83.3 170.15 89.15 173.8 98.05 174.65 101.9 175.35 106.2 175.5 117.45 176.3 133.8 174.05 134.6 174 135.4 174 139.95 173.9 145.2 174.9 150.5 175.4 158.05 176.75 161.75 177.1 165.15 176.85 168.7 176.65 172 175.75 180.1 173.65 188.75 166.7 192.75 163.25 194.4 158.9 195.1 156.45 195.8 154.75 196.8 152.3 198.25 150.05 199.1 148.75 200.25 147.65 201.55 146.35 203.25 145.2 205.3 143.4 208.85 141.3 211.8 139.55 213.15 136.85 213.65 135.95 214 134.9 214.85 132 214.65 127.95 213.9 118.95 210.75 112.45 209.65 110.45 208.05 108.7 206.25 106.35 203.9 104.6 202.05 103 200.1 101.65 197.85 100.05 196.35 98.6 194.3 96.8 192.65 94.9 190.9 92.8 189.65 90.35 188.6 88.2 189.3 85.95 189.65 84.7 189.75 83.7 190.15 82.7 190.1 81.85 190.3 79.55 187.95 77.1 185.5 74.5 180.75 71.35 178.6 69.9 176.05 68.5 Z"/>
</g>

<g id="Layer0_0_FILL">
<path fill="#FFF0B6" stroke="none" d="
M 113.25 97.65
Q 112.55 98.2 111.9 98.85 109 101.45 106.15 106.5 103.65 111.4 103.65 116.05
L 103.65 116.15
Q 103.65 116.2 103.65 116.25 103.75 124.7 110.55 130.9 111.35 131.55 112.1 132.2 112.35 132.35 112.6 132.5 120.2 138.35 130.7 138.55 130.8 138.55 130.85 138.55 131.15 138.55 131.45 138.55 141.85 138.45 149.35 132.85 149.9 132.5 150.35 132.05 150.8 131.65 151.3 131.25 157.95 125.6 158.65 117.9 158.7 117.3 158.7 116.75 158.7 116 158.65 115.2 158.4 111.4 156.35 106.95 154.05 102.5 150.3 99.2 149.85 98.85 149.4 98.5 145.5 95.4 142.2 93.9 141.85 93.75 141.55 93.55 137.5 91.85 132.1 91.6 131.3 91.6 130.55 91.6 126.45 91.65 122.95 92.6 122.3 92.75 121.7 93 118.25 94.15 114.9 96.5 114.05 97 113.25 97.65 Z"/>
</g>

<path id="Layer1_0_1_STROKES" stroke="#000000" stroke-width="4" stroke-linejoin="miter" stroke-linecap="butt" stroke-miterlimit="10" fill="none" d="
M 38.35 124.4
Q 38.85 108.3 53.4 98.4 55.4 96.7 57.65 95.2 62.4 90.8 72.55 86.95 78.2 85.05 79.45 83.25 79.4 78.7 81.2 74.5 82.05 71.7 83.65 69.3 86.9 64.35 93.5 61.9 94.45 61.5 95.4 61.25 102.05 59.25 110.45 59.55 117.15 59.75 124.3 61.35 128.85 62.3 133.4 63.75 138.95 65.45 145.05 65.65 149.9 66 156.2 65.55 163.2 65.05 166.9 65.85 172.15 66.35 176.05 68.5 178.6 69.9 180.75 71.35 185.5 74.5 187.95 77.1 190.3 79.55 190.1 81.85 190.15 82.7 189.75 83.7 189.65 84.7 189.3 85.95 188.6 88.2 189.65 90.35 190.9 92.8 192.65 94.9 194.3 96.8 196.35 98.6 197.85 100.05 200.1 101.65 202.05 103 203.9 104.6 206.25 106.35 208.05 108.7 209.65 110.45 210.75 112.45 213.9 118.95 214.65 127.95 214.85 132 214 134.9 213.65 135.95 213.15 136.85 211.8 139.55 208.85 141.3 205.3 143.4 203.25 145.2 201.55 146.35 200.25 147.65 199.1 148.75 198.25 150.05 196.8 152.3 195.8 154.75 195.1 156.45 194.4 158.9 192.75 163.25 188.75 166.7 180.1 173.65 172 175.75 168.7 176.65 165.15 176.85 161.75 177.1 158.05 176.75 150.5 175.4 145.2 174.9 139.95 173.9 135.4 174 134.6 174 133.8 174.05 117.45 176.3 106.2 175.5 101.9 175.35 98.05 174.65 89.15 173.8 83.3 170.15 78.45 167.25 78.1 162.05 77.2 159.15 71.6 158.7 70.55 158.35 69.05 158.1 67.2 157.5 64.75 156.75 60.5 155.75 57.05 153.65 54.1 152.45 51.4 150.6 46.55 148.15 43.55 144.05 37.95 137.2 38.35 124.5
L 38.35 124.4 Z"/>

<path id="Layer0_0_1_STROKES" stroke="#000000" stroke-opacity="0.28627450980392155" stroke-width="0.85" stroke-linejoin="round" stroke-linecap="round" fill="none" d="
M 103.65 116.05
Q 103.65 111.4 106.15 106.5 109 101.45 111.9 98.85 112.55 98.2 113.25 97.65 114.05 97 114.9 96.5 118.25 94.15 121.7 93 122.3 92.75 122.95 92.6 126.45 91.65 130.55 91.6 131.3 91.6 132.1 91.6 137.5 91.85 141.55 93.55 141.85 93.75 142.2 93.9 145.5 95.4 149.4 98.5 149.85 98.85 150.3 99.2 154.05 102.5 156.35 106.95 158.4 111.4 158.65 115.2 158.7 116 158.7 116.75 158.7 117.3 158.65 117.9 157.95 125.6 151.3 131.25 150.8 131.65 150.35 132.05 149.9 132.5 149.35 132.85 141.85 138.45 131.45 138.55 131.15 138.55 130.85 138.55 130.8 138.55 130.7 138.55 120.2 138.35 112.6 132.5 112.35 132.35 112.1 132.2 111.35 131.55 110.55 130.9 103.75 124.7 103.65 116.25 103.65 116.2 103.65 116.15
L 103.65 116.05 Z"/>
</defs>

<g transform="matrix( 1, 0, 0, 1, 0,0) ">
<use xlink:href="#Layer1_0_FILL"/>

<use xlink:href="#Layer1_0_1_STROKES"/>
</g>

<g transform="matrix( 1, 0, 0, 1, 0,0) ">
<use xlink:href="#Layer0_0_FILL"/>

<use xlink:href="#Layer0_0_1_STROKES"/>
</g>
</svg>
