
<svg xmlns="http://www.w3.org/2000/svg" version="1.1" xmlns:xlink="http://www.w3.org/1999/xlink" preserveAspectRatio="none" x="0px" y="0px" width="250px" height="200px" viewBox="0 0 250 200">
<defs>
<g id="Layer1_0_FILL">
<path fill="#FFFFFF" stroke="none" d="
M 181.1 78.85
Q 176.5 76.65 170.05 77.25 166.4 77.3 157.5 79.45 149.55 81.35 144.35 81.6 137 82.05 130.75 79.65 125.45 77.55 120.35 76.15 112.05 73.75 104.35 73.1 94.15 72.15 86.8 74.45 85.65 74.8 84.55 75.25 76.65 78.4 74.4 85.35 73.3 88.6 73.45 92.4 73.4 97.7 75.85 103.85 75.8 105.4 67.45 107.05 53.4 110 47.4 112.7 44.15 113.85 41.25 115.15 18.7 124.15 17.9 141.9
L 17.9 142.05
Q 17.15 157.6 25.8 164.05 30.3 167.6 37.6 168.75 41.3 169.55 45.6 169.65 50.2 170.2 56.35 169.65 59.8 169.4 62.25 169.3 64.3 169.05 65.65 169.05 74.05 168.05 73.7 171.35 72.15 178.55 77.9 181.8 83.75 185.15 95.4 184.8 99.7 184.85 105 184.35 117.8 183.45 136.85 179.7 137.75 179.6 138.7 179.55 143.55 179.45 149.85 181.55 154.9 183 164.4 186.45 168.7 187.7 172.7 188.15 176.95 188.7 180.9 188.2 190.65 187.1 201.3 179.4 206.2 175.45 207.3 170.05 207.8 166.85 208.3 165 209.1 162 210.9 159.45 211.9 158 213.5 156.95 215.25 155.75 217.7 155 220.45 153.9 226 152.6 230.6 151.35 232.5 148.65 233.25 147.7 233.65 146.45 234.75 143.3 234.05 138.35 232.25 126.85 226.65 120.9 224.75 119 222 117.55 218.95 115.8 214.9 114.85 211.75 114.1 208.55 113.4 204.85 112.6 202.5 111.65 199.35 110.4 197 108.45 194.55 106.4 193.05 103.45 191.9 101.1 193.85 98.4 195 97.05 195.7 95.9 196.65 94.65 197 93.65 198.3 90.85 195.5 87.9 192.9 85.1 186.8 81.75 184.25 80.3 181.1 78.85 Z"/>
</g>

<g id="Layer0_0_FILL">
<path fill="#FFDB49" stroke="none" d="
M 167.7 126.4
Q 167.3 122.3 164.25 117.05 161.05 112 156.45 108.65 155.95 108.25 155.4 107.85 150.15 104.3 146.75 102.8 146.35 102.6 145.9 102.45 140.8 100.45 134.75 100.35 133.85 100.3 132.9 100.35 128.05 100.45 124.1 101.45 123.35 101.65 122.6 101.85 118.65 103.15 114.55 105.65 113.6 106.25 112.6 106.95 111.75 107.55 110.9 108.25 107.65 111.05 103.95 116.8 100.35 122.95 100.35 127.9 100.35 128 100.35 128.1 100.45 137.5 109.8 144.25 110.75 144.95 111.8 145.55 112.05 145.75 112.35 145.9 121.5 151.55 133.85 151.65 133.9 151.65 133.95 151.65 134.3 151.65 134.65 151.65 146.9 151.5 155.95 145.95 156.45 145.6 156.95 145.25 157.6 144.85 158.15 144.4 167.05 138.15 167.75 129.45 167.8 128.85 167.8 128.15 167.85 127.25 167.7 126.4 Z"/>
</g>

<path id="Layer1_0_1_STROKES" stroke="#000000" stroke-width="4" stroke-linejoin="miter" stroke-linecap="butt" stroke-miterlimit="10" fill="none" d="
M 17.9 141.9
Q 18.7 124.15 41.25 115.15 44.15 113.85 47.4 112.7 53.4 110 67.45 107.05 75.8 105.4 75.85 103.85 73.4 97.7 73.45 92.4 73.3 88.6 74.4 85.35 76.65 78.4 84.55 75.25 85.65 74.8 86.8 74.45 94.15 72.15 104.35 73.1 112.05 73.75 120.35 76.15 125.45 77.55 130.75 79.65 137 82.05 144.35 81.6 149.55 81.35 157.5 79.45 166.4 77.3 170.05 77.25 176.5 76.65 181.1 78.85 184.25 80.3 186.8 81.75 192.9 85.1 195.5 87.9 198.3 90.85 197 93.65 196.65 94.65 195.7 95.9 195 97.05 193.85 98.4 191.9 101.1 193.05 103.45 194.55 106.4 197 108.45 199.35 110.4 202.5 111.65 204.85 112.6 208.55 113.4 211.75 114.1 214.9 114.85 218.95 115.8 222 117.55 224.75 119 226.65 120.9 232.25 126.85 234.05 138.35 234.75 143.3 233.65 146.45 233.25 147.7 232.5 148.65 230.6 151.35 226 152.6 220.45 153.9 217.7 155 215.25 155.75 213.5 156.95 211.9 158 210.9 159.45 209.1 162 208.3 165 207.8 166.85 207.3 170.05 206.2 175.45 201.3 179.4 190.65 187.1 180.9 188.2 176.95 188.7 172.7 188.15 168.7 187.7 164.4 186.45 154.9 183 149.85 181.55 143.55 179.45 138.7 179.55 137.75 179.6 136.85 179.7 117.8 183.45 105 184.35 99.7 184.85 95.4 184.8 83.75 185.15 77.9 181.8 72.15 178.55 73.7 171.35 74.05 168.05 65.65 169.05 64.3 169.05 62.25 169.3 59.8 169.4 56.35 169.65 50.2 170.2 45.6 169.65 41.3 169.55 37.6 168.75 30.3 167.6 25.8 164.05 17.15 157.6 17.9 142.05
L 17.9 141.9 Z"/>

<path id="Layer0_0_1_STROKES" stroke="#000000" stroke-opacity="0.7137254901960784" stroke-width="2.15" stroke-linejoin="round" stroke-linecap="round" fill="none" d="
M 100.35 127.9
Q 100.35 122.95 103.95 116.8 107.65 111.05 110.9 108.25 111.75 107.55 112.6 106.95 113.6 106.25 114.55 105.65 118.65 103.15 122.6 101.85 123.35 101.65 124.1 101.45 128.05 100.45 132.9 100.35 133.85 100.3 134.75 100.35 140.8 100.45 145.9 102.45 146.35 102.6 146.75 102.8 150.15 104.3 155.4 107.85 155.95 108.25 156.45 108.65 161.05 112 164.25 117.05 167.3 122.3 167.7 126.4 167.85 127.25 167.8 128.15 167.8 128.85 167.75 129.45 167.05 138.15 158.15 144.4 157.6 144.85 156.95 145.25 156.45 145.6 155.95 145.95 146.9 151.5 134.65 151.65 134.3 151.65 133.95 151.65 133.9 151.65 133.85 151.65 121.5 151.55 112.35 145.9 112.05 145.75 111.8 145.55 110.75 144.95 109.8 144.25 100.45 137.5 100.35 128.1 100.35 128 100.35 127.9 Z"/>
</defs>

<g transform="matrix( 1, 0, 0, 1, 0,0) ">
<use xlink:href="#Layer1_0_FILL"/>

<use xlink:href="#Layer1_0_1_STROKES"/>
</g>

<g transform="matrix( 1, 0, 0, 1, 0,0) ">
<use xlink:href="#Layer0_0_FILL"/>

<use xlink:href="#Layer0_0_1_STROKES"/>
</g>
</svg>
