
<svg xmlns="http://www.w3.org/2000/svg" version="1.1" xmlns:xlink="http://www.w3.org/1999/xlink" preserveAspectRatio="none" x="0px" y="0px" width="250px" height="200px" viewBox="0 0 250 200">
<defs>
<g id="Layer1_0_FILL">
<path fill="#FFFFFF" stroke="none" d="
M 185.5 74
Q 185 72.1 182.9 69.95 180.6 67.5 176.7 64.5 174.9 63.05 172.7 61.65 169.25 59.5 164.8 58.3 161.05 56.95 155.3 56.35 150.1 55.85 145.55 55.1 140.3 54.4 135.15 53.2 131.05 52.2 126.95 51.5 120.5 50.45 114.5 50.55 107.25 50.65 101.1 52.45 100.25 52.7 99.45 53 93.65 55.05 89.8 58.7 87.85 60.45 86.35 62.6 83.35 66.1 81.85 69.55 79.8 71.6 75.9 73.6 68.35 78.05 64.45 83.55 62.85 85.35 61.45 87.3 52.25 97.8 51.95 112.85
L 51.95 112.9
Q 51.7 123.7 55.25 130.8 57.3 135.3 60.6 138.55 62.55 141.1 64.65 143.05 67.3 146.2 70.3 148.15 72.1 149.6 73.6 150.65 74.65 151.25 75.55 151.85 79.3 153.25 81 155.85 82.65 159.7 86.9 162.45 92.75 166.25 99.75 167.95 103.3 169.05 106.95 169.65 117.25 171.55 131.75 170.35 132.5 170.3 133.2 170.3 137.55 170.2 142.1 170.45 147.6 170.35 153.85 170.3 157.15 170 160.15 169.3 163.2 168.7 166.1 167.5 173.1 164.7 180.45 158.3 183.8 155.15 185.8 151.5 186.7 149.55 187.5 148 188.6 145.85 189.85 143.8 190.6 142.6 191.45 141.45 192.5 140.1 193.7 138.7 195.25 136.45 197.5 133.8 199.3 131.75 200.35 129.05 200.65 128.2 200.95 127.25 201.7 124.55 201.75 121.05 201.75 113.7 200.15 106.8 199.6 104.8 198.8 102.8 197.85 100.05 196.6 97.8 195.6 95.65 194.5 93.8 193.25 91.75 192.25 89.95 190.95 87.75 189.75 85.9 188.45 83.75 187.4 81.65 186.4 79.6 186.25 77.65 186.1 76.55 185.85 75.55 185.8 74.8 185.5 74 Z"/>
</g>

<g id="Layer0_0_FILL">
<path fill="#FFFFFF" stroke="none" d="
M 115.1 90.35
Q 113.75 91.3 112.55 92.6 109.95 95.1 108.35 98.2 105.8 103 105.8 108.2
L 105.8 108.4
Q 105.9 117.05 112.35 123.25 112.55 123.4 112.75 123.55 119.35 129.6 128.6 129.85 129 129.85 129.35 129.85 138.45 129.75 145 124.15 145.5 123.75 145.9 123.3 151.85 117.75 152.55 110.15 152.65 108.95 152.6 107.75 152.5 103.85 151.05 100.2 149.15 95.75 145.4 92.25 142.05 89.2 138.6 87.65 134.85 85.95 128.95 85.75 125.35 85.75 122.2 86.7 118.45 87.85 115.1 90.35 Z"/>
</g>

<path id="Layer1_0_1_STROKES" stroke="#000000" stroke-width="4" stroke-linejoin="miter" stroke-linecap="butt" stroke-miterlimit="10" fill="none" d="
M 51.95 112.85
Q 52.25 97.8 61.45 87.3 62.85 85.35 64.45 83.55 68.35 78.05 75.9 73.6 79.8 71.6 81.85 69.55 83.35 66.1 86.35 62.6 87.85 60.45 89.8 58.7 93.65 55.05 99.45 53 100.25 52.7 101.1 52.45 107.25 50.65 114.5 50.55 120.5 50.45 126.95 51.5 131.05 52.2 135.15 53.2 140.3 54.4 145.55 55.1 150.1 55.85 155.3 56.35 161.05 56.95 164.8 58.3 169.25 59.5 172.7 61.65 174.9 63.05 176.7 64.5 180.6 67.5 182.9 69.95 185 72.1 185.5 74 185.8 74.8 185.85 75.55 186.1 76.55 186.25 77.65 186.4 79.6 187.4 81.65 188.45 83.75 189.75 85.9 190.95 87.75 192.25 89.95 193.25 91.75 194.5 93.8 195.6 95.65 196.6 97.8 197.85 100.05 198.8 102.8 199.6 104.8 200.15 106.8 201.75 113.7 201.75 121.05 201.7 124.55 200.95 127.25 200.65 128.2 200.35 129.05 199.3 131.75 197.5 133.8 195.25 136.45 193.7 138.7 192.5 140.1 191.45 141.45 190.6 142.6 189.85 143.8 188.6 145.85 187.5 148 186.7 149.55 185.8 151.5 183.8 155.15 180.45 158.3 173.1 164.7 166.1 167.5 163.2 168.7 160.15 169.3 157.15 170 153.85 170.3 147.6 170.35 142.1 170.45 137.55 170.2 133.2 170.3 132.5 170.3 131.75 170.35 117.25 171.55 106.95 169.65 103.3 169.05 99.75 167.95 92.75 166.25 86.9 162.45 82.65 159.7 81 155.85 79.3 153.25 75.55 151.85 74.65 151.25 73.6 150.65 72.1 149.6 70.3 148.15 67.3 146.2 64.65 143.05 62.55 141.1 60.6 138.55 57.3 135.3 55.25 130.8 51.7 123.7 51.95 112.9
L 51.95 112.85 Z"/>
</defs>

<g transform="matrix( 1, 0, 0, 1, 0,0) ">
<use xlink:href="#Layer1_0_FILL"/>

<use xlink:href="#Layer1_0_1_STROKES"/>
</g>

<g transform="matrix( 1, 0, 0, 1, 0,0) ">
<use xlink:href="#Layer0_0_FILL"/>
</g>
</svg>
