
<svg xmlns="http://www.w3.org/2000/svg" version="1.1" xmlns:xlink="http://www.w3.org/1999/xlink" preserveAspectRatio="none" x="0px" y="0px" width="250px" height="200px" viewBox="0 0 250 200">
<defs>
<g id="Layer1_0_FILL">
<path fill="#FFFFFF" stroke="none" d="
M 177.75 71.95
Q 173.6 69.75 167.95 69.65 164.25 69.1 156.65 70.2 149.75 71.1 144.8 70.95 138.3 70.95 132.5 69.05 127.7 67.4 123 66.25 115.45 64.4 108.4 64.05 99.4 63.55 92.55 65.6 91.5 65.95 90.55 66.3 83.5 69.05 80.6 74.65 79.15 77.3 78.65 80.45 77.4 85 78.25 90.1 77.4 91.85 70.85 93.65 59.4 97.15 54.2 101 51.65 102.4 49.35 104 32.15 113.6 31.55 130.25
L 31.55 130.35
Q 31.05 144 37.65 150.7 41.15 154.65 46.85 156.65 49.85 158.1 53.25 159 57.05 160.55 61.95 161.05 64.75 161.45 66.8 161.8 68.45 161.9 69.6 162.15 76.15 162.1 76.65 165.15 76.35 171 81.5 174.05 87.35 177.55 97.15 178.05 101.15 178.5 105.8 178.45 117.6 178.65 134.8 175.95 135.65 175.85 136.5 175.85 141.15 175.75 146.75 177.1 151.95 177.95 160.15 179.95 164.05 180.6 167.65 180.6 171.45 180.65 174.95 179.9 183.6 178.1 192.9 170.95 197.2 167.3 198.7 162.6 199.3 159.9 199.95 158.15 200.9 155.5 202.45 153.15 203.35 151.85 204.65 150.75 206.15 149.45 208.05 148.45 210.35 146.9 214.55 145.05 218.05 143.45 219.6 140.75 220.15 139.85 220.55 138.75 221.5 135.75 221.1 131.4 220 121.6 216.05 115.25 214.65 113.3 212.7 111.65 210.5 109.5 207.55 108.05 205.25 106.7 202.9 105.55 200.2 104.2 198.4 102.95 195.95 101.3 194.1 99.4 192.1 97.3 190.8 94.7 189.7 92.5 190.8 90.1 191.4 88.8 191.75 87.75 192.3 86.65 192.4 85.8 192.95 83.3 190.45 80.7 187.95 78.05 182.75 74.8 180.5 73.35 177.75 71.95 Z"/>
</g>

<g id="Layer0_0_FILL">
<path fill="#FFE992" stroke="none" d="
M 123.35 95.55
Q 122.65 95.7 122 95.95 118.4 97.15 114.8 99.55 113.9 100.1 113.05 100.75 112.3 101.3 111.55 102 108.55 104.65 105.4 109.95 102.55 115.25 102.55 120
L 102.55 120.05
Q 102.55 120.15 102.55 120.2 102.65 128.95 110.3 135.35 111.15 136 112 136.65 112.25 136.8 112.5 136.95 120.65 142.75 131.75 142.9 131.85 142.9 131.9 142.9 132.2 142.9 132.5 142.9 143.55 142.8 151.55 137.2 152.1 136.85 152.55 136.45 153.05 136.05 153.6 135.65 161 129.8 161.7 121.75 161.75 121.15 161.75 120.55 161.75 119.75 161.65 118.95 161.35 115.05 159 110.3 156.4 105.65 152.35 102.35 151.9 102 151.4 101.6 147.05 98.35 143.7 96.85 143.35 96.7 143 96.5 138.6 94.7 133 94.5 132.15 94.5 131.35 94.5 127 94.6 123.35 95.55 Z"/>
</g>

<path id="Layer1_0_1_STROKES" stroke="#000000" stroke-width="4" stroke-linejoin="miter" stroke-linecap="butt" stroke-miterlimit="10" fill="none" d="
M 31.55 130.25
Q 32.15 113.6 49.35 104 51.65 102.4 54.2 101 59.4 97.15 70.85 93.65 77.4 91.85 78.25 90.1 77.4 85 78.65 80.45 79.15 77.3 80.6 74.65 83.5 69.05 90.55 66.3 91.5 65.95 92.55 65.6 99.4 63.55 108.4 64.05 115.45 64.4 123 66.25 127.7 67.4 132.5 69.05 138.3 70.95 144.8 70.95 149.75 71.1 156.65 70.2 164.25 69.1 167.95 69.65 173.6 69.75 177.75 71.95 180.5 73.35 182.75 74.8 187.95 78.05 190.45 80.7 192.95 83.3 192.4 85.8 192.3 86.65 191.75 87.75 191.4 88.8 190.8 90.1 189.7 92.5 190.8 94.7 192.1 97.3 194.1 99.4 195.95 101.3 198.4 102.95 200.2 104.2 202.9 105.55 205.25 106.7 207.55 108.05 210.5 109.5 212.7 111.65 214.65 113.3 216.05 115.25 220 121.6 221.1 131.4 221.5 135.75 220.55 138.75 220.15 139.85 219.6 140.75 218.05 143.45 214.55 145.05 210.35 146.9 208.05 148.45 206.15 149.45 204.65 150.75 203.35 151.85 202.45 153.15 200.9 155.5 199.95 158.15 199.3 159.9 198.7 162.6 197.2 167.3 192.9 170.95 183.6 178.1 174.95 179.9 171.45 180.65 167.65 180.6 164.05 180.6 160.15 179.95 151.95 177.95 146.75 177.1 141.15 175.75 136.5 175.85 135.65 175.85 134.8 175.95 117.6 178.65 105.8 178.45 101.15 178.5 97.15 178.05 87.35 177.55 81.5 174.05 76.35 171 76.65 165.15 76.15 162.1 69.6 162.15 68.45 161.9 66.8 161.8 64.75 161.45 61.95 161.05 57.05 160.55 53.25 159 49.85 158.1 46.85 156.65 41.15 154.65 37.65 150.7 31.05 144 31.55 130.35
L 31.55 130.25 Z"/>

<path id="Layer0_0_1_STROKES" stroke="#000000" stroke-opacity="0.42745098039215684" stroke-width="1.3" stroke-linejoin="round" stroke-linecap="round" fill="none" d="
M 102.55 120
Q 102.55 115.25 105.4 109.95 108.55 104.65 111.55 102 112.3 101.3 113.05 100.75 113.9 100.1 114.8 99.55 118.4 97.15 122 95.95 122.65 95.7 123.35 95.55 127 94.6 131.35 94.5 132.15 94.5 133 94.5 138.6 94.7 143 96.5 143.35 96.7 143.7 96.85 147.05 98.35 151.4 101.6 151.9 102 152.35 102.35 156.4 105.65 159 110.3 161.35 115.05 161.65 118.95 161.75 119.75 161.75 120.55 161.75 121.15 161.7 121.75 161 129.8 153.6 135.65 153.05 136.05 152.55 136.45 152.1 136.85 151.55 137.2 143.55 142.8 132.5 142.9 132.2 142.9 131.9 142.9 131.85 142.9 131.75 142.9 120.65 142.75 112.5 136.95 112.25 136.8 112 136.65 111.15 136 110.3 135.35 102.65 128.95 102.55 120.2 102.55 120.15 102.55 120.05
L 102.55 120 Z"/>
</defs>

<g transform="matrix( 1, 0, 0, 1, 0,0) ">
<use xlink:href="#Layer1_0_FILL"/>

<use xlink:href="#Layer1_0_1_STROKES"/>
</g>

<g transform="matrix( 1, 0, 0, 1, 0,0) ">
<use xlink:href="#Layer0_0_FILL"/>

<use xlink:href="#Layer0_0_1_STROKES"/>
</g>
</svg>
