
<svg xmlns="http://www.w3.org/2000/svg" version="1.1" xmlns:xlink="http://www.w3.org/1999/xlink" preserveAspectRatio="none" x="0px" y="0px" width="250px" height="200px" viewBox="0 0 250 200">
<defs>
<g id="Layer1_0_FILL">
<path fill="#FFFFFF" stroke="none" d="
M 182.8 82.3
Q 177.95 80.1 171.1 81.1 167.45 81.4 157.95 84.1 149.4 86.5 144.1 86.9 136.3 87.6 129.85 84.95 124.35 82.7 119.05 81.1 110.35 78.45 102.3 77.65 91.55 76.5 83.95 78.85 82.7 79.25 81.55 79.7 73.25 83.15 71.3 90.7 70.35 94.25 70.85 98.45 71.4 104.05 74.6 110.8 75 112.2 65.75 113.8 50.4 116.4 43.95 118.55 40.35 119.6 37.15 120.8 11.9 129.5 11 147.75
L 11 147.9
Q 10.2 164.4 19.9 170.75 24.9 174.15 33 174.8 37.05 175.25 41.8 175.05 46.75 175 53.55 173.95 57.35 173.4 59.95 173.05 62.25 172.65 63.65 172.5 73 171 72.2 174.45 70 182.35 76.05 185.7 81.9 188.95 94.55 188.2 99 188 104.6 187.35 117.9 185.85 137.85 181.6 138.8 181.45 139.8 181.45 144.75 181.35 151.4 183.8 156.4 185.55 166.5 189.75 171 191.3 175.2 191.95 179.75 192.7 183.85 192.35 194.15 191.6 205.5 183.65 210.7 179.55 211.65 173.8 212.05 170.3 212.5 168.4 213.25 165.25 215.15 162.6 216.2 161.15 217.95 160.05 219.85 158.95 222.5 158.25 225.5 157.4 231.75 156.4 236.9 155.3 239 152.6 239.8 151.6 240.25 150.3 241.4 147.05 240.55 141.85 238.4 129.5 232 123.75 229.8 121.85 226.65 120.5 223.2 118.95 218.55 118.3 215 117.85 211.35 117.35 207.15 116.8 204.6 116 201 115 198.45 113 195.75 110.95 194.2 107.85 193 105.45 195.35 102.55 196.75 101.15 197.65 100 198.85 98.65 199.35 97.65 200.95 94.6 198.05 91.5 195.35 88.65 188.85 85.2 186.15 83.75 182.8 82.3 Z"/>
</g>

<g id="Layer0_0_FILL">
<path fill="#FFD324" stroke="none" d="
M 170.75 130.1
Q 170.25 125.9 166.9 120.45 163.4 115.15 158.55 111.75 157.95 111.35 157.4 111 151.75 107.25 148.25 105.8 147.8 105.6 147.4 105.4 141.9 103.3 135.6 103.25 134.65 103.25 133.7 103.3 128.6 103.4 124.45 104.4 123.65 104.6 122.9 104.85 118.8 106.1 114.45 108.75 113.45 109.3 112.4 110 111.45 110.65 110.6 111.35 107.15 114.2 103.2 120.25 99.3 126.75 99.3 131.8
L 99.3 131.85
Q 99.3 131.9 99.3 132 99.4 141.75 109.5 148.7 110.6 149.4 111.65 150.05 111.95 150.25 112.3 150.4 121.9 155.9 134.9 156 134.95 156 135 156 135.35 156 135.7 156 148.6 155.85 158.1 150.3 158.65 150 159.2 149.6 159.85 149.2 160.45 148.75 170.05 142.3 170.8 133.35 170.85 132.65 170.85 131.95 170.85 131.05 170.75 130.1 Z"/>
</g>

<path id="Layer1_0_1_STROKES" stroke="#000000" stroke-width="4" stroke-linejoin="miter" stroke-linecap="butt" stroke-miterlimit="10" fill="none" d="
M 11 147.75
Q 11.9 129.5 37.15 120.8 40.35 119.6 43.95 118.55 50.4 116.4 65.75 113.8 75 112.2 74.6 110.8 71.4 104.05 70.85 98.45 70.35 94.25 71.3 90.7 73.25 83.15 81.55 79.7 82.7 79.25 83.95 78.85 91.55 76.5 102.3 77.65 110.35 78.45 119.05 81.1 124.35 82.7 129.85 84.95 136.3 87.6 144.1 86.9 149.4 86.5 157.95 84.1 167.45 81.4 171.1 81.1 177.95 80.1 182.8 82.3 186.15 83.75 188.85 85.2 195.35 88.65 198.05 91.5 200.95 94.6 199.35 97.65 198.85 98.65 197.65 100 196.75 101.15 195.35 102.55 193 105.45 194.2 107.85 195.75 110.95 198.45 113 201 115 204.6 116 207.15 116.8 211.35 117.35 215 117.85 218.55 118.3 223.2 118.95 226.65 120.5 229.8 121.85 232 123.75 238.4 129.5 240.55 141.85 241.4 147.05 240.25 150.3 239.8 151.6 239 152.6 236.9 155.3 231.75 156.4 225.5 157.4 222.5 158.25 219.85 158.95 217.95 160.05 216.2 161.15 215.15 162.6 213.25 165.25 212.5 168.4 212.05 170.3 211.65 173.8 210.7 179.55 205.5 183.65 194.15 191.6 183.85 192.35 179.75 192.7 175.2 191.95 171 191.3 166.5 189.75 156.4 185.55 151.4 183.8 144.75 181.35 139.8 181.45 138.8 181.45 137.85 181.6 117.9 185.85 104.6 187.35 99 188 94.55 188.2 81.9 188.95 76.05 185.7 70 182.35 72.2 174.45 73 171 63.65 172.5 62.25 172.65 59.95 173.05 57.35 173.4 53.55 173.95 46.75 175 41.8 175.05 37.05 175.25 33 174.8 24.9 174.15 19.9 170.75 10.2 164.4 11 147.9
L 11 147.75 Z"/>

<path id="Layer0_0_1_STROKES" stroke="#000000" stroke-opacity="0.8588235294117647" stroke-width="2.54" stroke-linejoin="round" stroke-linecap="round" fill="none" d="
M 99.3 131.8
Q 99.3 126.75 103.2 120.25 107.15 114.2 110.6 111.35 111.45 110.65 112.4 110 113.45 109.3 114.45 108.75 118.8 106.1 122.9 104.85 123.65 104.6 124.45 104.4 128.6 103.4 133.7 103.3 134.65 103.25 135.6 103.25 141.9 103.3 147.4 105.4 147.8 105.6 148.25 105.8 151.75 107.25 157.4 111 157.95 111.35 158.55 111.75 163.4 115.15 166.9 120.45 170.25 125.9 170.75 130.1 170.85 131.05 170.85 131.95 170.85 132.65 170.8 133.35 170.05 142.3 160.45 148.75 159.85 149.2 159.2 149.6 158.65 150 158.1 150.3 148.6 155.85 135.7 156 135.35 156 135 156 134.95 156 134.9 156 121.9 155.9 112.3 150.4 111.95 150.25 111.65 150.05 110.6 149.4 109.5 148.7 99.4 141.75 99.3 132 99.3 131.9 99.3 131.85
L 99.3 131.8 Z"/>
</defs>

<g transform="matrix( 1, 0, 0, 1, 0,0) ">
<use xlink:href="#Layer1_0_FILL"/>

<use xlink:href="#Layer1_0_1_STROKES"/>
</g>

<g transform="matrix( 1, 0, 0, 1, 0,0) ">
<use xlink:href="#Layer0_0_FILL"/>

<use xlink:href="#Layer0_0_1_STROKES"/>
</g>
</svg>
