
<svg xmlns="http://www.w3.org/2000/svg" version="1.1" xmlns:xlink="http://www.w3.org/1999/xlink" preserveAspectRatio="none" x="0px" y="0px" width="1000px" height="1000px" viewBox="0 0 1000 1000">
<defs>
<g id="leg_right_0_Layer0_0_MEMBER_0_FILL">
<path fill="#D68525" stroke="none" d="
M 567.9 875.8
Q 569.4 870.95 567.25 868.65 565.25 866.55 561.2 866.65 557.3 866.75 554.4 868.65 551.6 870.45 550.25 875.65 548.75 881.4 547.05 898.05 546.2 906.35 545.45 913.95 544.9 917.65 543.35 920.1 540.45 924.65 533.6 929.35 528.25 932.95 528.65 934.8 529.05 936.4 531.5 937.5 533.6 938.4 536 938.5 539.35 938.6 543.1 936.3 546.3 934.35 547.05 934.8 548.1 935.45 546.75 940.9 544.9 948.2 545.2 953.2 545.6 960.05 549 966.25 552.15 972 554.4 971.55 556.1 971.25 556.6 965.6 556.85 962.9 556.95 953.35 557.2 935.5 560.85 934.6 563.4 934 567.65 939.05 571.2 943.25 573.85 948.6 575.4 951.65 577.5 958.2 578.8 962.25 580.1 962.35 581.4 962.45 582.85 960.2 584.15 958.2 584.85 955.6 587.45 946.25 576.85 930.6 571.7 922.95 565.75 918.1 561.2 914.4 559.9 910.9 556.4 901.65 563.6 885.95 567.3 877.8 567.9 875.8 Z"/>
</g>

<g id="leg_left_0_Layer0_0_MEMBER_0_FILL">
<path fill="#D68525" stroke="none" d="
M 436.45 886.6
Q 436.65 880.75 436.4 878.7 436.1 875.65 434.65 873.75 431.35 869.5 424.1 868.95 416.95 868.4 414.4 871.9 413.15 873.6 414.6 877.15 414.9 877.9 418.65 884.9 425.2 897.3 423.6 906.8 422.2 915.05 416.25 921.5 412.25 925.9 406.5 928.25 403.1 929.65 396.3 931.05 389.75 932.45 386.9 933.7 382.15 935.8 379.5 939.9 377.3 943.3 376.65 947.1 375.8 951.6 377.65 954.6 378.95 956.6 381.15 957.8 383.45 959 385 958.25 386.4 957.65 386.8 954.2 387.35 949.65 388.7 947.25 391.25 942.7 396.6 940.35 401.95 938 405.25 939.9 406.5 940.65 407.25 942.95 408.3 946.4 408.9 954.6 409.15 958.05 408.9 967.8 408.95 976 410.75 976.65 412.05 977.05 414.3 974.55 416.3 972.3 418 969.15 420.9 963.7 420.85 955.65 420.8 947.45 423 943.15 425.65 938 430.4 934.7 435.2 931.3 438.3 932.55 441.7 933.85 442.4 942.55 442.6 944.65 442.8 948.3 443.05 950.85 443.8 950.9 444.95 951 446.55 948.45 448.25 945.8 449.4 941.95 452.45 931.8 449.35 923.35 447.5 918.4 440.75 912.05 435 906.7 434.65 901.3 434.5 899.25 435.35 895.7 436.3 891.45 436.45 886.6 Z"/>
</g>

<g id="body_0_Layer0_0_FILL">
<path fill="#AA0F0F" stroke="none" d="
M 751 503
Q 729.2 464.65 701.85 436.95 649.35 383.7 588.7 380.8 564.6 379.65 545.7 382.7 508.35 388.8 483 409.95
L 483 410 481 411
Q 471.4 368.35 464 326
L 455 275
Q 446.35 225.55 443 213.8 440.35 204.6 437.15 199.4 434 194.35 429 191 419.65 184.7 406.4 184.45 399.2 184.35 392 186 362.45 192.45 334.05 247.3 319.85 274.7 311.55 300.85 309.7 306.45 308.05 309.9 307.15 311.75 306.05 313.8 304.85 316.5 304.1 327.95 304.05 328.6 303.1 331.7 300.95 339.7 296 361 289.65 388.1 285 410 281.2 426.4 275.15 443.05 271.3 453.75 260 483 241.8 531.45 236 548.6 227.35 574.25 224.15 592.1 220.35 613.1 219.35 630.1 217.55 661.1 223.4 687.05 235.4 740 281.15 782.85 307.45 807.45 340.9 825.25 370.75 861.9 399.35 875.85 439.65 895.55 469.2 864.3 472.2 861.85 476.55 855.55 481.75 847.6 484.5 843.45 495 827.75 502.5 825.7 515.75 839.6 525.7 854.6 528.45 858.7 532.55 865.25 536.1 870.65 540 875 549.15 885.15 561.5 892.25 576.85 894.2 592 891 599.7 889.3 607.1 886.25 611.4 884.45 618 881 625.75 876.9 632.95 871.5 637.15 868.3 647 860 664.25 845.25 672 835 676.35 829 677.8 826.7 679.95 823.25 681 820 682.2 815.3 682.8 813.2 683.85 809.65 686 807 686.35 806.55 692 801
L 698 795
Q 701.45 791.5 704.6 787.3 705 786.8 708.3 782.15 712.75 775.85 721.75 768.25 730.85 761.05 733 759 744.35 748.3 754.35 729.5 760 718.9 766.7 702.25 785.3 656.05 784 603 777.15 549.1 751 503 Z"/>
</g>

<g id="body_0_Layer0_1_FILL">
<path fill="#DD3A3A" stroke="none" d="
M 773.05 583.4
Q 767.55 558.25 756.75 533.2 722.05 453.1 646.8 404.7 642.75 402.1 638.6 399.85 593.8 377.2 534.8 392.6 505.25 400.4 479.6 418.45 472.6 392.6 467.7 367.35 466.75 362.35 459.45 320.1 454.4 292.15 452.85 282.5 444.4 228.45 442.15 219.3 439.85 210.25 436.9 205.4 434.1 200.75 429.2 197.7 417.05 190.1 399 192.6 389.15 193.9 380.05 197.7 362.15 205.1 349.05 224.9 334.3 247.15 318.15 295.15 311.2 315.75 306.2 334.95 301.35 353.35 296.4 380.05 291.95 404 286.4 423.35 283.6 433.1 280.1 443.5 278.05 449.65 273.5 462.65 269.2 474.9 263.25 490.35 256.7 507.45 252.7 518.6 246.75 535.25 238.8 559.85 228.05 594.85 224.8 616.25 219.05 654.25 227.45 685.1 237.45 722 268.7 756.25 283.4 772.3 302.65 787 308.5 791.45 325.25 803.85 341.6 816.85 355.45 832.1 357.05 833.85 366.3 844.75 370.6 849.85 375.5 853.8 385.45 861.7 397.8 867.55 421.25 878.6 440.15 874.55 452.65 871.85 463.3 862 470.55 855.35 479.35 842.55 489.15 828.35 491.95 825.35 498.5 818.25 504.75 819.5 507.85 820.1 510.2 822.8 511.85 824.7 515.1 830.4 524.85 847.6 535.7 861 544.9 872.35 548.45 876 553.7 881.4 558.5 883.55 573.65 890.3 595.65 881.7 607.95 876.9 626.75 864.6 649.5 849.75 664.1 833.6 674.2 822.4 676.5 815.95 677.2 813 677.75 810.85 678.8 806.8 680.75 803.45 682.8 799.95 686.85 796.3 692.65 791.05 696.85 786.1 700.65 781.8 704.3 777.5 706.05 775.4 708.4 773 715.05 766.2 718.4 763.05 723.45 758.35 731.45 751.8 735.4 748.6 742.45 737.9 751.7 723.95 759.05 706.9 780.4 657.2 776.35 603.6 775.8 596 773.05 583.4 Z"/>
</g>

<g id="body_0_Layer0_2_MEMBER_0_FILL">
<path fill="#E86921" stroke="none" d="
M 330.65 274.35
Q 329.8 270.55 327.1 267.55 324.3 264.45 321.6 264.65 319.5 264.85 317.65 267.6 316.95 268.6 314.25 273.85 312.35 277.55 309.6 280.7 305.55 285.45 297.75 297.75 287.6 313.75 284.65 319.4 280.45 327.35 281.2 330.8 282.8 338.2 290.2 343.75 297.6 349.25 303.25 347.35 306.7 346.2 307.95 341.5 308.55 339.3 309.55 330.1 311.65 310.1 320.65 296.75 326.15 289.4 328.25 285.75 331.85 279.55 330.65 274.35 Z"/>
</g>

<g id="body_0_Layer0_3_FILL">
<path fill="#A83800" stroke="none" d="
M 241.8 586.1
Q 237.1 581.4 233.75 582.1 221.85 589.3 219.3 615.45 217.9 629.95 219.65 662.15 223.4 695.7 237.8 727.1 251.6 757.2 274.1 783 296.1 808.25 324.4 827 352.75 845.8 384.55 856.2 450 873.5 495.65 862.2 538.1 851.75 552.4 819.95 566.65 788.35 548.05 746.85 528.1 702.5 475.8 660.35 466.65 653.9 443.85 636.9 423.7 621.85 411.9 613.8 374.5 588.25 342.95 577.85 323.4 573.45 310.95 591.25 306.45 597.65 302 608.2 299.5 614.15 295.25 625.45 291.55 634.45 288.6 638 284.8 642.55 280.2 640.95 269.85 637.3 250.25 598.3 246.4 590.65 241.8 586.1 Z"/>
</g>

<g id="body_0_Layer0_4_FILL">
<path fill="#E86921" stroke="none" d="
M 299.5 621.2
Q 294.8 634.75 292.9 638.4 288.95 645.9 283.5 646.3 276.85 646.8 269.55 637.8 264.65 631.8 257.1 617.9 248.65 602.3 245.75 598.15 239.65 589.4 235.05 590.2 226.5 591.7 222.9 617.95 219.2 644.5 223.85 673.7 230.6 715.95 256.1 754 270.35 775.35 290.75 795 304.1 807.85 322.4 820.25 356.65 843.5 391.4 852.5 418 859.4 445 859.35 460.95 859.3 484.8 856.1 503.8 853.55 515 849.05 524.3 845.3 530.9 838.95 541 829.25 545.7 814.6 548.4 806.3 549.5 794.95 550.6 782.85 547.6 769.35 542.45 746.2 526 720.6 517.15 706.85 501.25 691.25 472.5 663.2 423.35 630.65 377.1 600.1 360.55 592.25 336.6 580.95 322.65 587.65 313.95 591.8 307.9 601.9 303.9 608.55 299.5 621.2 Z"/>
</g>

<g id="body_0_Layer0_5_MEMBER_0_FILL">
<path fill="#E86921" stroke="none" d="
M 349.2 255.5
Q 345.3 257.55 347.35 273.85 348.8 285.2 352.9 296.4 355.4 303.3 362.05 319.8 365.25 328.3 370.15 344.65 372.45 352.45 376.75 358.4 383.05 367.15 387.7 371.4 396 378.9 404.3 378.6 415.45 378.2 424.55 366.55 433.65 354.95 431.85 343.7 430.85 337.4 425.45 332.9 422.5 330.45 413.15 325.35 403.9 320.3 398.75 315.95 390.75 309.2 385.95 299.6 385.9 299.55 380.25 285.4 376.9 277.05 371.25 270.2 365.7 263.45 359.8 259.05 352.6 253.65 349.2 255.5 Z"/>
</g>

<g id="body_0_Layer0_6_MEMBER_0_FILL">
<path fill="#DDE8EC" stroke="none" d="
M 415.35 229.75
Q 413 222.55 410.45 218.45 405.7 210.75 398.8 209.55 392.95 208.55 387 212.15 381.7 215.35 378.6 220.55 373.95 228.3 376.4 238.45 378.4 246.9 384.1 253.65 389.2 259.7 396 263.15 404.15 267.3 409.8 264.65 416.55 261.45 417.6 249.65 418.5 239.6 415.35 229.75 Z"/>
</g>

<g id="body_0_Layer0_7_FILL">
<path fill="#474747" stroke="none" d="
M 403.3 229.1
Q 400.5 221.45 395.1 220.55 392 220.05 388.7 222.5 385.75 224.65 384.1 227.9 381.3 233.35 382.95 239.9 384.7 246.55 389.6 248.15 392.95 249.25 396.8 247.45 400.4 245.8 402.45 242.6 406.15 236.9 403.3 229.1 Z"/>
</g>

<g id="body_0_Layer0_8_FILL">
<path fill="#373839" stroke="none" d="
M 468.65 246.3
Q 465.35 244.25 458.55 247.05 445.1 252.55 441.05 253.65 431.35 256.35 421.05 256.6 413.55 256.8 413.5 257.3 413.35 259.05 427.95 260.85 441.3 262.45 455.75 262.85 463.25 263 466.6 262.4 470.85 261.65 472.3 259.15 473.9 256.35 472.8 252.3 471.65 248.15 468.65 246.3 Z"/>
</g>

<g id="body_0_Layer0_9_FILL">
<path fill="#373839" stroke="none" d="
M 406.15 216.9
Q 406.5 217 407.65 215.35 409.2 213.2 414.4 204.95 416.35 201.9 416.85 200.8 417.55 199.25 417.15 198.5 416.4 197.05 413.35 197 410.3 197 408 198.5 403.75 201.35 403.75 209.05 403.75 216.3 406.15 216.9 Z"/>
</g>

<g id="body_0_Layer0_10_FILL">
<path fill="#373839" stroke="none" d="
M 461.3 205.85
Q 457.4 204.65 451.45 208.9 441.7 216.65 432.8 223.3 421.1 231.7 418.15 233.8 414 236.8 414.4 238 415.25 240.45 424.5 239.5 433.6 238.6 442.9 235.25 451.4 232.25 457.5 228.7 469.05 221.9 468.65 215.05 468.45 212.1 466.35 209.45 464.2 206.75 461.3 205.85 Z"/>
</g>

<g id="body_0_Layer0_11_FILL">
<path fill="#D63838" stroke="none" d="
M 330.5 276.15
Q 329.55 276.6 327.75 277.75 320.6 282.6 319 292.55 318.35 296.6 319.05 299.7 319.75 302.85 321.55 303.5 322.6 303.95 324.15 303.35 325 303.05 326.6 302.15 334 297.85 335.75 287.3 336.45 283.05 335.8 279.8 335.1 276.45 333.3 275.8 332.2 275.4 330.5 276.15 Z"/>
</g>

<g id="body_0_Layer0_12_FILL">
<path fill="#D63838" stroke="none" d="
M 339.35 280
Q 338.5 280.8 337.25 282.65 332.05 290.35 334.55 302.05 335.6 306.8 337.6 310.05 339.6 313.3 341.7 313.5 342.9 313.6 344.25 312.45 345 311.85 346.2 310.35 351.85 303.15 349.25 290.75 348.2 285.8 346.15 282.35 344.05 278.85 342 278.7 340.7 278.6 339.35 280 Z"/>
</g>

<g id="body_0_Layer0_13_MEMBER_0_FILL">
<path fill="#D68525" stroke="none" d="
M 358.35 237.1
Q 357.05 231.1 355.5 227.7 352.8 221.95 348.25 219.65 342.1 216.5 332.75 220.2 327.3 222.3 317.05 228.85 299.7 239.85 287.65 258.25 302 258.95 314.25 264.65 323.15 268.75 332.7 277.5 336.45 280.9 338.2 281.95 340.9 283.5 343.65 283.05 352.1 281.6 356.9 266.6 361.65 251.6 358.35 237.1 Z"/>
</g>

<g id="body_0_Layer0_14_FILL">
<path fill="#CC7211" stroke="none" d="
M 354.9 263.3
Q 354.7 257.4 351.5 253.5 348.3 249.6 341.45 248.95 336.65 248.45 323.5 249.5 311.85 250.4 301.95 252.45 290.85 254.8 291 257 291.05 257.8 293.25 258.15 294.7 258.35 299.3 258.75 310.05 259.95 318.5 264.5 323.25 267.05 333.05 275.45 339.4 280.9 344 280 346.85 279.4 349.35 277.15 350.55 276 352 274 355.15 269.4 354.9 263.3 Z"/>
</g>

<g id="body_0_Layer0_15_FILL">
<path fill="#AA0F0F" stroke="none" d="
M 682.05 811
Q 682.7 811.1 683.7 809.7 684.7 808.25 685.15 806.65 685.5 805.5 685.4 804.2 685.4 804.05 685.15 801.7 685 800.4 685.05 799.05 685.15 796.1 685.15 793.65 685.15 776.35 684.5 776.3 683.4 776.25 681.7 793.35 680 810.55 682.05 811 Z"/>
</g>

<g id="tail_0_Layer0_0_MEMBER_0_FILL">
<path fill="#AA0F0F" stroke="none" d="
M 656.55 231.25
Q 653.25 231.85 649.35 233.45 642.9 236.35 637.5 242.35 633.25 247.05 629.2 254.3 628.154296875 256.2095703125 626.3 259.95 626.45 259.0439453125 626.45 258.3 626.5 256.75 626.15 254.55 625.75 252.95 625.6 252.6
L 625 251.6
Q 624.5 250.95 623.8 250.6 622.95 250.3 622.2 250.45 621.55 250.6 621 250.9 620.35 251.25 619.25 252.1 617.1 254.15 614.65 258 612.9 260.9 611.2 264.35 611.1060546875 264.54296875 611 264.75 611.184765625 262.4458984375 610.75 260.9
L 610.55 260.35 610.2 259.75 609.65 259.2 608.95 258.85
Q 607.9 258.45 606.45 258.75 604.9 259.1 602.75 260.4 600 262.15 596.95 265 591.55 270.2 587.7 276.35 584.8 280.9 581.05 289.2 580.2326171875 290.8021484375 579.8 291.55
L 579.8 291.45
Q 579.65 290.2 579.65 288.05 579.65 285.15 579.6 284.45 579.5 282.25 579.15 280.65 578.85 279.35 578.2 278.55 577.7 277.9 576.85 277.65 576.1 277.4 575.3 277.55 574.25 277.8 573.2 278.55 572.8 278.8 571.65 279.85 570.4 281.1 569.2 282.7 564.8 288.7 562.65 295.85 561.45 300.25 561.15 303 560.8587890625 305.6625 561.05 308.9 560.316796875 304.566015625 559.3 302 558.7 300.8 558.25 300.15 557.35 298.95 556.15 298.45 555.35 298.15 554.45 298.25
L 553.7 298.4 553.05 298.65 551.15 299.95
Q 548.9 302 546.6 306.2 545.05 309.15 543.65 312.95 541.15 319.95 540.1 327.05 538.9 334.6 539.35 341.5 540.2 356.05 546.85 369.25 550.4 376.15 554.8 381.35 559.7 387.15 565.65 390.9
L 568.8 392.75
Q 569.5 393.15 572.1 394.3
L 575.6 395.45 577.4 395.8
Q 578.3 396.05 579.25 396.1 582.35 396.5 586.55 396.35 588.95 396.25 593.75 395.9 601.8 395.4 608 396.25 613.9 397 621.85 399.65 628.8 402.15 634.7 405.65 639.45 408.5 646.15 414.05 650 417.15 651.85 418.5 655.7 421.1 658.3 422.2 664.65 425 672.85 424.9 680.15 424.7 687.35 422.55 694.6 420.45 700.7 416.45 706.55 412.65 711.6 406.55 716.05 400.75 718.9 393.85 721.75 386.85 722.65 379.75 723.15 375.55 722.85 372.3 722.55 369.75 721.85 368.35
L 721.5 367.75 720.95 367.2
Q 720.45 366.8 720.05 366.7 719.7 366.6 719.05 366.6 718.1 366.75 716.8 367.7 716.0955078125 368.29609375 715.4 369.05 715.9287109375 367.65390625 716.4 366.15 718.6 359 718.75 351.65 718.75 347.55 718.35 344.3 717.9 340.55 716.8 337.05 716.1 334.85 715.25 333.4 714.55 332.2 713.95 331.6 713.7 331.3 713.4 331.1 712.8 330.75 712.65 330.7
L 712.2 330.5
Q 711.85 330.35 711.25 330.45 710.65 330.6 710.1 331 709.7 331.35 709.2 332.05
L 708.7 332.9 707.9 334.65
Q 707.05 336.6 706.55 338.05
L 704.25 344.85
Q 703.5201171875 347.0634765625 702.9 348.65 703.2716796875 347.58359375 703.45 346.9 703.75 345.65 704.9 339.9 707.75 324.65 707.25 311.3 707.2 308.9 706.8 304.1 706.5 300.4 705.7 296.95
L 705.25 295.1
Q 704.85 293.9 704.45 293.2
L 704.05 292.65 703.7 292.35 703.05 292.1
Q 702.65 292 702.3 292.2
L 701.8 292.45
Q 701.60859375 292.64140625 701.3 292.95 701.3689453125 292.41015625 701.4 291.85 701.9 284.85 699.85 277.4 698.5 273.05 697.05 270.6 695.7 268.45 694.3 267.6 693.05 266.85 691.85 267.25 690.9216796875 267.48203125 690.1 268.3 690.5263671875 266.7587890625 690.75 265.35 691.35 262.15 691.1 257.95 690.8 254.2 689.75 250.6 688.65 246.8 686.8 243.6 684.4 239.55 681.05 237.7 678.55 236.5 676.4 236.75 674.45 236.95 672.25 238.3 669.45 240.15 666.85 243.7 665.1 246 662.9 249.8
L 659.3 256.05
Q 658.55 257.5 657.5 259.1 657.0279296875 259.93515625 656.7 260.3
L 657.1 259.55
Q 657.95 258.05 660.7 253.4 663 249.55 664.25 247.1 666.25 242.9 666.85 240.2 667.4 237.9 667.1 236.2 666.95 234.9 666.35 234 666.15 233.55 665.6 233 665.45 232.85 664.7 232.2 663.05 231.1 660.5 231 658.65 230.95 656.55 231.25 Z"/>
</g>

<g id="tail_0_Layer0_0_MEMBER_1_FILL">
<path fill="#D33333" stroke="none" d="
M 663.45 238.5
Q 661.75 236.3 657.05 236.8 653.2 237.15 649 238.95 638.85 243.25 630.95 255.95 628.85 259.3 626.5 264.1 624.8 267.45 624.6 267.35 624.55 267.35 625.1 264.9 625.75 261.9 625.2 259.15 624.8 257.3 624.55 256.6 624.05 255.3 623.25 255.05 621.2 254.4 617.2 259.8 613.5 264.75 610.55 271.4 609.95 272.789453125 609.4 274.25 611.6087890625 264.4890625 609.45 263.05 607.45 261.75 602.15 265.95 599.35 268.15 596.55 271.1 590.5 277.4 585.6 287.4 581.85 295.05 581 294.85 580.1 294.65 580 288.1 579.9 281.5 578.2 280.9 576.35 280.25 573.15 284.05 570.1 287.65 567.85 292.65 563.8 301.8 564.25 313.75 564.5 319.65 565.1 323.8 564.05 318.35 562.9 312.7 560.65 301.4 557.65 301 555.8 300.75 553.25 304.05 550.65 307.4 548.4 313.05 542.95 326.7 543.6 341 544.25 354.25 550.15 366.35 556.8 380 568.05 387.15 574.05 391 580.15 391.9 584.15 392.5 591.55 392 600.1 391.35 604.7 391.6 613.15 392.1 622.05 395.15 630.25 397.95 637.05 402.35 640.3 404.4 647.15 409.85 652.6 414.2 656.3 416 661.75 418.6 668.6 418.95 675.35 419.2 683 417.25 698.1 413.35 707 402.35 714.8 392.7 717.25 379.25 718.2 374 717.9 370.15 717.65 366.4 716.4 365.85 714.35 364.95 708.2 373.65 702.853515625 381.832421875 702.35 382.3
L 704.3 379.3
Q 706.7 375.65 708.05 373.1 714.2 361.4 713.25 346.15 712.9 340.25 711.5 336 710.15 331.95 708.65 331.6 707.35 331.3 703.35 341.3 699.4 351.25 698.95 351.1 698.75 351.05 700.7 340.15 703.2 326.05 703 313.45 702.9 306.25 702.1 300.7 701.25 294.55 700.1 294.5 699.1 294.45 697.6 299.65 696.15 304.75 696.1 304.75 696.55 302.75 697.05 299.65 698.15 293.35 697.65 287.8 697 281.5 694.9 276.25 692.6 270.6 690.15 270.55 688.2421875 270.5146484375 686.15 274.25 688.0080078125 266.764453125 686.95 260.05 686 254.05 683.2 249.1 679.9 243.25 675.85 242.7 670.2 241.9 662.45 252.9 655.75 264 655.3 263.7 658.05 258.55 660.75 253.05 666.15 242 663.45 238.5 Z"/>
</g>

<g id="wing_0_Layer0_0_MEMBER_0_FILL">
<path fill="#DD3A3A" stroke="none" d="
M 711.75 534.55
Q 709.15 528.1 700.25 524.4 692.9 521.4 679.25 519.6 675.45 519.1 652.5 516.9 634.85 515.2 623.65 513.05 581.2 504.95 541.5 476.5
L 468.95 535.15
Q 471 553.3 476.45 570.7 484.35 595.8 498.7 617.5 514.05 640.65 534.55 657.45 551.75 671.65 572.1 681.05 584.1 686.65 602.15 692.3 625.85 699.7 640.2 701.45 664.1 704.35 682.9 696.7 687.95 694.6 692.5 691.75 698.2 688.1 697.7 686.2 697.45 685.3 694.7 684.75 689.35 683.95 684.1 683.1 671.3015625 681.06171875 670.65 680.45 671.1630859375 680.52109375 674.55 681.25 679.7 682.45 684.3 682.9 699.95 684.45 709.8 678.3 719.75 672.15 724.35 659.3 726.2 654 726.25 649.65 726.3 645.3 724.45 643.7 722.95 642.45 718.95 643.65 714.6583984375 645.1728515625 710.9 646.3 724.0859375 640.8640625 729.45 630.1 733.85 621.25 731.2 610.1 728.6 598.95 721.2 594.85 717.2 592.65 711.2 593.3 707.1568359375 593.74921875 696.5 596.5 720.8041015625 585.2404296875 721.65 572.95 722 568.15 719.2 563.4 716.35 558.55 712.4 557.4 710.75 556.9 708.2 558.1 702.65 560.75 697.5 562.5 697.15625 562.6146484375 696.8 562.75 711.5814453125 553.6703125 712.8 542.75 713.2 538.2 711.75 534.55 Z"/>
</g>

<g id="wing_0_Layer0_0_MEMBER_1_FILL">
<path fill="#AA0F0F" stroke="none" d="
M 717.95 540.85
Q 718.1 535.35 715.6 530.75 713.25 526.35 708.65 523.2 705 520.75 700.4 519.15 697.15 518 692.15 516.9 685.15 515.45 675.95 514.65 668.8 514.05 660 513.55 638.25 512.3 628.6 511.1 613.65 509.3 597.95 504.45 589.6 501.8 583.15 499.05 574.9 495.55 568.8 492.45 555.15 485.55 541.7 476.15
L 541.25 476.8
Q 569.05 496.9 596.9 507.55 605.4 510.7 612.05 512.65 619.8 514.9 627.65 516.55 639.25 519 659.25 521.55 672.7 523.3 674.9 523.6 683.7 524.9 690 526.4 693.45 527.15 697 528.55 700.5 529.8 702.9 531.5 705.4 533.25 706.55 535.55 707.7 537.75 707.8 540.8 707.9 543.6 706.85 546.45 705.65 549.5 703.65 552.2 699.5 557.85 692.8 562.4 690.4712890625 564.051171875 687.35 565.85 685.071875 567.054296875 683.65 567.75 681.5 568.85 680.05 569.35
L 677.8 570.2
Q 677.5 570.5 677.4 570.8 677.25 571.2 677.6 571.55 678.6 572 678.3 571.75
L 679.65 571.5
Q 686.25 570.2 695.05 566.45 698.7287109375 564.788671875 701.75 563.05 704.318359375 562.382421875 706.9 561.5
L 710.8 560.1 711 560.1 711.15 560.15 711.3 560.25 711.55 560.3 712.1 560.6
Q 714.4 561.9 716.1 564.85 717 566.35 717.5 567.75 717.9 568.75 718.3 570.85 718.45 572.5 718.25 573.85
L 717.95 575.35 717.4 576.8
Q 716.1 579.75 713.5 582.55 711.45 584.85 708 587.7 705.5892578125 589.5888671875 702.95 591.3 701.6125 591.7861328125 700.05 592.35
L 692.5 595.2
Q 686.7 597.5 677.75 601.65
L 671.9 604.5 671.65 604.6
Q 671.5 604.65 671.35 604.95 671.1 605.25 671.15 605.45 671.15 605.9 671.8 606.05 672.25 606.1 672.25 606
L 672.35 606 672.6 605.9 673.1 605.8 680.7 603.35
Q 684.8416015625 602.0046875 688.8 600.6 691.2951171875 600.0283203125 693.75 599.6
L 701.55 598.4
Q 706.75 597.7 709.2 597.55 710.45 597.45 712.75 597.45 714.7 597.55 715.8 597.85 717.2 598.25 718.25 598.8
L 718.8 599.1 719.3 599.55
Q 720.1 600.1 720.3 600.4 724.3 604.1 726 611.35 726.7 615.1 726.7 617.95 726.7 620.7 725.9 624.35
L 724.85 627.3
Q 724.5 628.25 723.4 630.15 721.6 633.05 719.25 635.25 717 637.6 713.85 639.55 711.25 641.3 707.5 642.95 700.8 645.9 693.2 647.25 690.15 647.85 685.65 648.3 683.5 648.65 681.85 649.15 680.55 649.55 679.9 649.85
L 678.45 650.45 678.4 650.45
Q 678.1962890625 650.4849609375 678 650.5 678 650.55 677.9 650.65
L 678 650.85 678.2 651.15 678.65 651.6 679.65 652.3
Q 680.45 652.8 681.65 653.25 683.45 654 685.8 654.15 689 654.35 694.05 654.05 703.1 653.4 710.55 651 716.46796875 649.146484375 721.2 646.2 721.6716796875 646.1328125 722.05 646.1 722.45 646.1 722.5 646.2 722.35 646.1 722.4 646.25 722.8 646.9 722.85 648.2 723 650.8 722.05 654.4 720.3 660.95 716.35 666.6 714.5 669.4 712.1 671.75 709.75 674.1 707.05 675.85 704.45 677.45 701.05 678.65 697.85 679.75 694.35 680.3 689.7345703125 681.0046875 684.5 680.75
L 676.35 679.8
Q 676.1734375 679.784765625 676 679.75 674.62109375 679.5279296875 672.85 679.2
L 671.1 678.85 670.8 678.85
Q 670.75 678.85 670.6 678.8 670.35 678.8 669.45 679.35 668.85 681.15 669.45 681.7 669.75 681.95 669.9 681.95
L 670.2 682.1 672 682.6
Q 672.3 682.65 675.65 683.65 677.15 684.15 679.3 684.6
L 694.65 687.15
Q 694.4830078125 687.321875 694.3 687.45 693.1 688.5 691.6 689.45 689.1 691.15 685.35 692.95
L 677 696.25 671.8 697.65
Q 669.45 698.15 668.3 698.4
L 657.55 699.65 650.3 699.7
Q 643.8 699.5 635.8 698.25 628.25 697 621.45 695.2 615.1 693.6 607.25 691.2 595.15 687.35 593.15 686.65 578.05 681.55 566.1 675.25 553.9 669 541.35 659.6 530 650.95 519.55 639.95 498.75 617.6 486.65 591.5 484.15 585.9 483.7 584.75
L 481 577.9
Q 480.25 576 478.5 570.95
L 477.4 567.45
Q 476.6 565.1 476.3 563.9 474.6 558.3 472.5 549.65 469.2 536.2 468.95 535.15 468.6 547.15 472.95 564.85 476.45 578.8 482.85 593.2 495.4 621.25 515.9 643.35 536.4 665.6 563.75 679.8 576.25 686.35 591.5 691.55 597.85 693.7 605.75 696.1 613.45 698.55 620.2 700.2 627.2 702 635 703.25 642.7 704.5 650.15 704.7
L 657.8 704.55 667.3 703.55 678.5 700.85 687.45 697.25
Q 691.55 695.2 694.2 693.45 696.05 692.3 697.45 691 698.55 690 699.05 689.25 699.45 688.8 699.85 687.9 700.25 686.65 699.9 685.45 699.8751953125 685.36953125 699.85 685.3 705.805078125 684.4541015625 710.5 682 714.2 680.1 717.35 677.15 720.25 674.4 722.65 670.9 724.8 667.8 726.5 663.8 728.2 659.9 729 656.05 730 651.25 729.55 647.5 729.05 644.4 727.65 642.45 727.4 642.05 727.1 641.8
L 727.05 641.75
Q 733.8390625 635.5494140625 736.25 627.25 738.7 618.45 736.45 608.85 735.25 604.15 733.1 600.2 730.65 595.65 726.8 592.65 726.05 592 724.6 591.15
L 722.2 589.95
Q 719.75 589 717.05 588.75 715.736328125 588.6501953125 714.25 588.7 715.81015625 587.6375 717.25 586.4 721 583.15 722.95 579.6
L 723.95 577.4
Q 724.45 575.9 724.6 575.05 725.15 572.6 724.9 570.15 724.35 565.3 721.85 561.3 718.9 556.65 714.55 554.9 713.50234375 554.55078125 712.7 554.4 714.2837890625 552.4724609375 715.35 550.5 716.45 548.55 717.25 545.85 717.95 543.05 717.95 540.85 Z"/>
</g>

<g id="cap_0_Layer0_0_MEMBER_0_FILL">
<path fill="#9E4802" stroke="none" d="
M 351.75 43.2
Q 339.65 39 327.15 37.6 320.3 36.85 314.4 37 307.45 37.15 301.5 38.75 298.2 39.6 295.15 41.15 291.7 42.95 289.35 45.45 286.75 48.3 285.65 51.95 284.6 55.2 284.7 59 284.9 65.85 288.2 72.1 289.65 75.1 292.05 77.8 294.95 80.9 297.6 82.3 300.55 83.9 304.1 84.65 304.55 84.75 310.4 85.75 317.35 86.7 321.9 88.25 332.25 91.65 341.8 100.35 346.35 104.55 349.5 109.1 351.2 111.55 352.25 113.95 352.85 115.45 353.05 116.35 353.25 117.3 353.1 118
L 353.05 118.1 353 118.1
Q 353.05 118.15 352.8 118.15 352.25 118.3 350.7 118.1 348.95 117.8 345.05 116.7 336.9 114.3 333 113.45 319.2 110.35 307.5 112.75 295.5 115.3 284.35 123.45 274 131.05 266.65 141.55 262.6 147.3 260.25 152.65 257.2 159.7 256.85 165.4 256.6 169.4 257.8 172.5 258.65 174.6 259.8 175.85
L 260.4 176.6 261.1 177.2
Q 261.3 177.4 262.55 178.4 265.25 180.35 268.85 181.4 271.95 182.35 275.5 182.5 283.2 182.95 288.8 179.35 291.05 177.95 293.9 175
L 298.15 170.6
Q 306.3 162.6 317.95 158.25 323.45 156.25 329.4 155.25 332 154.8 335.35 154.45 338.6 154.1 341.25 154.05 347.2623046875 153.9044921875 352.8 154.65 349.755859375 155.1326171875 347.6 155.65 341.25 157.05 335.45 159.7 329.75 162.25 324.45 166.1 319 170 314.8 174.45 309.6 180.1 307.55 185.35 306.1 188.95 306.15 192.15 306.1 193.65 306.55 195.75 307.05 197.75 307.8 199.1 311.1 205.75 317.75 208.45 321.25 209.85 324.8 209.5 328 209.25 331.45 207.55 335.9 205.25 341.75 199.8 343.25 198.4 346.15 195.5 348.8 192.95 350.55 191.45 353.15 189.2 354.95 188.85 355.85 188.7 356.5 189.15 357.15 189.55 357.65 190.65 358 191.6 358.4 193.3 358.65 194.25 359.15 196.35 359.95 198.8 360.55 199.7 361.75 201.6 363.7 202.4 365.1 202.8 365.85 202.8
L 366.95 202.7
Q 367.9 202.45 367.95 202.4 369.1 202.05 371 200.65 372.75 199.3 375.7 196.55 380.8 192.1 386.1 190.6 391.4 188.8 398 189.55 402.7 190 404.3 189.9 407.5 189.7 410.45 187.85 413.05 186.15 414.9 183.05 416.55 180.5 417.65 177.3 419.6 172 420.6 165.15 422.35 152.75 421.35 140.2 420.4 127.9 416.95 115.6 415.05 108.95 412.95 103.7 410.2 96.8 407.6 92.2 400.8 80.05 393.35 71.45 384.75 61.6 374.5 54.5 364.1 47.45 351.75 43.2 Z"/>
</g>

<g id="cap_0_Layer0_0_MEMBER_1_FILL">
<path fill="#E87134" stroke="none" d="
M 390.65 74.2
Q 377.15 58.8 359.45 51.1 340.6 42.9 320.95 42.45 299.45 41.95 293.7 52 290.7 57.25 292.2 64.9 293.7 72.2 298.3 77.3 302.55 82 311.4 83.4 323.7 85.4 329.55 88 342.05 93.6 350.95 104.6 359.3 114.9 356.75 119.25 355.6 121.2 351.2 120.35 350.6 120.2 340.65 117.4 322.55 112.25 309.1 115.7 298.75 118.4 289.1 125.7 280.45 132.3 273.95 141.35 267.8 149.95 265.5 157.95 263.15 166.2 265.7 170.85 268.05 175.1 274.45 176.95 280.45 178.65 286.1 177.35 291.2 176.2 296.3 170.85 303.25 163.5 309.1 159.85 316.6 155.15 325.4 152.8 330.6 151.4 337.1 150.75 346.55 149.7 355.5 151.05 363.65 152.3 363.65 153.9 363.65 154.45 356.1 155.5 346.15 156.85 338.35 160.45 327 165.75 319.05 174.45 309.9 184.5 312 192.8 313 196.9 316.4 200.2 320.05 203.7 324.4 204.3 332.2 205.45 343.9 194.1 350.2 188 351.85 186.8 355.85 183.75 358.35 184.9 360.5 185.85 361.75 191.45 362.95 196.95 365.45 197.95 367.95 199 372.95 195.2 379.95 189.8 385.15 187.95 391 185.85 398.65 186.55 405.35 187.15 408.8 185.1 411.7 183.4 413.9 179.3 417.65 172.15 418.65 158.95 420.3 137.25 413.4 115.05 409.85 103.75 405.1 95.15 398 82.65 390.65 74.2 Z"/>
</g>

<path id="leg_right_0_Layer0_0_MEMBER_1_1_STROKES" stroke="#8C4C0C" stroke-width="4" stroke-linejoin="miter" stroke-linecap="butt" stroke-miterlimit="10" fill="none" d="
M 547.05 898.05
Q 546.2 906.35 545.45 913.95 544.9 917.65 543.35 920.1 540.45 924.65 533.6 929.35 528.25 932.95 528.65 934.8 529.05 936.4 531.5 937.5 533.6 938.4 536 938.5 539.35 938.6 543.1 936.3 546.3 934.35 547.05 934.8 548.1 935.45 546.75 940.9 544.9 948.2 545.2 953.2 545.6 960.05 549 966.25 552.15 972 554.4 971.55 556.1 971.25 556.6 965.6 556.85 962.9 556.95 953.35 557.2 935.5 560.85 934.6 563.4 934 567.65 939.05 571.2 943.25 573.85 948.6 575.4 951.65 577.5 958.2 578.8 962.25 580.1 962.35 581.4 962.45 582.85 960.2 584.15 958.2 584.85 955.6 587.45 946.25 576.85 930.6 571.7 922.95 565.75 918.1 561.2 914.4 559.9 910.9 556.4 901.65 563.6 885.95 567.3 877.8 567.9 875.8 569.4 870.95 567.25 868.65 565.25 866.55 561.2 866.65 557.3 866.75 554.4 868.65 551.6 870.45 550.25 875.65 548.75 881.4 547.05 898.05 Z"/>

<path id="leg_left_0_Layer0_0_MEMBER_1_1_STROKES" stroke="#8C4C0C" stroke-width="4" stroke-linejoin="miter" stroke-linecap="butt" stroke-miterlimit="10" fill="none" d="
M 377.65 954.6
Q 375.8 951.6 376.65 947.1 377.3 943.3 379.5 939.9 382.15 935.8 386.9 933.7 389.75 932.45 396.3 931.05 403.1 929.65 406.5 928.25 412.25 925.9 416.25 921.5 422.2 915.05 423.6 906.8 425.2 897.3 418.65 884.9 414.9 877.9 414.6 877.15 413.15 873.6 414.4 871.9 416.95 868.4 424.1 868.95 431.35 869.5 434.65 873.75 436.1 875.65 436.4 878.7 436.65 880.75 436.45 886.6 436.3 891.45 435.35 895.7 434.5 899.25 434.65 901.3 435 906.7 440.75 912.05 447.5 918.4 449.35 923.35 452.45 931.8 449.4 941.95 448.25 945.8 446.55 948.45 444.95 951 443.8 950.9 443.05 950.85 442.8 948.3 442.6 944.65 442.4 942.55 441.7 933.85 438.3 932.55 435.2 931.3 430.4 934.7 425.65 938 423 943.15 420.8 947.45 420.85 955.65 420.9 963.7 418 969.15 416.3 972.3 414.3 974.55 412.05 977.05 410.75 976.65 408.95 976 408.9 967.8 409.15 958.05 408.9 954.6 408.3 946.4 407.25 942.95 406.5 940.65 405.25 939.9 401.95 938 396.6 940.35 391.25 942.7 388.7 947.25 387.35 949.65 386.8 954.2 386.4 957.65 385 958.25 383.45 959 381.15 957.8 378.95 956.6 377.65 954.6 Z"/>

<path id="body_0_Layer0_2_MEMBER_1_1_STROKES" stroke="#A83800" stroke-width="3" stroke-linejoin="miter" stroke-linecap="butt" stroke-miterlimit="10" fill="none" d="
M 330.65 274.35
Q 331.85 279.55 328.25 285.75 326.15 289.4 320.65 296.75 311.65 310.1 309.55 330.1 308.55 339.3 307.95 341.5 306.7 346.2 303.25 347.35 297.6 349.25 290.2 343.75 282.8 338.2 281.2 330.8 280.45 327.35 284.65 319.4 287.6 313.75 297.75 297.75 305.55 285.45 309.6 280.7 312.35 277.55 314.25 273.85 316.95 268.6 317.65 267.6 319.5 264.85 321.6 264.65 324.3 264.45 327.1 267.55 329.8 270.55 330.65 274.35 Z"/>

<path id="body_0_Layer0_5_MEMBER_1_1_STROKES" stroke="#A83800" stroke-width="3" stroke-linejoin="miter" stroke-linecap="butt" stroke-miterlimit="10" fill="none" d="
M 347.35 273.85
Q 348.8 285.2 352.9 296.4 355.4 303.3 362.05 319.8 365.25 328.3 370.15 344.65 372.45 352.45 376.75 358.4 383.05 367.15 387.7 371.4 396 378.9 404.3 378.6 415.45 378.2 424.55 366.55 433.65 354.95 431.85 343.7 430.85 337.4 425.45 332.9 422.5 330.45 413.15 325.35 403.9 320.3 398.75 315.95 390.75 309.2 385.95 299.6 385.9 299.55 380.25 285.4 376.9 277.05 371.25 270.2 365.7 263.45 359.8 259.05 352.6 253.65 349.2 255.5 345.3 257.55 347.35 273.85 Z"/>

<path id="body_0_Layer0_6_MEMBER_1_1_STROKES" stroke="#1E1E1E" stroke-width="3" stroke-linejoin="miter" stroke-linecap="butt" stroke-miterlimit="10" fill="none" d="
M 398.8 209.55
Q 392.95 208.55 387 212.15 381.7 215.35 378.6 220.55 373.95 228.3 376.4 238.45 378.4 246.9 384.1 253.65 389.2 259.7 396 263.15 404.15 267.3 409.8 264.65 416.55 261.45 417.6 249.65 418.5 239.6 415.35 229.75 413 222.55 410.45 218.45 405.7 210.75 398.8 209.55 Z"/>

<path id="body_0_Layer0_11_1_STROKES" stroke="#AA0F0F" stroke-width="4" stroke-linejoin="miter" stroke-linecap="butt" stroke-miterlimit="10" fill="none" d="
M 327.75 277.75
Q 320.6 282.6 319 292.55 318.35 296.6 319.05 299.7 319.75 302.85 321.55 303.5 322.6 303.95 324.15 303.35 325 303.05 326.6 302.15 334 297.85 335.75 287.3 336.45 283.05 335.8 279.8 335.1 276.45 333.3 275.8 332.2 275.4 330.5 276.15 329.55 276.6 327.75 277.75 Z"/>

<path id="body_0_Layer0_12_1_STROKES" stroke="#AA0F0F" stroke-width="4" stroke-linejoin="miter" stroke-linecap="butt" stroke-miterlimit="10" fill="none" d="
M 337.25 282.65
Q 332.05 290.35 334.55 302.05 335.6 306.8 337.6 310.05 339.6 313.3 341.7 313.5 342.9 313.6 344.25 312.45 345 311.85 346.2 310.35 351.85 303.15 349.25 290.75 348.2 285.8 346.15 282.35 344.05 278.85 342 278.7 340.7 278.6 339.35 280 338.5 280.8 337.25 282.65 Z"/>

<path id="body_0_Layer0_13_MEMBER_1_1_STROKES" stroke="#8C4C0C" stroke-width="4" stroke-linejoin="miter" stroke-linecap="butt" stroke-miterlimit="10" fill="none" d="
M 287.65 258.25
Q 299.7 239.85 317.05 228.85 327.3 222.3 332.75 220.2 342.1 216.5 348.25 219.65 352.8 221.95 355.5 227.7 357.05 231.1 358.35 237.1 361.65 251.6 356.9 266.6 352.1 281.6 343.65 283.05 340.9 283.5 338.2 281.95 336.45 280.9 332.7 277.5 323.15 268.75 314.25 264.65 302 258.95 287.65 258.25 Z"/>
</defs>

<g transform="matrix( 0.9993896484375, -0.0340576171875, 0.0340576171875, 0.9993896484375, 527.95,867.85) ">
<g transform="matrix( 1, 0, 0, 1, -528.6,-866.65) ">
<use xlink:href="#leg_right_0_Layer0_0_MEMBER_0_FILL"/>
</g>

<g transform="matrix( 1, 0, 0, 1, -528.6,-866.65) ">
<use xlink:href="#leg_right_0_Layer0_0_MEMBER_1_1_STROKES"/>
</g>
</g>

<g transform="matrix( 0.9989776611328125, 0.0448150634765625, -0.0448150634765625, 0.9989776611328125, 377.85,867.2) ">
<g transform="matrix( 1, 0, 0, 1, -376.4,-868.9) ">
<use xlink:href="#leg_left_0_Layer0_0_MEMBER_0_FILL"/>
</g>

<g transform="matrix( 1, 0, 0, 1, -376.4,-868.9) ">
<use xlink:href="#leg_left_0_Layer0_0_MEMBER_1_1_STROKES"/>
</g>
</g>

<g transform="matrix( 0.9974365234375, 0, 0, 0.9999847412109375, 219.45,184.35) ">
<g transform="matrix( 1, 0, 0, 1, -218.7,-184.45) ">
<use xlink:href="#body_0_Layer0_0_FILL"/>
</g>

<g transform="matrix( 1, 0, 0, 1, -218.7,-184.45) ">
<use xlink:href="#body_0_Layer0_1_FILL"/>
</g>

<g transform="matrix( 1, 0, 0, 1, -218.7,-184.45) ">
<use xlink:href="#body_0_Layer0_2_MEMBER_0_FILL"/>
</g>

<g transform="matrix( 1, 0, 0, 1, -218.7,-184.45) ">
<use xlink:href="#body_0_Layer0_2_MEMBER_1_1_STROKES"/>
</g>

<g transform="matrix( 1, 0, 0, 1, -218.7,-184.45) ">
<use xlink:href="#body_0_Layer0_3_FILL"/>
</g>

<g transform="matrix( 1, 0, 0, 1, -218.7,-184.45) ">
<use xlink:href="#body_0_Layer0_4_FILL"/>
</g>

<g transform="matrix( 1, 0, 0, 1, -218.7,-184.45) ">
<use xlink:href="#body_0_Layer0_5_MEMBER_0_FILL"/>
</g>

<g transform="matrix( 1, 0, 0, 1, -218.7,-184.45) ">
<use xlink:href="#body_0_Layer0_5_MEMBER_1_1_STROKES"/>
</g>

<g transform="matrix( 1, 0, 0, 1, -218.7,-184.45) ">
<use xlink:href="#body_0_Layer0_6_MEMBER_0_FILL"/>
</g>

<g transform="matrix( 1, 0, 0, 1, -218.7,-184.45) ">
<use xlink:href="#body_0_Layer0_6_MEMBER_1_1_STROKES"/>
</g>

<g transform="matrix( 1, 0, 0, 1, -218.7,-184.45) ">
<use xlink:href="#body_0_Layer0_7_FILL"/>
</g>

<g transform="matrix( 1, 0, 0, 1, -218.7,-184.45) ">
<use xlink:href="#body_0_Layer0_8_FILL"/>
</g>

<g transform="matrix( 1, 0, 0, 1, -218.7,-184.45) ">
<use xlink:href="#body_0_Layer0_9_FILL"/>
</g>

<g transform="matrix( 1, 0, 0, 1, -218.7,-184.45) ">
<use xlink:href="#body_0_Layer0_10_FILL"/>
</g>

<g transform="matrix( 1, 0, 0, 1, -218.7,-184.45) ">
<use xlink:href="#body_0_Layer0_11_FILL"/>

<use xlink:href="#body_0_Layer0_11_1_STROKES"/>
</g>

<g transform="matrix( 1, 0, 0, 1, -218.7,-184.45) ">
<use xlink:href="#body_0_Layer0_12_FILL"/>

<use xlink:href="#body_0_Layer0_12_1_STROKES"/>
</g>

<g transform="matrix( 1, 0, 0, 1, -218.7,-184.45) ">
<use xlink:href="#body_0_Layer0_13_MEMBER_0_FILL"/>
</g>

<g transform="matrix( 1, 0, 0, 1, -218.7,-184.45) ">
<use xlink:href="#body_0_Layer0_13_MEMBER_1_1_STROKES"/>
</g>

<g transform="matrix( 1, 0, 0, 1, -218.7,-184.45) ">
<use xlink:href="#body_0_Layer0_14_FILL"/>
</g>

<g transform="matrix( 1, 0, 0, 1, -218.7,-184.45) ">
<use xlink:href="#body_0_Layer0_15_FILL"/>
</g>
</g>

<g transform="matrix( 0.9776153564453125, -0.033203125, 0.033935546875, 0.9994049072265625, 538,234.1) ">
<g transform="matrix( 1, 0, 0, 1, -539.25,-231) ">
<use xlink:href="#tail_0_Layer0_0_MEMBER_0_FILL"/>
</g>

<g transform="matrix( 1, 0, 0, 1, -539.25,-231) ">
<use xlink:href="#tail_0_Layer0_0_MEMBER_1_FILL"/>
</g>
</g>

<g transform="matrix( 0.7743377685546875, -0.632720947265625, 0.632720947265625, 0.7743377685546875, 448.15,509.75) ">
<g transform="matrix( 1, 0, 0, 1, -468.9,-476.15) ">
<use xlink:href="#wing_0_Layer0_0_MEMBER_0_FILL"/>
</g>

<g transform="matrix( 1, 0, 0, 1, -468.9,-476.15) ">
<use xlink:href="#wing_0_Layer0_0_MEMBER_1_FILL"/>
</g>
</g>

<g transform="matrix( 0.9998016357421875, 0.0184173583984375, -0.0184173583984375, 0.9998016357421875, 259.7,35.45) ">
<g transform="matrix( 1, 0, 0, 1, -256.8,-36.95) ">
<use xlink:href="#cap_0_Layer0_0_MEMBER_0_FILL"/>
</g>

<g transform="matrix( 1, 0, 0, 1, -256.8,-36.95) ">
<use xlink:href="#cap_0_Layer0_0_MEMBER_1_FILL"/>
</g>
</g>
</svg>
