
<svg xmlns="http://www.w3.org/2000/svg" version="1.1" xmlns:xlink="http://www.w3.org/1999/xlink" preserveAspectRatio="none" x="0px" y="0px" width="1280px" height="720px" viewBox="0 0 1280 720">
<defs>
<g id="Layer3_0_FILL">
<path fill="#FFFFFF" stroke="none" d="
M 1231.5 473.4
Q 1238.05 463 1230.55 460.55 1225.9 458.45 1208.8 460.1 1200.55 458.5 1163.2 465.65 1137.35 469.8 1117.65 469.9 1093.6 471.85 1031.05 471.5 968.9 471.55 930 469.95 710.7 448.9 553.3 448.25 414.35 447.8 290.15 455.55 274.15 457.4 229.9 464.7 195 469.75 172.35 471.5 107.25 476.45 42.05 466.25 26.45 465.6 23.9 467.55 20 469.75 34.1 476.5 75.7 487 135.35 487.45 155.15 487.55 180.25 487.05 201.95 487.7 214 487.05 381.25 469.9 558.8 470.3 698.95 470.5 889.65 476.5 932.4 478.8 1006.05 483.55 1069.45 487 1104.1 487.9 1143.55 488.4 1174.75 485.7 1212.2 483.3 1231.5 473.4 Z"/>
</g>

<g id="Layer2_0_FILL">
<path fill="#FFFFFF" stroke="none" d="
M 1238.35 382.55
Q 1230.9 381.6 1219.6 384.4 1088.1 405.45 950.9 405.75 863.5 405.95 716.15 395.45 633.65 389.6 603.1 387.75 539.6 384.1 488.45 383.45 358.65 381.9 240.85 399.7 234.25 400 215.05 397.5 183.2 393.55 182.3 393.45 164.85 391.6 160.1 392.85 154.15 394.4 166.05 401.1 187.25 413.25 240.3 413.15 257.45 413.05 275.7 411.7 288.5 410.75 292.55 410.1 413.3 394 504.15 394.95 541.45 395.25 583.65 398.45 606.45 400.2 661.1 405.65 771.55 416.45 856.7 418.75 996.3 422.4 1183.9 410.75 1192.35 409.85 1209.45 408.4 1224.3 407 1232.35 405.6 1255.15 401.5 1253.6 391.35 1248.05 383.75 1238.35 382.55 Z"/>
</g>

<g id="Layer1_0_FILL">
<path fill="#FFFFFF" stroke="none" d="
M 1092.7 314.75
Q 1059.75 315.75 996.55 317.35 925 319.7 882.7 320.4 687.2 317.35 544.2 317.25 373.1 317.35 213.05 311.05 200.4 311.25 174.85 313.7 148.1 314.85 127.85 315.45 67.3 317.1 21.75 319.35 7.45 322.5 10.25 324.15 11.75 325.8 27.1 327.4 88.35 325.3 152.5 327.9 174.6 328.8 207.9 331.15 248.65 335 263.75 335.7 395.15 334.65 540.55 334.55 695.05 334.25 909.6 325.5 949.55 325.45 1013.2 326.8 1075.95 327.6 1101.7 328.85 1124.75 329.05 1151.5 330.3 1189.05 333.15 1198.95 329.5 1214.3 327.35 1216.9 325.65 1222.4 323.85 1214.05 319.15 1196.7 313.75 1159.15 314.6 1128.9 314.45 1092.7 314.75 Z"/>
</g>

<g id="Layer0_0_FILL">
<path fill="#FFFFFF" stroke="none" d="
M 1149.9 254.15
Q 1152.3 249.15 1148.1 244.55 1132.55 237.45 1088.8 238.25 1029.35 248.6 896.6 243.95 878.1 242.95 769.75 241.35 661.05 242.3 598.05 242.6 485.6 241.95 372.35 237.7 347.55 239 288.5 242.4 238.75 245.1 213.45 245.3 164.75 245.35 135.55 246.5 122.5 248.1 122.2 249.5 121.05 250.9 133.55 252.95 163.05 255.25 211.25 255.15 233.8 255.3 275.6 257.5 324.3 260.35 343.4 261.45 467.05 255.95 593.35 255.5 668.3 255.8 788.2 257.6 896.2 256.9 910.15 256 1023.3 252.2 1076.35 261.4 1130.1 262.15 1149.9 254.15 Z"/>
</g>
</defs>

<g transform="matrix( 1, 0, 0, 1, 0,0) ">
<use xlink:href="#Layer3_0_FILL"/>
</g>

<g transform="matrix( 1, 0, 0, 1, 0,0) ">
<use xlink:href="#Layer2_0_FILL"/>
</g>

<g transform="matrix( 1, 0, 0, 1, 0,0) ">
<use xlink:href="#Layer1_0_FILL"/>
</g>

<g transform="matrix( 1, 0, 0, 1, 0,0) ">
<use xlink:href="#Layer0_0_FILL"/>
</g>
</svg>
