
<svg xmlns="http://www.w3.org/2000/svg" version="1.1" xmlns:xlink="http://www.w3.org/1999/xlink" preserveAspectRatio="none" x="0px" y="0px" width="1280px" height="720px" viewBox="0 0 1280 720">
<defs>
<g id="Layer3_0_FILL">
<path fill="#FFFFFF" stroke="none" d="
M 1230.55 471.35
Q 1238.05 469.5 1231.5 463.8 1212.2 457.7 1174.75 457.8 1143.55 457.15 1104.1 457.45 1069.45 458.4 1006.05 460.35 932.4 463.1 889.65 464.1 698.95 463.1 558.8 463.1 381.25 463.25 214 454.9 201.95 454.9 180.25 456.85 155.15 457.6 135.35 458.05 75.7 459.4 34.1 463.3 20 467.05 23.9 468.8 26.45 470.4 42.05 471.45 107.25 467.75 172.35 470.7 195 471.75 229.9 474.55 274.15 478.95 290.15 479.9 414.35 480.75 553.3 480.55 710.7 480.25 930 469.25 968.9 468.85 1031.05 469.9 1093.6 470.4 1117.65 471.75 1137.35 471.9 1163.2 473.75 1200.55 477.35 1208.8 474.35 1225.9 473.1 1230.55 471.35 Z"/>
</g>

<g id="Layer2_0_FILL">
<path fill="#FFFFFF" stroke="none" d="
M 1250.5 385.05
Q 1242.85 384.25 1231.3 386.65 1096.8 404.8 956.5 405.1 867.1 405.25 716.4 396.2 632 391.15 600.75 389.55 535.8 386.4 483.5 385.85 350.75 384.5 230.25 399.85 223.5 400.1 203.85 397.95 171.3 394.55 170.35 394.45 152.5 392.85 147.65 393.95 141.6 395.3 153.75 401.05 175.45 411.55 229.7 411.45 247.25 411.4 265.9 410.2 279 409.4 283.1 408.85 406.65 394.95 499.55 395.75 537.7 396 580.85 398.8 604.2 400.3 660.1 405 773.05 414.3 860.15 416.3 1002.9 419.45 1194.8 409.4 1203.45 408.6 1220.9 407.35 1236.1 406.15 1244.35 404.95 1267.65 401.4 1266.1 392.65 1260.4 386.1 1250.5 385.05 Z"/>
</g>

<g id="Layer1_0_FILL">
<path fill="#FFFFFF" stroke="none" d="
M 1086.65 309.45
Q 1049 310.05 985.45 312.6 908.65 316.15 864.75 317.9 682 322.9 546.65 323.1 358.4 323.4 179.2 310.4 168.25 309.85 152.8 310.15 130.4 309.65 111.4 309.7 53.25 309.95 18.2 318 4.6 323.05 10.25 324.65 14.6 326.05 30.65 325.4 102.4 317.5 168.95 321.2 192.3 322.5 229.95 326.25 280.8 331.75 297.6 333.1 409.85 339.35 538.1 339 700.25 338.5 927.55 322.6 965.9 321.4 1024.3 321.3 1086.7 320.95 1107.75 322.4 1122 322.45 1146.35 325.6 1183.95 331 1188.85 330.05 1208.9 331.55 1216.9 330.1 1227.8 328.3 1224.15 320.5 1201.8 313.15 1164.3 311.15 1131.65 309 1086.65 309.45 Z"/>
</g>

<g id="Layer0_0_FILL">
<path fill="#FFFFFF" stroke="none" d="
M 1153.4 251.85
Q 1152.3 245.05 1144.6 242.7 1137.35 240.1 1113.6 240.95 1041.35 256.35 869.55 247.9 841.95 246.4 732.8 240.9 646.65 237.75 607.45 237.95 522.7 236.65 430.3 238.25 394 240.2 314.25 246.15 248.65 251.05 217.8 251.6 168.15 252.35 139.5 248.1 125.45 247.6 122.2 248.85 118.1 250.25 129.6 254.25 159.65 261.75 206.9 261 223.9 260.8 249.85 260.55 277.85 260.55 285.45 260.9 429.95 250 583.95 250.25 682.7 250.65 825.15 256.35 932.35 259.7 937.2 259.4 1011.3 259.8 1051.55 263 1125.3 263.6 1153.4 251.85 Z"/>
</g>
</defs>

<g transform="matrix( 1, 0, 0, 1, 0,0) ">
<use xlink:href="#Layer3_0_FILL"/>
</g>

<g transform="matrix( 1, 0, 0, 1, 0,0) ">
<use xlink:href="#Layer2_0_FILL"/>
</g>

<g transform="matrix( 1, 0, 0, 1, 0,0) ">
<use xlink:href="#Layer1_0_FILL"/>
</g>

<g transform="matrix( 1, 0, 0, 1, 0,0) ">
<use xlink:href="#Layer0_0_FILL"/>
</g>
</svg>
