
<svg xmlns="http://www.w3.org/2000/svg" version="1.1" xmlns:xlink="http://www.w3.org/1999/xlink" preserveAspectRatio="none" x="0px" y="0px" width="1280px" height="720px" viewBox="0 0 1280 720">
<defs>
<g id="Layer3_0_FILL">
<path fill="#FFFFFF" stroke="none" d="
M 1230.55 472.45
Q 1239.3 470.6 1233.75 464.15 1213.35 457.6 1175.9 457.05 1144.15 455.85 1102.7 456.2 1067 457.05 1003.55 459.2 928.75 462.25 885.6 463.5 697.75 464.5 559.35 464.55 377.95 464.75 206.4 454.8 194.75 454.65 175.25 456.05 151.15 456.4 131.65 456.7 72.55 457.7 33.3 463 19.35 467.2 23.9 468.9 27.1 470.45 42.85 470.95 110.4 465.8 176.05 469.05 198.95 470.15 234.85 473.3 281.35 478.05 297.75 479.15 417.65 481.85 552.75 481.6 711.85 481.2 934.05 468.55 972.55 467.85 1033.55 468.5 1096 468.75 1119 470.1 1136.75 470.25 1162.05 472.55 1199.4 476.75 1206.55 474.4 1224.65 474.1 1230.55 472.45 Z"/>
</g>

<g id="Layer2_0_FILL">
<path fill="#FFFFFF" stroke="none" d="
M 1244.4 383.8
Q 1236.9 382.9 1225.45 385.55 1092.45 405.15 953.7 405.4 865.3 405.6 716.25 395.8 632.85 390.35 601.95 388.65 537.7 385.25 485.95 384.65 354.7 383.2 235.55 399.8 228.9 400.05 209.45 397.75 177.25 394.05 176.35 393.95 158.7 392.25 153.9 393.4 147.85 394.85 159.9 401.1 181.35 412.4 235 412.3 252.35 412.2 270.8 410.95 283.75 410.05 287.85 409.45 409.95 394.45 501.85 395.35 539.6 395.65 582.25 398.6 605.3 400.25 660.6 405.3 772.3 415.4 858.4 417.5 999.6 420.9 1189.35 410.05 1197.9 409.25 1215.2 407.9 1230.2 406.6 1238.35 405.25 1261.4 401.45 1259.85 392 1254.25 384.9 1244.4 383.8 Z"/>
</g>

<g id="Layer1_0_FILL">
<path fill="#FFFFFF" stroke="none" d="
M 1094.5 316.35
Q 1063 317.45 999.9 318.8 929.9 320.75 888.1 321.15 688.8 315.7 543.5 315.5 377.5 315.55 223.2 311.25 210.05 311.65 181.45 314.75 153.4 316.45 132.8 317.15 71.5 319.25 22.85 319.75 8.3 322.35 10.25 324 10.9 325.7 26 328 84.15 327.65 147.55 329.9 169.3 330.7 201.3 332.6 239 336 253.6 336.5 390.75 333.25 541.25 333.2 693.45 333 904.2 326.4 944.65 326.65 1009.85 328.45 1072.7 329.6 1099.9 330.75 1125.6 331 1153 331.75 1190.6 333.8 1201.95 329.35 1215.9 326.1 1216.9 324.3 1220.8 322.5 1211.05 318.75 1195.15 313.95 1157.65 315.65 1128.05 316.1 1094.5 316.35 Z"/>
</g>

<g id="Layer0_0_FILL">
<path fill="#FFFFFF" stroke="none" d="
M 1151.65 253
Q 1152.3 247.1 1146.35 243.65 1134.95 238.75 1101.2 239.6 1035.35 252.5 883.1 245.95 860.05 244.7 751.25 241.1 653.85 240.05 602.75 240.3 504.15 239.3 401.3 237.95 370.75 239.6 301.4 244.3 243.7 248.1 215.6 248.45 166.45 248.85 137.5 247.3 124 247.85 122.2 249.2 119.55 250.6 131.6 253.6 161.35 258.5 209.1 258.05 228.85 258.05 262.7 259.05 301.1 260.45 314.45 261.15 448.5 252.95 588.65 252.9 675.5 253.2 806.7 257 914.25 258.3 923.65 257.7 1017.3 256 1063.95 262.2 1127.7 262.9 1151.65 253 Z"/>
</g>
</defs>

<g transform="matrix( 1, 0, 0, 1, 0,0) ">
<use xlink:href="#Layer3_0_FILL"/>
</g>

<g transform="matrix( 1, 0, 0, 1, 0,0) ">
<use xlink:href="#Layer2_0_FILL"/>
</g>

<g transform="matrix( 1, 0, 0, 1, 0,0) ">
<use xlink:href="#Layer1_0_FILL"/>
</g>

<g transform="matrix( 1, 0, 0, 1, 0,0) ">
<use xlink:href="#Layer0_0_FILL"/>
</g>
</svg>
