
<svg xmlns="http://www.w3.org/2000/svg" version="1.1" xmlns:xlink="http://www.w3.org/1999/xlink" preserveAspectRatio="none" x="0px" y="0px" width="1280px" height="720px" viewBox="0 0 1280 720">
<defs>
<g id="Layer3_0_FILL">
<path fill="#FFFFFF" stroke="none" d="
M 1230.55 465.95
Q 1232 463.95 1220.15 461.95 1206.4 458.1 1169 461.75 1140.45 463.45 1110.85 463.7 1081.5 465.15 1018.55 465.9 950.65 467.35 909.85 467.05 704.8 456 556.05 455.7 397.8 455.5 252.1 455.2 238.05 456.15 205.05 460.8 175.05 463.7 153.85 464.8 91.5 467.95 38.1 464.75 23.25 466.35 23.9 468.15 23.25 470.1 38.1 474 91.5 477.35 153.85 479.1 175.05 479.65 205.05 480.8 238.05 483.35 252.1 483.5 397.8 475.35 556.05 475.45 704.8 475.4 909.85 472.9 950.65 473.85 1018.55 476.7 1081.5 478.7 1110.85 479.8 1140.45 480.15 1169 479.75 1206.4 480.35 1220.15 473.85 1232 468.05 1230.55 465.95 Z"/>
</g>

<g id="Layer2_0_FILL">
<path fill="#FFFFFF" stroke="none" d="
M 1244.4 383.8
Q 1236.9 382.9 1225.45 385.55 1092.45 405.15 953.7 405.4 865.3 405.6 716.25 395.8 632.85 390.35 601.95 388.65 537.7 385.25 485.95 384.65 354.7 383.2 235.55 399.8 228.9 400.05 209.45 397.75 177.25 394.05 176.35 393.95 158.7 392.25 153.9 393.4 147.85 394.85 159.9 401.1 181.35 412.4 235 412.3 252.35 412.2 270.8 410.95 283.75 410.05 287.85 409.45 409.95 394.45 501.85 395.35 539.6 395.65 582.25 398.6 605.3 400.25 660.6 405.3 772.3 415.4 858.4 417.5 999.6 420.9 1189.35 410.05 1197.9 409.25 1215.2 407.9 1230.2 406.6 1238.35 405.25 1261.4 401.45 1259.85 392 1254.25 384.9 1244.4 383.8 Z"/>
</g>

<g id="Layer1_0_FILL">
<path fill="#FFFFFF" stroke="none" d="
M 1089.65 312.1
Q 1054.4 312.9 991 315 916.85 317.9 873.75 319.15 684.6 320.15 545.45 320.15 365.75 320.4 196.1 310.7 184.35 310.55 163.8 311.9 139.25 312.25 119.65 312.55 60.3 313.5 20 318.65 6 322.75 10.25 324.4 13.2 325.9 28.85 326.4 95.35 321.4 160.7 324.55 183.45 325.65 218.95 328.7 264.7 333.35 280.7 334.4 402.5 337 539.3 336.8 697.65 336.4 918.55 324.05 957.7 323.4 1018.75 324.05 1081.3 324.3 1104.75 325.6 1123.4 325.75 1148.9 327.95 1186.5 332.1 1193.9 329.75 1211.6 329.45 1216.9 327.85 1225.1 326.05 1219.1 319.85 1199.25 313.45 1161.75 312.85 1130.25 311.75 1089.65 312.1 Z"/>
</g>

<g id="Layer0_0_FILL">
<path fill="#FFFFFF" stroke="none" d="
M 1151.65 253
Q 1152.3 247.1 1146.35 243.65 1134.95 238.75 1101.2 239.6 1035.35 252.5 883.1 245.95 860.05 244.7 751.25 241.1 653.85 240.05 602.75 240.3 504.15 239.3 401.3 237.95 370.75 239.6 301.4 244.3 243.7 248.1 215.6 248.45 166.45 248.85 137.5 247.3 124 247.85 122.2 249.2 119.55 250.6 131.6 253.6 161.35 258.5 209.1 258.05 228.85 258.05 262.7 259.05 301.1 260.45 314.45 261.15 448.5 252.95 588.65 252.9 675.5 253.2 806.7 257 914.25 258.3 923.65 257.7 1017.3 256 1063.95 262.2 1127.7 262.9 1151.65 253 Z"/>
</g>
</defs>

<g transform="matrix( 1, 0, 0, 1, 0,0) ">
<use xlink:href="#Layer3_0_FILL"/>
</g>

<g transform="matrix( 1, 0, 0, 1, 0,0) ">
<use xlink:href="#Layer2_0_FILL"/>
</g>

<g transform="matrix( 1, 0, 0, 1, 0,0) ">
<use xlink:href="#Layer1_0_FILL"/>
</g>

<g transform="matrix( 1, 0, 0, 1, 0,0) ">
<use xlink:href="#Layer0_0_FILL"/>
</g>
</svg>
