
<svg xmlns="http://www.w3.org/2000/svg" version="1.1" xmlns:xlink="http://www.w3.org/1999/xlink" preserveAspectRatio="none" x="0px" y="0px" width="1280px" height="720px" viewBox="0 0 1280 720">
<defs>
<g id="Layer3_0_FILL">
<path fill="#FFFFFF" stroke="none" d="
M 1230.55 474.6
Q 1241.7 472.8 1238.3 464.9 1215.65 457.45 1178.2 455.45 1145.4 453.35 1100 453.75 1062.2 454.35 998.55 457 921.45 460.55 877.55 462.35 695.4 467.35 560.45 467.55 371.3 467.85 191.2 454.7 180.3 454.15 165.35 454.5 143.15 454 124.25 454.05 66.2 454.25 31.7 462.4 18.1 467.5 23.9 469.15 28.35 470.55 44.45 469.9 116.75 461.95 183.45 465.7 206.95 467 244.75 470.8 295.8 476.3 312.95 477.75 424.3 484 551.65 483.65 714.2 483.15 942.1 467.1 979.85 465.85 1038.55 465.8 1100.8 465.4 1121.7 466.9 1135.5 466.95 1159.75 470.15 1197.1 475.6 1202 474.6 1222.25 476.15 1230.55 474.6 Z"/>
</g>

<g id="Layer2_0_FILL">
<path fill="#FFFFFF" stroke="none" d="
M 1250.5 385.05
Q 1242.85 384.25 1231.3 386.65 1096.8 404.8 956.5 405.1 867.1 405.25 716.4 396.2 632 391.15 600.75 389.55 535.8 386.4 483.5 385.85 350.75 384.5 230.25 399.85 223.5 400.1 203.85 397.95 171.3 394.55 170.35 394.45 152.5 392.85 147.65 393.95 141.6 395.3 153.75 401.05 175.45 411.55 229.7 411.45 247.25 411.4 265.9 410.2 279 409.4 283.1 408.85 406.65 394.95 499.55 395.75 537.7 396 580.85 398.8 604.2 400.3 660.1 405 773.05 414.3 860.15 416.3 1002.9 419.45 1194.8 409.4 1203.45 408.6 1220.9 407.35 1236.1 406.15 1244.35 404.95 1267.65 401.4 1266.1 392.65 1260.4 386.1 1250.5 385.05 Z"/>
</g>

<g id="Layer1_0_FILL">
<path fill="#FFFFFF" stroke="none" d="
M 1089.05 311.6
Q 1053.3 312.35 989.9 314.5 915.2 317.55 871.95 318.9 684.1 320.7 545.7 320.75 364.3 321 192.75 310.65 181.15 310.4 161.6 311.55 137.45 311.75 118 312 58.9 312.8 19.65 318.5 5.75 322.8 10.25 324.45 13.45 325.95 29.2 326.2 96.75 320.6 162.35 323.9 185.25 325.05 221.15 328.2 267.9 333.05 284.05 334.15 403.95 337.45 539.05 337.25 698.15 336.8 920.35 323.75 959.35 323 1019.85 323.5 1082.4 323.65 1105.35 325 1123.1 325.1 1148.4 327.5 1186 331.9 1192.9 329.8 1211.05 329.85 1216.9 328.3 1225.65 326.5 1220.1 320 1199.75 313.4 1162.25 312.5 1130.55 311.2 1089.05 311.6 Z"/>
</g>

<g id="Layer0_0_FILL">
<path fill="#FFFFFF" stroke="none" d="
M 1153.4 251.85
Q 1152.3 245.05 1144.6 242.7 1137.35 240.1 1113.6 240.95 1041.35 256.35 869.55 247.9 841.95 246.4 732.8 240.9 646.65 237.75 607.45 237.95 522.7 236.65 430.3 238.25 394 240.2 314.25 246.15 248.65 251.05 217.8 251.6 168.15 252.35 139.5 248.1 125.45 247.6 122.2 248.85 118.1 250.25 129.6 254.25 159.65 261.75 206.9 261 223.9 260.8 249.85 260.55 277.85 260.55 285.45 260.9 429.95 250 583.95 250.25 682.7 250.65 825.15 256.35 932.35 259.7 937.2 259.4 1011.3 259.8 1051.55 263 1125.3 263.6 1153.4 251.85 Z"/>
</g>
</defs>

<g transform="matrix( 1, 0, 0, 1, 0,0) ">
<use xlink:href="#Layer3_0_FILL"/>
</g>

<g transform="matrix( 1, 0, 0, 1, 0,0) ">
<use xlink:href="#Layer2_0_FILL"/>
</g>

<g transform="matrix( 1, 0, 0, 1, 0,0) ">
<use xlink:href="#Layer1_0_FILL"/>
</g>

<g transform="matrix( 1, 0, 0, 1, 0,0) ">
<use xlink:href="#Layer0_0_FILL"/>
</g>
</svg>
