
<svg xmlns="http://www.w3.org/2000/svg" version="1.1" xmlns:xlink="http://www.w3.org/1999/xlink" preserveAspectRatio="none" x="0px" y="0px" width="1280px" height="720px" viewBox="0 0 1280 720">
<defs>
<g id="Layer3_0_FILL">
<path fill="#FFFFFF" stroke="none" d="
M 1230.55 463.8
Q 1229.55 461.75 1215.6 461.2 1204.05 458.25 1166.65 463.3 1139.2 466 1113.55 466.15 1086.35 467.8 1023.55 468.15 957.95 469 917.9 468.2 707.15 453.15 554.95 452.7 404.4 452.4 267.3 455.35 252.5 456.65 215 462.35 183 466.1 161.25 467.45 97.8 471.35 39.65 465.35 24.5 466.05 23.9 467.9 21.95 469.95 36.5 475 85.15 481.2 146.45 482.4 167.1 482.8 195.1 483.3 223.6 485.1 236.85 484.9 391.2 473.15 557.15 473.35 702.45 473.45 901.75 474.3 943.35 475.8 1013.55 479.45 1076.65 482 1108.15 483.05 1141.7 483.45 1171.3 482.1 1208.7 481.5 1224.7 473.65 1234.4 466.05 1230.55 463.8 Z"/>
</g>

<g id="Layer2_0_FILL">
<path fill="#FFFFFF" stroke="none" d="
M 1234.9 389.4
Q 1229.55 380.2 1220.15 378.75 1212.95 377.6 1202 381.05 1075 406.4 942.55 406.75 858.15 407 715.8 394.3 636.15 387.25 606.65 385.05 545.25 380.65 495.85 379.9 370.55 378 256.75 399.5 250.4 399.8 231.8 396.85 201.1 392.05 200.2 391.9 183.35 389.7 178.8 391.2 173 393.1 184.5 401.2 205 415.8 256.25 415.65 272.8 415.55 290.4 413.9 302.8 412.75 306.7 412 423.3 392.55 511.05 393.7 547.1 394.1 587.8 397.95 609.85 400.1 662.65 406.6 769.3 419.7 851.5 422.4 986.35 426.8 1167.55 412.75 1175.75 411.75 1192.25 410 1206.55 408.3 1214.35 406.55 1236.35 401.6 1234.9 389.4 Z"/>
</g>

<g id="Layer1_0_FILL">
<path fill="#FFFFFF" stroke="none" d="
M 1107.75 328.05
Q 1086.7 330 1024.3 329.25 965.9 328.6 927.55 326.7 700.25 303.45 538.1 302.65 409.85 302.2 297.6 312.65 280.8 314.7 229.95 322.5 192.3 327.9 168.95 329.75 102.4 334.95 30.65 322.7 14.6 321.15 10.25 322.95 4.6 325.1 18.2 332.35 53.25 344.8 111.4 344.65 130.4 344.6 152.8 343.4 168.25 343.15 179.2 342.25 358.4 322.9 546.65 323.4 682 323.7 864.75 332.8 908.65 335.5 985.45 340.5 1049 344.25 1086.65 344.9 1131.65 345.5 1164.3 342.1 1201.8 338.55 1224.15 328.15 1227.8 316.85 1216.9 314.5 1208.9 312.65 1188.85 315.8 1183.95 315.3 1146.35 323.25 1122 328.05 1107.75 328.05 Z"/>
</g>

<g id="Layer0_0_FILL">
<path fill="#FFFFFF" stroke="none" d="
M 1144.6 257.6
Q 1152.3 255.25 1153.4 247.35 1125.3 233.5 1051.55 234.2 1011.3 236.95 937.2 238 932.35 237.75 825.15 242.05 682.7 249.15 583.95 249.55 429.95 249.95 285.45 236.85 277.85 237.15 249.85 236.75 223.9 236.15 206.9 235.85 159.65 234.9 129.6 244.1 118.1 248.9 122.2 250.5 125.45 251.9 139.5 251.05 168.15 245.45 217.8 246.4 248.65 247.05 314.25 252.95 394 260 430.3 262.3 522.7 264.9 607.45 263.35 646.65 263.55 732.8 259.5 841.95 252.65 869.55 250.9 1041.35 240.8 1113.6 258.95 1137.35 259.95 1144.6 257.6 Z"/>
</g>
</defs>

<g transform="matrix( 1, 0, 0, 1, 0,0) ">
<use xlink:href="#Layer3_0_FILL"/>
</g>

<g transform="matrix( 1, 0, 0, 1, 0,0) ">
<use xlink:href="#Layer2_0_FILL"/>
</g>

<g transform="matrix( 1, 0, 0, 1, 0,0) ">
<use xlink:href="#Layer1_0_FILL"/>
</g>

<g transform="matrix( 1, 0, 0, 1, 0,0) ">
<use xlink:href="#Layer0_0_FILL"/>
</g>
</svg>
