
<svg xmlns="http://www.w3.org/2000/svg" version="1.1" xmlns:xlink="http://www.w3.org/1999/xlink" preserveAspectRatio="none" x="0px" y="0px" width="1280px" height="720px" viewBox="0 0 1280 720">
<defs>
<g id="Layer3_0_FILL">
<path fill="#FFFFFF" stroke="none" d="
M 1230.55 468.1
Q 1234.4 466.15 1224.7 462.7 1208.7 457.95 1171.3 460.15 1141.7 460.9 1108.15 461.2 1076.65 462.45 1013.55 463.65 943.35 465.65 901.75 465.85 702.45 458.85 557.15 458.65 391.2 458.6 236.85 455.05 223.6 455.65 195.1 459.2 167.1 461.25 146.45 462.1 85.15 464.5 36.5 464.15 21.95 466.6 23.9 468.4 24.5 470.2 39.65 472.95 97.8 473.5 161.25 475.75 183 476.5 215 478.3 252.5 481.55 267.3 482.05 404.4 477.5 554.95 477.5 707.15 477.3 917.9 471.45 957.95 471.85 1023.55 473.95 1086.35 475.4 1113.55 476.55 1139.2 476.85 1166.65 477.35 1204.05 479.15 1215.6 474.05 1229.55 470.05 1230.55 468.1 Z"/>
</g>

<g id="Layer2_0_FILL">
<path fill="#FFFFFF" stroke="none" d="
M 1247.4 390.7
Q 1241.9 382.55 1232.3 381.25 1224.9 380.25 1213.7 383.3 1083.7 405.75 948.15 406.1 861.75 406.3 716.05 395.05 634.5 388.8 604.3 386.85 541.45 382.95 490.9 382.3 362.65 380.6 246.15 399.65 239.65 399.9 220.6 397.3 189.2 393.05 188.25 392.9 171 390.95 166.35 392.3 160.45 394 172.2 401.15 193.2 414.1 245.65 413.95 262.6 413.9 280.6 412.4 293.3 411.4 297.25 410.75 416.65 393.5 506.45 394.5 543.35 394.85 585 398.3 607.6 400.2 661.65 405.95 770.8 417.55 854.95 419.95 992.95 423.85 1178.45 411.4 1186.85 410.5 1203.7 408.95 1218.35 407.45 1226.35 405.9 1248.85 401.5 1247.4 390.7 Z"/>
</g>

<g id="Layer1_0_FILL">
<path fill="#FFFFFF" stroke="none" d="
M 1105.35 325.9
Q 1082.4 327.7 1019.85 327.35 959.35 327.2 920.35 325.7 698.15 305.65 539.05 305 403.95 304.6 284.05 312.4 267.9 314.15 221.15 321.1 185.25 325.8 162.35 327.45 96.75 332.1 29.2 322.2 13.45 321.4 10.25 323.15 5.75 325.2 19.65 331.55 58.9 341.7 118 341.95 137.45 342.05 161.6 341.45 181.15 341.85 192.75 341.2 364.3 324.8 545.7 325.15 684.1 325.4 871.95 331.65 915.2 333.9 989.9 338.3 1053.3 341.55 1089.05 342.3 1130.55 342.85 1162.25 340.2 1199.75 337.65 1220.1 328.4 1225.65 318.55 1216.9 316.3 1211.05 314.45 1192.9 316.3 1186 315.05 1148.4 321.9 1123.1 325.85 1105.35 325.9 Z"/>
</g>

<g id="Layer0_0_FILL">
<path fill="#FFFFFF" stroke="none" d="
M 1148.1 255.3
Q 1152.3 251.15 1149.9 245.5 1130.1 236.15 1076.35 236.9 1023.3 244.7 910.15 241.95 896.2 241.2 788.2 241.6 668.3 244.6 593.35 244.9 467.05 244.65 343.4 237.4 324.3 238.35 275.6 240.5 233.8 242.1 211.25 242.15 163.05 241.9 133.55 245.7 121.05 248.4 122.2 249.85 122.5 251.25 135.55 252.35 164.75 251.95 213.45 252.25 238.75 252.55 288.5 256 347.55 260.2 372.35 261.75 485.6 258.95 598.05 258.1 661.05 258.4 769.75 258.25 878.1 255.45 896.6 254.3 1029.35 248.4 1088.8 260.55 1132.55 261.4 1148.1 255.3 Z"/>
</g>
</defs>

<g transform="matrix( 1, 0, 0, 1, 0,0) ">
<use xlink:href="#Layer3_0_FILL"/>
</g>

<g transform="matrix( 1, 0, 0, 1, 0,0) ">
<use xlink:href="#Layer2_0_FILL"/>
</g>

<g transform="matrix( 1, 0, 0, 1, 0,0) ">
<use xlink:href="#Layer1_0_FILL"/>
</g>

<g transform="matrix( 1, 0, 0, 1, 0,0) ">
<use xlink:href="#Layer0_0_FILL"/>
</g>
</svg>
