
<svg xmlns="http://www.w3.org/2000/svg" version="1.1" xmlns:xlink="http://www.w3.org/1999/xlink" preserveAspectRatio="none" x="0px" y="0px" width="1280px" height="720px" viewBox="0 0 1280 720">
<defs>
<g id="Layer3_0_FILL">
<path fill="#FFFFFF" stroke="none" d="
M 1233.75 473.3
Q 1239.3 462 1230.55 459.45 1224.65 457.3 1206.55 459.75 1199.4 458.6 1162.05 466.4 1136.75 471.05 1119 471.15 1096 473.2 1033.55 472.6 972.55 472.4 934.05 470.55 711.85 447.5 552.75 446.8 417.65 446.25 297.75 455.6 281.35 457.65 234.85 465.5 198.95 470.95 176.05 472.85 110.4 478.15 42.85 466.5 27.1 465.45 23.9 467.4 19.35 469.7 33.3 477 72.55 488.9 131.65 489.1 151.15 489.15 175.25 488.3 194.75 488.6 206.4 487.8 377.95 468.8 559.35 469.25 697.75 469.55 885.6 477.2 928.75 479.8 1003.55 484.9 1067 488.65 1102.7 489.5 1144.15 490.05 1175.9 486.9 1213.35 483.9 1233.75 473.3 Z"/>
</g>

<g id="Layer2_0_FILL">
<path fill="#FFFFFF" stroke="none" d="
M 1234.9 389.4
Q 1229.55 380.2 1220.15 378.75 1212.95 377.6 1202 381.05 1075 406.4 942.55 406.75 858.15 407 715.8 394.3 636.15 387.25 606.65 385.05 545.25 380.65 495.85 379.9 370.55 378 256.75 399.5 250.4 399.8 231.8 396.85 201.1 392.05 200.2 391.9 183.35 389.7 178.8 391.2 173 393.1 184.5 401.2 205 415.8 256.25 415.65 272.8 415.55 290.4 413.9 302.8 412.75 306.7 412 423.3 392.55 511.05 393.7 547.1 394.1 587.8 397.95 609.85 400.1 662.65 406.6 769.3 419.7 851.5 422.4 986.35 426.8 1167.55 412.75 1175.75 411.75 1192.25 410 1206.55 408.3 1214.35 406.55 1236.35 401.6 1234.9 389.4 Z"/>
</g>

<g id="Layer1_0_FILL">
<path fill="#FFFFFF" stroke="none" d="
M 1101.7 322.75
Q 1075.95 324.3 1013.2 324.5 949.55 325.05 909.6 324.2 695.05 309 540.55 308.5 395.15 308.25 263.75 312 248.65 313.3 207.9 318.95 174.6 322.7 152.5 324 88.35 327.8 27.1 321.35 11.75 321.7 10.25 323.45 7.45 325.35 21.75 330.35 67.3 337 127.85 337.95 148.1 338.3 174.85 338.5 200.4 339.9 213.05 339.65 373.1 327.6 544.2 327.85 687.2 327.95 882.7 329.9 925 331.45 996.55 335 1059.75 337.6 1092.7 338.45 1128.9 338.9 1159.15 337.4 1196.7 336.4 1214.05 328.7 1222.4 321.05 1216.9 318.95 1214.3 317.1 1198.95 317.15 1189.05 314.7 1151.5 319.8 1124.75 322.6 1101.7 322.75 Z"/>
</g>

<g id="Layer0_0_FILL">
<path fill="#FFFFFF" stroke="none" d="
M 1144.6 257.6
Q 1152.3 255.25 1153.4 247.35 1125.3 233.5 1051.55 234.2 1011.3 236.95 937.2 238 932.35 237.75 825.15 242.05 682.7 249.15 583.95 249.55 429.95 249.95 285.45 236.85 277.85 237.15 249.85 236.75 223.9 236.15 206.9 235.85 159.65 234.9 129.6 244.1 118.1 248.9 122.2 250.5 125.45 251.9 139.5 251.05 168.15 245.45 217.8 246.4 248.65 247.05 314.25 252.95 394 260 430.3 262.3 522.7 264.9 607.45 263.35 646.65 263.55 732.8 259.5 841.95 252.65 869.55 250.9 1041.35 240.8 1113.6 258.95 1137.35 259.95 1144.6 257.6 Z"/>
</g>
</defs>

<g transform="matrix( 1, 0, 0, 1, 0,0) ">
<use xlink:href="#Layer3_0_FILL"/>
</g>

<g transform="matrix( 1, 0, 0, 1, 0,0) ">
<use xlink:href="#Layer2_0_FILL"/>
</g>

<g transform="matrix( 1, 0, 0, 1, 0,0) ">
<use xlink:href="#Layer1_0_FILL"/>
</g>

<g transform="matrix( 1, 0, 0, 1, 0,0) ">
<use xlink:href="#Layer0_0_FILL"/>
</g>
</svg>
