
<svg xmlns="http://www.w3.org/2000/svg" version="1.1" xmlns:xlink="http://www.w3.org/1999/xlink" preserveAspectRatio="none" x="0px" y="0px" width="1280px" height="720px" viewBox="0 0 1280 720">
<defs>
<g id="Layer3_0_FILL">
<path fill="#FFFFFF" stroke="none" d="
M 1230.55 470.25
Q 1236.85 468.35 1229.25 463.45 1211 457.8 1173.6 458.6 1142.95 458.4 1105.45 458.7 1071.85 459.75 1008.55 461.45 936.05 463.95 893.7 464.7 700.1 461.7 558.25 461.6 384.55 461.7 221.65 454.95 209.15 455.15 185.2 457.65 159.1 458.85 139.05 459.4 78.85 461.1 34.9 463.55 20.65 466.9 23.9 468.65 25.8 470.3 41.25 471.95 104.1 469.65 168.65 472.4 191 473.35 224.9 475.8 266.95 479.8 282.5 480.6 411.05 479.65 553.85 479.55 709.5 479.25 925.95 470 965.25 469.85 1028.55 471.25 1091.15 472.05 1116.25 473.35 1137.95 473.55 1164.35 474.95 1201.75 477.95 1211.05 474.25 1227.1 472.1 1230.55 470.25 Z"/>
</g>

<g id="Layer2_0_FILL">
<path fill="#FFFFFF" stroke="none" d="
M 1238.35 382.55
Q 1230.9 381.6 1219.6 384.4 1088.1 405.45 950.9 405.75 863.5 405.95 716.15 395.45 633.65 389.6 603.1 387.75 539.6 384.1 488.45 383.45 358.65 381.9 240.85 399.7 234.25 400 215.05 397.5 183.2 393.55 182.3 393.45 164.85 391.6 160.1 392.85 154.15 394.4 166.05 401.1 187.25 413.25 240.3 413.15 257.45 413.05 275.7 411.7 288.5 410.75 292.55 410.1 413.3 394 504.15 394.95 541.45 395.25 583.65 398.45 606.45 400.2 661.1 405.65 771.55 416.45 856.7 418.75 996.3 422.4 1183.9 410.75 1192.35 409.85 1209.45 408.4 1224.3 407 1232.35 405.6 1255.15 401.5 1253.6 391.35 1248.05 383.75 1238.35 382.55 Z"/>
</g>

<g id="Layer1_0_FILL">
<path fill="#FFFFFF" stroke="none" d="
M 1099.9 321.15
Q 1072.7 322.6 1009.85 323.05 944.65 324 904.2 323.45 693.45 310.65 541.25 310.25 390.75 310.05 253.6 311.8 239 312.9 201.3 317.9 169.3 321.1 147.55 322.3 84.15 325.65 26 320.95 10.9 321.85 10.25 323.6 8.3 325.45 22.85 329.75 71.5 334.65 132.8 335.95 153.4 336.4 181.45 337.05 210.05 338.9 223.2 338.85 377.5 329 543.5 329.2 688.8 329.2 888.1 329 929.9 330.25 999.9 333.35 1063 335.6 1094.5 336.55 1128.05 336.95 1157.65 335.95 1195.15 335.75 1211.05 328.85 1220.8 322.3 1216.9 320.3 1215.9 318.45 1201.95 317.55 1190.6 314.5 1153 318.75 1125.6 320.95 1099.9 321.15 Z"/>
</g>

<g id="Layer0_0_FILL">
<path fill="#FFFFFF" stroke="none" d="
M 1149.9 254.15
Q 1152.3 249.15 1148.1 244.55 1132.55 237.45 1088.8 238.25 1029.35 248.6 896.6 243.95 878.1 242.95 769.75 241.35 661.05 242.3 598.05 242.6 485.6 241.95 372.35 237.7 347.55 239 288.5 242.4 238.75 245.1 213.45 245.3 164.75 245.35 135.55 246.5 122.5 248.1 122.2 249.5 121.05 250.9 133.55 252.95 163.05 255.25 211.25 255.15 233.8 255.3 275.6 257.5 324.3 260.35 343.4 261.45 467.05 255.95 593.35 255.5 668.3 255.8 788.2 257.6 896.2 256.9 910.15 256 1023.3 252.2 1076.35 261.4 1130.1 262.15 1149.9 254.15 Z"/>
</g>
</defs>

<g transform="matrix( 1, 0, 0, 1, 0,0) ">
<use xlink:href="#Layer3_0_FILL"/>
</g>

<g transform="matrix( 1, 0, 0, 1, 0,0) ">
<use xlink:href="#Layer2_0_FILL"/>
</g>

<g transform="matrix( 1, 0, 0, 1, 0,0) ">
<use xlink:href="#Layer1_0_FILL"/>
</g>

<g transform="matrix( 1, 0, 0, 1, 0,0) ">
<use xlink:href="#Layer0_0_FILL"/>
</g>
</svg>
