
<svg xmlns="http://www.w3.org/2000/svg" version="1.1" xmlns:xlink="http://www.w3.org/1999/xlink" preserveAspectRatio="none" x="0px" y="0px" width="1280px" height="720px" viewBox="0 0 1280 720">
<defs>
<g id="Layer3_0_FILL">
<path fill="#FFFFFF" stroke="none" d="
M 1242.85 472.9
Q 1244.15 457.95 1230.55 455.15 1219.8 452.9 1197.45 458.25 1194.75 458.9 1157.45 469.55 1134.25 476.1 1124.4 476.1 1105.65 478.6 1043.55 477.05 987.15 475.8 950.2 472.9 716.55 441.8 550.55 440.85 430.9 440.05 328.2 455.85 310.25 458.65 254.7 468.65 214.9 475.8 190.85 478.2 123.05 485 46.05 467.7 29.65 464.85 23.9 466.9 16.8 469.45 30.1 479.05 59.9 496.6 116.85 495.8 135.2 495.45 155.4 493.3 165.85 492.1 175.95 490.65 364.7 464.45 561.55 465.15 693.05 465.65 869.45 480.1 914.15 483.8 993.55 490.35 1057.35 495.3 1097.3 495.95 1146.65 496.65 1180.5 491.7 1218 486.25 1242.85 472.9 Z"/>
</g>

<g id="Layer2_0_FILL">
<path fill="#FFFFFF" stroke="none" d="
M 1247.4 390.7
Q 1241.9 382.55 1232.3 381.25 1224.9 380.25 1213.7 383.3 1083.7 405.75 948.15 406.1 861.75 406.3 716.05 395.05 634.5 388.8 604.3 386.85 541.45 382.95 490.9 382.3 362.65 380.6 246.15 399.65 239.65 399.9 220.6 397.3 189.2 393.05 188.25 392.9 171 390.95 166.35 392.3 160.45 394 172.2 401.15 193.2 414.1 245.65 413.95 262.6 413.9 280.6 412.4 293.3 411.4 297.25 410.75 416.65 393.5 506.45 394.5 543.35 394.85 585 398.3 607.6 400.2 661.65 405.95 770.8 417.55 854.95 419.95 992.95 423.85 1178.45 411.4 1186.85 410.5 1203.7 408.95 1218.35 407.45 1226.35 405.9 1248.85 401.5 1247.4 390.7 Z"/>
</g>

<g id="Layer1_0_FILL">
<path fill="#FFFFFF" stroke="none" d="
M 1095.7 317.4
Q 1065.15 318.6 1002.1 319.75 933.2 321.5 891.65 321.65 689.8 314.55 543 314.35 380.45 314.3 229.95 311.35 216.5 311.95 185.85 315.45 156.95 317.45 136.05 318.3 74.3 320.65 23.55 320 8.9 322.25 10.25 323.9 10.3 325.65 25.3 328.4 81.35 329.2 144.3 331.25 165.75 331.95 196.9 333.6 232.55 336.65 246.85 337 387.8 332.3 541.75 332.3 692.45 332.15 900.65 326.95 941.35 327.45 1007.65 329.55 1070.55 330.95 1098.7 332.05 1126.15 332.35 1154.05 332.65 1191.6 334.25 1204 329.25 1217 325.25 1216.9 323.4 1219.7 321.6 1209 318.5 1194.15 314.05 1156.6 316.35 1127.5 317.15 1095.7 317.4 Z"/>
</g>

<g id="Layer0_0_FILL">
<path fill="#FFFFFF" stroke="none" d="
M 1148.1 255.3
Q 1152.3 251.15 1149.9 245.5 1130.1 236.15 1076.35 236.9 1023.3 244.7 910.15 241.95 896.2 241.2 788.2 241.6 668.3 244.6 593.35 244.9 467.05 244.65 343.4 237.4 324.3 238.35 275.6 240.5 233.8 242.1 211.25 242.15 163.05 241.9 133.55 245.7 121.05 248.4 122.2 249.85 122.5 251.25 135.55 252.35 164.75 251.95 213.45 252.25 238.75 252.55 288.5 256 347.55 260.2 372.35 261.75 485.6 258.95 598.05 258.1 661.05 258.4 769.75 258.25 878.1 255.45 896.6 254.3 1029.35 248.4 1088.8 260.55 1132.55 261.4 1148.1 255.3 Z"/>
</g>
</defs>

<g transform="matrix( 1, 0, 0, 1, 0,0) ">
<use xlink:href="#Layer3_0_FILL"/>
</g>

<g transform="matrix( 1, 0, 0, 1, 0,0) ">
<use xlink:href="#Layer2_0_FILL"/>
</g>

<g transform="matrix( 1, 0, 0, 1, 0,0) ">
<use xlink:href="#Layer1_0_FILL"/>
</g>

<g transform="matrix( 1, 0, 0, 1, 0,0) ">
<use xlink:href="#Layer0_0_FILL"/>
</g>
</svg>
