
<svg xmlns="http://www.w3.org/2000/svg" version="1.1" xmlns:xlink="http://www.w3.org/1999/xlink" preserveAspectRatio="none" x="0px" y="0px" width="1280px" height="720px" viewBox="0 0 1280 720">
<defs>
<g id="Layer3_0_FILL">
<path fill="#FFFFFF" stroke="none" d="
M 1229.25 473.45
Q 1236.85 464 1230.55 461.65 1227.1 459.55 1211.05 460.45 1201.75 458.4 1164.35 464.85 1137.95 468.5 1116.25 468.65 1091.15 470.5 1028.55 470.35 965.25 470.7 925.95 469.35 709.5 450.3 553.85 449.75 411.05 449.3 282.5 455.45 266.95 457.15 224.9 463.9 191 468.5 168.65 470.15 104.1 474.75 41.25 465.95 25.8 465.75 23.9 467.65 20.65 469.85 34.9 476 78.85 485.05 139.05 485.75 159.1 485.95 185.2 485.8 209.15 486.85 221.65 486.35 384.55 471 558.25 471.3 700.1 471.5 893.7 475.75 936.05 477.8 1008.55 482.15 1071.85 485.35 1105.45 486.25 1142.95 486.75 1173.6 484.5 1211 482.7 1229.25 473.45 Z"/>
</g>

<g id="Layer2_0_FILL">
<path fill="#FFFFFF" stroke="none" d="
M 1214.1 377.5
Q 1206.95 376.3 1196.15 379.9 1070.65 406.7 939.75 407.1 856.35 407.35 715.7 393.95 636.95 386.5 607.8 384.15 547.15 379.5 498.35 378.7 374.5 376.7 262.05 399.4 255.75 399.75 237.4 396.6 207.05 391.55 206.15 391.4 189.5 389.05 185 390.65 179.3 392.65 190.65 401.2 210.9 416.65 261.55 416.5 277.9 416.4 295.3 414.65 307.55 413.45 311.4 412.65 426.65 392.1 513.35 393.3 548.95 393.7 589.2 397.8 611 400.05 663.15 406.95 768.55 420.75 849.8 423.65 983.05 428.3 1162.1 413.45 1170.2 412.35 1186.5 410.5 1200.65 408.7 1208.35 406.9 1230.1 401.65 1228.65 388.75 1223.35 379.05 1214.1 377.5 Z"/>
</g>

<g id="Layer1_0_FILL">
<path fill="#FFFFFF" stroke="none" d="
M 1104.75 325.4
Q 1081.3 327.15 1018.75 326.85 957.7 326.85 918.55 325.45 697.65 306.2 539.3 305.6 402.5 305.2 280.7 312.35 264.7 314 218.95 320.75 183.45 325.3 160.7 326.9 95.35 331.4 28.85 322.05 13.2 321.45 10.25 323.2 6 325.25 20 331.35 60.3 340.9 119.65 341.3 139.25 341.45 163.8 340.95 184.35 341.55 196.1 340.95 365.75 325.25 545.45 325.6 684.6 325.8 873.75 331.35 916.85 333.5 991 337.75 1054.4 340.9 1089.65 341.7 1130.25 342.2 1161.75 339.75 1199.25 337.45 1219.1 328.45 1225.1 318.95 1216.9 316.75 1211.6 314.9 1193.9 316.45 1186.5 315 1148.9 321.55 1123.4 325.3 1104.75 325.4 Z"/>
</g>

<g id="Layer0_0_FILL">
<path fill="#FFFFFF" stroke="none" d="
M 1142.85 258.75
Q 1152.3 257.3 1155.15 248.25 1122.9 232.2 1039.15 232.85 1005.3 233.05 950.7 236 950.4 236 843.65 242.3 689.9 251.4 579.25 251.85 411.4 252.6 256.5 236.6 254.65 236.55 236.95 234.85 218.95 233.15 204.75 232.7 157.95 231.4 127.65 243.3 116.6 249.15 122.2 250.8 126.95 252.2 141.45 250.4 169.85 242.2 219.95 243.5 253.6 244.3 327.15 251.4 417.2 259.9 459.25 262.6 541.25 267.9 612.15 265.95 639.45 266.15 714.3 260.1 823.9 251.25 856.05 249.2 1047.35 237 1126 258.15 1139.75 259.2 1142.85 258.75 Z"/>
</g>
</defs>

<g transform="matrix( 1, 0, 0, 1, 0,0) ">
<use xlink:href="#Layer3_0_FILL"/>
</g>

<g transform="matrix( 1, 0, 0, 1, 0,0) ">
<use xlink:href="#Layer2_0_FILL"/>
</g>

<g transform="matrix( 1, 0, 0, 1, 0,0) ">
<use xlink:href="#Layer1_0_FILL"/>
</g>

<g transform="matrix( 1, 0, 0, 1, 0,0) ">
<use xlink:href="#Layer0_0_FILL"/>
</g>
</svg>
