
<svg xmlns="http://www.w3.org/2000/svg" version="1.1" xmlns:xlink="http://www.w3.org/1999/xlink" preserveAspectRatio="none" x="0px" y="0px" width="1280px" height="720px" viewBox="0 0 1280 720">
<defs>
<g id="Layer3_0_FILL">
<path fill="#FFFFFF" stroke="none" d="
M 1230.55 476.75
Q 1244.15 475 1242.85 465.65 1218 457.3 1180.5 453.9 1146.65 450.8 1097.3 451.25 1057.35 451.65 993.55 454.75 914.15 458.85 869.45 461.15 693.05 470.2 561.55 470.5 364.7 470.95 175.95 454.55 165.85 453.65 155.4 452.9 135.2 451.55 116.85 451.35 59.9 450.85 30.1 461.8 16.8 467.8 23.9 469.4 29.65 470.7 46.05 468.9 123.05 458.1 190.85 462.35 214.9 463.85 254.7 468.3 310.25 474.55 328.2 476.3 430.9 486.2 550.55 485.7 716.55 485.1 950.2 465.65 987.15 463.85 1043.55 463.05 1105.65 462.1 1124.4 463.65 1134.25 463.65 1157.45 467.75 1194.75 474.4 1197.45 474.8 1219.8 478.15 1230.55 476.75 Z"/>
</g>

<g id="Layer2_0_FILL">
<path fill="#FFFFFF" stroke="none" d="
M 1272.35 393.3
Q 1266.6 387.25 1256.55 386.3 1248.85 385.55 1237.15 387.8 1101.15 404.5 959.3 404.75 868.9 404.9 716.5 396.55 631.2 391.9 599.6 390.45 533.9 387.55 481 387.05 346.8 385.8 224.95 399.95 218.15 400.15 198.25 398.2 165.35 395.05 164.4 394.95 146.35 393.5 141.45 394.5 135.3 395.75 147.6 401.05 169.55 410.7 224.4 410.6 242.15 410.55 261 409.45 274.25 408.7 278.4 408.2 403.3 395.4 497.25 396.15 535.85 396.4 579.45 398.95 603.05 400.35 659.6 404.65 773.8 413.25 861.85 415.05 1006.2 417.95 1200.25 408.7 1209 408 1226.65 406.85 1242 405.75 1250.35 404.6 1273.9 401.35 1272.35 393.3 Z"/>
</g>

<g id="Layer1_0_FILL">
<path fill="#FFFFFF" stroke="none" d="
M 1029.85 318.55
Q 1092.1 317.65 1110.75 319.2 1120.65 319.15 1143.8 323.25 1181.4 329.95 1183.8 330.3 1206.2 333.65 1216.9 332.3 1230.5 330.55 1229.2 321.2 1204.35 312.85 1166.85 309.4 1133 306.3 1083.65 306.8 1043.6 307.2 979.9 310.25 900.5 314.35 855.8 316.65 679.4 325.7 547.9 326 351.05 326.45 162.3 310.05 152.2 309.15 141.75 308.4 121.55 307.05 103.2 306.85 46.25 306.35 16.45 317.3 3.15 323.3 10.25 324.9 16.05 326.2 32.4 324.4 109.4 313.6 177.15 317.85 201.15 319.35 241 323.8 296.85 330.1 314.5 331.8 417.2 341.7 536.85 341.25 702.85 340.6 936.5 321.15 974.05 319.4 1029.85 318.55 Z"/>
</g>

<g id="Layer0_0_FILL">
<path fill="#FFFFFF" stroke="none" d="
M 1155.15 250.7
Q 1152.3 243 1142.85 241.8 1139.75 241.4 1126 242.3 1047.35 260.25 856.05 249.9 823.9 248.15 714.3 240.65 639.45 235.5 612.15 235.65 541.25 234 459.25 238.5 417.2 240.8 327.15 248.05 253.6 254.05 219.95 254.75 169.85 255.85 141.45 248.9 126.95 247.35 122.2 248.55 116.6 249.95 127.65 254.9 157.95 265 204.75 263.9 218.95 263.55 236.95 262.1 254.65 260.65 256.5 260.6 411.4 247 579.25 247.65 689.9 248.05 843.65 255.75 950.4 261.1 950.7 261.1 1005.3 263.6 1039.15 263.8 1122.9 264.35 1155.15 250.7 Z"/>
</g>
</defs>

<g transform="matrix( 1, 0, 0, 1, 0,0) ">
<use xlink:href="#Layer3_0_FILL"/>
</g>

<g transform="matrix( 1, 0, 0, 1, 0,0) ">
<use xlink:href="#Layer2_0_FILL"/>
</g>

<g transform="matrix( 1, 0, 0, 1, 0,0) ">
<use xlink:href="#Layer1_0_FILL"/>
</g>

<g transform="matrix( 1, 0, 0, 1, 0,0) ">
<use xlink:href="#Layer0_0_FILL"/>
</g>
</svg>
