
<svg xmlns="http://www.w3.org/2000/svg" version="1.1" xmlns:xlink="http://www.w3.org/1999/xlink" preserveAspectRatio="none" x="0px" y="0px" width="1280px" height="720px" viewBox="0 0 1280 720">
<defs>
<g id="Layer3_0_FILL">
<path fill="#FFFFFF" stroke="none" d="
M 1230.55 465.95
Q 1232 463.95 1220.15 461.95 1206.4 458.1 1169 461.75 1140.45 463.45 1110.85 463.7 1081.5 465.15 1018.55 465.9 950.65 467.35 909.85 467.05 704.8 456 556.05 455.7 397.8 455.5 252.1 455.2 238.05 456.15 205.05 460.8 175.05 463.7 153.85 464.8 91.5 467.95 38.1 464.75 23.25 466.35 23.9 468.15 23.25 470.1 38.1 474 91.5 477.35 153.85 479.1 175.05 479.65 205.05 480.8 238.05 483.35 252.1 483.5 397.8 475.35 556.05 475.45 704.8 475.4 909.85 472.9 950.65 473.85 1018.55 476.7 1081.5 478.7 1110.85 479.8 1140.45 480.15 1169 479.75 1206.4 480.35 1220.15 473.85 1232 468.05 1230.55 465.95 Z"/>
</g>

<g id="Layer2_0_FILL">
<path fill="#FFFFFF" stroke="none" d="
M 1241.15 390.05
Q 1235.7 381.4 1226.25 380 1218.9 378.95 1207.85 382.15 1079.35 406.05 945.35 406.45 859.95 406.65 715.95 394.7 635.3 388.05 605.45 385.95 543.35 381.8 493.4 381.1 366.6 379.3 251.45 399.55 245 399.85 226.2 397.05 195.15 392.55 194.2 392.4 177.15 390.3 172.55 391.75 166.75 393.55 178.35 401.15 199.1 414.95 250.95 414.8 267.7 414.75 285.5 413.15 298.05 412.1 301.95 411.4 420 393.05 508.75 394.1 545.2 394.45 586.4 398.15 608.75 400.15 662.15 406.3 770.05 418.6 853.25 421.2 989.65 425.35 1173 412.1 1181.3 411.1 1197.95 409.45 1212.45 407.85 1220.35 406.25 1242.6 401.55 1241.15 390.05 Z"/>
</g>

<g id="Layer1_0_FILL">
<path fill="#FFFFFF" stroke="none" d="
M 979.9 343.25
Q 1043.6 347.55 1083.65 348.1 1133 348.8 1166.85 344.45 1204.35 339.6 1229.2 327.9 1230.5 314.75 1216.9 312.3 1206.2 310.4 1183.8 315.1 1181.4 315.6 1143.8 325 1120.65 330.75 1110.75 330.7 1092.1 332.85 1029.85 331.6 974.05 330.4 936.5 327.95 702.85 300.65 536.85 299.75 417.2 299.15 314.5 313 296.85 315.4 241 324.25 201.15 330.5 177.15 332.6 109.4 338.55 32.4 323.4 16.05 320.9 10.25 322.7 3.15 324.95 16.45 333.35 46.25 348.7 103.2 348 121.55 347.75 141.75 345.85 152.2 344.8 162.3 343.55 351.05 320.55 547.9 321.15 679.4 321.6 855.8 334.25 900.5 337.5 979.9 343.25 Z"/>
</g>

<g id="Layer0_0_FILL">
<path fill="#FFFFFF" stroke="none" d="
M 1146.35 256.45
Q 1152.3 253.2 1151.65 246.4 1127.7 234.85 1063.95 235.55 1017.3 240.8 923.65 239.95 914.25 239.45 806.7 241.85 675.5 246.85 588.65 247.2 448.5 247.3 314.45 237.15 301.1 237.75 262.7 238.6 228.85 239.1 209.1 239 161.35 238.4 131.6 244.9 119.55 248.65 122.2 250.15 124 251.55 137.5 251.7 166.45 248.7 215.6 249.35 243.7 249.8 301.4 254.45 370.75 260.1 401.3 262.05 504.15 261.95 602.75 260.7 653.85 261 751.25 258.85 860.05 254.05 883.1 252.6 1035.35 244.6 1101.2 259.75 1134.95 260.65 1146.35 256.45 Z"/>
</g>
</defs>

<g transform="matrix( 1, 0, 0, 1, 0,0) ">
<use xlink:href="#Layer3_0_FILL"/>
</g>

<g transform="matrix( 1, 0, 0, 1, 0,0) ">
<use xlink:href="#Layer2_0_FILL"/>
</g>

<g transform="matrix( 1, 0, 0, 1, 0,0) ">
<use xlink:href="#Layer1_0_FILL"/>
</g>

<g transform="matrix( 1, 0, 0, 1, 0,0) ">
<use xlink:href="#Layer0_0_FILL"/>
</g>
</svg>
