
<svg xmlns="http://www.w3.org/2000/svg" version="1.1" xmlns:xlink="http://www.w3.org/1999/xlink" preserveAspectRatio="none" x="0px" y="0px" width="1280px" height="720px" viewBox="0 0 1280 720">
<defs>
<g id="Layer3_0_FILL">
<path fill="#FFFFFF" stroke="none" d="
M 1238.3 473.1
Q 1241.7 459.95 1230.55 457.3 1222.25 455.1 1202 459 1197.1 458.75 1159.75 468 1135.5 473.55 1121.7 473.6 1100.8 475.9 1038.55 474.8 979.85 474.1 942.1 471.7 714.2 444.65 551.65 443.8 424.3 443.15 312.95 455.7 295.8 458.15 244.75 467.05 206.95 473.35 183.45 475.5 116.75 481.6 44.45 467.1 28.35 465.15 23.9 467.15 18.1 469.6 31.7 478.05 66.2 492.75 124.25 492.45 143.15 492.3 165.35 490.8 180.3 490.35 191.2 489.2 371.3 466.65 560.45 467.2 695.4 467.6 877.55 478.65 921.45 481.8 998.55 487.6 1062.2 492 1100 492.7 1145.4 493.35 1178.2 489.3 1215.65 485.05 1238.3 473.1 Z"/>
</g>

<g id="Layer2_0_FILL">
<path fill="#FFFFFF" stroke="none" d="
M 1241.15 390.05
Q 1235.7 381.4 1226.25 380 1218.9 378.95 1207.85 382.15 1079.35 406.05 945.35 406.45 859.95 406.65 715.95 394.7 635.3 388.05 605.45 385.95 543.35 381.8 493.4 381.1 366.6 379.3 251.45 399.55 245 399.85 226.2 397.05 195.15 392.55 194.2 392.4 177.15 390.3 172.55 391.75 166.75 393.55 178.35 401.15 199.1 414.95 250.95 414.8 267.7 414.75 285.5 413.15 298.05 412.1 301.95 411.4 420 393.05 508.75 394.1 545.2 394.45 586.4 398.15 608.75 400.15 662.15 406.3 770.05 418.6 853.25 421.2 989.65 425.35 1173 412.1 1181.3 411.1 1197.95 409.45 1212.45 407.85 1220.35 406.25 1242.6 401.55 1241.15 390.05 Z"/>
</g>

<g id="Layer1_0_FILL">
<path fill="#FFFFFF" stroke="none" d="
M 1098.7 320.1
Q 1070.55 321.45 1007.65 322.1 941.35 323.25 900.65 322.95 692.45 311.8 541.75 311.4 387.8 311.3 246.85 311.7 232.55 312.6 196.9 317.2 165.75 320.1 144.3 321.15 81.35 324.25 25.3 320.7 10.3 321.95 10.25 323.7 8.9 325.5 23.55 329.35 74.3 333.1 136.05 334.6 156.95 335.15 185.85 336.05 216.5 338.25 229.95 338.35 380.45 329.95 543 330.1 689.8 330.05 891.65 328.45 933.2 329.45 1002.1 332.25 1065.15 334.25 1095.7 335.25 1127.5 335.6 1156.6 335.05 1194.15 335.3 1209 328.95 1219.7 323.15 1216.9 321.2 1217 319.35 1204 317.8 1191.6 314.4 1154.05 318.05 1126.15 319.9 1098.7 320.1 Z"/>
</g>

<g id="Layer0_0_FILL">
<path fill="#FFFFFF" stroke="none" d="
M 1146.35 256.45
Q 1152.3 253.2 1151.65 246.4 1127.7 234.85 1063.95 235.55 1017.3 240.8 923.65 239.95 914.25 239.45 806.7 241.85 675.5 246.85 588.65 247.2 448.5 247.3 314.45 237.15 301.1 237.75 262.7 238.6 228.85 239.1 209.1 239 161.35 238.4 131.6 244.9 119.55 248.65 122.2 250.15 124 251.55 137.5 251.7 166.45 248.7 215.6 249.35 243.7 249.8 301.4 254.45 370.75 260.1 401.3 262.05 504.15 261.95 602.75 260.7 653.85 261 751.25 258.85 860.05 254.05 883.1 252.6 1035.35 244.6 1101.2 259.75 1134.95 260.65 1146.35 256.45 Z"/>
</g>
</defs>

<g transform="matrix( 1, 0, 0, 1, 0,0) ">
<use xlink:href="#Layer3_0_FILL"/>
</g>

<g transform="matrix( 1, 0, 0, 1, 0,0) ">
<use xlink:href="#Layer2_0_FILL"/>
</g>

<g transform="matrix( 1, 0, 0, 1, 0,0) ">
<use xlink:href="#Layer1_0_FILL"/>
</g>

<g transform="matrix( 1, 0, 0, 1, 0,0) ">
<use xlink:href="#Layer0_0_FILL"/>
</g>
</svg>
