
<svg xmlns="http://www.w3.org/2000/svg" version="1.1" xmlns:xlink="http://www.w3.org/1999/xlink" preserveAspectRatio="none" x="0px" y="0px" width="1000px" height="1000px" viewBox="0 0 1000 1000">
<defs>
<g id="leg_right_0_Layer0_0_MEMBER_0_FILL">
<path fill="#D68525" stroke="none" d="
M 569.9 886.8
Q 571.4 881.95 569.25 879.65 567.25 877.55 563.2 877.65 559.3 877.75 556.4 879.65 553.6 881.45 552.25 886.65 550.75 892.4 549.05 909.05 548.2 917.35 547.45 924.95 546.9 928.65 545.35 931.1 542.45 935.65 535.6 940.35 530.25 943.95 530.65 945.8 531.05 947.4 533.5 948.5 535.6 949.4 538 949.5 541.35 949.6 545.1 947.3 548.3 945.35 549.05 945.8 550.1 946.45 548.75 951.9 546.9 959.2 547.2 964.2 547.6 971.05 551 977.25 554.15 983 556.4 982.55 558.1 982.25 558.6 976.6 558.85 973.9 558.95 964.35 559.2 946.5 562.85 945.6 565.4 945 569.65 950.05 573.2 954.25 575.85 959.6 577.4 962.65 579.5 969.2 580.8 973.25 582.1 973.35 583.4 973.45 584.85 971.2 586.15 969.2 586.85 966.6 589.45 957.25 578.85 941.6 573.7 933.95 567.75 929.1 563.2 925.4 561.9 921.9 558.4 912.65 565.6 896.95 569.3 888.8 569.9 886.8 Z"/>
</g>

<g id="leg_left_0_Layer0_0_MEMBER_0_FILL">
<path fill="#D68525" stroke="none" d="
M 444 869.35
Q 436.85 868.8 434.25 872.3 433 874 434.45 877.55 434.75 878.3 438.5 885.3 445.05 897.7 443.45 907.2 442.05 915.45 436.1 921.9 432.1 926.3 426.35 928.65 422.95 930.05 416.15 931.5 409.6 932.85 406.75 934.1 402 936.2 399.35 940.3 397.2 943.7 396.5 947.5 395.65 952.05 397.5 955 398.8 957 401 958.2 403.3 959.4 404.85 958.65 406.3 958.05 406.7 954.6 407.2 950.05 408.55 947.65 411.1 943.15 416.5 940.75 421.85 938.4 425.1 940.3 426.35 941.05 427.1 943.35 428.15 946.8 428.75 955 429 958.5 428.75 968.25 428.8 976.45 430.6 977.05 431.9 977.5 434.15 974.95 436.15 972.75 437.85 969.6 440.75 964.15 440.7 956.05 440.65 947.9 442.85 943.6 445.5 938.45 450.25 935.1 455.05 931.7 458.15 932.95 461.55 934.25 462.25 942.95 462.45 945.05 462.65 948.7 462.9 951.25 463.65 951.3 464.8 951.4 466.4 948.85 468.1 946.2 469.25 942.35 472.3 932.2 469.2 923.75 467.35 918.85 460.6 912.5 454.85 907.1 454.5 901.7 454.35 899.65 455.2 896.1 456.15 891.9 456.3 887 456.5 881.15 456.25 879.1 455.95 876.05 454.5 874.15 451.25 869.9 444 869.35 Z"/>
</g>

<g id="body_0_Layer0_0_MEMBER_0_FILL">
<path fill="#DD3A3A" stroke="none" d="
M 776.15 582.95
Q 770.6 557.3 759.65 531.8 724.65 450.3 648.75 401 644.45 398.2 640.45 396.05 612.25 381.65 578.05 382.4 558.6 382.8 535.7 388.7 506.45 396.2 480.5 413.5 489.55 439.45 489.5 439.5 489.35 439.5 486.5 431.4 483.1 421.95 480.5 413.5 475.75 398.25 472.5 382.65 470.7 374.15 468.5 360.5 465.2 340.4 461.1 321.9 457.5 305.45 453 276.6 444.4 221.45 442.15 212.25 439.85 203 436.9 198.1 434.05 193.35 429.1 190.25 416.85 182.55 398.6 185.05 388.6 186.4 379.5 190.25 361.45 197.8 348.2 218 333.35 240.6 317.05 289.45 306.15 322.1 299.35 354.55 290.8 395.65 283.95 419.95 275.6 449.75 266 474.45 260.6 488.35 249.5 516.65
L 245.1 529.35
Q 239.95 544.7 236.2 557.75 225.3 595.45 222.25 617.45 217 655.5 225.5 686.5 235.55 723.2 265.75 757.25 281.45 774.9 301.4 790.2 307.3 794.75 324.2 807.35 340.75 820.6 354.7 836.15 355.85 837.45 365.6 849 369.95 854.2 374.9 858.2 385.05 866.3 397.4 872.2 421.1 883.45 440.15 879.3 452.8 876.55 463.55 866.55 470.8 859.8 479.75 846.75 489.65 832.3 492.45 829.25 499.1 822 505.4 823.3 508.55 823.9 510.85 826.65 512.5 828.6 515.8 834.4 525.6 851.85 536.6 865.55 545.95 877.15 549.45 880.8 554.75 886.35 559.6 888.5 574.9 895.35 597.05 886.6 609.45 881.7 628.5 869.2 648.6 856 656.1 849.45 671.4 836.1 678.7 819.65 683.56953125 808.6728515625 685.45 795.95 685.8044921875 797.13046875 686.5 797.5 688.25 798.4 692.1 795.55 694.25 794 699.25 789.3 701.65 787 704.4 783.5 707.5 779.45 710.9 775.95 717.45 769.15 721 765.8 726 761.05 734.15 754.35 738.1 751.1 745.25 740.2 754.6 726 762 708.65 783.55 658.1 779.5 603.5 778.9 595.75 776.15 582.95
M 685.9 759.7
Q 686.6583984375 766.184375 686.6 773.05 686.2818359375 766.0705078125 685.2 758.45 684.35 752.5 684.5 752.5 685.1 752.45 685.9 759.7 Z"/>
</g>

<g id="body_0_Layer0_0_MEMBER_1_FILL">
<path fill="#AA0F0F" stroke="none" d="
M 678.55 420.35
Q 675.1 417.55 673.35 416.15 670.25 413.65 668 412.05 659.2 405.55 657.1 404.2 653.45 401.7 651.55 400.45 648.25 398.2 645.85 396.8
L 633.7 390.75
Q 621 385.45 607.85 382.9 595.35 380.5 580.95 380.5 568.2 380.5 554.15 382.8 549.7 383.65 547.5 384.05 543.1 384.95 540.95 385.5 534.3 387.05 527.95 388.95 515.55 392.7 502.85 398.7 497.25 401.4 490.95 404.95 486.6150390625 407.4150390625 481.55 411.05
L 479.4 403.2
Q 476.5 392.55 474.35 382.15 472.65 373.55 470.6 360.85 468.35 346.8 466.95 339.35 466 334.1 464.85 328.65
L 462.55 318
Q 460.55 308.65 458.55 296.75 457 287.55 451.8 253.8 449.55 239.45 448.35 232.3 445.7 217.25 444.05 210.8 442.75 206.15 442.5 205.45 441.75 203.2 441.55 202.75
L 440.45 200.15
Q 437.75 194.25 433.45 190.7 428.95 187 423.4 185 418.3 183.1 412.25 182.45 402.05 181.5 389.95 184.5 377.9 187.55 369.35 193.05 360.5 198.6 352.75 208.05
L 346.2 217 340.55 226.5
Q 332 242 322.8 266.5
L 315.5 287.05
Q 311.6 298.75 308.85 307.85 302.75 327.75 298.05 350.15 296.55 357.25 293.6 371.45 291 383.85 288.85 392.6 284.05 412.4 277.45 434.4 271.15 455.45 263.3 475.35 260.65 482.1 255.25 495.55 250.5 507.5 247.45 515.9
L 247.4 516.1 247.2 516.55 240.45 536.6
Q 237.1 546.95 234 557.45 230.35 570.25 228.15 578.45 225.25 589.5 223.1 599.75 218.4 623.15 218.1 643.35 217.85 666.3 223.4 687.05 231.05 714.95 250.25 741.5 267.5 765.35 291.9 785.6 297.5 790.25 303.9 794.95 315.2 803.3 315.95 803.9 328.8 813.65 338.75 823.15 349.7 833.6 359.15 844.95
L 363.95 850.8
Q 366.85 854.2 369.25 856.5 374.25 861.2 381.5 865.95 395.25 875.1 409.05 879.5 417.15 882.05 424.3 882.65 432.25 883.4 440 881.85 447.8 880.3 454.75 876.15 461.3 872.3 467.05 866.55 471.9 861.75 477.05 854.8 479.35 851.75 485.75 842.35 491.5 833.95 494.55 830.7 497.2 827.8 499.75 826.55 502.35 825.2 505.25 825.9
L 505.9 826.1 507.1 826.7 507.65 827.1
Q 508.5 827.75 509.7 829.35 511.15 831.35 513.45 835.55 518.05 843.7 521.15 848.65 525.05 854.75 529.85 861.2 531.35 863.25 534.5 867.25
L 539.2 873.1
Q 545.6 881 549.4 884.7 552.9 888 555.8 889.7 557.7 890.8 559.55 891.55 560.8 892.1 563.4 892.9 570.95 895 579.4 894.1 583.4 893.65 587.2 892.75 590.8 891.9 594.7 890.55 607 886.2 622.15 876.8 624.05 875.6 634.85 868.55 642.5 863.55 647.4 860 661.6 849.65 670.05 839.15 680.2 826.5 684.65 811.8 686.582421875 805.6515625 687.6 799 688.35859375 798.9888671875 689.45 798.7 690.7 798.15 691.35 797.75 692.9 796.85 694.6 795.4 695.85 794.35 700.25 790.3 702.7 788 705.4 784.5 707.95 781.15 710.15 778.85 715.85 772.8 720.65 768.15 725.3 763.7 731.85 758.25
L 736.25 754.5 737.6 753.05
Q 740.15 750.15 742.4 747.05 750.65 735.8 758.05 721.05 771.65 693.9 777.6 663.8 783.55 633.65 781.3 603.35
L 781.3 603.45 781.3 603.35 781.25 602.45 780.5 596.6
Q 780.2 594.35 779.4 589.95 778.4 583.95 776.65 576.8 773.7 564.35 769.15 551.05 764.7 537.95 759.3 526.1 753.05 512.35 747.2 502.15 733.95 478.75 716.65 458.1 699.25 437.4 678.55 420.35
M 649.35 403.85
Q 651.15 405.05 654.8 407.55 656.55 408.7 665.55 415.3 667.75 416.85 670.8 419.35 672.55 420.7 675.95 423.5 696.4 440.3 713.55 460.7 730.65 481.05 743.65 504.15 749.8 514.8 755.65 527.75 760.95 539.25 765.5 552.3 769.85 564.9 773 577.7 774.75 585.25 775.75 590.6
L 777.65 603.45 777.65 603.6
Q 779.95 633.35 774.2 663.15 768.45 692.8 755.2 719.65 747.8 734.45 739.9 745.25 737.75 748.25 735.3 751.05
L 734.1 752.35
Q 733.35 753.1 732.8 753.5
L 729.9 755.95
Q 722.95 761.8 718.6 766.05 713.95 770.6 708.05 776.9 705.6 779.5 703.15 782.75 700.7 785.95 698.3 788.25 693.45 792.7 692.8 793.25 691.4 794.45 689.95 795.35
L 688.5 796.1
Q 688.2275390625 796.1908203125 688 796.25 688.9173828125 789.0720703125 688.8 781.35 688.75 774.5 687.65 766.1 687.15 761.9 686.15 758.65
L 685.45 756.35
Q 685.2150390625 754.79921875 684.95 753.55
L 684.7 752.6
Q 684.7 752.55 684.65 752.5 684.6 752.4 684.45 752.4
L 684.3 752.7 684.35 758.9
Q 684.3 761.4 684.6 766.4 685 774.05 684.55 781.25 683.7 796.55 679.3 810.1 678.1 813.75 676.75 816.9
L 675.25 820.2
Q 674.7 821.3 673.65 823.45 670.5 829.35 665.6 835.55 657.9 845.2 644 855.3 639 858.95 631.65 863.65 621.15 870.55 619.05 871.85 604.25 881.1 592.8 885.1 589.3 886.4 585.85 887.2 581.95 888.15 578.85 888.4 571.6 889.25 564.95 887.45 561.1 886.3 558.65 884.9 555.95 883.25 553.25 880.65 550.05 877.6 543.45 869.65
L 534.15 857.95
Q 529.65 852.05 525.6 845.8 522.3 840.75 518 833 514.85 827.65 513.85 826.3 512.35 824.25 510.85 823.1
L 509.85 822.35 508.8 821.8
Q 508.15 821.45 507.7 821.3
L 506.55 820.95
Q 504.25 820.35 501.85 820.65 501.3 820.7 499.55 821.15
L 497.45 822
Q 494.15 823.7 490.9 827.2 488.5 829.8 485.95 833.3 484.95 834.65 481.6 839.55 475.85 848.15 473.1 851.85 468.2 858.5 463.6 863.05 458.3 868.45 452.3 871.95 446.1 875.6 439 877.05 432.1 878.4 424.75 877.7 417.95 877.05 410.55 874.75 397.4 870.6 384.15 861.9 377 857.1 372.6 852.95 370.4 850.9 367.65 847.65 364.5 843.85 362.85 841.9 353 830.1 342 819.75 331.6 809.85 318.8 800.15 310.65 794.15 306.65 791.2 299.75 786.15 294.85 782.05 270.95 762.35 253.85 738.9 235.15 713.2 227.55 685.9 222.25 666.1 222.4 643.4 222.7 623.8 227.35 600.65 229.25 591.4 232.3 579.55 235.45 568.15 238.15 558.65 241.6 546.9 244.55 537.9
L 251.6 517.15 251.55 517.4
Q 254.55 509.15 259.3 497.15 264.7 483.7 267.35 476.95 275.15 457.15 281.65 435.7 287.9 415 293.1 393.6 295.3 384.85 297.9 372.35 300.85 358.15 302.35 351.05 306.95 329.45 313.1 309.1 316.15 299 319.7 288.5
L 326.95 268.05
Q 336 243.85 344.45 228.65
L 349.9 219.45 356.2 210.85
Q 363.45 202 371.7 196.8 379.6 191.7 391.05 188.75 402.3 185.95 411.85 186.85 417.4 187.4 421.85 189.15 426.85 190.95 430.6 194.1 434.1 197 436.45 202
L 437.4 204.35
Q 437.5 204.55 438.3 206.85 438.8 208.3 439.75 211.9 441.3 218.05 443.95 233.05
L 447.3 254.5
Q 453.1 291.2 454.15 297.5 455.95 308.25 458.2 318.95 462.2 337.4 462.75 340.15 464.6 349.85 466.55 361.5 468.6 373.75 470.55 382.95 472.85 393.45 475.8 404.2 477.65 410.6 479.1 414.6 480.6 418.75 483.2 424.75
L 489.3 439.15 489.4 439.3 489.35 439.15 489.5 439.5 487.65 434
Q 486.6255859375 430.71640625 484.95 424.15 483.2736328125 417.3970703125 482.3 413.9 486.1125 411.7958984375 492.7 408.05 499.4 404.3 504.4 401.95 516.85 396.1 529 392.5 534.5 390.8 541.8 389.1
L 548.25 387.7
Q 554.4 386.55 554.75 386.5 568.05 384.35 580.95 384.35 594.95 384.35 607.1 386.75 619.8 389.25 632.15 394.4
L 639.55 397.85 643.8 400.3
Q 646.15 401.65 649.35 403.85
M 684.6 753.15
L 684.55 752.7 684.85 753.55
Q 685.08203125 754.4974609375 685.3 755.8
L 685.05 755
Q 684.75 754.15 684.6 753.15 Z"/>
</g>

<g id="body_0_Layer0_1_MEMBER_0_FILL">
<path fill="#E86921" stroke="none" d="
M 330.65 274.35
Q 329.8 270.55 327.1 267.55 324.3 264.45 321.6 264.65 319.5 264.85 317.65 267.6 316.95 268.6 314.25 273.85 312.35 277.55 309.6 280.7 305.55 285.45 297.75 297.75 287.6 313.75 284.65 319.4 280.45 327.35 281.2 330.8 282.8 338.2 290.2 343.75 297.6 349.25 303.25 347.35 306.7 346.2 307.95 341.5 308.55 339.3 309.55 330.1 311.65 310.1 320.65 296.75 326.15 289.4 328.25 285.75 331.85 279.55 330.65 274.35 Z"/>
</g>

<g id="body_0_Layer0_2_MEMBER_0_FILL">
<path fill="#E86921" stroke="none" d="
M 299.85 619.8
Q 295.05 633.7 293.1 637.4 289.05 645.1 283.5 645.5 276.7 646 269.25 636.8 264.25 630.65 256.5 616.4 247.85 600.45 244.9 596.2 238.65 587.25 233.95 588.05 229.7 588.8 226.4 596.6 223.2 604.1 221.5 616.45 217.7 643.65 222.5 673.5 233.35 741.8 290.9 797.55 304.55 810.7 323.25 823.35 358.25 847.15 393.8 856.35 421.05 863.4 448.65 863.35 464.95 863.3 489.35 860.05 508.75 857.4 520.2 852.8 529.7 849 536.5 842.5 546.75 832.55 551.65 817.55 554.4 809 555.5 797.5 556.65 785.25 553.55 771.3 548.25 747.65 531.5 721.5 522.5 707.45 506.15 691.45 476.75 662.75 426.5 629.5 379.25 598.25 362.3 590.25 337.8 578.65 323.5 585.5 314.6 589.75 308.4 600.05 304.3 606.9 299.85 619.8 Z"/>
</g>

<g id="body_0_Layer0_2_MEMBER_1_FILL">
<path fill="#A83800" stroke="none" d="
M 233.75 586.95
Q 231.55 587.35 229.65 589.25 228.5 590.3 227 592.7 225.1 595.95 223.65 600.4 221.5 607.15 220.1 616.5 217.95 631.65 218.5 649.25 218.85 658.1 219.65 665.6 219.8 667.05 220.65 673.75
L 222.9 685.9
Q 223.15 687.25 223.85 689.9
L 229.55 709.65 231 713.5
Q 236.2 727.75 244.9 743.3
L 253.4 757.4 263 770.8
Q 272.7 783.4 284.75 795.45
L 290.65 801.2
Q 293.85 804.25 296.8 806.7 301.85 811.1 309.65 817 323 827.1 337 835.25 350.75 843.3 366.45 849.85
L 370.3 851.4
Q 373.2 852.55 374.15 852.85
L 381.95 855.55
Q 384.55 856.4 389.85 857.9 391.15 858.25 393.8 859
L 397.8 859.95
Q 414.75 863.9 430.35 865.05 447.15 866.35 463.2 865.1 471.05 864.6 479.55 863.5 488.2 862.45 495.75 861.2 505.25 859.6 511.9 857.75 517.2 856.15 519.8 855.1 520.2 854.95 523.65 853.5
L 527.4 851.55
Q 531.1 849.5 534.45 846.85
L 537.6 844
Q 538.1 843.5 540.5 841 546.05 834.8 549.75 827 553.3 819.4 555.1 811.25 556.8 803.3 557.25 794.85 557.7 787.55 556.35 778.3 555.05 770 552.6 762.3
L 546.75 746.9
Q 543.85 740.75 543.2 739.5
L 537.3 728.75
Q 537.05 728.3 535.2 725.25 531.85 719.85 530.8 718.3 526.55 712.15 520.75 705.35 511 694.2 497.7 682.2 493.65 678.55 485.35 671.55
L 459.55 651.55 446.3 642.1
Q 441.85 638.95 439.6 637.45
L 432.8 632.9
Q 428.35 629.85 419.25 623.85 402.1 612.6 391.9 606.2 374.75 595.45 363.55 590.05 355.45 586.15 348.3 584.05 339.05 581.4 331.95 582.3 323.75 583.25 316.9 588.9 311.15 593.55 306.65 601.75 303.45 607.55 300.1 616.75 298.25 621.9 294.6 632.05 292.8 636.55 291.05 639.2 288.35 643.15 285.5 644.15 282.1 645.4 278.3 643.55 275.25 642.05 272.15 638.75 267.9 634.15 262.85 625.7 260.4 621.55 255 611.5 249.55 601.4 246.85 597.25 244.45 593.4 241.8 590.65 240.15 588.9 238.4 587.9 237.45 587.35 236.2 587.05 234.9 586.75 233.75 586.95
M 234.15 589.2
Q 236.8 588.7 240.2 592.2 242.65 594.7 245.05 598.45 247.7 602.5 253.15 612.45 258.7 622.55 261.15 626.7 266.5 635.4 270.8 640 274.35 643.65 277.5 645.15 281.95 647.3 286.1 645.75 286.35 645.7 288.1 644.8
L 288.95 644.1
Q 289.55 643.7 289.8 643.4 290.8 642.4 291.2 641.8
L 292.45 640.1
Q 294.35 637.15 296.1 632.65 297.3 629.6 298.9 624.95 301.25 617.9 301.5 617.25 304.6 608.45 307.85 602.4 312.3 594.35 317.75 589.95 324.15 584.65 332.1 583.65 338.95 582.8 347.95 585.35 354.75 587.35 362.95 591.3 373.5 596.4 391.15 607.35 399.8 612.75 418.5 625.05
L 432.05 634.1
Q 439.65 639.15 445.4 643.35
L 465.1 657.75 484.15 672.95
Q 494 681.5 496.35 683.65 509.65 695.8 519.05 706.8 524.6 713.3 528.85 719.6 530.35 721.85 533.15 726.45
L 540.9 740.65
Q 541.95 742.7 544.3 748
L 549.9 763.1
Q 552.2 770.8 553.35 778.75 554.6 787.45 554.1 794.7 553.45 803.45 551.8 810.5 550 818.35 546.55 825.45 542.9 832.85 537.75 838.5 536.8 839.4 535 841.3
L 532.05 843.85
Q 528.95 846.3 525.5 848.15
L 522 849.9
Q 518.7 851.25 518.35 851.4 515.45 852.5 510.8 853.8 504.2 855.6 495.05 857.05 489.55 857.9 479 859.15 470.05 860.15 462.9 860.55 447 861.6 430.75 860.15 415.3 858.85 399 854.95
L 395.1 854
Q 393.6 853.65 391.25 852.9 384.7 851 383.55 850.65
L 375.95 847.95
Q 375.35 847.75 372.2 846.5
L 368.5 845
Q 353.5 838.7 339.7 830.55 325.7 822.25 313 812.6 305.55 806.85 300.5 802.45 297.8 800.15 294.5 797.1
L 288.75 791.5
Q 277.35 780.15 267.35 767.45 257.35 754.75 249.25 740.8 240.25 725.2 235.2 711.9
L 229.85 696.7 225.9 681.1 224.3 673.2
Q 223.6 669.15 223.1 665.2 222.1 657.45 221.7 649.1 220.9 631.9 222.8 616.85 224 607.7 226 601.15 227.4 596.75 229.05 593.9 230.3 591.8 231.25 590.9 232.65 589.5 234.15 589.2 Z"/>
</g>

<g id="body_0_Layer0_3_MEMBER_0_FILL">
<path fill="#E86921" stroke="none" d="
M 349.2 255.5
Q 345.3 257.55 347.35 273.85 348.8 285.2 352.9 296.4 355.4 303.3 362.05 319.8 365.25 328.3 370.15 344.65 372.45 352.45 376.75 358.4 383.05 367.15 387.7 371.4 396 378.9 404.3 378.6 415.45 378.2 424.55 366.55 433.65 354.95 431.85 343.7 430.85 337.4 425.45 332.9 422.5 330.45 413.15 325.35 403.9 320.3 398.75 315.95 390.75 309.2 385.95 299.6 385.9 299.55 380.25 285.4 376.9 277.05 371.25 270.2 365.7 263.45 359.8 259.05 352.6 253.65 349.2 255.5 Z"/>
</g>

<g id="body_0_Layer0_4_MEMBER_0_FILL">
<path fill="#DDE8EC" stroke="none" d="
M 415.35 229.75
Q 413 222.55 410.45 218.45 405.7 210.75 398.8 209.55 392.95 208.55 387 212.15 381.7 215.35 378.6 220.55 373.95 228.3 376.4 238.45 378.4 246.9 384.1 253.65 389.2 259.7 396 263.15 404.15 267.3 409.8 264.65 416.55 261.45 417.6 249.65 418.5 239.6 415.35 229.75 Z"/>
</g>

<g id="body_0_Layer0_5_FILL">
<path fill="#474747" stroke="none" d="
M 403.3 229.1
Q 400.5 221.45 395.1 220.55 392 220.05 388.7 222.5 385.75 224.65 384.1 227.9 381.3 233.35 382.95 239.9 384.7 246.55 389.6 248.15 392.95 249.25 396.8 247.45 400.4 245.8 402.45 242.6 406.15 236.9 403.3 229.1 Z"/>
</g>

<g id="body_0_Layer0_6_FILL">
<path fill="#373839" stroke="none" d="
M 468.65 246.3
Q 465.35 244.25 458.55 247.05 445.1 252.55 441.05 253.65 431.35 256.35 421.05 256.6 413.55 256.8 413.5 257.3 413.35 259.05 427.95 260.85 441.3 262.45 455.75 262.85 463.25 263 466.6 262.4 470.85 261.65 472.3 259.15 473.9 256.35 472.8 252.3 471.65 248.15 468.65 246.3 Z"/>
</g>

<g id="body_0_Layer0_7_FILL">
<path fill="#010100" stroke="none" d="
M 406.15 216.9
Q 406.5 217 407.65 215.35 409.2 213.2 414.4 204.95 416.35 201.9 416.85 200.8 417.55 199.25 417.15 198.5 416.4 197.05 413.35 197 410.3 197 408 198.5 403.75 201.35 403.75 209.05 403.75 216.3 406.15 216.9 Z"/>
</g>

<g id="body_0_Layer0_8_FILL">
<path fill="#010100" stroke="none" d="
M 461.3 205.85
Q 457.4 204.65 451.45 208.9 441.7 216.65 432.8 223.3 421.1 231.7 418.15 233.8 414 236.8 414.4 238 415.25 240.45 424.5 239.5 433.6 238.6 442.9 235.25 451.4 232.25 457.5 228.7 469.05 221.9 468.65 215.05 468.45 212.1 466.35 209.45 464.2 206.75 461.3 205.85 Z"/>
</g>

<g id="body_0_Layer0_9_FILL">
<path fill="#D63838" stroke="none" d="
M 330.5 276.15
Q 329.55 276.6 327.75 277.75 320.6 282.6 319 292.55 318.35 296.6 319.05 299.7 319.75 302.85 321.55 303.5 322.6 303.95 324.15 303.35 325 303.05 326.6 302.15 334 297.85 335.75 287.3 336.45 283.05 335.8 279.8 335.1 276.45 333.3 275.8 332.2 275.4 330.5 276.15 Z"/>
</g>

<g id="body_0_Layer0_10_FILL">
<path fill="#D63838" stroke="none" d="
M 339.35 280
Q 338.5 280.8 337.25 282.65 332.05 290.35 334.55 302.05 335.6 306.8 337.6 310.05 339.6 313.3 341.7 313.5 342.9 313.6 344.25 312.45 345 311.85 346.2 310.35 351.85 303.15 349.25 290.75 348.2 285.8 346.15 282.35 344.05 278.85 342 278.7 340.7 278.6 339.35 280 Z"/>
</g>

<g id="body_0_Layer0_11_MEMBER_0_FILL">
<path fill="#D68525" stroke="none" d="
M 358.35 237.1
Q 357.05 231.1 355.5 227.7 352.8 221.95 348.25 219.65 342.1 216.5 332.75 220.2 327.3 222.3 317.05 228.85 299.7 239.85 287.65 258.25 302 258.95 314.25 264.65 323.15 268.75 332.7 277.5 336.45 280.9 338.2 281.95 340.9 283.5 343.65 283.05 352.1 281.6 356.9 266.6 361.65 251.6 358.35 237.1 Z"/>
</g>

<g id="body_0_Layer0_12_FILL">
<path fill="#CC7211" stroke="none" d="
M 354.9 263.3
Q 354.7 257.4 351.5 253.5 348.3 249.6 341.45 248.95 336.65 248.45 323.5 249.5 311.85 250.4 301.95 252.45 290.85 254.8 291 257 291.05 257.8 293.25 258.15 294.7 258.35 299.3 258.75 310.05 259.95 318.5 264.5 323.25 267.05 333.05 275.45 339.4 280.9 344 280 346.85 279.4 349.35 277.15 350.55 276 352 274 355.15 269.4 354.9 263.3 Z"/>
</g>

<g id="tail_0_Layer0_0_MEMBER_0_FILL">
<path fill="#D33333" stroke="none" d="
M 671.85 247.3
Q 668.55 241.25 664.45 240.65 658.75 239.85 650.85 251.3 644.1 262.8 643.65 262.5 646.45 257.2 649.15 251.45 654.6 239.95 651.85 236.3 650.15 234.05 645.4 234.55 641.55 234.9 637.3 236.75 627 241.2 619 254.45 616.85 257.95 614.45 262.9 612.75 266.4 612.55 266.3 612.5 266.3 613.05 263.75 613.75 260.6 613.2 257.75 612.85 255.95 612.5 255.15 612 253.75 611.2 253.5 609.1 252.85 605.05 258.45 601.35 263.6 598.35 270.55 597.754296875 271.93359375 597.2 273.3 599.4447265625 263.28125 597.25 261.85 595.2 260.45 589.85 264.85 587.3 266.9 584.2 270.2 578.05 276.75 573.1 287.1 571.05 291.5 570.35 292.9 569.2 295.05 568.45 294.85 567.5 294.6 567.45 287.85 567.35 280.95 565.65 280.35 563.8 279.65 560.5 283.65 557.45 287.35 555.15 292.6 551.05 302.05 551.5 314.5 551.75 320.65 552.35 324.95 551.3 319.3 550.15 313.4 547.85 301.65 544.8 301.25 542.9 301 540.35 304.45 537.75 307.9 535.45 313.8 529.95 328 530.6 342.85 531.25 356.6 537.25 369.15 544 383.35 555.35 390.75 561.4 394.75 567.6 395.7 571.65 396.3 579.15 395.75 587.8 395.1 592.45 395.4 600.95 395.9 609.95 399.05 618.3 401.95 625.15 406.5 628.45 408.7 635.4 414.35 640.9 418.85 644.65 420.7 650.15 423.45 657.1 423.8 663.95 424.05 671.65 422 686.95 417.95 695.95 406.55 703.85 396.5 706.35 382.55 707.3 377.1 707.05 373.05 706.75 369.2 705.5 368.6 703.4 367.7 697.2 376.7 691.35 385.9 691.2 385.75
L 693.2 382.6
Q 695.65 378.85 697 376.15 703.25 363.95 702.3 348.15 701.95 342.05 700.5 337.65 699.2 333.4 697.65 333.05 696.3 332.7 692.3 343.1 688.3 353.45 687.8 353.3 687.6 353.25 689.55 341.95 692.1 327.3 691.9 314.2 691.8 306.8 691.05 300.95 690.15 294.55 688.95 294.5 687.95 294.45 686.45 299.85 685 305.15 684.95 305.15 685.35 303.05 685.9 299.85 687.05 293.25 686.5 287.55 685.85 281 683.7 275.55 681.4 269.65 678.9 269.6 676.9560546875 269.6 674.85 273.5 676.7501953125 265.6673828125 675.65 258.7 674.7 252.5 671.85 247.3 Z"/>
</g>

<g id="tail_0_Layer0_0_MEMBER_1_FILL">
<path fill="#AA0F0F" stroke="none" d="
M 652.65 234.95
Q 652.5 234.8 651.75 234.15 650.25 233.15 647.65 232.95 645.8 232.9 643.8 233.2 640.6 233.8 636.75 235.4 630.6 238.2 625.2 244.2 621.15 248.7 617.1 256 615.890625 258.1947265625 614.25 261.55 614.4 260.7001953125 614.4 260 614.45 258.4 614.1 256.3 613.95 255.25 613.55 254.35 613.15 253.6 613 253.35 612.35 252.6 611.8 252.4 611.1 252.05 610.25 252.25 609.9 252.3 609.05 252.65 608.2 253.1 607.4 253.9 605.2 255.95 602.9 259.7 601.3 262.35 599.5 266 599.4033203125 266.204296875 599.3 266.4 599.4923828125 264.120703125 599.1 262.6
L 598.85 262 598.5 261.45
Q 598.4 261.25 597.95 260.9
L 597.35 260.55
Q 596.2 260.05 594.85 260.45 593.35 260.75 591.25 262.05 588.4 263.9 585.55 266.65 580.45 271.5 576.55 277.85 574 282 570.05 290.55 569.4322265625 291.9400390625 568.85 292.9
L 568.85 292.8
Q 568.7 291.6 568.7 289.45 568.7 286.55 568.65 285.9 568.55 283.7 568.2 282.15 567.9 280.85 567.25 280.05 566.85 279.45 565.95 279.1 565.2 278.9 564.45 279.05 563.5 279.25 562.4 280.05 561.5 280.7 560.9 281.3 559.55 282.65 558.5 284.15 554.25 290.05 552.1 297.15 551 301.15 550.65 304.25 550.35703125 306.9291015625 550.55 310.1 549.818359375 305.86875 548.8 303.25 548.35 302.2 547.8 301.45 546.85 300.15 545.75 299.75 545.05 299.45 544.1 299.55
L 543.35 299.7 542.75 299.95 541.7 300.55 540.85 301.25
Q 538.75 303.2 536.4 307.4 534.7 310.8 533.55 314.1 531.25 320.3 530.05 328.05 528.95 335.6 529.35 342.35 530.1 356.65 536.65 369.85 540.2 376.8 544.4 381.75 549.1 387.35 555 391.25
L 558.1 393.1
Q 558.45 393.25 561.35 394.6
L 564.75 395.75 566.5 396.1
Q 567.4 396.35 568.3 396.4 571.35 396.8 575.45 396.65 576.1 396.6 582.5 396.2 590.35 395.7 596.4 396.55 602.35 397.35 609.9 399.9 616.7 402.4 622.45 405.85 627.05 408.65 633.65 414.15 636.7 416.7 639.2 418.6 642.9 421.1 645.5 422.2 651.7 425 659.7 424.9 666.75 424.7 673.85 422.6 680.95 420.45 686.9 416.55 692.6 412.85 697.5 406.7 701.8 401.25 704.65 394.15 707.5 387.05 708.3 380.2 708.8 376.05 708.5 372.85 708.35 370.55 707.55 368.9
L 707.2 368.35 706.7 367.75 705.8 367.3
Q 705.25 367.15 704.85 367.2 703.9 367.35 702.6 368.3 701.980078125 368.8580078125 701.15 369.8 701.72109375 368.3142578125 702.2 366.75 704.35 359.85 704.5 352.4 704.6 348.6 704.15 345.15 703.7 341.4 702.6 337.9 702.1 336.2 701.1 334.35 700.4 333.15 699.8 332.55
L 699.3 332.05
Q 698.7 331.7 698.55 331.65
L 698.1 331.45
Q 697.75 331.3 697.2 331.4 696.8 331.5 696.05 331.95
L 695.2 332.95 692.6 338.95 690.4 345.65
Q 689.6365234375 347.870703125 689.05 349.45
L 689.6 347.7
Q 689.8 346.8 691 340.75 693.8 325.55 693.3 312.45 693.25 310.05 692.85 305.35 692.55 301.8 691.8 298.25
L 691.35 296.45
Q 690.95 295.25 690.6 294.55
L 690.15 294
Q 689.9 293.75 689.8 293.7
L 689.2 293.45 688.45 293.5 688 293.8
Q 687.677734375 294.076171875 687.5 294.3 687.56875 293.755078125 687.6 293.2 688.05 286.05 686.05 278.9 684.9 274.75 683.3 272.15 682 270 680.65 269.2 679.4 268.4 678.25 268.85 677.4580078125 269.036328125 676.55 269.85 676.978125 268.3533203125 677.2 267 677.75 263.7 677.5 259.65 677.2 256.05 676.2 252.35 675 248.35 673.3 245.45 671 241.4 667.7 239.6 665.3 238.4 663.2 238.65 661.2 238.85 659.15 240.15 656.55 241.85 653.8 245.55 652.15 247.9 649.95 251.6
L 646.5 257.75
Q 645.15 260.05 644.7 260.8 644.2951171875 261.4748046875 644 261.85
L 644.3 261.2
Q 645.1 259.8 647.85 255.15 650.1 251.35 651.3 248.9 653.2 245 653.85 242.05 654.35 239.75 654.1 238.1 653.95 237.05 653.4 235.95 653.05 235.35 652.65 234.95
M 650.05 236.65
Q 650.45 236.9 650.5 237
L 650.85 237.4
Q 651.2 238 651.25 238.55 651.55 239.9 651.3 241.6 650.9 244.35 649.6 248.2 648.05 252.7 643.9 261
L 643.4 262.3
Q 643.35 262.35 643.45 262.55 643.55 262.75 643.75 262.7
L 644.05 262.5
Q 644.45 262 645.05 261
L 646.9 258
Q 648.9 254.8 650.9 252.25 653.3 249.2 655.6 247.1 658.55 244.35 660.85 243.25 662.3 242.6 663.45 242.6 663.85 242.6 664.55 242.8 664.85 242.85 665.65 243.3 667.6 244.5 669.55 247.65 672.9 253.3 674.15 260.05 674.65 263.2 674.65 266.8 674.746875 270.431640625 674.25 273.5 673.74609375 274.64765625 673.1 276.5 672.1 279.5 671.1 283.25
L 670.6 284.95 670.6 285.05 670.7 284.85 671.2 283.3
Q 672.224609375 279.93359375 673.65 276.9 673.2484375 278.744140625 672.6 280.5 672.2283203125 281.547265625 671.75 282.65
L 672.7 280.55
Q 674.4 276.55 675.3 273.95 675.3732421875 273.8236328125 675.45 273.7 676.6 271.9 677.5 271.15 678.1 270.65 678.65 270.55 679.05 270.5 679.6 270.8 680.3 271.3 681.45 273.2 682.75 275.8 683.8 279.55 685.85 287.05 685.65 293.1 685.55 296.8 685 300 684.85 301.15 684.35 303.45
L 684.15 304.3 684.1 304.85
Q 684.15 304.95 684.05 305.05 684 305.2 684.5 305.85 685.75 305.8 685.8 305.55 685.85 305.4 685.85 305.3
L 686.4 303.5
Q 688 298.05 688.45 296.9 688.6705078125 296.3484375 688.85 296 689.2419921875 297.0359375 689.45 298.7 690.3 304.4 690.45 312.5 690.75 326.2 688.6 340.35 688.3 342.65 687.5 347.25
L 687.05 352.65 687.1 353.25
Q 687.25 353.7 687.65 353.85 688 353.9 688.2 353.8 688.3 353.75 688.4 353.65 688.8 353.25 689.05 352.75 690.2 350.6 692 346.3 693.15 343.5 694.9 339.9
L 697.3 335.4 697.5 335.1
Q 697.7544921875 335.51328125 697.9 335.95 698.55 337.35 698.9 339 700.3 345 700.3 352.4 700.3 359.6 699.1 365.95 697.7 372.85 694.5 378.85 692.45 383.05 691.2 385.05
L 690.95 385.45
Q 690.5 385.1 691 385.75 691.4 386.25 691.55 386
L 691.65 385.9 691.65 385.85 693.5 383.1
Q 693.695703125 382.8607421875 693.9 382.6 695.4 380.75 696.05 379.75 696.76015625 378.72109375 697.4 377.6 698.438671875 376.3041015625 699.45 375.1 700.35 373.95 701.7 372.5 703.2 370.95 704.15 370.3 704.6119140625 369.9611328125 704.85 369.85
L 704.9 369.95 705 370.15
Q 705.3 370.9 705.5 373.05 705.55 376.25 705.1 379.8 704.1 386.8 701.75 393 699.2 399.85 695.35 405.05 691.1 410.7 685.5 414.45 680.05 418.25 673.15 420.35 666.45 422.4 659.6 422.7 652.2 422.85 646.3 420.3 644.2 419.45 640.4 416.95 638.4 415.55 634.85 412.65 628.2 407.2 623.35 404.3 617.2 400.7 610.45 398.35 602.7 395.75 596.6 395 590.35 394.2 582.4 394.8 575.75 395.3 575.4 395.3 571.4 395.5 568.45 395.15 562.25 394.55 555.65 390.3 544.45 382.85 538.15 369.1 532.2 356.1 531.9 342.25 531.7 335.75 533.05 328.55 534.2 321.95 536.7 315.25 538.25 311.4 539.55 309.05 541.45 305.55 543.25 303.8 543.9 303.1 544.6 302.9 544.85 302.9 545.25 303.4
L 546.1 304.6
Q 547.35 306.8 548.55 310.85
L 550.4 317.65
Q 550.95 319.9 551.95 324.55
L 552.15 325
Q 552.3 325.2 552.55 324.85
L 552.55 324.6 552 318.45
Q 551.85 315.4 552.3 311.45 552.7 307.7 553.25 304.6 554.05 300.1 554.7 297.9 556.45 291.5 560.55 285.65 561.8 284.1 562.7 283.15
L 563.9 282.1
Q 564.55 281.65 564.95 281.55
L 565.2 281.55 565.3 281.65
Q 565.6 281.95 565.75 282.75 566 283.7 566.1 286 566.15 286.95 566.2 289.5 566.2 291.75 566.35 293.15
L 566.55 294.15
Q 566.75 294.95 567.15 295.45
L 567.6 295.8 568.2 296.1
Q 568.9 296.25 569.5 295.9 569.95 295.7 570.55 294.95 571.15 294.1 572.4 291.65 576.25 283.5 578.95 279.35 582.6 273.65 587.65 268.8 590.8 265.75 592.75 264.35 594.4 263.15 595.45 262.85 596.2 262.7 596.45 262.75
L 596.65 262.9 596.8 263.05 596.9 263.3
Q 597.25 264.3 597.25 266.4
L 596.95 269.8
Q 596.75859375 271.4837890625 596.1 274.6 595.3888671875 276.8666015625 594.7 279.35
L 593.4 284.75
Q 593.1 285.5 593.95 285.35 595.3 285.15 594.5 285.05
L 594.9 283.75
Q 596.05 280.4 597 277 597.56875 275.144140625 598.05 273 599.41328125 269.8509765625 601.1 266.8 602.8 263.6 604.7 260.85 607.4 257.15 609 255.7 609.65 255.1 610.2 254.85 610.45 254.7 610.65 254.7 610.85 254.65 610.8 254.7
L 611 254.85 611.25 255.35 611.75 256.8
Q 612.35 259.05 612.45 260.05 612.6 261.55 612.35 263.4
L 611.8 266.05
Q 611.85 266.1 611.8 266.4 611.85 266.7 612.35 267 613.2 267.05 613.3 266.65
L 613.6 266.2
Q 614.25 265.1 615.25 263 617.2 259.1 618.55 256.85 622.35 250.35 626.85 245.8 632.05 240.4 637.9 238.1 641.3 236.7 644.3 236.2 646.15 235.95 647.45 235.95 649.1 236.05 650.05 236.65
M 594.5 284.95
L 594.5 284.75 594.55 284.55
Q 594.607421875 284.6736328125 594.5 284.95 Z"/>
</g>

<g id="wing_0_Layer0_0_MEMBER_0_FILL">
<path fill="#DD3A3A" stroke="none" d="
M 259.7 43.65
Q 257.1 37.2 248.2 33.5 240.85 30.5 227.2 28.7 223.4 28.2 200.45 26 182.8 24.3 171.6 22.15 129.15 14.05 89.45 -14.4
L 16.9 44.25
Q 18.95 62.4 24.4 79.8 32.3 104.9 46.65 126.6 62 149.75 82.5 166.55 99.7 180.75 120.05 190.15 132.05 195.75 150.1 201.4 173.8 208.8 188.15 210.55 212.05 213.45 230.85 205.8 235.9 203.7 240.45 200.85 246.15 197.2 245.65 195.3 245.4 194.4 242.65 193.85 237.3 193.05 232.05 192.2 219.295703125 190.1572265625 218.6 189.6 219.128515625 189.605859375 222.5 190.35 227.65 191.55 232.25 192 247.9 193.55 257.75 187.4 267.7 181.25 272.3 168.4 274.15 163.1 274.2 158.75 274.25 154.4 272.4 152.8 270.9 151.55 266.9 152.75 262.6 154.25 258.85 155.4 272.05 149.95 277.4 139.2 281.8 130.35 279.15 119.2 276.55 108.05 269.15 103.95 265.15 101.75 259.15 102.4 255.1 102.85 244.5 105.6 268.75 94.35 269.6 82.05 269.95 77.25 267.15 72.5 264.3 67.65 260.35 66.5 258.7 66 256.15 67.2 250.6 69.85 245.45 71.6 245.1 71.7 244.75 71.85 259.55 62.75 260.75 51.85 261.15 47.3 259.7 43.65 Z"/>
</g>

<g id="wing_0_Layer0_0_MEMBER_1_FILL">
<path fill="#AA0F0F" stroke="none" d="
M 717.95 540.85
Q 718.1 535.35 715.6 530.75 713.25 526.35 708.65 523.2 705 520.75 700.4 519.15 697.15 518 692.15 516.9 685.15 515.45 675.95 514.65 668.8 514.05 660 513.55 638.25 512.3 628.6 511.1 613.65 509.3 597.95 504.45 589.6 501.8 583.15 499.05 574.9 495.55 568.8 492.45 555.15 485.55 541.7 476.15
L 541.25 476.8
Q 569.05 496.9 596.9 507.55 605.4 510.7 612.05 512.65 619.8 514.9 627.65 516.55 639.25 519 659.25 521.55 672.7 523.3 674.9 523.6 683.7 524.9 690 526.4 693.45 527.15 697 528.55 700.5 529.8 702.9 531.5 705.4 533.25 706.55 535.55 707.7 537.75 707.8 540.8 707.9 543.6 706.85 546.45 705.65 549.5 703.65 552.2 699.5 557.85 692.8 562.4 690.4712890625 564.051171875 687.35 565.85 685.071875 567.054296875 683.65 567.75 681.5 568.85 680.05 569.35
L 677.8 570.2
Q 677.5 570.5 677.4 570.8 677.25 571.2 677.6 571.55 678.6 572 678.3 571.75
L 679.65 571.5
Q 686.25 570.2 695.05 566.45 698.7287109375 564.788671875 701.75 563.05 704.318359375 562.382421875 706.9 561.5
L 710.8 560.1 711 560.1 711.15 560.15 711.3 560.25 711.55 560.3 712.1 560.6
Q 714.4 561.9 716.1 564.85 717 566.35 717.5 567.75 717.9 568.75 718.3 570.85 718.45 572.5 718.25 573.85
L 717.95 575.35 717.4 576.8
Q 716.1 579.75 713.5 582.55 711.45 584.85 708 587.7 705.5892578125 589.5888671875 702.95 591.3 701.6125 591.7861328125 700.05 592.35
L 692.5 595.2
Q 686.7 597.5 677.75 601.65
L 671.9 604.5 671.65 604.6
Q 671.5 604.65 671.35 604.95 671.1 605.25 671.15 605.45 671.15 605.9 671.8 606.05 672.25 606.1 672.25 606
L 672.35 606 672.6 605.9 673.1 605.8 680.7 603.35
Q 684.8416015625 602.0046875 688.8 600.6 691.2951171875 600.0283203125 693.75 599.6
L 701.55 598.4
Q 706.75 597.7 709.2 597.55 710.45 597.45 712.75 597.45 714.7 597.55 715.8 597.85 717.2 598.25 718.25 598.8
L 718.8 599.1 719.3 599.55
Q 720.1 600.1 720.3 600.4 724.3 604.1 726 611.35 726.7 615.1 726.7 617.95 726.7 620.7 725.9 624.35
L 724.85 627.3
Q 724.5 628.25 723.4 630.15 721.6 633.05 719.25 635.25 717 637.6 713.85 639.55 711.25 641.3 707.5 642.95 700.8 645.9 693.2 647.25 690.15 647.85 685.65 648.3 683.5 648.65 681.85 649.15 680.55 649.55 679.9 649.85
L 678.45 650.45 678.4 650.45
Q 678.1962890625 650.4849609375 678 650.5 678 650.55 677.9 650.65
L 678 650.85 678.2 651.15 678.65 651.6 679.65 652.3
Q 680.45 652.8 681.65 653.25 683.45 654 685.8 654.15 689 654.35 694.05 654.05 703.1 653.4 710.55 651 716.46796875 649.146484375 721.2 646.2 721.6716796875 646.1328125 722.05 646.1 722.45 646.1 722.5 646.2 722.35 646.1 722.4 646.25 722.8 646.9 722.85 648.2 723 650.8 722.05 654.4 720.3 660.95 716.35 666.6 714.5 669.4 712.1 671.75 709.75 674.1 707.05 675.85 704.45 677.45 701.05 678.65 697.85 679.75 694.35 680.3 689.7345703125 681.0046875 684.5 680.75
L 676.35 679.8
Q 676.1734375 679.784765625 676 679.75 674.62109375 679.5279296875 672.85 679.2
L 671.1 678.85 670.8 678.85
Q 670.75 678.85 670.6 678.8 670.35 678.8 669.45 679.35 668.85 681.15 669.45 681.7 669.75 681.95 669.9 681.95
L 670.2 682.1 672 682.6
Q 672.3 682.65 675.65 683.65 677.15 684.15 679.3 684.6
L 694.65 687.15
Q 694.4830078125 687.321875 694.3 687.45 693.1 688.5 691.6 689.45 689.1 691.15 685.35 692.95
L 677 696.25 671.8 697.65
Q 669.45 698.15 668.3 698.4
L 657.55 699.65 650.3 699.7
Q 643.8 699.5 635.8 698.25 628.25 697 621.45 695.2 615.1 693.6 607.25 691.2 595.15 687.35 593.15 686.65 578.05 681.55 566.1 675.25 553.9 669 541.35 659.6 530 650.95 519.55 639.95 498.75 617.6 486.65 591.5 484.15 585.9 483.7 584.75
L 481 577.9
Q 480.25 576 478.5 570.95
L 477.4 567.45
Q 476.6 565.1 476.3 563.9 474.6 558.3 472.5 549.65 469.2 536.2 468.95 535.15 468.6 547.15 472.95 564.85 476.45 578.8 482.85 593.2 495.4 621.25 515.9 643.35 536.4 665.6 563.75 679.8 576.25 686.35 591.5 691.55 597.85 693.7 605.75 696.1 613.45 698.55 620.2 700.2 627.2 702 635 703.25 642.7 704.5 650.15 704.7
L 657.8 704.55 667.3 703.55 678.5 700.85 687.45 697.25
Q 691.55 695.2 694.2 693.45 696.05 692.3 697.45 691 698.55 690 699.05 689.25 699.45 688.8 699.85 687.9 700.25 686.65 699.9 685.45 699.8751953125 685.36953125 699.85 685.3 705.805078125 684.4541015625 710.5 682 714.2 680.1 717.35 677.15 720.25 674.4 722.65 670.9 724.8 667.8 726.5 663.8 728.2 659.9 729 656.05 730 651.25 729.55 647.5 729.05 644.4 727.65 642.45 727.4 642.05 727.1 641.8
L 727.05 641.75
Q 733.8390625 635.5494140625 736.25 627.25 738.7 618.45 736.45 608.85 735.25 604.15 733.1 600.2 730.65 595.65 726.8 592.65 726.05 592 724.6 591.15
L 722.2 589.95
Q 719.75 589 717.05 588.75 715.736328125 588.6501953125 714.25 588.7 715.81015625 587.6375 717.25 586.4 721 583.15 722.95 579.6
L 723.95 577.4
Q 724.45 575.9 724.6 575.05 725.15 572.6 724.9 570.15 724.35 565.3 721.85 561.3 718.9 556.65 714.55 554.9 713.50234375 554.55078125 712.7 554.4 714.2837890625 552.4724609375 715.35 550.5 716.45 548.55 717.25 545.85 717.95 543.05 717.95 540.85 Z"/>
</g>

<g id="cap_0_Layer0_0_MEMBER_0_FILL">
<path fill="#E87134" stroke="none" d="
M 403.05 97.15
Q 395.85 84.55 388.5 76.2 374.9 60.8 357.05 53.1 338.1 44.9 318.3 44.45 296.7 43.95 290.9 54 287.9 59.25 289.4 66.9 290.9 74.2 295.5 79.3 299.8 84 308.7 85.4 321.1 87.4 327 90 339.6 95.6 348.55 106.6 356.95 116.9 354.4 121.25 353.25 123.2 348.8 122.35 348.2 122.2 338.15 119.4 319.95 114.25 306.4 117.7 296 120.4 286.3 127.7 277.55 134.3 271 143.35 264.8 151.95 262.5 159.95 260.15 168.2 262.75 172.85 265.05 177.1 271.5 178.95 277.55 180.65 283.25 179.35 288.45 178.2 293.5 172.85 300.5 165.5 306.4 161.85 313.95 157.15 322.85 154.8 328.05 153.4 334.6 152.75 344.1 151.7 353.15 153.05 361.35 154.3 361.35 155.9 361.35 156.45 353.7 157.5 343.65 158.85 335.85 162.45 324.4 167.75 316.4 176.45 307.2 186.5 309.3 194.8 310.3 198.9 313.75 202.2 317.4 205.7 321.8 206.3 329.65 207.45 341.45 196.1 347.8 190 349.45 188.8 353.45 185.75 356 186.9 358.2 187.85 359.4 193.45 360.6 198.95 363.15 199.95 365.7 201 370.7 197.2 377.75 191.85 383 189.95 388.85 187.85 396.55 188.55 403.3 189.15 406.75 187.1 409.7 185.4 411.9 181.3 415.7 174.15 416.7 160.95 418.35 139.25 411.4 117.05 407.65 105.25 403.05 97.15 Z"/>
</g>

<g id="cap_0_Layer0_0_MEMBER_1_FILL">
<path fill="#9E4802" stroke="none" d="
M 350.95 47.35
Q 339.05 43.25 327.05 41.95 320.5 41.15 314.75 41.35 307.85 41.5 302.2 43 298.95 43.85 296.05 45.4 292.75 47.05 290.45 49.55 288 52.15 286.85 55.8 285.85 59 285.95 62.65 286.1 69.1 289.3 75.35 290.8 78.35 293.05 80.9 295.75 83.75 298.4 85.25 301.05 86.65 304.75 87.55 305.75 87.75 310.85 88.55 317.55 89.5 322 91 332.2 94.4 341.25 102.7 345.6 106.75 348.75 111.2 350.35 113.6 351.4 115.95 352 117.3 352.15 118.25 352.4 119.35 352.2 119.85
L 352.15 119.9 352.2 119.9 352.15 119.95 351.95 120
Q 351.3 120.15 349.9 119.9 348.2 119.65 344.4 118.55 336.65 116.3 332.75 115.4 319.45 112.4 308.05 114.75 296.4 117.25 285.6 125.1 275.6 132.45 268.4 142.7 264.65 148.05 262.25 153.4 259.3 160.25 258.95 165.75 258.7 169.7 259.9 172.65 260.65 174.5 261.8 175.9
L 263.05 177.2
Q 263.35 177.5 264.45 178.35 267 180.15 270.55 181.25 273.7 182.2 277 182.35 284.55 182.7 289.9 179.3 292.1 177.9 294.85 175.05
L 298.95 170.8
Q 306.85 163.05 318.2 158.85 323.75 156.8 329.25 155.95 331.85 155.5 335 155.15 338.15 154.8 340.75 154.75 347.0384765625 154.6533203125 351.9 155.35 349.187890625 155.78984375 346.85 156.3 340.75 157.65 335.1 160.2 329.7 162.75 324.45 166.4 319.25 170.1 315.1 174.5 310.1 180.05 308.05 185.1 306.7 188.55 306.7 191.7 306.7 193.35 307.1 195.2 307.55 197 308.3 198.45 311.55 204.85 317.95 207.5 321.4 208.85 324.8 208.5 327.85 208.25 331.2 206.6 335.55 204.35 341.2 199.1 342 198.35 345.5 194.9 348.1 192.4 349.75 191 352.4 188.85 354 188.5 354.85 188.35 355.5 188.75 356.2 189.3 356.6 190.25 357 191.15 357.4 192.8 357.6 193.75 358.1 195.75 358.75 197.95 359.4 199 360.6 200.85 362.5 201.6 363.8 202.05 364.6 202 364.8 202.05 365.65 201.9
L 366.6 201.65
Q 367.75 201.25 369.6 199.9 371.25 198.6 374.15 195.95 379 191.65 384.2 190.15 389.35 188.5 395.75 189.15 400.25 189.6 401.8 189.5 405 189.3 407.8 187.5 410.2 185.95 412.1 182.9 413.6 180.6 414.8 177.3 416.6 172.35 417.65 165.5 419.3 153.35 418.35 141.35 417.5 129.8 414.1 117.5 412.3 111.05 410.2 105.95 407.55 99.35 405 94.85 398.45 83 391.2 74.75 383 65.25 372.95 58.3 362.8 51.4 350.95 47.35
M 337.75 50.15
Q 344.3 51.7 348.9 53.3 354.55 55.25 359.55 57.7 360 57.9 362.1 59
L 364.6 60.4
Q 365.25 60.75 369.45 63.4 378.95 69.9 386.65 78.75 390.15 82.8 393.75 87.85 396.6 91.85 400.05 97.7 405.25 106.5 409.35 118.95 413.1 130.3 414.5 141.75 416 153.2 414.9 165.15 414.3 171.6 412.7 176.6 411.85 179.55 410.45 181.85 408.9 184.6 406.85 186.05 404.35 187.65 401.7 187.95 400.15 188.05 395.85 187.75 389.2 187.15 383.85 189.05 378.3 190.9 372.85 194.2 369.45 196.4 367.85 197.35 366.1 198.25 365.55 198.35 364.7 198.6 363.8 198.3 363 197.9 362.5 197.1 362.1 196.5 361.6 194.8 361.2 193 361 191.95 360.55 190.15 360.05 188.8 359.2 186.7 357.6 185.6 355.7 184.3 353.4 184.75 351.95 185 349.95 186.1 349.25 186.5 347.3 188 345.35 189.55 342.75 192.1 338.8 195.8 338.45 196.15 333.15 201 329.35 202.8 326.75 204.1 324.45 204.25 322.05 204.45 319.6 203.45 317.3 202.5 315.35 200.65 313.45 198.8 312.3 196.5 311.15 194.1 311.2 191.75 311.15 189.6 312.25 186.75 313.95 182.4 318.45 177.65 322.15 173.75 327.15 170.25 332.1 166.8 337.05 164.5 342.45 162.1 347.9 160.95 350 160.45 353.6 159.9
L 359.55 159.15
Q 360.9 158.9 361.4 158.75
L 361.7 158.65 362.6 158.15
Q 362.85 158 363.2 157.5 363.55 157.1 363.7 156.3 363.8 155.85 363.6 155.05 363.5 154.75 363.2 154.25 363 153.95 362.8 153.8 362.45 153.4 361.65 152.95
L 360.75 152.5 359.1 151.9
Q 356.25 151.1 352.95 150.6 347.15 149.8 340.65 149.9 337.9 149.95 334.5 150.3 331.05 150.65 328.45 151.1 321.8 152.25 316.5 154.25 304.1 158.8 295.5 167.25 292.65 170.2 291.3 171.55 288.9 174 287.2 175.05 283.3 177.6 277.25 177.35 271.15 177 267.4 174.25 265.35 172.8 264.55 170.85 263.8 168.9 263.95 166.05 264.1 163.6 264.9 160.7 265.9 157.55 266.85 155.45 268.85 150.85 272.55 145.55 279.25 136.05 288.55 129.15 298.35 122 309.05 119.65 319.45 117.55 331.65 120.3 333.95 120.8 343 123.4 346.75 124.6 349.1 124.95 351.5 125.3 352.95 125 354.4 124.7 355.4 123.9 356.55 122.95 357.05 121.55 357.65 119.75 357.25 117.25 357 115.95 356.2 113.9 354.9 110.95 353.05 108.25 349.6 103.2 344.85 98.85 335 89.65 323.75 85.85 321.8 85.1 317.7 84.1 313.8 83.3 311.7 83.05 306.7 82.2 306 82 303.2 81.35 301.2 80.25 297.05 77.8 294.5 72.7 292 67.75 291.9 62.55 291.9 56.7 294.9 53.65 297.85 50.5 303.8 48.95 308.75 47.65 314.9 47.55 320.05 47.4 326.35 48.15 331.6 48.75 337.75 50.15 Z"/>
</g>

<path id="leg_right_0_Layer0_0_MEMBER_1_1_STROKES" stroke="#8C4C0C" stroke-width="4" stroke-linejoin="miter" stroke-linecap="butt" stroke-miterlimit="10" fill="none" d="
M 549.05 909.05
Q 548.2 917.35 547.45 924.95 546.9 928.65 545.35 931.1 542.45 935.65 535.6 940.35 530.25 943.95 530.65 945.8 531.05 947.4 533.5 948.5 535.6 949.4 538 949.5 541.35 949.6 545.1 947.3 548.3 945.35 549.05 945.8 550.1 946.45 548.75 951.9 546.9 959.2 547.2 964.2 547.6 971.05 551 977.25 554.15 983 556.4 982.55 558.1 982.25 558.6 976.6 558.85 973.9 558.95 964.35 559.2 946.5 562.85 945.6 565.4 945 569.65 950.05 573.2 954.25 575.85 959.6 577.4 962.65 579.5 969.2 580.8 973.25 582.1 973.35 583.4 973.45 584.85 971.2 586.15 969.2 586.85 966.6 589.45 957.25 578.85 941.6 573.7 933.95 567.75 929.1 563.2 925.4 561.9 921.9 558.4 912.65 565.6 896.95 569.3 888.8 569.9 886.8 571.4 881.95 569.25 879.65 567.25 877.55 563.2 877.65 559.3 877.75 556.4 879.65 553.6 881.45 552.25 886.65 550.75 892.4 549.05 909.05 Z"/>

<path id="leg_left_0_Layer0_0_MEMBER_1_1_STROKES" stroke="#8C4C0C" stroke-width="4" stroke-linejoin="miter" stroke-linecap="butt" stroke-miterlimit="10" fill="none" d="
M 397.5 955
Q 395.65 952.05 396.5 947.5 397.2 943.7 399.35 940.3 402 936.2 406.75 934.1 409.6 932.85 416.15 931.5 422.95 930.05 426.35 928.65 432.1 926.3 436.1 921.9 442.05 915.45 443.45 907.2 445.05 897.7 438.5 885.3 434.75 878.3 434.45 877.55 433 874 434.25 872.3 436.85 868.8 444 869.35 451.25 869.9 454.5 874.15 455.95 876.05 456.25 879.1 456.5 881.15 456.3 887 456.15 891.9 455.2 896.1 454.35 899.65 454.5 901.7 454.85 907.1 460.6 912.5 467.35 918.85 469.2 923.75 472.3 932.2 469.25 942.35 468.1 946.2 466.4 948.85 464.8 951.4 463.65 951.3 462.9 951.25 462.65 948.7 462.45 945.05 462.25 942.95 461.55 934.25 458.15 932.95 455.05 931.7 450.25 935.1 445.5 938.45 442.85 943.6 440.65 947.9 440.7 956.05 440.75 964.15 437.85 969.6 436.15 972.75 434.15 974.95 431.9 977.5 430.6 977.05 428.8 976.45 428.75 968.25 429 958.5 428.75 955 428.15 946.8 427.1 943.35 426.35 941.05 425.1 940.3 421.85 938.4 416.5 940.75 411.1 943.15 408.55 947.65 407.2 950.05 406.7 954.6 406.3 958.05 404.85 958.65 403.3 959.4 401 958.2 398.8 957 397.5 955 Z"/>

<path id="body_0_Layer0_1_MEMBER_1_1_STROKES" stroke="#A83800" stroke-width="3" stroke-linejoin="miter" stroke-linecap="butt" stroke-miterlimit="10" fill="none" d="
M 330.65 274.35
Q 331.85 279.55 328.25 285.75 326.15 289.4 320.65 296.75 311.65 310.1 309.55 330.1 308.55 339.3 307.95 341.5 306.7 346.2 303.25 347.35 297.6 349.25 290.2 343.75 282.8 338.2 281.2 330.8 280.45 327.35 284.65 319.4 287.6 313.75 297.75 297.75 305.55 285.45 309.6 280.7 312.35 277.55 314.25 273.85 316.95 268.6 317.65 267.6 319.5 264.85 321.6 264.65 324.3 264.45 327.1 267.55 329.8 270.55 330.65 274.35 Z"/>

<path id="body_0_Layer0_3_MEMBER_1_1_STROKES" stroke="#A83800" stroke-width="3" stroke-linejoin="miter" stroke-linecap="butt" stroke-miterlimit="10" fill="none" d="
M 347.35 273.85
Q 348.8 285.2 352.9 296.4 355.4 303.3 362.05 319.8 365.25 328.3 370.15 344.65 372.45 352.45 376.75 358.4 383.05 367.15 387.7 371.4 396 378.9 404.3 378.6 415.45 378.2 424.55 366.55 433.65 354.95 431.85 343.7 430.85 337.4 425.45 332.9 422.5 330.45 413.15 325.35 403.9 320.3 398.75 315.95 390.75 309.2 385.95 299.6 385.9 299.55 380.25 285.4 376.9 277.05 371.25 270.2 365.7 263.45 359.8 259.05 352.6 253.65 349.2 255.5 345.3 257.55 347.35 273.85 Z"/>

<path id="body_0_Layer0_4_MEMBER_1_1_STROKES" stroke="#1E1E1E" stroke-width="3" stroke-linejoin="miter" stroke-linecap="butt" stroke-miterlimit="10" fill="none" d="
M 398.8 209.55
Q 392.95 208.55 387 212.15 381.7 215.35 378.6 220.55 373.95 228.3 376.4 238.45 378.4 246.9 384.1 253.65 389.2 259.7 396 263.15 404.15 267.3 409.8 264.65 416.55 261.45 417.6 249.65 418.5 239.6 415.35 229.75 413 222.55 410.45 218.45 405.7 210.75 398.8 209.55 Z"/>

<path id="body_0_Layer0_9_1_STROKES" stroke="#AA0F0F" stroke-width="4" stroke-linejoin="miter" stroke-linecap="butt" stroke-miterlimit="10" fill="none" d="
M 327.75 277.75
Q 320.6 282.6 319 292.55 318.35 296.6 319.05 299.7 319.75 302.85 321.55 303.5 322.6 303.95 324.15 303.35 325 303.05 326.6 302.15 334 297.85 335.75 287.3 336.45 283.05 335.8 279.8 335.1 276.45 333.3 275.8 332.2 275.4 330.5 276.15 329.55 276.6 327.75 277.75 Z"/>

<path id="body_0_Layer0_10_1_STROKES" stroke="#AA0F0F" stroke-width="4" stroke-linejoin="miter" stroke-linecap="butt" stroke-miterlimit="10" fill="none" d="
M 337.25 282.65
Q 332.05 290.35 334.55 302.05 335.6 306.8 337.6 310.05 339.6 313.3 341.7 313.5 342.9 313.6 344.25 312.45 345 311.85 346.2 310.35 351.85 303.15 349.25 290.75 348.2 285.8 346.15 282.35 344.05 278.85 342 278.7 340.7 278.6 339.35 280 338.5 280.8 337.25 282.65 Z"/>

<path id="body_0_Layer0_11_MEMBER_1_1_STROKES" stroke="#8C4C0C" stroke-width="4" stroke-linejoin="miter" stroke-linecap="butt" stroke-miterlimit="10" fill="none" d="
M 287.65 258.25
Q 299.7 239.85 317.05 228.85 327.3 222.3 332.75 220.2 342.1 216.5 348.25 219.65 352.8 221.95 355.5 227.7 357.05 231.1 358.35 237.1 361.65 251.6 356.9 266.6 352.1 281.6 343.65 283.05 340.9 283.5 338.2 281.95 336.45 280.9 332.7 277.5 323.15 268.75 314.25 264.65 302 258.95 287.65 258.25 Z"/>
</defs>

<g transform="matrix( 1, 0, 0, 1, 530.6,870.65) ">
<g transform="matrix( 1, 0, 0, 1, -530.6,-877.65) ">
<use xlink:href="#leg_right_0_Layer0_0_MEMBER_0_FILL"/>
</g>

<g transform="matrix( 1, 0, 0, 1, -530.6,-877.65) ">
<use xlink:href="#leg_right_0_Layer0_0_MEMBER_1_1_STROKES"/>
</g>
</g>

<g transform="matrix( 0.9999847412109375, 0, 0, 0.9999847412109375, 379.65,870.65) ">
<g transform="matrix( 1, 0, 0, 1, -396.25,-869.3) ">
<use xlink:href="#leg_left_0_Layer0_0_MEMBER_0_FILL"/>
</g>

<g transform="matrix( 1, 0, 0, 1, -396.25,-869.3) ">
<use xlink:href="#leg_left_0_Layer0_0_MEMBER_1_1_STROKES"/>
</g>
</g>

<g transform="matrix( 1, 0, 0, 1, 218.1,182.2) ">
<g transform="matrix( 1, 0, 0, 1, -218.1,-182.2) ">
<use xlink:href="#body_0_Layer0_0_MEMBER_0_FILL"/>
</g>

<g transform="matrix( 1, 0, 0, 1, -218.1,-182.2) ">
<use xlink:href="#body_0_Layer0_0_MEMBER_1_FILL"/>
</g>

<g transform="matrix( 1, 0, 0, 1, -218.1,-182.2) ">
<use xlink:href="#body_0_Layer0_1_MEMBER_0_FILL"/>
</g>

<g transform="matrix( 1, 0, 0, 1, -218.1,-182.2) ">
<use xlink:href="#body_0_Layer0_1_MEMBER_1_1_STROKES"/>
</g>

<g transform="matrix( 1, 0, 0, 1, -218.1,-182.2) ">
<use xlink:href="#body_0_Layer0_2_MEMBER_0_FILL"/>
</g>

<g transform="matrix( 1, 0, 0, 1, -218.1,-182.2) ">
<use xlink:href="#body_0_Layer0_2_MEMBER_1_FILL"/>
</g>

<g transform="matrix( 1, 0, 0, 1, -218.1,-182.2) ">
<use xlink:href="#body_0_Layer0_3_MEMBER_0_FILL"/>
</g>

<g transform="matrix( 1, 0, 0, 1, -218.1,-182.2) ">
<use xlink:href="#body_0_Layer0_3_MEMBER_1_1_STROKES"/>
</g>

<g transform="matrix( 1, 0, 0, 1, -218.1,-182.2) ">
<use xlink:href="#body_0_Layer0_4_MEMBER_0_FILL"/>
</g>

<g transform="matrix( 1, 0, 0, 1, -218.1,-182.2) ">
<use xlink:href="#body_0_Layer0_4_MEMBER_1_1_STROKES"/>
</g>

<g transform="matrix( 1, 0, 0, 1, -218.1,-182.2) ">
<use xlink:href="#body_0_Layer0_5_FILL"/>
</g>

<g transform="matrix( 1, 0, 0, 1, -218.1,-182.2) ">
<use xlink:href="#body_0_Layer0_6_FILL"/>
</g>

<g transform="matrix( 1, 0, 0, 1, -218.1,-182.2) ">
<use xlink:href="#body_0_Layer0_7_FILL"/>
</g>

<g transform="matrix( 1, 0, 0, 1, -218.1,-182.2) ">
<use xlink:href="#body_0_Layer0_8_FILL"/>
</g>

<g transform="matrix( 1, 0, 0, 1, -218.1,-182.2) ">
<use xlink:href="#body_0_Layer0_9_FILL"/>

<use xlink:href="#body_0_Layer0_9_1_STROKES"/>
</g>

<g transform="matrix( 1, 0, 0, 1, -218.1,-182.2) ">
<use xlink:href="#body_0_Layer0_10_FILL"/>

<use xlink:href="#body_0_Layer0_10_1_STROKES"/>
</g>

<g transform="matrix( 1, 0, 0, 1, -218.1,-182.2) ">
<use xlink:href="#body_0_Layer0_11_MEMBER_0_FILL"/>
</g>

<g transform="matrix( 1, 0, 0, 1, -218.1,-182.2) ">
<use xlink:href="#body_0_Layer0_11_MEMBER_1_1_STROKES"/>
</g>

<g transform="matrix( 1, 0, 0, 1, -218.1,-182.2) ">
<use xlink:href="#body_0_Layer0_12_FILL"/>
</g>
</g>

<g transform="matrix( 1, 0, 0, 1, 518.55,222.95) ">
<g transform="matrix( 0.992950439453125, -0.118408203125, 0.118408203125, 0.992950439453125, 0,21.25) ">
<g transform="matrix( 1, 0, 0, 1, -529.25,-232.95) ">
<use xlink:href="#tail_0_Layer0_0_MEMBER_0_FILL"/>
</g>

<g transform="matrix( 1, 0, 0, 1, -529.25,-232.95) ">
<use xlink:href="#tail_0_Layer0_0_MEMBER_1_FILL"/>
</g>
</g>
</g>

<g transform="matrix( 1, 0, 0, 1, 468.9,476.15) ">
<g transform="matrix( 1, 0, 0, 1, 0,0) ">
<use xlink:href="#wing_0_Layer0_0_MEMBER_0_FILL"/>
</g>

<g transform="matrix( 1, 0, 0, 1, -452.05,-490.9) ">
<use xlink:href="#wing_0_Layer0_0_MEMBER_1_FILL"/>
</g>
</g>

<g transform="matrix( 1, 0, 0, 1, 258.9,41.3) ">
<g transform="matrix( 1, 0, 0, 1, -258.9,-41.3) ">
<use xlink:href="#cap_0_Layer0_0_MEMBER_0_FILL"/>
</g>

<g transform="matrix( 1, 0, 0, 1, -258.9,-41.3) ">
<use xlink:href="#cap_0_Layer0_0_MEMBER_1_FILL"/>
</g>
</g>
</svg>
