
<svg xmlns="http://www.w3.org/2000/svg" version="1.1" xmlns:xlink="http://www.w3.org/1999/xlink" preserveAspectRatio="none" x="0px" y="0px" width="1000px" height="1000px" viewBox="0 0 1000 1000">
<defs>
<g id="Symbol_2_0_Layer0_0_MEMBER_0_FILL">
<path fill="#D68525" stroke="none" d="
M 567.9 875.8
Q 569.4 870.95 567.25 868.65 565.25 866.55 561.2 866.65 557.3 866.75 554.4 868.65 551.6 870.45 550.25 875.65 548.75 881.4 547.05 898.05 546.2 906.35 545.45 913.95 544.9 917.65 543.35 920.1 540.45 924.65 533.6 929.35 528.25 932.95 528.65 934.8 529.05 936.4 531.5 937.5 533.6 938.4 536 938.5 539.35 938.6 543.1 936.3 546.3 934.35 547.05 934.8 548.1 935.45 546.75 940.9 544.9 948.2 545.2 953.2 545.6 960.05 549 966.25 552.15 972 554.4 971.55 556.1 971.25 556.6 965.6 556.85 962.9 556.95 953.35 557.2 935.5 560.85 934.6 563.4 934 567.65 939.05 571.2 943.25 573.85 948.6 575.4 951.65 577.5 958.2 578.8 962.25 580.1 962.35 581.4 962.45 582.85 960.2 584.15 958.2 584.85 955.6 587.45 946.25 576.85 930.6 571.7 922.95 565.75 918.1 561.2 914.4 559.9 910.9 556.4 901.65 563.6 885.95 567.3 877.8 567.9 875.8 Z"/>
</g>

<g id="Symbol_2_0_Layer0_1_MEMBER_0_FILL">
<path fill="#D68525" stroke="none" d="
M 436.45 886.6
Q 436.65 880.75 436.4 878.7 436.1 875.65 434.65 873.75 431.35 869.5 424.1 868.95 416.95 868.4 414.4 871.9 413.15 873.6 414.6 877.15 414.9 877.9 418.65 884.9 425.2 897.3 423.6 906.8 422.2 915.05 416.25 921.5 412.25 925.9 406.5 928.25 403.1 929.65 396.3 931.05 389.75 932.45 386.9 933.7 382.15 935.8 379.5 939.9 377.3 943.3 376.65 947.1 375.8 951.6 377.65 954.6 378.95 956.6 381.15 957.8 383.45 959 385 958.25 386.4 957.65 386.8 954.2 387.35 949.65 388.7 947.25 391.25 942.7 396.6 940.35 401.95 938 405.25 939.9 406.5 940.65 407.25 942.95 408.3 946.4 408.9 954.6 409.15 958.05 408.9 967.8 408.95 976 410.75 976.65 412.05 977.05 414.3 974.55 416.3 972.3 418 969.15 420.9 963.7 420.85 955.65 420.8 947.45 423 943.15 425.65 938 430.4 934.7 435.2 931.3 438.3 932.55 441.7 933.85 442.4 942.55 442.6 944.65 442.8 948.3 443.05 950.85 443.8 950.9 444.95 951 446.55 948.45 448.25 945.8 449.4 941.95 452.45 931.8 449.35 923.35 447.5 918.4 440.75 912.05 435 906.7 434.65 901.3 434.5 899.25 435.35 895.7 436.3 891.45 436.45 886.6 Z"/>
</g>

<g id="Symbol_2_0_Layer0_2_FILL">
<path fill="#DD3A3A" stroke="none" d="
M 767 585
Q 755.1 540.25 716.85 495.95 699.9 476.25 681.25 461.25 662.6 446.35 646 439 627.85 430.95 616.45 423.4 591.4 406.75 578.5 383.95 576.9 381.25 576.65 380.8 575 377.85 573.85 374.8 570.75 366.65 569.35 348.45 565.95 304.4 565 295.05 559.25 238.75 551.4 214.25 546.3 198.3 538 191.75 524.45 181.1 505.25 179.25 485.75 177.4 471 185.8 454.25 195.3 446.15 221.9 440.6 240.3 433 295.05 428.75 325.85 426.9 359.1 425.8 370.5 423.6 377.6 421.05 385.85 415.5 393.9 404.75 409.5 385.2 419 381.45 420.85 366.4 427.3 353.5 432.85 344.5 437.6 307.75 457.1 274.5 495.15 242.4 531.85 231 565.25 210.9 623.9 237.55 694.15 247.35 719.95 263.9 748.4 273.45 764.75 291 791 319.45 833.55 351.75 856 371.65 869.85 392 875.15 406.75 878.95 415.5 879.6 430.65 880.65 443 875.15 450.95 871.6 457.7 865.2 461.55 861.55 467.75 853.95 473.25 847.15 476.15 844.8 480.8 841.1 486 841.35 490.05 841.55 493.4 844.3 495.7 846.2 499.95 851.65 511.4 866.4 523 875.15 531.6 881.6 536.95 884.7 546.3 890.15 555 892 565.55 894.2 578.55 889.95 597.65 883.7 627 863 651.15 845.85 662.4 836.45 681.2 820.75 696.5 802.1 729.45 761.9 748.2 722.5 783.75 647.95 767 585 Z"/>
</g>

<g id="Symbol_2_0_Layer0_3_MEMBER_0_FILL">
<path fill="#E86921" stroke="none" d="
M 471 250
Q 466 253.35 463.35 258.85 461.15 263.5 460 271.45 459.75 273.1 458.1 288.05 456.85 299.85 455 309 452.3 322.45 447.5 335.3 446.1 339.1 440 353.65 436.3 362.35 435.7 366.9 434.9 372.95 438 378 442.5 385.35 451.7 388.85 460.9 392.35 467 389 471.05 386.7 472.1 380.9 472.9 376.6 472.35 366.5 471.45 350.65 471.35 345.55 471.2 331.35 473 318 475.45 299.45 485.2 269.6 488.6 259.2 489.15 255 489.95 249.1 487 247 484.15 244.95 478.95 246.35 474.85 247.4 471 250 Z"/>
</g>

<g id="Symbol_2_0_Layer0_4_MEMBER_0_FILL">
<path fill="#E86921" stroke="none" d="
M 517.8 240.8
Q 512.6 239.4 509.75 241.45 506.85 243.55 507.6 249.45 508.15 253.65 511.55 264.05 521.3 293.9 523.75 312.45 525.55 325.8 525.35 340.05 525.3 345.05 524.4 360.95 523.85 371.1 524.65 375.4 525.7 381.2 529.75 383.45 535.85 386.85 545.05 383.35 554.25 379.85 558.75 372.45 561.85 367.35 561.05 361.35 560.45 356.8 556.8 348.1 550.6 333.5 549.25 329.75 544.45 316.9 541.75 303.45 539.9 294.35 538.65 282.5 537 267.6 536.75 265.9 535.55 257.95 533.35 253.3 530.75 247.8 525.75 244.45 521.9 241.85 517.8 240.8 Z"/>
</g>

<g id="Symbol_2_0_Layer0_5_FILL">
<path fill="#E86921" stroke="none" d="
M 568 581
Q 557.7 581.1 547.5 587.35 542 590.75 530.6 600.55 520.25 609.5 514.15 612.6 504.65 617.4 495 615.4 485.15 613.35 477.25 609 468.8 604.4 448 589.4 442.3 585.25 437 583.2 430.65 580.8 424 580.9 404.25 581.15 385.05 602.05 374.75 613.3 364 632 344.45 665.85 344.25 707.25 344.05 750.2 365 786 381.2 813.75 408.55 833.05 423.6 843.7 442 851.4 457.7 857.85 471.15 860.85 494.75 866.05 518 863.2 556.8 858.4 589.85 831.65 607.55 817.35 620 800 643.8 766.55 648.45 724.85 653.1 683.15 637 647 628.7 628.4 616.1 611.9 592.35 580.7 568 581 Z"/>
</g>

<g id="Symbol_2_0_Layer0_6_FILL">
<path fill="#D63838" stroke="none" d="
M 482.25 312.2
Q 483.25 311.85 485 310.75 493.45 305.35 496.9 287.45 498.25 280.3 498.05 274.35 497.8 268.35 496 266.75 494.9 265.75 493 266.55 491.9 267.05 489.85 268.6 481.6 275 478.4 291.95 477.1 298.8 477.4 304.4 477.7 310.1 479.45 311.75 480.55 312.75 482.25 312.2 Z"/>
</g>

<g id="Symbol_2_0_Layer0_7_FILL">
<path fill="#D63838" stroke="none" d="
M 501.2 266.6
Q 500.4 267.6 499.4 269.9 495.05 279.45 500.15 295.9 502.2 302.55 505.05 307.4 507.95 312.25 510.3 312.9 511.7 313.25 513 312 513.65 311.3 514.75 309.45 519.7 300.7 514.4 283.3 512.3 276.3 509.3 271.15 506.3 265.95 503.95 265.35 502.45 265 501.2 266.6 Z"/>
</g>

<g id="Symbol_2_0_Layer0_8_MEMBER_0_FILL">
<path fill="#D68525" stroke="none" d="
M 467.5 254.5
Q 469.15 267.85 478.8 276.75 488.3 285.55 500.5 285.5 511.65 285.4 520.8 278.2 530.4 270.55 531.5 259.5 532.65 247.35 523.25 237.7 514.1 228.25 501.5 227.5 489.6 226.75 479.85 234.4 470.05 242.1 467.5 254.5 Z"/>
</g>

<g id="Symbol_2_0_Layer0_9_FILL">
<path fill="#373839" stroke="none" d="
M 551.65 240.2
Q 550.3 239.95 550.2 240.3 549.9 241.55 552.3 243.65 554.55 245.6 557.1 246.7 558.45 247.3 559.15 247.05 560 246.7 560.65 244.95 561.35 243 561.75 240 562.15 236.95 561.85 235.45 561.55 233.8 559.9 235.4 556.65 238.6 555.75 239.2 553.6 240.6 551.65 240.2 Z"/>
</g>

<g id="Symbol_2_0_Layer0_10_FILL">
<path fill="#373839" stroke="none" d="
M 558 220.1
Q 558 218.8 557.65 217.65 557.35 216.5 556.85 216.1 556.25 215.6 555.3 217.4 553.8 220.8 552.35 223.65 551.95 224.5 550.05 228.2 549.4 229.45 549.45 230 549.6 231.05 551.05 230.65 552.5 230.25 553.95 228.8 555.25 227.6 556.25 225.95 558.05 223.05 558 220.1 Z"/>
</g>

<g id="Symbol_2_0_Layer0_11_FILL">
<path fill="#373839" stroke="none" d="
M 451.35 238.6
Q 451.3 238.25 449.8 238.55 447.8 238.9 445.5 237.6 444.6 237.1 441.15 234.05 439.4 232.55 439.1 234.1 438.8 235.5 439.2 238.35 439.65 241.15 440.35 243 441 244.6 441.95 244.9 442.7 245.15 444.1 244.6 446.85 243.6 449.15 241.75 451.65 239.8 451.35 238.6 Z"/>
</g>

<g id="Symbol_2_0_Layer0_12_FILL">
<path fill="#373839" stroke="none" d="
M 451.2 226.35
Q 451.3 225.85 450.6 224.75 449.35 222.75 448.2 220.75 445.85 216.4 445.15 215.3 444.2 213.7 443.55 214.15 443.05 214.5 442.75 215.5 442.4 216.5 442.35 217.65 442.25 221.65 446.55 225.3 448.05 226.55 449.55 226.9 451.1 227.25 451.2 226.35 Z"/>
</g>

<g id="Symbol_2_0_Layer0_13_FILL">
<path fill="#373839" stroke="none" d="
M 456.35 209.7
Q 456.35 203.55 453.45 201.25 451.85 200 449.75 200.05 447.7 200.05 447.15 201.25 446.9 201.85 447.35 203.1 447.7 203.95 449 206.4 452.65 213.1 453.65 214.7 454.4 216.05 454.7 215.95 456.35 215.5 456.35 209.7 Z"/>
</g>

<g id="Symbol_2_0_Layer0_14_FILL">
<path fill="#373839" stroke="none" d="
M 548.3 203.2
Q 545.75 205.45 545.75 211.6 545.75 217.45 547.2 217.9 547.45 218 548.15 216.65 548.95 215.15 552.2 208.35 553.35 205.95 553.7 205.05 554.15 203.8 553.9 203.2 553.4 202 551.55 202 549.7 201.95 548.3 203.2 Z"/>
</g>

<g id="Symbol_2_0_Layer0_15_FILL">
<path fill="#CC7211" stroke="none" d="
M 474.05 266
Q 475.65 269.6 479.15 273.2 487.65 281.9 498.05 282.75 510 283.75 520.95 274.1 525.3 270.25 527.6 266.15 529.85 262.1 528.95 259.8 528.15 257.9 521.05 257.4 516.15 257.05 500.2 257.15 483.9 257.25 477.55 258.4 473.9 259.05 473.35 260.25 472.4 262.4 474.05 266 Z"/>
</g>

<g id="Symbol_2_0_Layer0_16_MEMBER_0_FILL">
<path fill="#DDE8EC" stroke="none" d="
M 544.95 215.1
Q 542.05 208 538.55 207.15 535.55 206.4 532.85 210.1 530.45 213.3 529.3 218.3 527.55 225.75 529.5 235.2 531.1 243.1 534.4 249.2 537.35 254.65 540.95 257.7 545.3 261.3 547.95 258.55 551.05 255.35 550.75 244.15 550.45 234.7 548.2 225.55 546.5 218.75 544.95 215.1 Z"/>
</g>

<g id="Symbol_2_0_Layer0_17_MEMBER_0_FILL">
<path fill="#DDE8EC" stroke="none" d="
M 461.85 207.15
Q 458.35 207.95 455.3 214.95 453.65 218.75 451.9 225.35 449.45 234.55 449 243.95 448.45 255.1 451.55 258.4 454.1 261.15 458.5 257.65 462.2 254.7 465.25 249.25 468.65 243.2 470.4 235.35 472.5 225.9 470.9 218.45 469.8 213.4 467.5 210.2 464.85 206.5 461.85 207.15 Z"/>
</g>

<g id="Symbol_2_0_Layer0_18_FILL">
<path fill="#474747" stroke="none" d="
M 544.05 225.6
Q 541.95 218.7 539.15 218.1 537.6 217.8 536.1 220.2 534.85 222.35 534.25 225.45 533.35 230.65 534.75 236.6 536.25 242.7 538.85 243.95 540.65 244.8 542.45 242.95 544.1 241.25 544.85 238.2 546.2 232.75 544.05 225.6 Z"/>
</g>

<g id="Symbol_2_0_Layer0_19_FILL">
<path fill="#474747" stroke="none" d="
M 462.35 216.15
Q 459.6 216.7 457.5 223.65 455.35 230.8 456.7 236.2 457.45 239.25 459.1 240.95 460.9 242.8 462.65 241.95 465.3 240.7 466.75 234.65 468.2 228.65 467.25 223.5 466.7 220.45 465.4 218.25 463.95 215.85 462.35 216.15 Z"/>
</g>

<g id="Symbol_2_0_Layer0_20_FILL">
<path fill="#E87134" stroke="none" d="
M 510 29
Q 500.4 29.2 492.35 37.4 488.05 41.8 485 47.6 480.4 56 480.6 67.5 480.75 75.15 484 94.1 484.8 98.8 488.05 114.05 489.9 122.65 489 122.95 488.35 123.15 486.4 119.05 482.8 111.5 481.85 109.7 474.3 95.75 466 95.05 462.1 94.7 458.1 96.85 454.05 98.95 452 102.45 449.65 106.4 451.15 111.3 452.15 114.5 456.45 121.65 461.65 130.3 464 135.4 468.25 144.7 470 154.55 471.05 160.55 471.6 168.7 472.45 174.7 476 178.75 484.2 188.1 502 189 517.95 189.3 528 181.55 533.4 177.35 535.75 169.55 539.7 156.4 543 149.9 547.25 141.4 557.65 128.55 564.55 120 565 111.75 565.15 106.6 564.25 102.45 562.45 94 557 91.3 551.05 88.35 542.25 92.3 534.25 95.9 529 102.45 524.75 107.8 523.1 115.05 522.3 118.65 522 121.05 520.7 120.9 521.35 107.5 522.2 91.2 527 74.55 531.9 60.35 533.25 55.6 535.4 48.25 533 42.95 530.2 36.95 523.75 32.95 517.15 28.85 510 29 Z"/>
</g>

<g id="Symbol_2_0_Layer0_21_MEMBER_0_FILL">
<path fill="#DD3A3A" stroke="none" d="
M 714.95 501.2
Q 707.2 504.2 702.05 505.1 682.65 508.45 659.75 491.6
L 642.2 566.85
Q 654.25 608.9 672.6 638 683.9 655.95 696.25 666.85 706.55 675.95 717.1 679.65 723.3 681.85 732.1 682.55 743.6 683.45 750 681.35 760.65 677.85 766.85 665.55 768.5 662.25 769.8 658.3 771.4 653.3 770.75 651.65 770.45 650.85 769.2 651.05 769.15 651.05 764.35 652.2 758.25 653.7 758.15 653.25 758.15 653.2 760 653 762.4 652.75 764.4 652 771.3 649.35 774.1 640.9 776.9 632.4 776 618.85 775.2 606.2 772.7 603.9 771.8 603.1 770.4 605.3 768.9455078125 607.8369140625 767.6 609.85 771.907421875 601.2248046875 771.8 589.55 771.7 579.9 768.15 569.9 764.65 559.9 760.65 557.95 758.55 556.85 756.15 559.05 754.572265625 560.4798828125 750.8 565.8 758.3765625 548.77734375 756.1 536.85 755.2 532.15 753 528.3 750.75 524.4 748.8 524.35 748 524.3 747.25 526.15 745.5 530.05 743.7 533.1 743.6447265625 533.1962890625 743.6 533.3 747.651953125 520.8486328125 745.8 510.2 745.1 506 743.6 502.6 741.1 497.1 736.55 495.9 732.85 494.95 726.75 496.8 724.95 497.35 714.95 501.2 Z"/>
</g>

<g id="Symbol_2_0_Layer0_21_MEMBER_1_FILL">
<path fill="#AA0F0F" stroke="none" d="
M 738.75 492.4
Q 735.75 491.45 732 491.9 729.3 492.3 726.3 493.4 723.05 494.55 716.55 497.6 711.15 500.25 707.25 501.6 701.85 503.6 697.65 503.9 692.5 504.45 687.7 503.65 682.95 502.95 677.9 501.05 673.75 499.55 668.65 496.75 665.45 495.05 660 491.25
L 659.5 491.9
Q 664.7 495.7 668.05 497.75 668.6 498.1 672.55 500.35 675.65 501.95 677.25 502.65 687.8 507.35 697.8 507.2 702.55 507.2 708.5 505.75 711.5 505 718.6 502.75 725.6 500.5 728.2 499.9 733.55 498.65 736.05 499.95 737.2 500.5 738.2 501.9 739.1 503.15 739.85 505.3 740.4 507 740.85 509.6 741.25 511.7 741.35 514.1 741.75 522.05 738.5 532.4 736.55 539 735.7 541.6
L 734.9 543.85 734.9 543.9 734.7 544.15 734.3 544.9 734.1 545.55
Q 733.95 546.35 734.05 546.85 734.05 547.35 734.45 548.15 735.35 549.8 738.7 549.35 751.7 547.55 740 548.75
L 742.8 545.4
Q 746.15 540.9 748.1 535.65 749.6009765625 531.5642578125 750.45 526.7 751.3642578125 528.0513671875 752.15 530.45 752.85 532.9 753.15 535.2 753.55 538.9 753.2 544.55 752.85 549.1 751.75 554.05 750.75 558.95 749.35 563.75 748.7078125 565.857421875 748 567.8
L 747.15 569.45
Q 743.7 576.5 742.6 578.85
L 742 580 741.75 580.65
Q 741.95 580.55 741.6 580.85 741.5 581.3 742.8 581.35
L 742.9 581.25 747.65 574.4
Q 751.4 568.85 753.3 565.45 753.3568359375 565.350390625 753.4 565.25 754.86015625 563.7330078125 755.75 562.95
L 757.55 561.45
Q 758.6 560.75 759.05 560.75 759.15 560.7 759.25 560.75 759.3 560.8 759.25 560.85
L 759.05 561.05
Q 759 561.2 759.55 561.9 760.25 563.05 761.25 565.5 762.05 567.45 762.75 569.8 764.5 575.7 765.15 578.95
L 766.4 588.25
Q 766.9 598.7 764.35 606.5 762.8 611.25 760.3 614.7 759.25 616.3 757.35 618.2 756.5 619.25 756 620.2
L 754.95 622.45 754.9 622.55 754.9 622.6
Q 754.9 622.75 754.75 622.6 754.6 622.75 754.65 622.9
L 754.9 623.15 755.4 623.4 756.35 623.7
Q 757.15 623.85 758.05 623.75 759.5 623.6 760.95 622.85 763.05 621.5 765.45 619.2 769.063671875 615.6310546875 771.65 611.05 771.6912109375 611.1330078125 771.7 611.2 772 613.45 772.15 615.8 772.5 619.95 772.4 625.1 772.3 630.5 772 634.25 771.55 639.7 770.35 642.85 768.8 647.15 765.4 649.4 765.206640625 649.5306640625 765 649.65 764.1505859375 649.864453125 763.55 650 762 650.35 761.25 650.6
L 758.65 651.45 757.9 651.45 757.5 651.6
Q 757.25 651.7 757 651.9 756.55 652.3 756.4 653.2 756.45 654.45 757.45 654.9
L 758.35 655.15 759.6 655.2
Q 761 655.3 762.2 655.05 763.05 654.95 764.65 654.55
L 768.45 653.6 768.45 653.9
Q 768.2 655.6 767.3 658.2 766.45 660.7 765.6 662.5
L 763.5 666.6
Q 758.55 675.4 750.7 678.4 746.95 679.95 742 680.25 738.65 680.45 732.7 680 726.75 679.55 723.4 678.75 718.95 677.8 714.65 675.9 706.7 672.45 699.05 665.85 692.45 660.3 685.9 652.25 680.35 645.45 674.75 636.7 664.45 620.35 656.9 602.7
L 649.7 584.8
Q 647.4 578.75 646.25 575.75 644.15 570.45 642.2 566.85 642.5 571.25 643.8 576.55 644.5 579.5 646.4 585.95 649.1 594.6 653.05 604.3 661.25 624.6 670.5 639.4 676.3 648.55 681.95 655.45 688.95 664.05 695.7 669.75 704.05 676.85 712.6 680.65 717.3 682.65 722.3 683.8 726.5 684.75 732.3 685.1 738.5 685.6 742.35 685.3 748.1 684.9 752.55 683.05 757.6 681 761.4 677.25 764.95 673.8 767.7 669 768.15 668.3 768.95 666.75
L 770 664.45
Q 770.95 662.25 771.8 659.7 772.8 656.75 773.1 654.6 773.25 653.95 773.25 653.1 773.25 652 773.05 651.25 772.85 650.4 772.35 649.8 772.1869140625 649.590234375 772 649.4 773.78046875 647.658203125 775.2 645.3 776.65 642.85 777.55 640.4 778.5 637.7 779 635.3 780.8 626.55 779.25 615.05 778.75 611.8 778.35 610 777.65 606.95 776.7 604.8
L 776 603.4 775.45 602.55
Q 775.3767578125 602.464453125 775.3 602.35 775.7357421875 600.889453125 776.15 599.15 777.3 593.3 777.1 587.8 777.1 585.55 776.65 582.2 776.2 578.95 775.65 576.7 774.15 570.35 772.15 566.1 771 563.65 769.3 561.05 768.3 559.6 767.4 558.6 766.25 557.3 765 556.3 762.95 554.8 761.15 554.35 759.75 554 758.45 554.3 758.330078125 554.3228515625 758.2 554.35 759.6875 549.5287109375 759.9 544.95 760.2 539.05 757.95 533.85 756.8 531.15 755.25 528.95 753.5 526.25 751.6 524.65 751.21640625 524.36875 750.85 524.15 751.6703125 518.57734375 751.1 513.35 750.85 510.65 750.1 507.6 749.4 504.65 748.2 502 746.85 498.8 744.85 496.45 742.25 493.5 738.75 492.4 Z"/>
</g>

<g id="Symbol_2_0_Layer0_22_MEMBER_0_FILL">
<path fill="#DD3A3A" stroke="none" d="
M 275.3 492.9
Q 265.35 489.05 263.55 488.5 257.45 486.65 253.75 487.6 249.2 488.8 246.7 494.3 245.2 497.6 244.5 501.9 242.648828125 512.5447265625 246.7 525 246.65390625 524.8921875 246.6 524.8 244.85 521.85 243.05 517.8 242.25 516 241.45 516.05 239.55 516.1 237.3 520 235.1 523.85 234.2 528.5 231.8740234375 540.4759765625 239.5 557.5 235.6783203125 552.1302734375 234.15 550.75 231.75 548.55 229.6 549.6 225.6 551.6 222.1 561.6 218.6 571.65 218.5 581.25 218.39609375 592.5515625 222.4 601 220.5978515625 598.065234375 219.9 597 218.5 594.75 217.6 595.6 215.1 597.9 214.3 610.55 213.4 624.1 216.2 632.6 219 641.05 225.9 643.7 227.0119140625 644.1251953125 228.05 644.4 227.0951171875 644.1890625 225.9 643.9 221.15 642.75 221.1 642.75 219.85 642.55 219.55 643.35 218.9 645 220.55 650 221.8 653.95 223.45 657.25 229.65 669.55 240.25 673 246.65 675.1 258.15 674.2 266.9 673.55 273.2 671.35 283.7 667.65 294 658.55 306.25 647.85 317.7 629.65 336.05 600.6 348.1 558.55
L 330.55 483.25
Q 307.75 500.05 288.2 496.8 283.05 495.9 275.3 492.9 Z"/>
</g>

<g id="Symbol_2_0_Layer0_22_MEMBER_1_FILL">
<path fill="#AA0F0F" stroke="none" d="
M 255.35 535.5
Q 255.36328125 535.535546875 255.35 535.55
L 255.4 535.6 255.5 535.7
Q 256.18828125 535.771875 255.7 535.55 255.5283203125 535.478515625 255.3 535.4
L 255.35 535.5
M 252.1 493.6
Q 253.15 492.2 254.25 491.65 256.65 490.35 262.1 491.6 264.7 492.2 271.7 494.45 278.85 496.7 281.8 497.45 287.7 498.9 292.45 498.9 302.55 499.05 313 494.35 314.6 493.65 317.7 492.05 320.95 490.25 322.2 489.45 325.6 487.4 330.8 483.6
L 330.3 482.95
Q 324.85 486.75 321.65 488.45 316.65 491.2 312.35 492.75 307.1 494.65 302.6 495.35 297.8 496.15 292.65 495.6 288.25 495.2 283.05 493.3 280.1 492.25 273.75 489.3 266.8 486.05 264 485.05 260.7 483.95 258.3 483.6 254.55 483.15 251.5 484.1 247.95 485.25 245.45 488.15 243.65 490.25 242.05 493.7 240.9 496.45 240.2 499.3 239.55 501.85 239.2 505.05 238.676171875 510.19296875 239.35 515.85 239.0705078125 516.0720703125 238.7 516.35 236.9 517.85 235 520.65 233.45 522.95 232.35 525.55 230.1 530.6 230.4 536.65 230.6123046875 541.225 232.1 546.05 231.9693359375 546.01796875 231.85 546 230.55 545.7 229.1 546.05 227.45 546.45 225.3 547.95 224 549.05 222.9 550.3 221.7 551.7 221 552.75 219.3 555.35 218.15 557.8 216.1 562.15 214.65 568.4 214.1 570.65 213.65 573.9 213.2 577.15 213.15 579.5 213 585.1 214.15 590.85 214.4578125 592.32734375 214.95 594.05 214.9078125 594.1591796875 214.85 594.25
L 214.3 595.05 213.55 596.5
Q 212.7 598.6 211.95 601.7 211.4 603.9 211 606.75 209.45 618.3 211.3 627 211.8 629.45 212.75 632.05 213.7 634.7 215.05 637 216.498828125 639.3771484375 218.25 641.1 218.103515625 641.2955078125 217.95 641.5 217.6 641.95 217.2 642.95 216.95 643.85 217.05 644.8
L 217.15 646.3
Q 217.5 648.5 218.5 651.4 219.3 653.9 220.3 656.15 220.85 657.5 221.35 658.45
L 222.55 660.7
Q 225.2 665.35 228.85 668.95 232.75 672.7 237.75 674.75 242.15 676.6 247.95 677 251.8 677.3 258 676.8 263.8 676.45 268 675.5 273.15 674.35 277.65 672.3 286 668.7 294.6 661.45 301.5 655.6 308.35 647.15 314.25 639.9 319.8 631.1 329.05 616.3 337.25 596 341.2 586.2 343.9 577.6 345.8 571.25 346.55 568.25 347.8 562.95 348.1 558.55 346.15 562.2 344.05 567.45 342.85 570.45 340.6 576.5
L 333.4 594.4
Q 325.6 612.4 315.55 628.4 310.15 636.85 304.4 643.9 297.65 652.15 291.25 657.55 283.45 664.2 275.6 667.6 271.45 669.45 266.85 670.45 263.75 671.15 257.6 671.7 251.6 672.15 248.3 671.95 243.35 671.65 239.6 670.1 231.8 667.1 226.75 658.3
L 224.7 654.2
Q 223.85 652.4 223 649.9 222.1 647.3 221.85 645.6
L 221.8 645.3 225.65 646.25
Q 226.45 646.4 228.05 646.75 229.75 646.95 230.7 646.9
L 231.9 646.85 232.85 646.6
Q 233.15 646.45 233.4 646.2 233.85 645.7 233.85 644.9 233.75 644 233.3 643.6 232.85 643.4 232.8 643.3
L 232.4 643.15 231.65 643.15 229.05 642.3
Q 227.5 641.9 226.75 641.7 225.92578125 641.4802734375 225.2 641.3 225.044140625 641.19765625 224.9 641.1 221.5 638.85 219.95 634.55 218.75 631.4 218.3 625.95 218 622.2 217.9 616.75 217.8 611.8 218.1 607.5 218.1 607.2 218.55 602.9 218.5634765625 602.7974609375 218.55 602.7 221.208203125 607.303125 224.85 610.9 227 613.05 229.35 614.55 230.8 615.3 232.25 615.45 233.15 615.55 233.95 615.4
L 234.9 615.1
Q 235.2 615 235.35 614.85
L 235.6 614.6
Q 235.7 614.45 235.55 614.3 235.4 614.45 235.4 614.3
L 235.35 614.25
Q 235.466015625 614.2736328125 235.55 614.3 235.4474609375 614.2201171875 235.35 614.15
L 234.3 611.9
Q 233.85 610.95 232.95 609.9 231.15 608.1 230 606.4 227.5 602.95 225.95 598.2 223.4 590.4 223.9 579.95
L 224.35 575.35
Q 224.55 573.75 225.15 570.65 225.8 567.4 227.55 561.5 228.25 559.15 229.05 557.2 229.8 555.1 230.75 553.6 231.3 552.85 231.25 552.75
L 231.05 552.55
Q 231 552.5 231.05 552.45 231.1 552.4 231.2 552.45 231.7 552.45 232.75 553.15 233.35 553.55 234.55 554.65 235.0185546875 555.0796875 236.95 557.05 236.97578125 557.107421875 237 557.15 238.65 560.05 242.6 566.1
L 247.25 572.8 247.4 572.95 247.45 573.05
Q 248.8 572.95 248.65 572.55 248.6 572.35 248.55 572.35
L 242.25 559.5
Q 241.6099609375 557.599609375 240.95 555.45 239.4 550.05 238.5 545.75 237.45 540.6 237.1 536.25 236.7 531.05 237.15 526.9 237.5 524.2 238.15 522.15 238.9326171875 519.7607421875 239.75 518.4 240.7185546875 523.5607421875 242.15 527.35 244.1 532.45 247.5 537.1
L 249.9 540.05 250 540.2 250.25 540.45
Q 254.4 542.45 255.8 539.85 256.1 539.4 256.25 538.55 256.35 538.05 256.2 537.25
L 256 536.6 255.6 535.85 255.5 535.7
Q 255.4630859375 535.71953125 255.4 535.7 255.484375 535.9 255.45 535.9
L 255.45 535.85 255.3 535.7
Q 255.364453125 535.706640625 255.4 535.7 255.4044921875 535.654296875 255.35 535.55
L 255.25 535.4
Q 255.2869140625 535.409765625 255.3 535.4
L 254.6 533.3
Q 254.15 531.85 251.8 524.1 248.55 514.05 248.9 505.8 249.05 503.35 249.4 501.3 250 498.45 250.45 497 251.15 494.95 252.1 493.6 Z"/>
</g>

<path id="Symbol_2_0_Layer0_0_MEMBER_1_1_STROKES" stroke="#8C4C0C" stroke-width="4" stroke-linejoin="miter" stroke-linecap="butt" stroke-miterlimit="10" fill="none" d="
M 547.05 898.05
Q 546.2 906.35 545.45 913.95 544.9 917.65 543.35 920.1 540.45 924.65 533.6 929.35 528.25 932.95 528.65 934.8 529.05 936.4 531.5 937.5 533.6 938.4 536 938.5 539.35 938.6 543.1 936.3 546.3 934.35 547.05 934.8 548.1 935.45 546.75 940.9 544.9 948.2 545.2 953.2 545.6 960.05 549 966.25 552.15 972 554.4 971.55 556.1 971.25 556.6 965.6 556.85 962.9 556.95 953.35 557.2 935.5 560.85 934.6 563.4 934 567.65 939.05 571.2 943.25 573.85 948.6 575.4 951.65 577.5 958.2 578.8 962.25 580.1 962.35 581.4 962.45 582.85 960.2 584.15 958.2 584.85 955.6 587.45 946.25 576.85 930.6 571.7 922.95 565.75 918.1 561.2 914.4 559.9 910.9 556.4 901.65 563.6 885.95 567.3 877.8 567.9 875.8 569.4 870.95 567.25 868.65 565.25 866.55 561.2 866.65 557.3 866.75 554.4 868.65 551.6 870.45 550.25 875.65 548.75 881.4 547.05 898.05 Z"/>

<path id="Symbol_2_0_Layer0_1_MEMBER_1_1_STROKES" stroke="#8C4C0C" stroke-width="4" stroke-linejoin="miter" stroke-linecap="butt" stroke-miterlimit="10" fill="none" d="
M 377.65 954.6
Q 375.8 951.6 376.65 947.1 377.3 943.3 379.5 939.9 382.15 935.8 386.9 933.7 389.75 932.45 396.3 931.05 403.1 929.65 406.5 928.25 412.25 925.9 416.25 921.5 422.2 915.05 423.6 906.8 425.2 897.3 418.65 884.9 414.9 877.9 414.6 877.15 413.15 873.6 414.4 871.9 416.95 868.4 424.1 868.95 431.35 869.5 434.65 873.75 436.1 875.65 436.4 878.7 436.65 880.75 436.45 886.6 436.3 891.45 435.35 895.7 434.5 899.25 434.65 901.3 435 906.7 440.75 912.05 447.5 918.4 449.35 923.35 452.45 931.8 449.4 941.95 448.25 945.8 446.55 948.45 444.95 951 443.8 950.9 443.05 950.85 442.8 948.3 442.6 944.65 442.4 942.55 441.7 933.85 438.3 932.55 435.2 931.3 430.4 934.7 425.65 938 423 943.15 420.8 947.45 420.85 955.65 420.9 963.7 418 969.15 416.3 972.3 414.3 974.55 412.05 977.05 410.75 976.65 408.95 976 408.9 967.8 409.15 958.05 408.9 954.6 408.3 946.4 407.25 942.95 406.5 940.65 405.25 939.9 401.95 938 396.6 940.35 391.25 942.7 388.7 947.25 387.35 949.65 386.8 954.2 386.4 957.65 385 958.25 383.45 959 381.15 957.8 378.95 956.6 377.65 954.6 Z"/>

<path id="Symbol_2_0_Layer0_2_1_STROKES" stroke="#AA0F0F" stroke-width="6" stroke-linejoin="miter" stroke-linecap="butt" stroke-miterlimit="10" fill="none" d="
M 392 875.15
Q 371.65 869.85 351.75 856 319.45 833.55 291 791 273.45 764.75 263.9 748.4 247.35 719.95 237.55 694.15 210.9 623.9 231 565.25 242.4 531.85 274.5 495.15 307.75 457.1 344.5 437.6 353.5 432.85 366.4 427.3 381.45 420.85 385.2 419 404.75 409.5 415.5 393.9 421.05 385.85 423.6 377.6 425.8 370.5 426.9 359.1 428.75 325.85 433 295.05 440.6 240.3 446.15 221.9 454.25 195.3 471 185.8 485.75 177.4 505.25 179.25 524.45 181.1 538 191.75 546.3 198.3 551.4 214.25 559.25 238.75 565 295.05 565.95 304.4 569.35 348.45 570.75 366.65 573.85 374.8 575 377.85 576.65 380.8 576.9 381.25 578.5 383.95 591.4 406.75 616.45 423.4 627.85 430.95 646 439 662.6 446.35 681.25 461.25 699.9 476.25 716.85 495.95 755.1 540.25 767 585 783.75 647.95 748.2 722.5 729.45 761.9 696.5 802.1 681.2 820.75 662.4 836.45 651.15 845.85 627 863 597.65 883.7 578.55 889.95 565.55 894.2 555 892 546.3 890.15 536.95 884.7 531.6 881.6 523 875.15 511.4 866.4 499.95 851.65 495.7 846.2 493.4 844.3 490.05 841.55 486 841.35 480.8 841.1 476.15 844.8 473.25 847.15 467.75 853.95 461.55 861.55 457.7 865.2 450.95 871.6 443 875.15 430.65 880.65 415.5 879.6 406.75 878.95 392 875.15 Z"/>

<path id="Symbol_2_0_Layer0_3_MEMBER_1_1_STROKES" stroke="#A83800" stroke-width="3" stroke-linejoin="miter" stroke-linecap="butt" stroke-miterlimit="10" fill="none" d="
M 438 378
Q 434.9 372.95 435.7 366.9 436.3 362.35 440 353.65 446.1 339.1 447.5 335.3 452.3 322.45 455 309 456.85 299.85 458.1 288.05 459.75 273.1 460 271.45 461.15 263.5 463.35 258.85 466 253.35 471 250 474.85 247.4 478.95 246.35 484.15 244.95 487 247 489.95 249.1 489.15 255 488.6 259.2 485.2 269.6 475.45 299.45 473 318 471.2 331.35 471.35 345.55 471.45 350.65 472.35 366.5 472.9 376.6 472.1 380.9 471.05 386.7 467 389 460.9 392.35 451.7 388.85 442.5 385.35 438 378 Z"/>

<path id="Symbol_2_0_Layer0_4_MEMBER_1_1_STROKES" stroke="#A83800" stroke-width="3" stroke-linejoin="miter" stroke-linecap="butt" stroke-miterlimit="10" fill="none" d="
M 558.75 372.45
Q 561.85 367.35 561.05 361.35 560.45 356.8 556.8 348.1 550.6 333.5 549.25 329.75 544.45 316.9 541.75 303.45 539.9 294.35 538.65 282.5 537 267.6 536.75 265.9 535.55 257.95 533.35 253.3 530.75 247.8 525.75 244.45 521.9 241.85 517.8 240.8 512.6 239.4 509.75 241.45 506.85 243.55 507.6 249.45 508.15 253.65 511.55 264.05 521.3 293.9 523.75 312.45 525.55 325.8 525.35 340.05 525.3 345.05 524.4 360.95 523.85 371.1 524.65 375.4 525.7 381.2 529.75 383.45 535.85 386.85 545.05 383.35 554.25 379.85 558.75 372.45 Z"/>

<path id="Symbol_2_0_Layer0_5_1_STROKES" stroke="#A83800" stroke-width="4" stroke-linejoin="miter" stroke-linecap="butt" stroke-miterlimit="10" fill="none" d="
M 442 851.4
Q 423.6 843.7 408.55 833.05 381.2 813.75 365 786 344.05 750.2 344.25 707.25 344.45 665.85 364 632 374.75 613.3 385.05 602.05 404.25 581.15 424 580.9 430.65 580.8 437 583.2 442.3 585.25 448 589.4 468.8 604.4 477.25 609 485.15 613.35 495 615.4 504.65 617.4 514.15 612.6 520.25 609.5 530.6 600.55 542 590.75 547.5 587.35 557.7 581.1 568 581 592.35 580.7 616.1 611.9 628.7 628.4 637 647 653.1 683.15 648.45 724.85 643.8 766.55 620 800 607.55 817.35 589.85 831.65 556.8 858.4 518 863.2 494.75 866.05 471.15 860.85 457.7 857.85 442 851.4 Z"/>

<path id="Symbol_2_0_Layer0_6_1_STROKES" stroke="#AA0F0F" stroke-width="4" stroke-linejoin="miter" stroke-linecap="butt" stroke-miterlimit="10" fill="none" d="
M 489.85 268.6
Q 481.6 275 478.4 291.95 477.1 298.8 477.4 304.4 477.7 310.1 479.45 311.75 480.55 312.75 482.25 312.2 483.25 311.85 485 310.75 493.45 305.35 496.9 287.45 498.25 280.3 498.05 274.35 497.8 268.35 496 266.75 494.9 265.75 493 266.55 491.9 267.05 489.85 268.6 Z"/>

<path id="Symbol_2_0_Layer0_7_1_STROKES" stroke="#AA0F0F" stroke-width="4" stroke-linejoin="miter" stroke-linecap="butt" stroke-miterlimit="10" fill="none" d="
M 499.4 269.9
Q 495.05 279.45 500.15 295.9 502.2 302.55 505.05 307.4 507.95 312.25 510.3 312.9 511.7 313.25 513 312 513.65 311.3 514.75 309.45 519.7 300.7 514.4 283.3 512.3 276.3 509.3 271.15 506.3 265.95 503.95 265.35 502.45 265 501.2 266.6 500.4 267.6 499.4 269.9 Z"/>

<path id="Symbol_2_0_Layer0_8_MEMBER_1_1_STROKES" stroke="#8C4C0C" stroke-width="4" stroke-linejoin="miter" stroke-linecap="butt" stroke-miterlimit="10" fill="none" d="
M 467.5 254.5
Q 470.05 242.1 479.85 234.4 489.6 226.75 501.5 227.5 514.1 228.25 523.25 237.7 532.65 247.35 531.5 259.5 530.4 270.55 520.8 278.2 511.65 285.4 500.5 285.5 488.3 285.55 478.8 276.75 469.15 267.85 467.5 254.5 Z"/>

<path id="Symbol_2_0_Layer0_16_MEMBER_1_1_STROKES" stroke="#1E1E1E" stroke-width="3" stroke-linejoin="miter" stroke-linecap="butt" stroke-miterlimit="10" fill="none" d="
M 538.55 207.15
Q 535.55 206.4 532.85 210.1 530.45 213.3 529.3 218.3 527.55 225.75 529.5 235.2 531.1 243.1 534.4 249.2 537.35 254.65 540.95 257.7 545.3 261.3 547.95 258.55 551.05 255.35 550.75 244.15 550.45 234.7 548.2 225.55 546.5 218.75 544.95 215.1 542.05 208 538.55 207.15 Z"/>

<path id="Symbol_2_0_Layer0_17_MEMBER_1_1_STROKES" stroke="#1E1E1E" stroke-width="3" stroke-linejoin="miter" stroke-linecap="butt" stroke-miterlimit="10" fill="none" d="
M 461.85 207.15
Q 464.85 206.5 467.5 210.2 469.8 213.4 470.9 218.45 472.5 225.9 470.4 235.35 468.65 243.2 465.25 249.25 462.2 254.7 458.5 257.65 454.1 261.15 451.55 258.4 448.45 255.1 449 243.95 449.45 234.55 451.9 225.35 453.65 218.75 455.3 214.95 458.35 207.95 461.85 207.15 Z"/>

<path id="Symbol_2_0_Layer0_20_1_STROKES" stroke="#9E4802" stroke-width="3" stroke-linejoin="miter" stroke-linecap="butt" stroke-miterlimit="10" fill="none" d="
M 476 178.75
Q 484.2 188.1 502 189 517.95 189.3 528 181.55 533.4 177.35 535.75 169.55 539.7 156.4 543 149.9 547.25 141.4 557.65 128.55 564.55 120 565 111.75 565.15 106.6 564.25 102.45 562.45 94 557 91.3 551.05 88.35 542.25 92.3 534.25 95.9 529 102.45 524.75 107.8 523.1 115.05 522.3 118.65 522 121.05 520.7 120.9 521.35 107.5 522.2 91.2 527 74.55 531.9 60.35 533.25 55.6 535.4 48.25 533 42.95 530.2 36.95 523.75 32.95 517.15 28.85 510 29 500.4 29.2 492.35 37.4 488.05 41.8 485 47.6 480.4 56 480.6 67.5 480.75 75.15 484 94.1 484.8 98.8 488.05 114.05 489.9 122.65 489 122.95 488.35 123.15 486.4 119.05 482.8 111.5 481.85 109.7 474.3 95.75 466 95.05 462.1 94.7 458.1 96.85 454.05 98.95 452 102.45 449.65 106.4 451.15 111.3 452.15 114.5 456.45 121.65 461.65 130.3 464 135.4 468.25 144.7 470 154.55 471.05 160.55 471.6 168.7 472.45 174.7 476 178.75 Z"/>
</defs>

<g transform="matrix( 0.9656524658203125, 0, 0, 1, 220.1,29) ">
<g transform="matrix( 1, 0, 0, 1, -210.3,-29) ">
<use xlink:href="#Symbol_2_0_Layer0_0_MEMBER_0_FILL"/>
</g>

<g transform="matrix( 1, 0, 0, 1, -210.3,-29) ">
<use xlink:href="#Symbol_2_0_Layer0_0_MEMBER_1_1_STROKES"/>
</g>

<g transform="matrix( 1, 0, 0, 1, -210.3,-29) ">
<use xlink:href="#Symbol_2_0_Layer0_1_MEMBER_0_FILL"/>
</g>

<g transform="matrix( 1, 0, 0, 1, -210.3,-29) ">
<use xlink:href="#Symbol_2_0_Layer0_1_MEMBER_1_1_STROKES"/>
</g>

<g transform="matrix( 1, 0, 0, 1, -210.3,-29) ">
<use xlink:href="#Symbol_2_0_Layer0_2_FILL"/>

<use xlink:href="#Symbol_2_0_Layer0_2_1_STROKES"/>
</g>

<g transform="matrix( 1, 0, 0, 1, -210.3,-29) ">
<use xlink:href="#Symbol_2_0_Layer0_3_MEMBER_0_FILL"/>
</g>

<g transform="matrix( 1, 0, 0, 1, -210.3,-29) ">
<use xlink:href="#Symbol_2_0_Layer0_3_MEMBER_1_1_STROKES"/>
</g>

<g transform="matrix( 1, 0, 0, 1, -210.3,-29) ">
<use xlink:href="#Symbol_2_0_Layer0_4_MEMBER_0_FILL"/>
</g>

<g transform="matrix( 1, 0, 0, 1, -210.3,-29) ">
<use xlink:href="#Symbol_2_0_Layer0_4_MEMBER_1_1_STROKES"/>
</g>

<g transform="matrix( 1, 0, 0, 1, -210.3,-29) ">
<use xlink:href="#Symbol_2_0_Layer0_5_FILL"/>

<use xlink:href="#Symbol_2_0_Layer0_5_1_STROKES"/>
</g>

<g transform="matrix( 1, 0, 0, 1, -210.3,-29) ">
<use xlink:href="#Symbol_2_0_Layer0_6_FILL"/>

<use xlink:href="#Symbol_2_0_Layer0_6_1_STROKES"/>
</g>

<g transform="matrix( 1, 0, 0, 1, -210.3,-29) ">
<use xlink:href="#Symbol_2_0_Layer0_7_FILL"/>

<use xlink:href="#Symbol_2_0_Layer0_7_1_STROKES"/>
</g>

<g transform="matrix( 1, 0, 0, 1, -210.3,-29) ">
<use xlink:href="#Symbol_2_0_Layer0_8_MEMBER_0_FILL"/>
</g>

<g transform="matrix( 1, 0, 0, 1, -210.3,-29) ">
<use xlink:href="#Symbol_2_0_Layer0_8_MEMBER_1_1_STROKES"/>
</g>

<g transform="matrix( 1, 0, 0, 1, -210.3,-29) ">
<use xlink:href="#Symbol_2_0_Layer0_9_FILL"/>
</g>

<g transform="matrix( 1, 0, 0, 1, -210.3,-29) ">
<use xlink:href="#Symbol_2_0_Layer0_10_FILL"/>
</g>

<g transform="matrix( 1, 0, 0, 1, -210.3,-29) ">
<use xlink:href="#Symbol_2_0_Layer0_11_FILL"/>
</g>

<g transform="matrix( 1, 0, 0, 1, -210.3,-29) ">
<use xlink:href="#Symbol_2_0_Layer0_12_FILL"/>
</g>

<g transform="matrix( 1, 0, 0, 1, -210.3,-29) ">
<use xlink:href="#Symbol_2_0_Layer0_13_FILL"/>
</g>

<g transform="matrix( 1, 0, 0, 1, -210.3,-29) ">
<use xlink:href="#Symbol_2_0_Layer0_14_FILL"/>
</g>

<g transform="matrix( 1, 0, 0, 1, -210.3,-29) ">
<use xlink:href="#Symbol_2_0_Layer0_15_FILL"/>
</g>

<g transform="matrix( 1, 0, 0, 1, -210.3,-29) ">
<use xlink:href="#Symbol_2_0_Layer0_16_MEMBER_0_FILL"/>
</g>

<g transform="matrix( 1, 0, 0, 1, -210.3,-29) ">
<use xlink:href="#Symbol_2_0_Layer0_16_MEMBER_1_1_STROKES"/>
</g>

<g transform="matrix( 1, 0, 0, 1, -210.3,-29) ">
<use xlink:href="#Symbol_2_0_Layer0_17_MEMBER_0_FILL"/>
</g>

<g transform="matrix( 1, 0, 0, 1, -210.3,-29) ">
<use xlink:href="#Symbol_2_0_Layer0_17_MEMBER_1_1_STROKES"/>
</g>

<g transform="matrix( 1, 0, 0, 1, -210.3,-29) ">
<use xlink:href="#Symbol_2_0_Layer0_18_FILL"/>
</g>

<g transform="matrix( 1, 0, 0, 1, -210.3,-29) ">
<use xlink:href="#Symbol_2_0_Layer0_19_FILL"/>
</g>

<g transform="matrix( 1, 0, 0, 1, -210.3,-29) ">
<use xlink:href="#Symbol_2_0_Layer0_20_FILL"/>

<use xlink:href="#Symbol_2_0_Layer0_20_1_STROKES"/>
</g>

<g transform="matrix( 1, 0, 0, 1, -210.3,-29) ">
<use xlink:href="#Symbol_2_0_Layer0_21_MEMBER_0_FILL"/>
</g>

<g transform="matrix( 1, 0, 0, 1, -210.3,-29) ">
<use xlink:href="#Symbol_2_0_Layer0_21_MEMBER_1_FILL"/>
</g>

<g transform="matrix( 1, 0, 0, 1, -210.3,-29) ">
<use xlink:href="#Symbol_2_0_Layer0_22_MEMBER_0_FILL"/>
</g>

<g transform="matrix( 1, 0, 0, 1, -210.3,-29) ">
<use xlink:href="#Symbol_2_0_Layer0_22_MEMBER_1_FILL"/>
</g>
</g>
</svg>
