
<svg xmlns="http://www.w3.org/2000/svg" version="1.1" xmlns:xlink="http://www.w3.org/1999/xlink" preserveAspectRatio="none" x="0px" y="0px" width="150px" height="200px" viewBox="0 0 150 200">
<defs>
<g id="egg_bottom_0_Layer0_0_MEMBER_0_FILL">
<path fill="#EDB894" stroke="none" d="
M 118.9 95.75
Q 113.7 92.1 108.4 87.7 105.5 92.05 102.05 95.4 99.5 91 96.25 86.9
L 88 100.8
Q 82.05 96.05 77.45 89.75 74.7 94.4 70.7 99.05 67.95 95.2 65.35 92.35 62.35 88.9 58.5 85.5 55.65 88.7 53.5 91.5 50.45 95.25 47.5 99.5 46.2 97.05 44.25 94.55 42.5 92.3 40.5 90.5 39.3 93.95 37.2 96.95 34.85 100.35 31.5 102.85
L 22.4 89.45
Q 21.15 90.25 18.75 91.8 16.65 93.05 14.8 93.55 13.1 103.75 13.05 111.55 12.95 125.3 14.4 133.65 17 148.8 25.15 159.9 30.8 167.7 39.4 174.05 55.3 185.75 73.9 185.95 95.05 186.25 112.65 171.75 121.65 164.3 127.05 155.75 133.6 145.1 135.7 132.35 137.35 122.5 136.75 107.3 136.55 101.7 135.7 95.25
L 124.45 86.95
Q 123.2 92.4 118.9 95.75 Z"/>
</g>

<g id="egg_bottom_0_Layer0_0_MEMBER_1_FILL">
<path fill="#D6AA8B" stroke="none" d="
M 130 124
Q 128.1 131.35 126.3 136 123.2 144.1 118.35 151.05 114.05 157.35 109.8 161.65 102.4 169.15 93.1 173.75 77.95 181.25 61 180.05 81.6 185.35 94.95 179.65 98.7 178 100.75 176.75 111.85 170.05 118.15 163.8 131.95 150.2 134.8 125.3 136.5 111.9 133 98 133.2 111.15 130 124 Z"/>
</g>

<g id="egg_top_0_Layer0_0_MEMBER_0_FILL">
<path fill="#EDB894" stroke="none" d="
M 110.15 36.3
Q 100.05 25.1 93.95 20.5 83.8 12.85 73.7 13 62.45 13.15 51.65 22.9 45.35 28.65 35.35 42.35 19.25 64.35 14.75 93.15 16.8 92.3 19.05 90.9 20.35 90.15 23.05 88.15
L 31.6 102.4 40.05 88.9 47.3 98.95
Q 53.65 92.6 58.9 85.65 64.75 92.1 69.65 98.85 73.8 93.95 76.35 88.1
L 87.85 98.55
Q 91.7 92.4 94.55 85.2 97.65 90.4 101.45 95.45 105 90.6 107.55 86.2 112.9 92.05 119.35 96.3 123.3 92.15 124.05 86.5 127.75 91 132.75 92.75 133.7 93.1 135.5 93.5 134.65 88.05 133.7 83.85 132 76.25 129.6 69.5 122.75 50.35 110.15 36.3 Z"/>
</g>

<g id="egg_top_0_Layer0_0_MEMBER_1_FILL">
<path fill="#F2D0B3" stroke="none" d="
M 64.55 43.4
Q 70.1 42.1 71.95 37.85 73.65 34 71.4 31.5 69.4 29.35 65 30.5 60.55 31.7 56.3 35.55 51.95 39.45 48.7 47.3 45.45 55.15 47.4 57.35 48.25 58.3 49.9 56.7 50.5 56.05 53.5 52.25 59.5 44.55 64.55 43.4 Z"/>
</g>

<path id="egg_bottom_0_Layer0_0_MEMBER_0_1_STROKES" stroke="#D8986C" stroke-width="5" stroke-linejoin="miter" stroke-linecap="butt" stroke-miterlimit="10" fill="none" d="
M 135.7 95.25
Q 136.55 101.7 136.75 107.3 137.35 122.5 135.7 132.35 133.6 145.1 127.05 155.75 121.65 164.3 112.65 171.75 95.05 186.25 73.9 185.95 55.3 185.75 39.4 174.05 30.8 167.7 25.15 159.9 17 148.8 14.4 133.65 12.95 125.3 13.05 111.55 13.1 103.75 14.8 93.55 16.65 93.05 18.75 91.8 21.15 90.25 22.4 89.45
L 31.5 102.85
Q 34.85 100.35 37.2 96.95 39.3 93.95 40.5 90.5 42.5 92.3 44.25 94.55 46.2 97.05 47.5 99.5 50.45 95.25 53.5 91.5 55.65 88.7 58.5 85.5 62.35 88.9 65.35 92.35 67.95 95.2 70.7 99.05 74.7 94.4 77.45 89.75 82.05 96.05 88 100.8
L 96.25 86.9
Q 99.5 91 102.05 95.4 105.5 92.05 108.4 87.7 113.7 92.1 118.9 95.75 123.2 92.4 124.45 86.95
L 135.7 95.25 Z"/>

<path id="egg_top_0_Layer0_0_MEMBER_0_1_STROKES" stroke="#D8986C" stroke-width="5" stroke-linejoin="miter" stroke-linecap="butt" stroke-miterlimit="10" fill="none" d="
M 14.75 93.15
Q 16.8 92.3 19.05 90.9 20.35 90.15 23.05 88.15
L 31.6 102.4 40.05 88.9 47.3 98.95
Q 53.65 92.6 58.9 85.65 64.75 92.1 69.65 98.85 73.8 93.95 76.35 88.1
L 87.85 98.55
Q 91.7 92.4 94.55 85.2 97.65 90.4 101.45 95.45 105 90.6 107.55 86.2 112.9 92.05 119.35 96.3 123.3 92.15 124.05 86.5 127.75 91 132.75 92.75 133.7 93.1 135.5 93.5 134.65 88.05 133.7 83.85 132 76.25 129.6 69.5 122.75 50.35 110.15 36.3 100.05 25.1 93.95 20.5 83.8 12.85 73.7 13 62.45 13.15 51.65 22.9 45.35 28.65 35.35 42.35 19.25 64.35 14.75 93.15 Z"/>
</defs>

<g transform="matrix( 0.965240478515625, 0.2613067626953125, -0.2613067626953125, 0.965240478515625, 22.7,77.7) ">
<g transform="matrix( 1, 0, 0, 1, -13.05,-85.5) ">
<use xlink:href="#egg_bottom_0_Layer0_0_MEMBER_0_FILL"/>

<use xlink:href="#egg_bottom_0_Layer0_0_MEMBER_0_1_STROKES"/>
</g>

<g transform="matrix( 1, 0, 0, 1, -13.05,-85.5) ">
<use xlink:href="#egg_bottom_0_Layer0_0_MEMBER_1_FILL"/>
</g>
</g>

<g transform="matrix( 0.9501953125, -0.3116302490234375, 0.3116302490234375, 0.9501953125, -10.5,35.55) ">
<g transform="matrix( 1, 0, 0, 1, -14.75,-13) ">
<use xlink:href="#egg_top_0_Layer0_0_MEMBER_0_FILL"/>

<use xlink:href="#egg_top_0_Layer0_0_MEMBER_0_1_STROKES"/>
</g>

<g transform="matrix( 1, 0, 0, 1, -14.75,-13) ">
<use xlink:href="#egg_top_0_Layer0_0_MEMBER_1_FILL"/>
</g>
</g>
</svg>
