
<svg xmlns="http://www.w3.org/2000/svg" version="1.1" xmlns:xlink="http://www.w3.org/1999/xlink" preserveAspectRatio="none" x="0px" y="0px" width="250px" height="250px" viewBox="0 0 250 250">
<defs>
<g id="Layer0_0_MEMBER_0_FILL">
<path fill="#F3F3F3" stroke="none" d="
M 197.85 160.3
Q 192.2 159.65 177.45 160.45 151.1 162 132.8 164.55 121.95 166.1 114.5 165.45 91.1 163.45 71.5 158.75 56.55 154.45 56.5 154.45 50.75 152.25 49.1 151.9 45.6 151.05 43.5 152.45 40.2 154.7 39.6 161.8 39 168.85 41.25 178 46.6 199.95 61.5 213.45 72.05 223 88.25 225.95 98.75 227.85 127.45 228.45 151.7 228.95 163.1 227.05 182.4 223.75 192.45 212.45 199.15 205 204.45 191.45 208.45 181.5 209.45 176.95 211.1 169.55 208.45 165.45 205.75 161.2 197.85 160.3 Z"/>
</g>

<g id="Layer0_0_MEMBER_1_FILL">
<path fill="#CAA35E" stroke="none" d="
M 201.45 156.45
Q 199.85 157.9 199.3 160.25 198.75 162.5 199.45 164.45 199.8 165.3 200.75 166.15 203.75 168.8 204.45 169.45 206.1 171.05 207.8 172.7 208.75 173.6 209.45 173.45 210.7 173.35 212.45 168.45 214 164.2 214.4 162.75 214.95 160.6 214.45 159.45 213.2 156.4 208.85 155.2 204.3 153.95 201.45 156.45 Z"/>
</g>

<g id="Layer0_0_MEMBER_2_FILL">
<path fill="#CAA35E" stroke="none" d="
M 189.5 190.5
Q 203.7 164.65 200.05 160 199.6 159.4 198.9 159
L 198.35 158.75
Q 195.5 157.85 190.5 163.5 185.95 168.55 181.5 176.55 178.9 181.2 173.5 191.5 167.4 202.5 167.25 202.85 165.2 207.3 166.5 210.5 168.05 214.4 170.8 214.85 173.05 215.25 176.35 211.35 180.9 205.95 189.5 190.5 Z"/>
</g>

<g id="Layer0_0_MEMBER_3_FILL">
<path fill="#CAA35E" stroke="none" d="
M 49.15 181.1
Q 46.55 182.9 45.5 185.45 44.5 188.05 45.55 191.3 46.2 193.4 48.5 197.45 54.35 207.85 64.5 214.45 72.55 219.7 82.4 222.6 91.65 225.3 92.5 223.45 92.8 222.85 91.05 221.65 88.2 219.9 86.15 218.6 77.35 212.9 71.5 205.45 66.95 199.65 61.75 187.8 58.2 179.85 54.5 179.45 51.85 179.2 49.15 181.1 Z"/>
</g>

<g id="Layer0_0_MEMBER_4_FILL">
<path fill="#BC8550" stroke="none" d="
M 88.55 219.9
Q 87.4 217.9 86 215.95 79.7 206.95 70.05 199.85 61.35 193.45 60 194.95 59 196.15 66.6 204.2 73.4 211.45 81 217.95 89.05 224.9 90 223.95 90.65 223.4 88.55 219.9 Z"/>
</g>

<g id="Layer0_0_MEMBER_5_FILL">
<path fill="#CAA35E" stroke="none" d="
M 164.45 191.45
Q 169.55 182 170.8 178.65 172.05 175.2 171.45 172.45 170.8 169.15 168.85 166.4 166.7 163.4 164.45 163.45 162.85 163.5 161.75 165.65 161.2 166.75 159.7 171.3 156.15 182.1 150.45 189.45
L 138.45 207.45
Q 136.3 210.8 136.45 213.45 136.65 217 139.7 220 142.65 222.9 145.45 222.45 147.25 222.2 148.75 219.8 149.1 219.2 152.45 212.45 154.05 209.3 156.15 206.15 158.6 202.45 164.45 191.45 Z"/>
</g>

<g id="Layer0_0_MEMBER_6_FILL">
<path fill="#BC8550" stroke="none" d="
M 171.95 173.95
Q 165.9 166.35 164.95 166.95 164.65 167.15 165.1 168.65 165.8 171.15 165.95 171.95 166.7 175.6 165.55 179.55 164.95 181.8 162.95 185.95 159.45 193.65 156.4 201.65 153.65 208.8 153.95 208.95 154.25 209.1 157.45 203.4 161.05 197 164.95 188.95 168.85 181.15 171.95 173.95 Z"/>
</g>

<g id="Layer0_0_MEMBER_7_FILL">
<path fill="#CAA35E" stroke="none" d="
M 145.3 169.65
Q 143.6 166.85 141.45 166.45 138.2 165.85 134.65 168.75 131.05 171.65 130.45 175.45 130.15 177.7 131.6 180.25 132.6 181.95 137.45 188.45
L 155.45 212.45
Q 157.4 215.45 159.65 219 161.3 221.25 163.45 222.45 168.05 225.05 173.75 224.65 179.35 224.2 180.45 221.45 180.95 220.3 180.3 218.75 179.85 217.55 178.45 215.45 174.95 210.1 170.6 205.1 166.1 200.25 164.45 198.45 156.2 189.5 149.45 177.45 146.45 171.5 145.3 169.65 Z"/>
</g>

<g id="Layer0_0_MEMBER_8_FILL">
<path fill="#BC8550" stroke="none" d="
M 47.65 187.4
Q 47.3 187.65 47 187.95 45.7 189.8 48 194.95 50.15 199.65 55 204.95 61.25 211.6 62 210.95 62.25 210.75 60.15 207.4 57.05 202.6 55 197.95 52.8 192.3 51.95 190.35 50.5 187.2 49 186.95 48.35 186.85 47.65 187.4 Z"/>
</g>

<g id="Layer0_0_MEMBER_9_FILL">
<path fill="#CAA35E" stroke="none" d="
M 101.5 186.45
Q 100.7 188.5 102.1 192.1 104.35 197.95 112.5 209.45 117.8 216.9 119.8 219.35 122.8 222.95 125.45 224.45 131.6 227.9 138.8 228.2 145.95 228.5 147.45 225.45 148.5 223.45 143.2 217.85 133.4 207.45 127.45 199.45 120.1 188.75 117.45 185.4 113.3 180.25 109.5 180.45 107 180.6 104.7 182.4 102.45 184.1 101.5 186.45 Z"/>
</g>

<g id="Layer0_0_MEMBER_10_FILL">
<path fill="#BC8550" stroke="none" d="
M 194.45 160.6
Q 191.45 161.9 191.55 163.25 191.6 164.05 193.55 164.55 195.1 164.95 196.75 165 198.05 165 198.55 164.9 199.4 164.7 199.75 164.1 200.15 163.4 199.9 162.35 199.65 161.3 199 160.65 197.5 159.25 194.45 160.6 Z"/>
</g>

<g id="Layer0_0_MEMBER_11_FILL">
<path fill="#BC8550" stroke="none" d="
M 127.95 224.95
Q 128.4 226.65 137.65 226 146.9 225.35 146.95 223.95 147 223.2 140.95 221.95 137.75 221.35 136.4 221.3 134 221.2 131.95 221.95 130.55 222.5 129.3 223.35 127.8 224.35 127.95 224.95 Z"/>
</g>

<g id="Layer0_0_MEMBER_12_FILL">
<path fill="#BC8550" stroke="none" d="
M 174.95 217.95
Q 171.55 218.85 168.5 220.6 165.65 222.25 165.95 222.95 166.05 223.1 166.5 223.1 167.05 223.15 168.95 222.95 173.85 222.55 175.85 222.05 177.3 221.7 177.95 220.95 178.65 220.25 178.95 219.4 179.3 218.45 178.95 217.95 178.6 217.45 177.3 217.55 176.7 217.6 174.95 217.95 Z"/>
</g>

<g id="Layer0_0_MEMBER_13_FILL">
<path fill="#BC8550" stroke="none" d="
M 185.9 196.1
Q 188.95 190.45 191.3 184.5 193.55 178.75 192.95 178.45 191.7 177.85 175.15 208.5
L 176 210.55
Q 181.7 203.8 185.9 196.1 Z"/>
</g>

<g id="Layer0_0_MEMBER_14_FILL">
<path fill="#CAA35E" stroke="none" d="
M 197.45 181.45
Q 194.75 178 193.65 176.75 191.65 174.4 189.45 172.45 183.85 167.45 180.55 165.45 174.85 162.05 169.45 162.45 163.3 163 162.45 165.45 161.95 167.15 165.3 170.25 167.5 172.3 175.45 179.45 181.35 185.15 184.35 188.6 188.4 193.3 191.45 198.45 192.95 201 194.75 204.35 196.1 206.4 197.45 206.45 200.05 206.55 202.45 202.35 204.9 198 204.45 193.45 204.25 191.1 202.5 188.3 201.35 186.45 197.45 181.45 Z"/>
</g>

<g id="Layer0_0_MEMBER_15_FILL">
<path fill="#CAA35E" stroke="none" d="
M 116.5 179.45
Q 116.15 180.05 107.4 194.25 102.7 201.85 96.5 214.45 94.8 218.05 94.4 219.55 93.7 221.85 94.5 223.45 95.95 226.35 100.7 227.3 105.4 228.2 109.5 226.45 112.5 225.2 114.65 220.8 118.25 212.6 122.5 204.45 132.9 184.6 134.45 182.45 137.3 178.75 137.75 178 138.95 175.95 138.45 174.45 137.55 171.65 132.65 170.6 127.65 169.55 123.5 171.45 121.25 172.55 119.5 174.75 118.6 175.9 116.5 179.45 Z"/>
</g>

<g id="Layer0_0_MEMBER_16_FILL">
<path fill="#BC8550" stroke="none" d="
M 130.05 188.7
Q 133.7 183.1 136.95 178.95 139.75 175.5 140.55 174.4 142.2 172.2 141.95 171.95 141.4 171.4 132.95 178.95 122.35 188.9 110 206.95 104.2 215.55 102.5 219.4 101.05 222.65 102 223.95 103.4 225.8 108 224.95 114.05 214.2 121 202.95 127.55 192.45 130.05 188.7 Z"/>
</g>

<g id="Layer0_0_MEMBER_17_FILL">
<path fill="#CAA35E" stroke="none" d="
M 83.1 232.35
Q 87.75 233.3 90.5 233.45 107.6 234.5 118.1 235.2 121.75 235.45 123.5 235.45 160.9 236.05 183.45 228.45 188.1 226.9 190.6 225.35 194.1 223.15 194.45 220.45 194.65 219.1 194.15 217.75 193.6 216.3 192.45 215.45 190 213.65 184.6 215.9 178.25 219.1 175.45 220.45 170.7 222.85 162.4 223.85 156.65 224.6 140.45 225.45 114.45 226.9 103.2 226.2 85.15 225 72.5 218.45 66.7 215.5 65.15 214.9 60.05 212.9 58.5 214.45 57.45 215.55 57.85 218.1 58.2 220.5 59.5 222.45 61.1 224.95 64.5 226.45 73.8 230.5 83.1 232.35 Z"/>
</g>

<g id="Layer0_0_MEMBER_18_FILL">
<path fill="#CAA35E" stroke="none" d="
M 195.45 152.45
Q 185.45 154.35 180.45 155.45 166.9 158.55 150.45 160.45
L 142.45 167.45
Q 158.3 166.5 173.45 164.45 187.5 162.6 198 160.05 206.2 158.05 214.45 157.45 219.25 157.15 220.95 156.9 224.3 156.45 224.45 155.45 224.65 154.3 221.15 152.7 217.55 151.05 213.45 150.45 209.9 149.95 205.8 150.5 203.75 150.8 195.45 152.45 Z"/>
</g>

<g id="Layer0_0_MEMBER_19_FILL">
<path fill="#BC8550" stroke="none" d="
M 140.9 173.6
Q 136.8 177 135.45 181.45
L 134.95 183.95
Q 139.45 190.2 145.95 198.95 157 213.85 157.45 213.45 158.05 213.1 146.45 192.45 143.9 187.9 143.05 185.45 141.8 181.8 142.45 178.45 142.95 176.1 144.5 173.6 145.65 171.65 145.45 171.45 144.55 170.6 140.9 173.6 Z"/>
</g>

<g id="Layer0_0_MEMBER_20_FILL">
<path fill="#F3F3F3" stroke="none" d="
M 223.45 127.45
Q 222.4 126.4 221.4 125.8 219.1 124.4 216.5 124.5 213.15 124.75 210.45 127.45 205.65 136.9 197.45 143.45 192.8 147.2 187.3 149.6 182.7 151.55 175.45 153.45 154 159.15 130.45 160.45 117.3 161.2 107.7 160.9 95.85 160.5 83.5 158.45 73.15 156.75 64.55 152.55 59.6 150.15 54.5 146.45 50.2 143.4 48.15 141.1 45.25 137.95 44.5 134.45 44.35 133.85 44.25 131.65 44.15 130.4 43.5 129.45 42.45 127.95 40.15 127.1 37.85 126.2 35.5 126.5 32.45 126.7 29.5 129.5 26.45 132.35 25.15 137.4 24.85 138.65 23.5 147.45 22.05 157.9 18.5 168.45 35.4 177.25 51.5 188.45 77 206.3 98.5 229.45 112.5 205.55 130.45 185.45 140.15 174.75 146.85 169.3 153 164.25 159.45 161.45 163.45 159.75 168.65 158.25 172 157.3 179.45 155.45 189.2 153.05 192.85 152.5 198.05 151.7 201.45 152.45 208.35 154 214.15 160.05 218.25 164.3 221.45 170.45 225.25 163.5 226.95 156.3 229.65 144.7 226.45 134.45 225.25 130.55 223.45 127.45 Z"/>
</g>

<g id="Layer0_0_MEMBER_21_FILL">
<path fill="#DDDDDD" stroke="none" d="
M 60.15 175.25
Q 54.05 171 49 165.95 37.55 154.45 31 139
L 25 165
Q 47.55 175.6 63 188.95 67.75 193.05 83 206.95
L 95 217.95 118 190.95
Q 100.55 192.15 84 186.95 71.2 182.95 60.15 175.25 Z"/>
</g>

<g id="Layer0_0_MEMBER_22_FILL">
<path fill="#BC8550" stroke="none" d="
M 178.35 164.7
Q 173.4 163.95 172.95 164.95 172.7 165.65 174.55 167.25 176.35 168.85 180.95 171.95 188.45 177.05 196.95 181.95 193.45 177.2 188.95 172.95 184.45 168.65 178.95 164.95
L 178.35 164.7 Z"/>
</g>

<g id="Layer0_0_MEMBER_23_FILL">
<path fill="#BC8550" stroke="none" d="
M 196.3 153.1
Q 193.95 153.55 193.95 153.95 194 154.15 197.85 154.2 201.95 154.45 202.95 155.95 203.35 156.65 203.95 156.95 204.5 157.25 205.25 157.2 205.7 157.15 206.95 156.95 208.05 156.85 209.2 157 209.95 157.1 209.95 156.95 210.2 156.4 207.75 155 205.05 153.4 201.95 152.95 199.1 152.55 196.3 153.1 Z"/>
</g>

<g id="Layer0_0_MEMBER_24_FILL">
<path fill="#BC8550" stroke="none" d="
M 201.75 161.25
Q 201.85 161.65 201.95 161.95 202.4 162.95 204.15 163.45 206.7 164.15 207.95 164.95 209.1 165.65 210.55 167.15 211.5 168.15 211.95 167.95 212.25 167.85 212.4 167.2 212.65 166.05 212.95 164.95 213.65 162.95 213.85 162.4 214.15 161.55 213.95 160.95 213.7 159.95 211.95 158.95 211.4 158.65 210.3 158.6 208.8 158.55 204.95 158.95 203.45 159.15 203 159.25 202.25 159.45 201.95 159.95 201.65 160.5 201.75 161.25 Z"/>
</g>

<g id="Layer0_0_MEMBER_25_FILL">
<path fill="#BC8550" stroke="none" d="
M 65 215.95
Q 63.1 215.2 62.2 215.05 60.45 214.7 59.5 215.45 58.5 216.3 58.5 218.45 58.65 222.9 65.5 226.45 67.7 227.6 69.7 228.05 71.75 228.5 72 227.95 72.15 227.7 70.85 226.35 69.3 224.7 69 222.95 68.85 222.1 69.15 220.8 69.35 219.75 69 218.95 68.55 217.9 67.4 217.1 66.7 216.65 65 215.95 Z"/>
</g>

<g id="Layer0_0_MEMBER_26_FILL">
<path fill="#BC8550" stroke="none" d="
M 192.05 216.05
Q 191.15 215.3 189.4 215.65 188.35 215.8 186.55 216.55 184.95 217.2 184.2 217.7 183 218.5 182.55 219.55 182.25 220.35 182.5 221.45 182.75 222.7 182.55 223.55 182.15 225.25 180.4 226.65 178.9 227.85 178.95 227.95 179.2 228.4 181.3 227.8 183.55 227.2 185.95 225.95 188.9 224.5 190.4 223.3 192.9 221.3 193.05 219.05 193.15 218.6 193 217.8 192.8 216.65 192.05 216.05 Z"/>
</g>

<path id="Layer0_0_MEMBER_0_1_STROKES" stroke="#000000" stroke-width="1" stroke-linejoin="miter" stroke-linecap="butt" stroke-miterlimit="10" fill="none" d="
M 192.45 212.45
Q 199.15 205 204.45 191.45 208.45 181.5 209.45 176.95 211.1 169.55 208.45 165.45 205.75 161.2 197.85 160.3 192.2 159.65 177.45 160.45 151.1 162 132.8 164.55 121.95 166.1 114.5 165.45 91.1 163.45 71.5 158.75 56.55 154.45 56.5 154.45 50.75 152.25 49.1 151.9 45.6 151.05 43.5 152.45 40.2 154.7 39.6 161.8 39 168.85 41.25 178 46.6 199.95 61.5 213.45 72.05 223 88.25 225.95 98.75 227.85 127.45 228.45 151.7 228.95 163.1 227.05 182.4 223.75 192.45 212.45 Z"/>

<path id="Layer0_0_MEMBER_1_1_STROKES" stroke="#75542E" stroke-width="1" stroke-linejoin="miter" stroke-linecap="butt" stroke-miterlimit="10" fill="none" d="
M 209.45 173.45
Q 208.75 173.6 207.8 172.7 206.1 171.05 204.45 169.45 203.75 168.8 200.75 166.15 199.8 165.3 199.45 164.45 198.75 162.5 199.3 160.25 199.85 157.9 201.45 156.45 204.3 153.95 208.85 155.2 213.2 156.4 214.45 159.45 214.95 160.6 214.4 162.75 214 164.2 212.45 168.45 210.7 173.35 209.45 173.45 Z"/>

<path id="Layer0_0_MEMBER_2_1_STROKES" stroke="#75542E" stroke-width="1" stroke-linejoin="miter" stroke-linecap="butt" stroke-miterlimit="10" fill="none" d="
M 166.5 210.5
Q 165.2 207.3 167.25 202.85 167.4 202.5 173.5 191.5 178.9 181.2 181.5 176.55 185.95 168.55 190.5 163.5 195.5 157.85 198.35 158.75
L 198.9 159
Q 199.6 159.4 200.05 160 203.7 164.65 189.5 190.5 180.9 205.95 176.35 211.35 173.05 215.25 170.8 214.85 168.05 214.4 166.5 210.5 Z"/>

<path id="Layer0_0_MEMBER_3_1_STROKES" stroke="#75542E" stroke-width="1" stroke-linejoin="miter" stroke-linecap="butt" stroke-miterlimit="10" fill="none" d="
M 45.5 185.45
Q 44.5 188.05 45.55 191.3 46.2 193.4 48.5 197.45 54.35 207.85 64.5 214.45 72.55 219.7 82.4 222.6 91.65 225.3 92.5 223.45 92.8 222.85 91.05 221.65 88.2 219.9 86.15 218.6 77.35 212.9 71.5 205.45 66.95 199.65 61.75 187.8 58.2 179.85 54.5 179.45 51.85 179.2 49.15 181.1 46.55 182.9 45.5 185.45 Z"/>

<path id="Layer0_0_MEMBER_5_1_STROKES" stroke="#75542E" stroke-width="1" stroke-linejoin="miter" stroke-linecap="butt" stroke-miterlimit="10" fill="none" d="
M 136.45 213.45
Q 136.3 210.8 138.45 207.45
L 150.45 189.45
Q 156.15 182.1 159.7 171.3 161.2 166.75 161.75 165.65 162.85 163.5 164.45 163.45 166.7 163.4 168.85 166.4 170.8 169.15 171.45 172.45 172.05 175.2 170.8 178.65 169.55 182 164.45 191.45 158.6 202.45 156.15 206.15 154.05 209.3 152.45 212.45 149.1 219.2 148.75 219.8 147.25 222.2 145.45 222.45 142.65 222.9 139.7 220 136.65 217 136.45 213.45 Z"/>

<path id="Layer0_0_MEMBER_7_1_STROKES" stroke="#75542E" stroke-width="1" stroke-linejoin="miter" stroke-linecap="butt" stroke-miterlimit="10" fill="none" d="
M 141.45 166.45
Q 138.2 165.85 134.65 168.75 131.05 171.65 130.45 175.45 130.15 177.7 131.6 180.25 132.6 181.95 137.45 188.45
L 155.45 212.45
Q 157.4 215.45 159.65 219 161.3 221.25 163.45 222.45 168.05 225.05 173.75 224.65 179.35 224.2 180.45 221.45 180.95 220.3 180.3 218.75 179.85 217.55 178.45 215.45 174.95 210.1 170.6 205.1 166.1 200.25 164.45 198.45 156.2 189.5 149.45 177.45 146.45 171.5 145.3 169.65 143.6 166.85 141.45 166.45 Z"/>

<path id="Layer0_0_MEMBER_9_1_STROKES" stroke="#75542E" stroke-width="1" stroke-linejoin="miter" stroke-linecap="butt" stroke-miterlimit="10" fill="none" d="
M 147.45 225.45
Q 148.5 223.45 143.2 217.85 133.4 207.45 127.45 199.45 120.1 188.75 117.45 185.4 113.3 180.25 109.5 180.45 107 180.6 104.7 182.4 102.45 184.1 101.5 186.45 100.7 188.5 102.1 192.1 104.35 197.95 112.5 209.45 117.8 216.9 119.8 219.35 122.8 222.95 125.45 224.45 131.6 227.9 138.8 228.2 145.95 228.5 147.45 225.45 Z"/>

<path id="Layer0_0_MEMBER_14_1_STROKES" stroke="#75542E" stroke-width="1" stroke-linejoin="miter" stroke-linecap="butt" stroke-miterlimit="10" fill="none" d="
M 197.45 206.45
Q 196.1 206.4 194.75 204.35 192.95 201 191.45 198.45 188.4 193.3 184.35 188.6 181.35 185.15 175.45 179.45 167.5 172.3 165.3 170.25 161.95 167.15 162.45 165.45 163.3 163 169.45 162.45 174.85 162.05 180.55 165.45 183.85 167.45 189.45 172.45 191.65 174.4 193.65 176.75 194.75 178 197.45 181.45 201.35 186.45 202.5 188.3 204.25 191.1 204.45 193.45 204.9 198 202.45 202.35 200.05 206.55 197.45 206.45 Z"/>

<path id="Layer0_0_MEMBER_15_1_STROKES" stroke="#75542E" stroke-width="1" stroke-linejoin="miter" stroke-linecap="butt" stroke-miterlimit="10" fill="none" d="
M 109.5 226.45
Q 112.5 225.2 114.65 220.8 118.25 212.6 122.5 204.45 132.9 184.6 134.45 182.45 137.3 178.75 137.75 178 138.95 175.95 138.45 174.45 137.55 171.65 132.65 170.6 127.65 169.55 123.5 171.45 121.25 172.55 119.5 174.75 118.6 175.9 116.5 179.45 116.15 180.05 107.4 194.25 102.7 201.85 96.5 214.45 94.8 218.05 94.4 219.55 93.7 221.85 94.5 223.45 95.95 226.35 100.7 227.3 105.4 228.2 109.5 226.45 Z"/>

<path id="Layer0_0_MEMBER_17_1_STROKES" stroke="#75542E" stroke-width="1" stroke-linejoin="miter" stroke-linecap="butt" stroke-miterlimit="10" fill="none" d="
M 59.5 222.45
Q 58.2 220.5 57.85 218.1 57.45 215.55 58.5 214.45 60.05 212.9 65.15 214.9 66.7 215.5 72.5 218.45 85.15 225 103.2 226.2 114.45 226.9 140.45 225.45 156.65 224.6 162.4 223.85 170.7 222.85 175.45 220.45 178.25 219.1 184.6 215.9 190 213.65 192.45 215.45 193.6 216.3 194.15 217.75 194.65 219.1 194.45 220.45 194.1 223.15 190.6 225.35 188.1 226.9 183.45 228.45 160.9 236.05 123.5 235.45 121.75 235.45 118.1 235.2 107.6 234.5 90.5 233.45 87.75 233.3 83.1 232.35 73.8 230.5 64.5 226.45 61.1 224.95 59.5 222.45 Z"/>

<path id="Layer0_0_MEMBER_18_1_STROKES" stroke="#75542E" stroke-width="1" stroke-linejoin="miter" stroke-linecap="butt" stroke-miterlimit="10" fill="none" d="
M 142.45 167.45
Q 158.3 166.5 173.45 164.45 187.5 162.6 198 160.05 206.2 158.05 214.45 157.45 219.25 157.15 220.95 156.9 224.3 156.45 224.45 155.45 224.65 154.3 221.15 152.7 217.55 151.05 213.45 150.45 209.9 149.95 205.8 150.5 203.75 150.8 195.45 152.45 185.45 154.35 180.45 155.45 166.9 158.55 150.45 160.45
L 142.45 167.45 Z"/>

<path id="Layer0_0_MEMBER_20_1_STROKES" stroke="#000000" stroke-width="1" stroke-linejoin="miter" stroke-linecap="butt" stroke-miterlimit="10" fill="none" d="
M 223.45 127.45
Q 225.25 130.55 226.45 134.45 229.65 144.7 226.95 156.3 225.25 163.5 221.45 170.45 218.25 164.3 214.15 160.05 208.35 154 201.45 152.45 198.05 151.7 192.85 152.5 189.2 153.05 179.45 155.45 172 157.3 168.65 158.25 163.45 159.75 159.45 161.45 153 164.25 146.85 169.3 140.15 174.75 130.45 185.45 112.5 205.55 98.5 229.45 77 206.3 51.5 188.45 35.4 177.25 18.5 168.45 22.05 157.9 23.5 147.45 24.85 138.65 25.15 137.4 26.45 132.35 29.5 129.5 32.45 126.7 35.5 126.5 37.85 126.2 40.15 127.1 42.45 127.95 43.5 129.45 44.15 130.4 44.25 131.65 44.35 133.85 44.5 134.45 45.25 137.95 48.15 141.1 50.2 143.4 54.5 146.45 59.6 150.15 64.55 152.55 73.15 156.75 83.5 158.45 95.85 160.5 107.7 160.9 117.3 161.2 130.45 160.45 154 159.15 175.45 153.45 182.7 151.55 187.3 149.6 192.8 147.2 197.45 143.45 205.65 136.9 210.45 127.45 213.15 124.75 216.5 124.5 219.1 124.4 221.4 125.8 222.4 126.4 223.45 127.45 Z"/>
</defs>

<g transform="matrix( 1, 0, 0, 1, 0,0) ">
<use xlink:href="#Layer0_0_MEMBER_0_FILL"/>

<use xlink:href="#Layer0_0_MEMBER_0_1_STROKES"/>
</g>

<g transform="matrix( 1, 0, 0, 1, 0,0) ">
<use xlink:href="#Layer0_0_MEMBER_1_FILL"/>

<use xlink:href="#Layer0_0_MEMBER_1_1_STROKES"/>
</g>

<g transform="matrix( 1, 0, 0, 1, 0,0) ">
<use xlink:href="#Layer0_0_MEMBER_2_FILL"/>

<use xlink:href="#Layer0_0_MEMBER_2_1_STROKES"/>
</g>

<g transform="matrix( 1, 0, 0, 1, 0,0) ">
<use xlink:href="#Layer0_0_MEMBER_3_FILL"/>

<use xlink:href="#Layer0_0_MEMBER_3_1_STROKES"/>
</g>

<g transform="matrix( 1, 0, 0, 1, 0,0) ">
<use xlink:href="#Layer0_0_MEMBER_4_FILL"/>
</g>

<g transform="matrix( 1, 0, 0, 1, 0,0) ">
<use xlink:href="#Layer0_0_MEMBER_5_FILL"/>

<use xlink:href="#Layer0_0_MEMBER_5_1_STROKES"/>
</g>

<g transform="matrix( 1, 0, 0, 1, 0,0) ">
<use xlink:href="#Layer0_0_MEMBER_6_FILL"/>
</g>

<g transform="matrix( 1, 0, 0, 1, 0,0) ">
<use xlink:href="#Layer0_0_MEMBER_7_FILL"/>

<use xlink:href="#Layer0_0_MEMBER_7_1_STROKES"/>
</g>

<g transform="matrix( 1, 0, 0, 1, 0,0) ">
<use xlink:href="#Layer0_0_MEMBER_8_FILL"/>
</g>

<g transform="matrix( 1, 0, 0, 1, 0,0) ">
<use xlink:href="#Layer0_0_MEMBER_9_FILL"/>

<use xlink:href="#Layer0_0_MEMBER_9_1_STROKES"/>
</g>

<g transform="matrix( 1, 0, 0, 1, 0,0) ">
<use xlink:href="#Layer0_0_MEMBER_10_FILL"/>
</g>

<g transform="matrix( 1, 0, 0, 1, 0,0) ">
<use xlink:href="#Layer0_0_MEMBER_11_FILL"/>
</g>

<g transform="matrix( 1, 0, 0, 1, 0,0) ">
<use xlink:href="#Layer0_0_MEMBER_12_FILL"/>
</g>

<g transform="matrix( 1, 0, 0, 1, 0,0) ">
<use xlink:href="#Layer0_0_MEMBER_13_FILL"/>
</g>

<g transform="matrix( 1, 0, 0, 1, 0,0) ">
<use xlink:href="#Layer0_0_MEMBER_14_FILL"/>

<use xlink:href="#Layer0_0_MEMBER_14_1_STROKES"/>
</g>

<g transform="matrix( 1, 0, 0, 1, 0,0) ">
<use xlink:href="#Layer0_0_MEMBER_15_FILL"/>

<use xlink:href="#Layer0_0_MEMBER_15_1_STROKES"/>
</g>

<g transform="matrix( 1, 0, 0, 1, 0,0) ">
<use xlink:href="#Layer0_0_MEMBER_16_FILL"/>
</g>

<g transform="matrix( 1, 0, 0, 1, 0,0) ">
<use xlink:href="#Layer0_0_MEMBER_17_FILL"/>

<use xlink:href="#Layer0_0_MEMBER_17_1_STROKES"/>
</g>

<g transform="matrix( 1, 0, 0, 1, 0,0) ">
<use xlink:href="#Layer0_0_MEMBER_18_FILL"/>

<use xlink:href="#Layer0_0_MEMBER_18_1_STROKES"/>
</g>

<g transform="matrix( 1, 0, 0, 1, 0,0) ">
<use xlink:href="#Layer0_0_MEMBER_19_FILL"/>
</g>

<g transform="matrix( 1, 0, 0, 1, 0,0) ">
<use xlink:href="#Layer0_0_MEMBER_20_FILL"/>

<use xlink:href="#Layer0_0_MEMBER_20_1_STROKES"/>
</g>

<g transform="matrix( 1, 0, 0, 1, 0,0) ">
<use xlink:href="#Layer0_0_MEMBER_21_FILL"/>
</g>

<g transform="matrix( 1, 0, 0, 1, 0,0) ">
<use xlink:href="#Layer0_0_MEMBER_22_FILL"/>
</g>

<g transform="matrix( 1, 0, 0, 1, 0,0) ">
<use xlink:href="#Layer0_0_MEMBER_23_FILL"/>
</g>

<g transform="matrix( 1, 0, 0, 1, 0,0) ">
<use xlink:href="#Layer0_0_MEMBER_24_FILL"/>
</g>

<g transform="matrix( 1, 0, 0, 1, 0,0) ">
<use xlink:href="#Layer0_0_MEMBER_25_FILL"/>
</g>

<g transform="matrix( 1, 0, 0, 1, 0,0) ">
<use xlink:href="#Layer0_0_MEMBER_26_FILL"/>
</g>
</svg>
