
<svg xmlns="http://www.w3.org/2000/svg" version="1.1" xmlns:xlink="http://www.w3.org/1999/xlink" preserveAspectRatio="none" x="0px" y="0px" width="250px" height="250px" viewBox="0 0 250 250">
<defs>
<g id="Layer0_0_MEMBER_0_FILL">
<path fill="#CAA35E" stroke="none" d="
M 218 78.35
Q 214.65 71.45 208.45 62.5 184.1 27.4 146.45 18.5 134.1 15.65 121.05 15.9 98.1 16.35 78.5 26.5 63.85 34.15 52.25 46.7 45.85 53.6 39.5 63.5 35.55 69.75 33.1 74.95 28.8 83.9 26.5 93.5 21.7 114.15 26.5 135.45
L 34.5 120.5
Q 33.65 115.85 33.5 110.5 33.4 101.85 35.95 93.3 37.35 88.4 40.5 81.5 48.3 64.7 63.7 50.45 71.4 43.3 77.5 39.5 105.8 22.2 135.45 25.5 162.9 28.55 185.45 48.5 193.45 55.6 198.85 62.6 208.35 74.95 212.45 89.5 215.85 101.45 215.45 113.5 217.8 116.05 219.45 118.5 222.85 123.6 224.45 129.45 227.1 116.75 225.45 103.5 223.85 90.45 218 78.35 Z"/>
</g>

<g id="Layer0_0_MEMBER_1_FILL">
<path fill="#F3F3F3" stroke="none" d="
M 222.1 142.9
Q 224 139.95 224.45 137.45 225.8 130.65 221.7 122.95 219.5 118.8 216.45 115.5 211.95 110.65 204.6 107.9 196.55 105.6 193.45 104.5 184.8 101.5 173 100.5 155.1 99 121.5 100.5 114.85 100.8 102.85 102.05 96.55 102.7 71.5 105.5 58.55 107 51.85 109.05 41.95 112.1 35.5 118.5 32.65 121.45 31.05 123.75 28.25 127.95 27.5 132.45 27 135.7 27.9 139.55 28.5 142 31.5 151.45 34.6 161.1 36.1 166.2 36.9 168.95 37.5 170.45 44.4 187.75 48.15 195.1 54.3 206.9 61.5 213.45 69.4 220.6 84.95 222.95 95.35 224.55 126.45 225.45 155.2 226.3 165.6 224.95 180.8 222.9 189.45 214.45 193.4 210.65 197.25 204.9 201.6 198.45 204.45 191.45 205.85 188.15 207.75 182.2 209.05 178 212.45 166.45 214.95 158.15 215.05 157.85 216.1 154.55 217.45 151.45 219.3 147.3 222.1 142.9 Z"/>
</g>

<g id="Layer0_0_MEMBER_2_FILL">
<path fill="#DDDDDD" stroke="none" d="
M 209.95 121
Q 209 118.05 205.45 116.15 201.95 114.25 196.95 114 203.2 116.95 203.95 121 205.05 126.35 196.65 133.25 192.15 136.95 184.95 140.95 178 144.9 170.1 147.25 164.95 148.75 157.95 149.95 146.2 151.95 132.65 152.4 108.8 153.2 84 148.95 74.35 147.35 68.95 145.1 61 141.85 57 135.95 53.05 130 54 125 55 119.95 60.5 116.35 66.05 112.65 74 112 62.6 111.9 53 116 47.65 118.35 46 121 43.85 124.65 45.3 130.25 46.05 133.4 47.85 136.7
L 48 136.95
Q 53.05 145.75 68.05 152.25 75.55 155.5 82 156.95 88.85 158.55 96.7 159.05 108.15 159.85 125.95 158.95 147.15 157.95 161.8 155.3 179.5 152.05 190.95 145.95 193.8 144.55 197.15 141.85 203.1 137.1 206.95 130.95 211.15 124.4 209.95 121 Z"/>
</g>

<path id="Layer0_0_MEMBER_0_1_STROKES" stroke="#75542E" stroke-width="1" stroke-linejoin="miter" stroke-linecap="butt" stroke-miterlimit="10" fill="none" d="
M 26.5 135.45
Q 21.7 114.15 26.5 93.5 28.8 83.9 33.1 74.95 35.55 69.75 39.5 63.5 45.85 53.6 52.25 46.7 63.85 34.15 78.5 26.5 98.1 16.35 121.05 15.9 134.1 15.65 146.45 18.5 184.1 27.4 208.45 62.5 214.65 71.45 218 78.35 223.85 90.45 225.45 103.5 227.1 116.75 224.45 129.45 222.85 123.6 219.45 118.5 217.8 116.05 215.45 113.5 215.85 101.45 212.45 89.5 208.35 74.95 198.85 62.6 193.45 55.6 185.45 48.5 162.9 28.55 135.45 25.5 105.8 22.2 77.5 39.5 71.4 43.3 63.7 50.45 48.3 64.7 40.5 81.5 37.35 88.4 35.95 93.3 33.4 101.85 33.5 110.5 33.65 115.85 34.5 120.5
L 26.5 135.45 Z"/>

<path id="Layer0_0_MEMBER_1_1_STROKES" stroke="#000000" stroke-width="1" stroke-linejoin="miter" stroke-linecap="butt" stroke-miterlimit="10" fill="none" d="
M 27.5 132.45
Q 28.25 127.95 31.05 123.75 32.65 121.45 35.5 118.5 41.95 112.1 51.85 109.05 58.55 107 71.5 105.5 96.55 102.7 102.85 102.05 114.85 100.8 121.5 100.5 155.1 99 173 100.5 184.8 101.5 193.45 104.5 196.55 105.6 204.6 107.9 211.95 110.65 216.45 115.5 219.5 118.8 221.7 122.95 225.8 130.65 224.45 137.45 224 139.95 222.1 142.9 219.3 147.3 217.45 151.45 216.1 154.55 215.05 157.85 214.95 158.15 212.45 166.45 209.05 178 207.75 182.2 205.85 188.15 204.45 191.45 201.6 198.45 197.25 204.9 193.4 210.65 189.45 214.45 180.8 222.9 165.6 224.95 155.2 226.3 126.45 225.45 95.35 224.55 84.95 222.95 69.4 220.6 61.5 213.45 54.3 206.9 48.15 195.1 44.4 187.75 37.5 170.45 36.9 168.95 36.1 166.2 34.6 161.1 31.5 151.45 28.5 142 27.9 139.55 27 135.7 27.5 132.45 Z"/>
</defs>

<g transform="matrix( 1, 0, 0, 1, 0,0) ">
<use xlink:href="#Layer0_0_MEMBER_0_FILL"/>

<use xlink:href="#Layer0_0_MEMBER_0_1_STROKES"/>
</g>

<g transform="matrix( 1, 0, 0, 1, 0,0) ">
<use xlink:href="#Layer0_0_MEMBER_1_FILL"/>

<use xlink:href="#Layer0_0_MEMBER_1_1_STROKES"/>
</g>

<g transform="matrix( 1, 0, 0, 1, 0,0) ">
<use xlink:href="#Layer0_0_MEMBER_2_FILL"/>
</g>
</svg>
