
<svg xmlns="http://www.w3.org/2000/svg" version="1.1" xmlns:xlink="http://www.w3.org/1999/xlink" preserveAspectRatio="none" x="0px" y="0px" width="1000px" height="1000px" viewBox="0 0 1000 1000">
<defs>
<g id="Layer0_0_FILL">
<path fill="#FFFFFF" stroke="none" d="
M 875.65 787.1
Q 885.4 777.35 885.4 763.55 885.4 749.75 875.65 740
L 259.75 124.15
Q 250 114.4 236.2 114.4 222.4 114.4 212.65 124.15
L 122.4 214.4
Q 112.65 224.15 112.65 237.95 112.65 251.75 122.4 261.5
L 738.25 877.4
Q 748 887.15 761.8 887.15 775.6 887.15 785.35 877.4
L 875.65 787.1 Z"/>
</g>

<g id="Layer0_1_FILL">
<path fill="#FFFFFF" stroke="none" d="
M 762.95 113.25
Q 749.15 113.25 739.4 123.05
L 123.5 738.9
Q 113.75 748.65 113.75 762.45 113.75 776.25 123.5 786
L 213.8 876.3
Q 223.55 886.05 237.35 886.05 251.1 886.05 260.9 876.3
L 876.75 260.4
Q 886.5 250.65 886.5 236.85 886.5 223.05 876.75 213.3
L 786.5 123.05
Q 776.7 113.25 762.95 113.25 Z"/>
</g>
</defs>

<g transform="matrix( 1, 0, 0, 1, 0,0) ">
<use xlink:href="#Layer0_0_FILL"/>
</g>

<g transform="matrix( 1, 0, 0, 1, 0,0) ">
<use xlink:href="#Layer0_1_FILL"/>
</g>
</svg>
