
<svg xmlns="http://www.w3.org/2000/svg" version="1.1" xmlns:xlink="http://www.w3.org/1999/xlink" preserveAspectRatio="none" x="0px" y="0px" width="1000px" height="1000px" viewBox="0 0 1000 1000">
<defs>
<g id="Layer0_0_FILL">
<path fill="#FFFFFF" stroke="none" d="
M 913.95 115.3
Q 914.3 109.45 910.2 105.25 906.15 101.05 900.25 101.25
L 641.85 109.35
Q 633.1 109.6 629.9 117.75 626.75 125.9 632.95 132.05
L 701.4 199.75
Q 705.5 203.75 705.35 209.5 705.25 215.25 700.95 219.05
L 578.35 329.45
Q 574.2 333.15 573.95 338.7 573.7 344.25 577.5 348.35
L 635.1 410.45
Q 638.8 414.45 644.25 414.7 649.7 414.95 653.75 411.3
L 780.15 297.25
Q 784.1 293.75 789.35 293.85 794.65 294 798.4 297.7
L 876.25 374.65
Q 882.35 380.65 890.35 377.6 898.35 374.55 898.85 366
L 913.95 115.3 Z"/>
</g>

<g id="Layer0_1_FILL">
<path fill="#FFFFFF" stroke="none" d="
M 376.35 138.7
Q 382.4 132.6 379.3 124.6 376.25 116.65 367.7 116.1
L 117.05 101
Q 111.2 100.65 107 104.7 102.75 108.8 102.95 114.65
L 111.05 373.1
Q 111.3 381.85 119.45 385.05 127.6 388.2 133.8 382
L 201.45 313.55
Q 205.5 309.45 211.2 309.6 216.95 309.7 220.8 313.95
L 331.15 436.55
Q 334.85 440.7 340.45 440.95 346 441.2 350.05 437.4
L 412.15 379.8
Q 416.15 376.15 416.4 370.7 416.65 365.25 413 361.2
L 299 234.8
Q 295.45 230.85 295.55 225.6 295.7 220.3 299.4 216.55
L 376.35 138.7 Z"/>
</g>

<g id="Layer0_2_FILL">
<path fill="#FFFFFF" stroke="none" d="
M 658.3 582.75
Q 654.35 579 648.9 579.1 643.45 579.2 639.65 583.1
L 580.45 643.65
Q 576.6 647.65 576.7 653.2 576.8 658.8 580.8 662.6
L 700.5 776.1
Q 704.65 780.1 704.65 785.8 704.65 791.5 700.45 795.45
L 630.25 861.3
Q 623.9 867.3 626.85 875.55 629.85 883.8 638.6 884.3
L 896.7 899.05
Q 902.55 899.4 906.75 895.3 910.95 891.2 910.75 885.35
L 902.15 634.35
Q 901.85 625.8 893.95 622.55 886 619.25 879.75 625.15
L 799.95 700.05
Q 796.1 703.65 790.8 703.65 785.5 703.65 781.7 700
L 658.3 582.75 Z"/>
</g>

<g id="Layer0_3_FILL">
<path fill="#FFFFFF" stroke="none" d="
M 131.65 615.3
Q 123.4 618.15 122.7 626.9
L 103.4 884.7
Q 103 890.55 107 894.8 111 899.05 116.9 898.95
L 367.95 894.75
Q 376.55 894.65 379.95 886.8 383.35 878.95 377.6 872.55
L 304.1 791.45
Q 300.55 787.55 300.65 782.25 300.75 777 304.45 773.2
L 423.85 651.9
Q 427.7 648 427.7 642.55 427.7 637.1 423.85 633.2
L 364.3 573
Q 360.4 569.05 354.85 569.05 349.3 569.05 345.4 573
L 229.8 690.7
Q 225.75 694.8 220.05 694.65 214.3 694.55 210.45 690.3
L 145.8 618.95
Q 139.95 612.45 131.65 615.3 Z"/>
</g>
</defs>

<g transform="matrix( 1, 0, 0, 1, 0,0) ">
<use xlink:href="#Layer0_0_FILL"/>
</g>

<g transform="matrix( 1, 0, 0, 1, 0,0) ">
<use xlink:href="#Layer0_1_FILL"/>
</g>

<g transform="matrix( 1, 0, 0, 1, 0,0) ">
<use xlink:href="#Layer0_2_FILL"/>
</g>

<g transform="matrix( 1, 0, 0, 1, 0,0) ">
<use xlink:href="#Layer0_3_FILL"/>
</g>
</svg>
