
<svg xmlns="http://www.w3.org/2000/svg" version="1.1" xmlns:xlink="http://www.w3.org/1999/xlink" preserveAspectRatio="none" x="0px" y="0px" width="1000px" height="1000px" viewBox="0 0 1000 1000">
<defs>
<g id="Layer0_0_FILL">
<path fill="#FFFFFF" stroke="none" d="
M 665.75 229.1
Q 664.7 222.7 656.2 224.1 647.95 225.45 639.15 233.05 629.35 241.5 625.3 252.85 625.85 247.5 624.4 245.2 623.1 243.1 620.5 244.05 614.55 246.25 610 257.75 609.9 250.4 605.3 251.6 601.35 252.65 595.05 259.4 589.4 265.4 584.55 272.95 579.65 280.45 579.05 284.1 579.7 273.95 576.85 271.5 574.4 269.4 570.25 273.45 566.3 277.35 563.3 284.25 560.05 291.75 560 298.3 554.85 287.4 548.85 293.7 543.25 299.6 540.55 315.4 537.7 332.1 540.45 347.55 543.7 365.6 553.9 374.4 536.35 375.8 517.65 382.8 496.55 390.75 479.95 403.9 470.8 365.75 451.85 255.65 462.8 257.45 468.5 253.65 473.35 250.35 472.2 245.35 471.05 240.3 465.2 239.1 458.4 237.65 449.65 243.25 447.1 229.5 446.5 226.4 459 222.1 464.35 215 468.95 208.85 466.65 203.7 464.35 198.65 457.8 199.2 450.35 199.8 442.35 208.05 438.7 193.85 431.85 187.05 425.15 180.45 412.45 177.95 423.45 155.25 420.45 128.2 417.6 102.65 403.1 79.75 388.5 56.7 366.5 43.4 342.9 29.15 316.6 29.9 301.1 28.7 291.6 35.9 282.9 42.55 283.1 52.75 283.3 63.3 293.1 71.25 304.15 80.25 323.65 82.15 335.05 87.8 341.2 93.25 349.85 101 352 111 316.05 98.45 288.7 112.8 277.55 118.7 269.45 128.4 262.15 137.15 258.85 147.15 255.7 156.7 257.2 164.1 258.75 171.8 264.8 174.35 279.5 180.6 308.9 154.85 318.85 149.55 329.2 147.9 338.85 146.35 351.8 147.55 332.9 150.55 320.3 160.8 309.3 169.7 306.5 180.85 303.75 191.55 310 197.5 316.7 203.95 330.4 200.45 336.6 197.8 341.65 192.25 344.35 189.25 348.1 184.55 351 181.7 354 183.6 357.5 185.8 363.7 195.55 356.1 203.25 348.9 213.55 335.4 206.7 313.5 223.1 305.2 229.3 297.3 237.8 290.45 245.15 286.6 251.15 293.05 251.4 300.85 253.3 310.4 255.65 317.3 259.6 313.7 266.4 302.25 282.45 290.85 298.45 286.7 306.35 279.9 319.2 281.6 327.1 283.7 336.65 298.1 340.6 286.85 401.7 259.3 475.85 252.25 494.85 239.45 528.75 229.45 556.45 225.15 575.1 208.5 646.45 229.35 704.5 246.3 751.65 288.7 791.15 316.9 817.45 364.9 846.5 376.9 853.75 397.35 866.05 413 875.8 419.7 882.05 428.5 903.45 414.35 915.1 405.95 922 385.4 926.85 382.05 927.8 379.25 931.7 376.6 935.4 375.8 939.85 374.95 944.55 376.8 947.55 378.9 951.05 384 951.15 386.3 939.95 393.95 934.35 397.35 931.85 400.45 931.9 403.8 931.9 405.85 934.75 407.7 958.5 409.6 965.9 411.25 972.4 413.5 967.8 414.9 965 418.35 952.45 422.25 938.45 424.85 931.8 435.85 920.4 439.4 927.6 441.45 931.65 442.4 943.55 450.9 934.1 450.35 925.7 450 919.95 444.25 911.25 437.15 900.45 435.5 896 431.95 886.25 435.55 875.7 462.8 862.6 491.3 855.2 505.7 851.45 508.7 850.5 516.8 847.9 522.4 844.15 526.2 849.75 533.6 861 540.45 870.5 547.75 876.35 547.2 909.6 536.6 919.4 534.1 921.75 530.1 923.85 527.65 925.6 528.6 929.25 531.35 932.5 538.1 930.65 541.65 929.65 546.05 927.7 546.5 928.65 544.9 942.95 544.4 957.85 550.3 962.55 553.55 966.8 554.8 963.05 555.7 960.45 555.85 951.7 556.1 939.9 556.35 937.05 557 929.4 559.15 927.8 565.2 925.7 572.35 941.65 576.95 951.95 576.95 952 579.15 956.25 580.5 954.7 586.8 945.8 583.05 935.95 580.7 929.65 571.55 918.8 561.85 907.25 559.4 902.15 554.95 892.8 560.05 884.9 620.3 887.85 660.85 838.8 670.4 827.25 685.9 802.55 697.5 784 702.85 781.15 750.2 736.85 768.25 689.9 776.4 668.7 779.9 644.2 782.9 623.25 782.95 595.9 775.35 545.25 755.85 506.2 732.15 458.8 685.6 415.65 697.55 413.05 706.85 403.3 714.7 395.05 719.05 383.7 722.95 373.5 722.2 366.2 721.5 358.8 716.4 360.2 716.05 359.1 715.45 358.8 716.35 357.45 717.05 351.25 717.8 344.55 717.45 338.35 716.5 320.95 708.25 324.85 707.35 324.25 706.7 325.05 706.55 325.25 704.6 328.85 706.5 312.4 706.65 303.6 706.95 287.7 700.35 285.85 700.35 275.95 698.95 269.85 696.25 258.25 689.1 261.2 690.9 254.4 689.15 245.75 687.3 236.9 683 232.5 678 227.5 671.85 231.15 667.845703125 233.48125 663.75 239.3 666.4015625 233.1181640625 665.75 229.1 Z"/>
</g>
</defs>

<g transform="matrix( 1, 0, 0, 1, 0,0) ">
<use xlink:href="#Layer0_0_FILL"/>
</g>
</svg>
