
<svg xmlns="http://www.w3.org/2000/svg" version="1.1" xmlns:xlink="http://www.w3.org/1999/xlink" preserveAspectRatio="none" x="0px" y="0px" width="1000px" height="1000px" viewBox="0 0 1000 1000">
<defs>
<g id="Layer0_0_FILL">
<path fill="#FFFFFF" stroke="none" d="
M 793.4 40.75
Q 783.65 30.95 769.85 30.95
L 642.2 30.95
Q 628.4 30.95 618.65 40.75 608.9 50.5 608.9 64.3
L 608.9 935.25
Q 608.9 949.05 618.65 958.8 628.4 968.55 642.2 968.55
L 769.85 968.55
Q 783.65 968.55 793.4 958.8 803.15 949.05 803.15 935.25
L 803.15 64.3
Q 803.15 50.5 793.4 40.75 Z"/>
</g>

<g id="Layer0_1_FILL">
<path fill="#FFFFFF" stroke="none" d="
M 380.5 40.6
Q 370.75 30.85 356.95 30.85
L 229.3 30.85
Q 215.5 30.85 205.75 40.6 196 50.35 196 64.15
L 196 935.15
Q 196 948.95 205.75 958.7 215.5 968.45 229.3 968.45
L 356.95 968.45
Q 370.75 968.45 380.5 958.7 390.25 948.95 390.25 935.15
L 390.25 64.15
Q 390.25 50.35 380.5 40.6 Z"/>
</g>
</defs>

<g transform="matrix( 1, 0, 0, 1, 0,0) ">
<use xlink:href="#Layer0_0_FILL"/>
</g>

<g transform="matrix( 1, 0, 0, 1, 0,0) ">
<use xlink:href="#Layer0_1_FILL"/>
</g>
</svg>
