
<svg xmlns="http://www.w3.org/2000/svg" version="1.1" xmlns:xlink="http://www.w3.org/1999/xlink" preserveAspectRatio="none" x="0px" y="0px" width="1000px" height="1000px" viewBox="0 0 1000 1000">
<defs>
<g id="Layer0_0_FILL">
<path fill="#FFFFFF" stroke="none" d="
M 377.95 311.55
Q 375.1685546875 313.1861328125 372.3 317.25 374.134765625 312.9509765625 373.65 310.15 372.9 305.6 366.95 306.6 361.15 307.55 355 312.85 348.1 318.8 345.25 326.8 346.05 319.1 341.85 320.65 337.7 322.2 334.45 330.25 334.4 325.1 331.15 325.95 328.4 326.65 323.95 331.4 320 335.65 316.55 340.95 313.15 346.25 312.7 348.8 313.15 341.65 311.15 339.95 309.45 338.45 306.55 341.3 303.75 344.05 301.65 348.9 299.35 354.15 299.35 358.8 295.7 351.1 291.5 355.55 287.55 359.65 285.65 370.75 283.65 382.5 285.6 393.35 287.9 406.05 295.05 412.25 282.7 413.25 269.6 418.15 254.75 423.75 243.05 433 236.4 405.15 223.3 328.75 231 330 235 327.35 238.45 325.05 237.6 321.5 236.8 318 232.7 317.15 227.9 316.15 221.75 320.1
L 219.55 308.25
Q 228.35 305.2 232.1 300.2 235.3 295.9 233.7 292.25 232.1 288.7 227.5 289.1 222.25 289.5 216.65 295.3 214.05 285.35 209.2 280.55 204.55 275.95 195.6 274.2 203.35 258.25 201.25 239.25 199.25 221.25 189.05 205.15 178.8 188.95 163.3 179.6 146.75 169.6 128.25 170.1 117.35 169.25 110.7 174.3 104.55 178.95 104.7 186.15 104.8 193.55 111.7 199.15 119.45 205.45 133.15 206.8 141.2 210.8 145.55 214.65 151.65 220.05 153.15 227.1 127.9 218.25 108.65 228.35 92.9 236.65 87.65 252.5 85.45 259.2 86.5 264.45 87.6 269.85 91.85 271.65 102.2 276 122.85 257.9 129.85 254.2 137.1 253.05 143.9 251.95 153 252.8 139.7 254.9 130.85 262.1 123.1 268.4 121.1 276.2 119.2 283.75 123.55 287.9 128.3 292.4 137.95 289.95 142.3 288.1 145.85 284.2 149.1 280.05 150.35 278.8 152.4 276.8 154.55 278.1 157 279.7 161.35 286.55 156.15 291.75 150.95 299.2 141.45 294.4 126.05 305.9 114 314.95 107.15 325.6 111.7 325.8 117.15 327.15 123.9 328.8 128.75 331.6 126.2 336.35 118.15 347.65 110.15 358.85 107.2 364.4 102.45 373.45 103.65 379.05 105.1 385.75 115.25 388.5 107.3 431.4 87.95 483.6 83 496.95 74 520.75 66.95 540.25 63.95 553.35 42.8 643.85 108.65 705.2 128.5 723.7 162.2 744.15 170.6 749.25 185 757.85 196 764.7 200.7 769.1 206.9 784.15 196.95 792.35 191.05 797.15 176.6 800.6 174.25 801.25 172.25 804 170.4 806.6 169.85 809.75 169.3 813.05 170.55 815.2 172.05 817.6 175.6 817.7 177.25 809.85 182.6 805.9 187.95 802 190.95 806.2 192.25 822.9 193.6 828.05 194.8 832.65 196.4 829.4 197.35 827.45 199.8 818.6 202.55 808.75 204.35 804.1 212.05 796.1 214.55 801.15 215.95 804 216.65 812.35 222.6 805.7 222.25 799.8 222 795.75 217.95 789.65 212.95 782.05 211.8 778.9 209.3 772.05 211.85 764.65 231 755.45 251.05 750.25 261.1 747.6 263.25 746.95 268.95 745.1 272.9 742.45 275.55 746.4 280.8 754.3 285.55 761 290.75 765.1 290.35 788.45 282.9 795.35 281.1 797 278.35 798.5 276.6 799.75 277.3 802.3 279.2 804.6 283.95 803.25 286.4 802.6 289.5 801.2 289.85 801.85 288.7 811.9 288.35 822.4 292.5 825.7 294.8 828.7 295.7 826.05 296.3 824.2 296.45 818.05 296.75 802.75 298.75 801.25 303 799.8 308 811.05
L 311.25 818.3
Q 312.8 821.3 313.75 820.2 318.15 813.95 315.55 807 313.85 802.55 307.45 794.95 300.6 786.8 298.9 783.25 295.75 776.65 299.35 771.1 341.75 773.2 370.25 738.75 376.95 730.6 387.8 713.25 396 700.2 399.75 698.2 433.05 667.05 445.75 634.05 456 607.3 456.05 567.95 450.7 532.35 437 504.9 420.35 471.6 387.65 441.25 396.05 439.45 402.55 432.55 408.1 426.75 411.15 418.8 413.85 411.6 413.35 406.5 412.85 401.25 409.25 402.25 409.05 401.5 408.6 401.3 409.25 400.35 409.7 396 410.25 391.3 410 386.9 409.35 374.7 403.55 377.45 402.9 377 402.45 377.6 402.35 377.75 400.95 380.25 402.3 368.7 402.4 362.5 402.65 351.3 398 350 398 343.05 397 338.8 395.15 330.65 390.1 332.7 391.35 327.9 390.1 321.8 388.8 315.6 385.8 312.5 382.3 309 377.95 311.55 Z"/>
</g>

<g id="Layer0_1_FILL">
<path fill="#FFFFFF" stroke="none" d="
M 702.2 280.55
Q 697.55 275.95 688.6 274.2 696.35 258.25 694.25 239.25 692.25 221.25 682.05 205.15 671.8 188.95 656.3 179.6 639.75 169.6 621.25 170.1 610.35 169.25 603.7 174.3 597.55 178.95 597.7 186.15 597.8 193.55 604.7 199.15 612.45 205.45 626.15 206.8 634.2 210.8 638.55 214.65 644.65 220.05 646.15 227.1 620.9 218.25 601.65 228.35 585.9 236.65 580.65 252.5 578.45 259.2 579.5 264.45 580.6 269.85 584.85 271.65 595.2 276 615.85 257.9 622.85 254.2 630.1 253.05 636.9 251.95 646 252.8 632.7 254.9 623.85 262.1 616.1 268.4 614.1 276.2 612.2 283.75 616.55 287.9 621.3 292.4 630.95 289.95 635.3 288.1 638.85 284.2 640.75 282.1 643.35 278.8 645.4 276.8 647.55 278.1 650 279.7 654.35 286.55 649.15 291.75 643.95 299.2 634.45 294.4 619.05 305.9 607 314.95 600.15 325.6 604.7 325.8 610.15 327.15 616.9 328.8 621.75 331.6 619.2 336.35 611.15 347.65 603.15 358.85 600.2 364.4 595.45 373.45 596.65 379.05 598.1 385.75 608.25 388.5 600.3 431.4 580.95 483.6 576 496.95 567 520.75 559.95 540.25 556.95 553.35 535.8 643.85 601.65 705.2 621.5 723.7 655.2 744.15 663.6 749.25 678 757.85 689 764.7 693.7 769.1 699.9 784.15 689.95 792.35 684.05 797.15 669.6 800.6 667.25 801.25 665.25 804 663.4 806.6 662.85 809.75 662.3 813.05 663.55 815.2 665.05 817.6 668.6 817.7 670.25 809.85 675.6 805.9 680.95 802 683.95 806.2 685.25 822.9 686.6 828.05 687.8 832.65 689.4 829.4 690.35 827.45 692.8 818.6 695.55 808.75 697.35 804.1 705.05 796.1 707.55 801.15 708.95 804 709.65 812.35 715.6 805.7 715.25 799.8 715 795.75 710.95 789.65 705.95 782.05 704.8 778.9 702.3 772.05 704.85 764.65 724 755.45 744.05 750.25 754.1 747.6 756.25 746.95 761.95 745.1 765.9 742.45 768.55 746.4 773.8 754.3 778.55 761 783.75 765.1 783.35 788.45 775.9 795.35 774.1 797 771.35 798.5 769.6 799.75 770.3 802.3 772.2 804.6 776.95 803.25 779.4 802.6 782.5 801.2 782.85 801.85 781.7 811.9 781.35 822.4 785.5 825.7 787.8 828.7 788.7 826.05 789.3 824.2 789.45 818.05 789.75 802.75 791.75 801.25 796 799.8 801 811.05
L 804.25 818.3
Q 805.8 821.3 806.75 820.2 811.15 813.95 808.55 807 806.85 802.55 800.45 794.95 793.6 786.8 791.9 783.25 788.75 776.65 792.35 771.1 834.75 773.2 863.25 738.75 869.95 730.6 880.8 713.25 889 700.2 892.75 698.2 926.05 667.05 938.75 634.05 949 607.3 949.05 567.95 943.7 532.35 930 504.9 913.35 471.6 880.65 441.25 889.05 439.45 895.55 432.55 901.1 426.75 904.15 418.8 906.85 411.6 906.35 406.5 905.85 401.25 902.25 402.25 902.05 401.5 901.6 401.3 902.25 400.35 902.7 396 903.25 391.3 903 386.9 902.35 374.7 896.55 377.45 895.9 377 895.45 377.6 895.35 377.75 893.95 380.25 895.3 368.7 895.4 362.5 895.65 351.3 891 350 891 343.05 890 338.8 888.15 330.65 883.1 332.7 884.35 327.9 883.1 321.8 881.8 315.6 878.8 312.5 875.3 309 870.95 311.55 868.1685546875 313.1861328125 865.3 317.25 867.134765625 312.9509765625 866.65 310.15 865.9 305.6 859.95 306.6 854.15 307.55 848 312.85 841.1 318.8 838.25 326.8 839.05 319.1 834.85 320.65 830.7 322.2 827.45 330.25 827.4 325.1 824.15 325.95 821.4 326.65 816.95 331.4 813 335.65 809.55 340.95 806.15 346.25 805.7 348.8 806.15 341.65 804.15 339.95 802.45 338.45 799.55 341.3 796.75 344.05 794.65 348.9 792.35 354.15 792.35 358.8 788.7 351.1 784.5 355.55 780.55 359.65 778.65 370.75 776.65 382.5 778.6 393.35 780.9 406.05 788.05 412.25 775.7 413.25 762.6 418.15 747.75 423.75 736.05 433 729.4 405.15 716.3 328.75 724 330 728 327.35 731.45 325.05 730.6 321.5 729.8 318 725.7 317.15 720.9 316.15 714.75 320.1
L 712.55 308.25
Q 721.35 305.25 725.1 300.2 728.3 295.9 726.7 292.25 725.1 288.7 720.5 289.1 715.25 289.5 709.65 295.3 707.05 285.35 702.2 280.55 Z"/>
</g>
</defs>

<g transform="matrix( 1, 0, 0, 1, 0,0) ">
<use xlink:href="#Layer0_0_FILL"/>
</g>

<g transform="matrix( 1, 0, 0, 1, 0,0) ">
<use xlink:href="#Layer0_1_FILL"/>
</g>
</svg>
